<svg xmlns="http://www.w3.org/2000/svg" width="148.475" height="192.859" viewBox="0 0 148.475 192.859">
  <g id="Group_696" data-name="Group 696" transform="translate(-117.75 -561.072) rotate(9)">
    <g id="Group_690" data-name="Group 690" transform="translate(222.236 532.868)">
      <path id="Path_706" data-name="Path 706" d="M340.372,596.73c1.663-1.107,3.645-2.576,5.307-3.683a2.026,2.026,0,0,1,1.614-.467c.327.1-.219.866-.567,1.2a4.656,4.656,0,0,0-.977,1.038.306.306,0,0,0,0,.371.393.393,0,0,0,.17.084,2.816,2.816,0,0,0,1.219.039c2.047-.364,4.123-.634,6.216-.81a5.162,5.162,0,0,1,.759,0,.457.457,0,0,1,.407.179.276.276,0,0,1-.028.3,1.028,1.028,0,0,1-.616.3,24.985,24.985,0,0,0-4.02,1.184c.056.106,4.068-.912,5.525-.739a.357.357,0,0,1,.322.248c.029.138-.091.21-.2.268-1.084.553-5.072,1.647-4.858,1.692,1.316.277,3.52-.944,4.969-.639.208.044.388.108.445.28.21.681-5.277,1.727-5.132,1.833.253.184,3.2-.086,3.974.064a.422.422,0,0,1,.344.279c.044.168-.1.267-.244.334a3.446,3.446,0,0,1-.539.188,46.473,46.473,0,0,1-12.175,1.909c-.107,0-1,.065-1.1.055-1.044-.11-.06-.59-.106-.651-.714-.935-.382-1.644-.395-2.732-.012-.886.253-.936-.312-1.7" transform="translate(-214.273 -528.846)" fill="#f3e8dc"/>
      <path id="Path_707" data-name="Path 707" d="M231.5,547.073c.294-1.975.778-4.395,1.072-6.369a2.031,2.031,0,0,0-.265-1.66c-.233-.252-.69.567-.842,1.024a4.684,4.684,0,0,1-.523,1.325c-.08.107-.2.206-.336.155a.394.394,0,0,1-.149-.118,2.839,2.839,0,0,1-.555-1.086q-.813-3.012-1.914-5.968a5.093,5.093,0,0,0-.322-.689c-.076-.138-.169-.281-.334-.292a.276.276,0,0,0-.264.155,1.027,1.027,0,0,0-.006.684,25.038,25.038,0,0,1,.642,4.14c-.12-.005-.908-4.068-1.685-5.314a.359.359,0,0,0-.361-.187c-.138.034-.152.173-.156.3-.038,1.216.67,5.29.538,5.115-.811-1.073-.645-3.588-1.538-4.767-.128-.17-.263-.306-.442-.285-.706.1.685,5.511.527,5.425-.273-.151-1.285-2.931-1.749-3.568a.426.426,0,0,0-.4-.192c-.17.032-.2.2-.2.363a3.434,3.434,0,0,0,.06.568,46.452,46.452,0,0,0,3.459,11.828c.046.1.365.931.418,1.019.545.9.56-.2.635-.181,1.15.248,1.65-.354,2.64-.806.806-.367.739-.629,1.675-.444" transform="translate(-222.236 -532.868)" fill="#f3e8dc"/>
      <path id="Path_708" data-name="Path 708" d="M309.693,651.752a42.917,42.917,0,0,1,4.317-1.794.554.554,0,0,1,.8.282,30.842,30.842,0,0,1,2.1,3.582,37.442,37.442,0,0,0-5.706,2.728,16.588,16.588,0,0,0-1.739-4.507" transform="translate(-216.356 -524.981)" fill="#f3e8dc"/>
      <path id="Path_709" data-name="Path 709" d="M313.394,650.314a26.624,26.624,0,0,0,1.953,3.389,2.616,2.616,0,0,0,.555.693,3.239,3.239,0,0,0,1.617.478c4.389.62,8.072,4.291,12.5,4.206.658-1.158-.273-2.57-1.259-3.465-2.27-2.055-5.07-3.407-7.708-4.961a8.748,8.748,0,0,1-2.74-2.213c-.552-.757-1.016-1.773-1.943-1.905a2.087,2.087,0,0,0-1.955,1.411,13.262,13.262,0,0,1-1.024,2.367" transform="translate(-216.092 -525.207)" fill="#5c0c0c"/>
      <path id="Path_710" data-name="Path 710" d="M241.924,696.742q-.1,1.945-.193,3.89l4.9.213a.494.494,0,0,0,.617-.6l.149-3.866a34.422,34.422,0,0,0-5.842.609" transform="translate(-220.934 -521.847)" fill="#f3e8dc"/>
      <path id="Path_711" data-name="Path 711" d="M242.2,699.312c-1.416.884-1.947,2.639-2.638,4.158a15.064,15.064,0,0,1-5.086,6.105c-.714.5-1.583,1.2-1.336,2.031a1.335,1.335,0,0,0,1.2.849,3.914,3.914,0,0,0,1.525-.284,20.367,20.367,0,0,0,5.334-2.355c1.944-1.349,3.444-3.38,5.648-4.244.975-.381,2.154-.6,2.672-1.505a2.779,2.779,0,0,0-.285-2.663,11.247,11.247,0,0,1-1.326-2.457,16.389,16.389,0,0,1-5.629.513" transform="translate(-221.504 -521.674)" fill="#5c0c0c"/>
      <path id="Path_712" data-name="Path 712" d="M255.375,625.514c-1.421,1.106-.441,3.6,1.22,4.3s3.545.263,5.337.1c5.284-.489,10.575,1.437,15.854.905,3.17-.319,6.188-1.511,9.328-2.045,2.677-.454,5.77-.6,7.45-2.733a2.006,2.006,0,0,0,.073-2.061c-.281-.531-.581-.627-1.156-.8-6.442-1.949-12.981-3.914-19.71-4.077s-13.788,1.7-18.552,6.45c-.362.361-.364,1.282.095,1.057" transform="translate(-220.048 -527.057)" fill="#a30f17"/>
      <path id="Path_713" data-name="Path 713" d="M259.3,623.124c-4.462,7.894-10.724,16.6-16.086,23.916a10.748,10.748,0,0,0-2.755,7.706c-.728,15.646-1.454,31.351-.033,46.949a18.335,18.335,0,0,0,8.333.8q1.916-21.77,3.831-43.54a5.9,5.9,0,0,1,2.107-4.585l15.221-16.32c.531-.568,1.4-1.17,1.992-.667a1.447,1.447,0,0,1,.4.87c.536,2.83-.063,5.733-.519,8.577a78.248,78.248,0,0,0-.678,20.135c.385,3.856,1.531,8.281,5.084,9.826,3.316,1.441,7.069-.346,10.254-2.057q14.613-7.848,29.754-14.661a25.871,25.871,0,0,0-1.7-7.961,166.778,166.778,0,0,1-29.75,10.372,1.937,1.937,0,0,1-1.186.036c-.857-.352-.767-1.585-.491-2.469,1.361-4.344,3.61-8.363,5.06-12.679A36.8,36.8,0,0,0,288,623.726a2.851,2.851,0,0,0-.96-1.528,2.931,2.931,0,0,0-1.4-.353,139.14,139.14,0,0,0-21.715.009c-2.1.165-4.907-1.009-5.031,1.1" transform="translate(-221.065 -526.899)" fill="#410d0e"/>
      <path id="Path_714" data-name="Path 714" d="M282.639,555.363c-1.231-.4-5.916.364-6.581-.338a12.455,12.455,0,0,0-2.559-1.861c-1.74.514-3.525.854-5.245,1.512-3.406,1.3-7.406,5.833-7.7,9.551a.515.515,0,0,1-.044.153c0,.012,0,.023.008.034.522,2.135,1.232,6.072,1.406,6.04,1.429.821,1.868,2.687,3.264,3.61a22.957,22.957,0,0,0,2.529,1.068c1.585.787,2.425,2.328,3.2,3.851a.331.331,0,0,0,.49.116l1.231-.9c2.359-1.725,4.4-3.01,5.332-5.945.856-2.71,5-13.306,4.877-16.629A.285.285,0,0,0,282.639,555.363Z" transform="translate(-219.656 -531.5)" fill="#040405"/>
      <path id="Path_715" data-name="Path 715" d="M263,563.568a24.291,24.291,0,0,0-.241,10.772,6.654,6.654,0,0,0,1.506,3.391,2.777,2.777,0,0,0,3.413.581c-.1,1.743-.205,4.677-.306,6.419,0,0-.849.263-1.154.354a34.041,34.041,0,0,1-11.481,1.4c2.418,3.33,5.175,6.894,9.181,7.839a14.814,14.814,0,0,0,4.541.186,50.142,50.142,0,0,0,16.611-4.227c-5-1.143-10.089-2.917-13.482-5.312.155-3.7.374-6.787.708-10.473a2.289,2.289,0,1,0,.6-4.511,16.253,16.253,0,0,0-.648-6.631c-.818-2.084-2.787-3.887-5.022-3.78s-4.031,2.1-4.693,4.256" transform="translate(-220.045 -531.068)" fill="#f3e8dc"/>
      <path id="Path_716" data-name="Path 716" d="M264.7,583.539c.312,1.057,2.27,5.223,6.934,5.223a16.746,16.746,0,0,0,8.02-2.332s4.713,1.616,5.216,1.822l19.622,8.01-1.368,9.479c-4.168.313-8.872-.959-11.8,2.356a7.169,7.169,0,0,0-1.663,4.716c-.027,3.346,1.587,6.267,3.168,9.1l2.881,5.154c-.753-1.345-8.141-.564-12.243-.853-3.035-.215-6.082.187-9.124.1-3.2-.086-6.381-.708-9.583-.651s-7.076,1.267-9.261,3.609c-2.008-8.448,2.835-18.205-.679-26.148-2.555-5.776-8.626-9.171-12.151-14.411l7.078-8.419a7.143,7.143,0,0,0,6.166,3.792C258.762,584.1,264.7,583.539,264.7,583.539Z" transform="translate(-220.858 -529.671)" fill="#d2111c"/>
      <path id="Path_717" data-name="Path 717" d="M300.522,595.533c15.066,2.984,28.748,2.3,43.957,0-.144,1.33-.027,4.908-.171,6.238-11.96,2.454-19.959,2.631-32.214,2.883-3.016.062-8.557.029-11.483-.64q.024-4.135.05-8.27" transform="translate(-216.959 -528.644)" fill="#f3e8dc"/>
      <path id="Path_718" data-name="Path 718" d="M250.2,583.289c-9.848-10.568-15.118-23.707-18.982-37.626-1.735.665-3.274.378-5.008,1.043a1.083,1.083,0,0,0-.4.671c.3,2.824,9.73,27.758,10.742,29.924,1.969,4.213,3.987,8.5,7.14,11.916.252.273.574.563.941.5a1.161,1.161,0,0,0,.513-.289l6.015-4.913-1.045-1.5" transform="translate(-221.995 -532.006)" fill="#f3e8dc"/>
      <path id="Path_719" data-name="Path 719" d="M273.763,559.2a9.816,9.816,0,0,0-8.075-2.166,7.276,7.276,0,0,0-1.05.279c-.044.094-.081.19-.128.284a.5.5,0,0,1,.191.851c-.618.562-1.212,1.149-1.8,1.741a.513.513,0,0,1-.526.116,20.952,20.952,0,0,0-1.1,2.983.433.433,0,0,1,.044.253,3,3,0,0,1-.141.649c.026.32.049.639.08.96.026.15.038.3.061.455.73-.354,1.313-1,2.073-1.3a3.137,3.137,0,0,1,3.648,1.459c.56.934.89,2.24,1.953,2.48.937.212,1.869-.605,2.813-.427,1.157.218,1.647,1.765,2.784,2.07a1.908,1.908,0,0,0,1.965-.857,4.055,4.055,0,0,0,.581-2.179A9.815,9.815,0,0,0,273.763,559.2Z" transform="translate(-219.611 -531.25)" fill="#040405"/>
      <path id="Path_720" data-name="Path 720" d="M240.459,586.329c.228.748,2.068,4.225,2.068,4.225s7.332-5.865,10.075-7.981a14.278,14.278,0,0,0-2.468-2.841c-.114-.089-6.667,4.508-9.675,6.6" transform="translate(-221.008 -529.709)" fill="#a30f17"/>
      <path id="Path_721" data-name="Path 721" d="M297.777,593.329c.011,4.555.683,12.938.75,12.973s-.059.015,0,0c.667-.174,3.852-.734,3.852-.734s-.073-7.591-.486-11.085c-.985-.341-3.132-.811-4.117-1.154" transform="translate(-217.144 -528.793)" fill="#a30f17"/>
    </g>
    <g id="Group_691" data-name="Group 691" transform="translate(307.83 538.219)">
      <path id="Path_722" data-name="Path 722" d="M322.979,559.92a3.353,3.353,0,1,0-2.08-4.261A3.358,3.358,0,0,0,322.979,559.92Zm1.135-3.3a.137.137,0,1,1-.174.085A.136.136,0,0,1,324.113,556.62Z" transform="translate(-301.193 -536.836)" fill="#d2111c"/>
      <path id="Path_723" data-name="Path 723" d="M315.881,549.158a5.8,5.8,0,1,0-3.6-7.365A5.8,5.8,0,0,0,315.881,549.158Zm2.633-7.661a2.305,2.305,0,1,1-2.93,1.43A2.308,2.308,0,0,1,318.514,541.5Z" transform="translate(-301.782 -537.881)" fill="#a30f17"/>
      <path id="Path_724" data-name="Path 724" d="M307.885,577.45a8.088,8.088,0,1,0-5.019-10.279A8.1,8.1,0,0,0,307.885,577.45Zm4.124-12a4.6,4.6,0,1,1-5.844,2.854A4.6,4.6,0,0,1,312.009,565.451Z" transform="translate(-302.426 -536.275)" fill="#5c0c0c"/>
    </g>
  </g>
</svg>
