<svg id="Group_435" data-name="Group 435" xmlns="http://www.w3.org/2000/svg" width="86.636" height="115.321" viewBox="0 0 86.636 115.321">
  <path id="Path_332" data-name="Path 332" d="M416.9,445.314H403.135a26.81,26.81,0,0,1-1.379,5.461h16.522A26.821,26.821,0,0,1,416.9,445.314Z" transform="translate(-366.699 -399.925)" fill="#f3e8dc"/>
  <path id="Path_333" data-name="Path 333" d="M394.891,437.546c.412-5,1.731-11.21,2.527-16.675a12.405,12.405,0,0,0-3.49-10.907c-1.717-1.691-5.2-1.588-5.664-1.565h0s-3.792-.247-5.632,1.566a12.406,12.406,0,0,0-3.488,10.907c.8,5.466,2.115,11.675,2.527,16.675.074.894.112,1.823.114,2.769h12.991C394.779,439.369,394.818,438.439,394.891,437.546Z" transform="translate(-371.915 -408.386)" fill="#dad3cc"/>
  <path id="Path_334" data-name="Path 334" d="M394.972,438.727H381.207a26.835,26.835,0,0,1-1.379,5.462H396.35A26.832,26.832,0,0,1,394.972,438.727Z" transform="translate(-371.723 -401.434)" fill="#dad3cc"/>
  <path id="Path_335" data-name="Path 335" d="M404.974,461.02a83.23,83.23,0,0,0-4.656-13.485H378.882a83.339,83.339,0,0,0-4.656,13.485c-1.318,5.659-1.291,15.467-.109,21.154s3.654,11.183,4.726,14.313,3.325,8.874,4.945,9.561c1.57.664,5.547.735,5.8.74h.023c.253,0,4.232-.076,5.8-.74,1.621-.687,3.874-6.43,4.945-9.561s3.545-8.627,4.726-14.313,1.208-15.5-.109-21.154" transform="translate(-373.234 -399.416)" fill="#dad3cc"/>
  <path id="Path_336" data-name="Path 336" d="M394.328,434.363H381.337a35.854,35.854,0,0,1-.387,5.364h13.765A35.689,35.689,0,0,1,394.328,434.363Z" transform="translate(-371.466 -402.434)" fill="#410d0e"/>
  <path id="Path_337" data-name="Path 337" d="M397.6,444.988a18.88,18.88,0,0,1-.794-1.817H380.286a18.576,18.576,0,0,1-.793,1.817c-.53,1.044-1.094,2.248-1.664,3.547h21.436C398.695,447.236,398.131,446.031,397.6,444.988Z" transform="translate(-372.181 -400.416)" fill="#410d0e"/>
  <path id="Path_338" data-name="Path 338" d="M438.746,437.546c.412-5,1.731-11.21,2.527-16.675a12.4,12.4,0,0,0-3.49-10.907c-1.717-1.691-5.2-1.588-5.663-1.565h0s-3.792-.247-5.632,1.566A12.406,12.406,0,0,0,423,420.87c.8,5.466,2.115,11.675,2.527,16.675.074.894.112,1.823.114,2.769h12.991C438.634,439.369,438.673,438.439,438.746,437.546Z" transform="translate(-361.867 -408.386)" fill="#dad3cc"/>
  <path id="Path_339" data-name="Path 339" d="M438.827,438.727H425.062a26.748,26.748,0,0,1-1.378,5.462h16.522A26.753,26.753,0,0,1,438.827,438.727Z" transform="translate(-361.674 -401.434)" fill="#dad3cc"/>
  <path id="Path_340" data-name="Path 340" d="M448.83,461.02a83.333,83.333,0,0,0-4.656-13.485H422.738a83.216,83.216,0,0,0-4.656,13.485c-1.318,5.659-1.291,15.467-.109,21.154s3.653,11.183,4.725,14.313,3.325,8.874,4.945,9.561c1.57.664,5.548.735,5.8.74h.023c.253,0,4.232-.076,5.8-.74,1.62-.687,3.873-6.43,4.945-9.561s3.544-8.627,4.726-14.313,1.208-15.5-.109-21.154" transform="translate(-363.185 -399.416)" fill="#dad3cc"/>
  <path id="Path_341" data-name="Path 341" d="M438.183,434.363H425.192a35.7,35.7,0,0,1-.387,5.364H438.57A35.854,35.854,0,0,1,438.183,434.363Z" transform="translate(-361.418 -402.434)" fill="#040405"/>
  <path id="Path_342" data-name="Path 342" d="M441.457,444.988a18.576,18.576,0,0,1-.793-1.817H424.142a18.574,18.574,0,0,1-.794,1.817c-.529,1.044-1.093,2.248-1.663,3.547h21.436C442.55,447.236,441.985,446.031,441.457,444.988Z" transform="translate(-362.132 -400.416)" fill="#040405"/>
  <path id="Path_343" data-name="Path 343" d="M416.818,444.012c.412-5,1.731-11.21,2.527-16.677a12.406,12.406,0,0,0-3.49-10.907c-1.716-1.69-5.2-1.586-5.663-1.565h0s-3.792-.246-5.632,1.566a12.413,12.413,0,0,0-3.489,10.907c.8,5.467,2.115,11.677,2.527,16.677.074.894.112,1.822.114,2.769H416.7C416.706,445.834,416.745,444.906,416.818,444.012Z" transform="translate(-366.891 -406.904)" fill="#f3e8dc"/>
  <path id="Path_344" data-name="Path 344" d="M426.9,467.487A83.353,83.353,0,0,0,422.246,454H400.81a83.245,83.245,0,0,0-4.656,13.486c-1.318,5.658-1.291,15.467-.109,21.155s3.654,11.181,4.726,14.312,3.324,8.874,4.945,9.56c1.568.665,5.547.738,5.8.741h.025c.253,0,4.231-.076,5.8-.741,1.621-.686,3.873-6.428,4.945-9.56s3.545-8.627,4.726-14.312,1.208-15.5-.109-21.155" transform="translate(-368.21 -397.934)" fill="#f3e8dc"/>
  <path id="Path_345" data-name="Path 345" d="M416.255,440.829H403.264a35.84,35.84,0,0,1-.386,5.364h13.765A35.861,35.861,0,0,1,416.255,440.829Z" transform="translate(-366.442 -400.952)" fill="#d2111c"/>
  <path id="Path_346" data-name="Path 346" d="M419.529,451.452a18.686,18.686,0,0,1-.793-1.815H402.214a18.692,18.692,0,0,1-.794,1.815c-.529,1.045-1.093,2.248-1.663,3.548h21.436C420.623,453.7,420.059,452.5,419.529,451.452Z" transform="translate(-367.157 -398.934)" fill="#d2111c"/>
</svg>
