<svg xmlns="http://www.w3.org/2000/svg" width="96.578" height="94.166" viewBox="0 0 96.578 94.166">
  <g id="Group_438" data-name="Group 438" transform="translate(-405.113 -726.656)">
    <g id="Group_442" data-name="Group 442" transform="translate(-239.996 626.359)">
      <rect id="Rectangle_890" data-name="Rectangle 890" width="35.061" height="2.366" transform="translate(654.103 191.219)" fill="#a30f17"/>
      <g id="Group_442-2" data-name="Group 442" transform="translate(683.076 176.205)">
        <rect id="Rectangle_891" data-name="Rectangle 891" width="2.052" height="4.228" transform="translate(13.558)" fill="#a30f17"/>
        <rect id="Rectangle_892" data-name="Rectangle 892" width="2.052" height="4.228" transform="translate(6.779)" fill="#a30f17"/>
        <rect id="Rectangle_893" data-name="Rectangle 893" width="2.052" height="4.228" transform="translate(0)" fill="#a30f17"/>
      </g>
      <path id="Path_422" data-name="Path 422" d="M676.74,188.606c-2.1-1.537-3.082-4.231-3.082-8.476,0-7.092,2.867-9.635,6.222-10.485a7.887,7.887,0,0,1,1.6-4.062A7.55,7.55,0,0,1,687.037,163c.31-.024.748-.068,1.3-.124,5.582-.562,20.4-2.056,27.729,4.543a24.251,24.251,0,0,0-3.3-7.7,19.05,19.05,0,0,0-9.225-7.266l1.089-2.846A22.042,22.042,0,0,1,715.3,158.02c3.261,4.864,4.913,11.358,4.913,19.3V180.2a9.925,9.925,0,0,1-9.913,9.913H683.571C681.059,190.115,678.646,190,676.74,188.606Zm37.3-18.912c-2.652-2.4-7.01-3.814-12.951-4.207a75.311,75.311,0,0,0-12.448.419c-.576.057-1.029.1-1.377.13a4.6,4.6,0,0,0-3.421,1.47,4.327,4.327,0,0,0-.814,1.755c.18,0,.361-.006.539-.006h18.284l.123.005a5.817,5.817,0,0,1,2.524,10.91,9.725,9.725,0,0,1-4.48,1,118.06,118.06,0,0,1-12.3-.051,9.458,9.458,0,0,1-4.406-1.032,7.12,7.12,0,0,1-3.249-5.293l-.01-.08c-.069-.527-.152-1.16-.208-1.858a4.19,4.19,0,0,0-1.2.73c-1.305,1.145-1.939,3.286-1.939,6.545,0,3.146.6,5.113,1.832,6.016,1.165.852,3.046.923,5.033.923H710.3a6.874,6.874,0,0,0,6.866-6.867v-2.878A9.692,9.692,0,0,0,714.043,169.694ZM683.571,172.3c-.246,0-.484,0-.711.013.049.735.14,1.428.215,2l.011.08a4.082,4.082,0,0,0,1.76,3.055,6.937,6.937,0,0,0,3.044.623,115.058,115.058,0,0,0,11.985.05,7.189,7.189,0,0,0,3.13-.611,2.769,2.769,0,0,0-1.218-5.212Z" transform="translate(-6.548 -12.11)" fill="#d2111c"/>
      <path id="Path_423" data-name="Path 423" d="M695.244,195.854a33.648,33.648,0,0,0,11.777-2c4.361-1.62,15.958-6.46,21.84-24.549,1.606-4.938,3.027-11.679,1.2-25.563-.3-2.3-.719-4.8-1.276-7.539-1.07-5.257-2.965-19.9,3.317-26.78,0,0-11.252-8.006-26.327.339s-15.223,22.181-15.223,22.181c13.585-.5,22.593,2.461,27.688,8.668,8.319,10.132,5.094,22.214,4.2,27.1a32.326,32.326,0,0,1-7.587,15.1c-6.007,6.511-14.291,9.139-24.621,7.809-8.9-1.147-15.626-4.594-19.069-10.788-7.785-14.009-2.644-31.958,5.834-37.73,5.693-3.877,14.557-4.511,25.658.459l2.3-2.173c-7.847-4.961-13.488-5.462-18.244-5.3a23.754,23.754,0,0,0-11.565,3.308c-8.6,5.174-11.861,14.96-12.434,19.927a46.534,46.534,0,0,0,.171,12.767A30.564,30.564,0,0,0,667,182.424a25.824,25.824,0,0,0,8.829,8.593,35.774,35.774,0,0,0,13.776,4.465A44.287,44.287,0,0,0,695.244,195.854Z" transform="translate(-3.774 -1.39)" fill="#d2111c"/>
      <g id="Group_443" data-name="Group 443" transform="translate(676.963 137.108)">
        <path id="Path_424" data-name="Path 424" d="M686.719,185.089V156.007a4.125,4.125,0,0,1,4.12-4.12h.058a4.125,4.125,0,0,1,4.12,4.12v29.081a4.125,4.125,0,0,1-4.12,4.12h-.058A4.125,4.125,0,0,1,686.719,185.089Zm4.12-30.662a1.583,1.583,0,0,0-1.581,1.581v29.081a1.583,1.583,0,0,0,1.581,1.581h.058a1.583,1.583,0,0,0,1.581-1.581V156.007a1.583,1.583,0,0,0-1.581-1.581Z" transform="translate(-686.719 -149.778)" fill="#a30f17"/>
        <path id="Path_425" data-name="Path 425" d="M712.317,184.4V159.924c0-7.483,4.879-10.832,9.714-10.832a10.307,10.307,0,0,1,6.676,2.418,16.029,16.029,0,0,1,4.052,5.609,12.067,12.067,0,0,1,1.049,6.828,7.727,7.727,0,0,1-5.159,6.044,4.709,4.709,0,0,1-1.71.32,4.824,4.824,0,0,1-3.918-2.026c-1.359-1.859-1.546-4.644-.527-7.843a4.731,4.731,0,0,0-.072-3.7c-.046-.064-.112-.133-.146-.133s-.216.009-.6.318c-1.878,1.528-1.743,6-1.586,11.172.031,1.05.064,2.137.082,3.247.078,4.982,0,12.806,0,13.059a4.02,4.02,0,0,1-3.9,4.114h-.053A4.021,4.021,0,0,1,712.317,184.4Zm12.156-29.155c.99,1.355,1.163,3.7.441,5.965-1.034,3.248-.345,4.887.158,5.574a2.309,2.309,0,0,0,1.867.985,2.167,2.167,0,0,0,.79-.148,5.24,5.24,0,0,0,3.577-4.111c.6-3.479-1.694-7.859-4.262-10.083a7.734,7.734,0,0,0-5.013-1.8,6.93,6.93,0,0,0-4.913,1.915,8.69,8.69,0,0,0-2.261,6.377V184.4a1.486,1.486,0,0,0,1.363,1.581h.053a1.486,1.486,0,0,0,1.363-1.581v-.013c0-.079.079-7.994,0-13-.017-1.092-.05-2.169-.081-3.211-.177-5.848-.329-10.9,2.523-13.218a3.491,3.491,0,0,1,2.2-.887A2.691,2.691,0,0,1,724.473,155.247Z" transform="translate(-693.006 -149.092)" fill="#a30f17"/>
        <path id="Path_426" data-name="Path 426" d="M700.342,189.551V171.227a3.542,3.542,0,0,1,3.539-3.539h.046a3.543,3.543,0,0,1,3.54,3.539v18.324a3.543,3.543,0,0,1-3.54,3.539h-.046A3.542,3.542,0,0,1,700.342,189.551Zm3.539-19.324a1,1,0,0,0-1,1v18.324a1,1,0,0,0,1,1h.046a1,1,0,0,0,1-1V171.227a1,1,0,0,0-1-1Z" transform="translate(-690.065 -153.659)" fill="#a30f17"/>
      </g>
      <g id="Group_444" data-name="Group 444" transform="translate(677.667 171.317)">
        <path id="Path_427" data-name="Path 427" d="M700.5,197.938a3.445,3.445,0,1,0,3.445-3.5A3.473,3.473,0,0,0,700.5,197.938Z" transform="translate(-690.808 -194.438)" fill="#f3e8dc"/>
        <path id="Path_428" data-name="Path 428" d="M687.653,197.938a3.445,3.445,0,1,0,3.445-3.5A3.474,3.474,0,0,0,687.653,197.938Z" transform="translate(-687.653 -194.438)" fill="#f3e8dc"/>
        <path id="Path_429" data-name="Path 429" d="M713.177,197.938a3.445,3.445,0,1,0,3.445-3.5A3.473,3.473,0,0,0,713.177,197.938Z" transform="translate(-693.922 -194.438)" fill="#f3e8dc"/>
      </g>
      <g id="Group_445" data-name="Group 445" transform="translate(679.475 173.153)">
        <path id="Path_430" data-name="Path 430" d="M702.893,198.536a1.638,1.638,0,1,0,1.638-1.664A1.652,1.652,0,0,0,702.893,198.536Z" transform="translate(-693.204 -196.872)" fill="#f3e8dc"/>
        <path id="Path_431" data-name="Path 431" d="M690.049,198.536a1.638,1.638,0,1,0,1.637-1.664A1.651,1.651,0,0,0,690.049,198.536Z" transform="translate(-690.049 -196.872)" fill="#f3e8dc"/>
        <path id="Path_432" data-name="Path 432" d="M715.572,198.536a1.638,1.638,0,1,0,1.638-1.664A1.651,1.651,0,0,0,715.572,198.536Z" transform="translate(-696.318 -196.872)" fill="#f3e8dc"/>
      </g>
      <path id="Path_433" data-name="Path 433" d="M698.677,122.619a5.424,5.424,0,0,0,.553,2.815c2.746,5.358,14.732,4.7,26.77-1.467,7.217-3.7,12.813-8.536,15.549-12.973-.305,5.422-7.247,12.865-17.38,18.056-12.039,6.169-24.025,6.825-26.771,1.467C696.3,128.371,696.849,125.585,698.677,122.619Z" transform="translate(-12.24 -2.627)" fill="#ffe8cb"/>
      <path id="Path_434" data-name="Path 434" d="M694.2,129.119c3.048,5.948,16.352,5.22,29.715-1.627s21.727-17.22,18.679-23.168-16.352-5.22-29.716,1.627S691.151,123.171,694.2,129.119Zm21.859-16.96c7.059-3.617,13.655-4.843,14.733-2.74s-3.771,6.741-10.83,10.359-13.655,4.843-14.734,2.74S709,115.776,716.058,112.159Z" transform="translate(-11.439 0)" fill="#5c0c0c"/>
      <g id="Group_446" data-name="Group 446" transform="translate(683.825 179.672)">
        <path id="Path_435" data-name="Path 435" d="M712.081,219.732c1.633,0,1.7-2.043,1.209-6.231-.281-2.388-.746-7.987-1.209-7.987s-.928,5.6-1.209,7.981C710.377,217.683,710.447,219.732,712.081,219.732Z" transform="translate(-699.447 -205.514)" fill="#dad3cc"/>
        <path id="Path_436" data-name="Path 436" d="M704.687,219.732c1.633,0,1.7-2.043,1.21-6.231-.281-2.388-.746-7.987-1.21-7.987s-.927,5.6-1.209,7.981C702.983,217.683,703.054,219.732,704.687,219.732Z" transform="translate(-697.631 -205.514)" fill="#dad3cc"/>
        <path id="Path_437" data-name="Path 437" d="M697.294,219.732c1.633,0,1.7-2.043,1.21-6.231-.282-2.388-.747-7.987-1.21-7.987s-.927,5.6-1.209,7.981C695.59,217.683,695.66,219.732,697.294,219.732Z" transform="translate(-695.815 -205.514)" fill="#dad3cc"/>
      </g>
      <rect id="Rectangle_894" data-name="Rectangle 894" width="18.973" height="3.095" rx="1.548" transform="translate(681.395 179.469)" fill="#d2111c"/>
      <path id="Path_438" data-name="Path 438" d="M647.2,219.835c3.03.3,6.06.547,9.09.719v2.438c-3.034.144-6.068.363-9.1.637A9.122,9.122,0,0,1,647.2,219.835Z" transform="translate(0 -29.359)" fill="#5c0c0c"/>
    </g>
    <g id="Group_447" data-name="Group 447" transform="matrix(0.998, -0.07, 0.07, 0.998, 476, 779.624)">
      <path id="Path_396" data-name="Path 396" d="M1.834,5.289A2.718,2.718,0,1,0,.148,1.834,2.722,2.722,0,0,0,1.834,5.289Zm.92-2.675a.111.111,0,1,1-.141.069A.11.11,0,0,1,2.754,2.613Z" transform="translate(18.517 19.247)" fill="#d2111c"/>
      <path id="Path_397" data-name="Path 397" d="M3.127,9.142A4.622,4.622,0,0,0,9.014,6.226,4.718,4.718,0,0,0,6.139.256,4.622,4.622,0,0,0,.252,3.171,4.72,4.72,0,0,0,3.127,9.142Zm2.105-6.21A1.877,1.877,0,0,1,6.377,5.306a1.84,1.84,0,0,1-2.342,1.16A1.878,1.878,0,0,1,2.89,4.091,1.839,1.839,0,0,1,5.232,2.931Z" transform="translate(16.807 -13.966)" fill="#a30f17"/>
      <path id="Path_398" data-name="Path 398" d="M3.809,10.98a5.643,5.643,0,1,0-3.5-7.171A5.65,5.65,0,0,0,3.809,10.98ZM6.686,2.609A3.208,3.208,0,1,1,2.609,4.6,3.212,3.212,0,0,1,6.686,2.609Z" transform="translate(6.125 28.012)" fill="#5c0c0c"/>
    </g>
    <g id="Group_448" data-name="Group 448" transform="matrix(0.309, -0.951, 0.951, 0.309, 392.598, 775.178)">
      <path id="Path_396-2" data-name="Path 396" d="M3.6,5.289A2.718,2.718,0,1,1,5.289,1.834,2.722,2.722,0,0,1,3.6,5.289Zm-.92-2.675a.111.111,0,1,0,.141.069A.11.11,0,0,0,2.682,2.613Z" transform="translate(0.618 15.327)" fill="#d2111c"/>
      <path id="Path_397-2" data-name="Path 397" d="M6.226,9.142A4.7,4.7,0,1,1,9.141,3.171,4.7,4.7,0,0,1,6.226,9.142ZM4.091,2.931a1.869,1.869,0,1,0,2.375,1.16A1.871,1.871,0,0,0,4.091,2.931Z" transform="translate(16.92 7.662)" fill="#a30f17"/>
      <path id="Path_398-2" data-name="Path 398" d="M6.048,8.88A4.564,4.564,0,1,1,8.88,3.08,4.569,4.569,0,0,1,6.048,8.88ZM3.721,2.11a2.595,2.595,0,1,0,3.3,1.61A2.6,2.6,0,0,0,3.721,2.11Z" transform="translate(38.549 24.607)" fill="#5c0c0c"/>
    </g>
  </g>
</svg>
