<svg xmlns="http://www.w3.org/2000/svg" width="118.895" height="81.448" viewBox="0 0 118.895 81.448">
  <g id="Group_455" data-name="Group 455" transform="translate(-395.296 -737.94)">
    <g id="Group_456" data-name="Group 456" transform="translate(-70.373 116.515)">
      <path id="Path_458" data-name="Path 458" d="M569.429,674.446c4.368-27.625-26.113-51.084-38.064-52.95-6.021-.94-10.663,7.755-16.48,10.662s-7.492-4.245-12.352-5.778-13.833.366-16.9,19.779,21.519,51.1,43.054,55.269S567.106,689.139,569.429,674.446Zm-54.671-19.39c-3.464-3.952-3.862-9.268-.89-11.872s8.189-1.512,11.653,2.44,3.862,9.268.89,11.872S518.221,659.008,514.758,655.056Z" transform="translate(0 0)" fill="#f3e8dc"/>
      <ellipse id="Ellipse_8" data-name="Ellipse 8" cx="8.129" cy="8.129" rx="8.129" ry="8.129" transform="translate(535.441 637.653) rotate(-13.223)" fill="#fff"/>
      <ellipse id="Ellipse_9" data-name="Ellipse 9" cx="7.788" cy="7.788" rx="7.788" ry="7.788" transform="matrix(0.809, -0.588, 0.588, 0.809, 542.601, 667.122)" fill="#d2111c"/>
      <ellipse id="Ellipse_10" data-name="Ellipse 10" cx="7.976" cy="7.976" rx="7.976" ry="7.976" transform="matrix(0.991, -0.134, 0.134, 0.991, 532.597, 680.282)" fill="#a30f17"/>
      <circle id="Ellipse_11" data-name="Ellipse 11" cx="8.024" cy="8.024" r="8.024" transform="translate(510.143 671.557)" fill="#410d0e"/>
      <ellipse id="Ellipse_12" data-name="Ellipse 12" cx="7.805" cy="7.805" rx="7.805" ry="7.805" transform="translate(491.45 655.663) rotate(-27.087)" fill="#040405"/>
    </g>
    <g id="Group_428" data-name="Group 428" transform="translate(475.947 747.092) rotate(-5)">
      <path id="Path_396" data-name="Path 396" d="M1.834,5.289A2.718,2.718,0,1,0,.148,1.834,2.722,2.722,0,0,0,1.834,5.289Zm.92-2.675a.111.111,0,1,1-.141.069A.11.11,0,0,1,2.754,2.613Z" transform="translate(26.707 16.812)" fill="#d2111c"/>
      <path id="Path_397" data-name="Path 397" d="M3.171,9.142A4.7,4.7,0,1,0,.256,3.171,4.7,4.7,0,0,0,3.171,9.142Zm2.135-6.21A1.869,1.869,0,1,1,2.93,4.091,1.871,1.871,0,0,1,5.306,2.931Z" transform="translate(15.83 0)" fill="#a30f17"/>
      <path id="Path_398" data-name="Path 398" d="M3.43,9.888A5.082,5.082,0,1,0,.277,3.43,5.088,5.088,0,0,0,3.43,9.888ZM6.021,2.35A2.889,2.889,0,1,1,2.35,4.143,2.893,2.893,0,0,1,6.021,2.35Z" transform="translate(21.709 64.306)" fill="#5c0c0c"/>
    </g>
    <g id="Group_429" data-name="Group 429" transform="translate(395.296 799.144) rotate(-30)">
      <path id="Path_396-2" data-name="Path 396" d="M1.684.136A2.5,2.5,0,1,1,.136,3.308,2.5,2.5,0,0,1,1.684.136Zm.845,2.457A.1.1,0,1,0,2.4,2.529.1.1,0,0,0,2.529,2.593Z" transform="translate(14.637 -8.13)" fill="#d2111c"/>
      <path id="Path_397-2" data-name="Path 397" d="M2.912.235A4.314,4.314,0,1,1,.235,5.717,4.318,4.318,0,0,1,2.912.235Zm1.96,5.7A1.716,1.716,0,1,0,2.691,4.873,1.718,1.718,0,0,0,4.872,5.937Z" transform="translate(13.795 21.657)" fill="#a30f17"/>
      <path id="Path_398-2" data-name="Path 398" d="M4.064.327A6.021,6.021,0,1,1,.328,7.979,6.029,6.029,0,0,1,4.064.327ZM7.134,9.26a3.424,3.424,0,1,0-4.35-2.125A3.428,3.428,0,0,0,7.134,9.26Z" transform="translate(0 0)" fill="#5c0c0c"/>
    </g>
  </g>
</svg>
