<svg xmlns="http://www.w3.org/2000/svg" width="108.243" height="87.981" viewBox="0 0 108.243 87.981">
  <g id="Group_430" data-name="Group 430" transform="translate(-401.937 -733.986)">
    <g id="Group_427" data-name="Group 427" transform="translate(423 733.986)">
      <path id="Path_381" data-name="Path 381" d="M11.323,0H1.031A20.135,20.135,0,0,1,0,4.084H12.353A19.952,19.952,0,0,1,11.323,0Z" transform="translate(26.212 33.937)" fill="#f3e8dc"/>
      <path id="Path_382" data-name="Path 382" d="M11.889,21.8c.309-3.738,1.295-8.381,1.89-12.468A9.277,9.277,0,0,0,11.17,1.179C9.886-.085,7.279-.007,6.935.009h0S4.1-.176,2.724,1.179A9.277,9.277,0,0,0,.116,9.335C.711,13.421,1.7,18.065,2.006,21.8c.054.668.083,1.363.085,2.071H11.8C11.806,23.166,11.833,22.471,11.889,21.8Z" transform="translate(5.29 0)" fill="#dad3cc"/>
      <path id="Path_383" data-name="Path 383" d="M11.323,0H1.031A20.119,20.119,0,0,1,0,4.084H12.353A20,20,0,0,1,11.323,0Z" transform="translate(6.06 27.884)" fill="#dad3cc"/>
      <path id="Path_384" data-name="Path 384" d="M23.732,10.082A62.249,62.249,0,0,0,20.25,0H4.223A62.167,62.167,0,0,0,.742,10.082,44.98,44.98,0,0,0,.66,25.9c.883,4.252,2.732,8.361,3.534,10.7s2.486,6.636,3.7,7.149a17.011,17.011,0,0,0,4.337.553h.018a17.016,17.016,0,0,0,4.337-.553c1.212-.513,2.9-4.807,3.7-7.149s2.65-6.45,3.534-10.7a44.98,44.98,0,0,0-.082-15.816" transform="translate(0 35.979)" fill="#dad3cc"/>
      <path id="Path_385" data-name="Path 385" d="M10,0H.289A26.681,26.681,0,0,1,0,4.011H10.292A26.8,26.8,0,0,1,10,0Z" transform="translate(7.091 23.873)" fill="#410d0e"/>
      <path id="Path_386" data-name="Path 386" d="M14.784,1.358A13.667,13.667,0,0,1,14.19,0H1.837a13.674,13.674,0,0,1-.594,1.358C.848,2.138.426,3.039,0,4.012H16.027C15.6,3.039,15.179,2.138,14.784,1.358Z" transform="translate(4.223 31.968)" fill="#410d0e"/>
      <path id="Path_387" data-name="Path 387" d="M11.889,21.8c.308-3.738,1.294-8.381,1.889-12.468A9.277,9.277,0,0,0,11.17,1.179C9.886-.085,7.279-.007,6.935.009h0S4.1-.176,2.725,1.179A9.277,9.277,0,0,0,.116,9.335C.711,13.421,1.7,18.065,2.005,21.8c.055.668.084,1.363.085,2.071H11.8C11.806,23.166,11.833,22.471,11.889,21.8Z" transform="translate(45.593 0)" fill="#dad3cc"/>
      <path id="Path_388" data-name="Path 388" d="M11.322,0H1.03A20.061,20.061,0,0,1,0,4.084H12.353A20,20,0,0,1,11.322,0Z" transform="translate(46.364 27.884)" fill="#dad3cc"/>
      <path id="Path_389" data-name="Path 389" d="M23.732,10.082A62.252,62.252,0,0,0,20.249,0H4.223A62.164,62.164,0,0,0,.742,10.082,44.979,44.979,0,0,0,.66,25.9c.883,4.252,2.731,8.361,3.533,10.7s2.486,6.636,3.7,7.149a17.022,17.022,0,0,0,4.338.553h.017a17.022,17.022,0,0,0,4.338-.553c1.211-.513,2.9-4.807,3.7-7.149s2.65-6.45,3.534-10.7a45,45,0,0,0-.082-15.816" transform="translate(40.304 35.979)" fill="#dad3cc"/>
      <path id="Path_390" data-name="Path 390" d="M10,0H.29A26.811,26.811,0,0,1,0,4.011H10.292A26.807,26.807,0,0,1,10,0Z" transform="translate(47.394 23.873)" fill="#040405"/>
      <path id="Path_391" data-name="Path 391" d="M14.783,1.358A13.894,13.894,0,0,1,14.19,0H1.837a14.12,14.12,0,0,1-.594,1.358C.847,2.138.426,3.039,0,4.012H16.027C15.6,3.039,15.178,2.138,14.783,1.358Z" transform="translate(44.527 31.968)" fill="#040405"/>
      <path id="Path_392" data-name="Path 392" d="M11.889,21.8c.308-3.739,1.294-8.381,1.889-12.469A9.279,9.279,0,0,0,11.17,1.179C9.887-.084,7.279-.006,6.936.009h0S4.1-.175,2.725,1.179A9.281,9.281,0,0,0,.116,9.334C.712,13.422,1.7,18.065,2.005,21.8c.055.668.084,1.362.085,2.071H11.8C11.805,23.165,11.834,22.472,11.889,21.8Z" transform="translate(25.441 5.941)" fill="#f3e8dc"/>
      <path id="Path_393" data-name="Path 393" d="M23.731,10.083A62.229,62.229,0,0,0,20.25,0H4.223A62.236,62.236,0,0,0,.742,10.083,44.985,44.985,0,0,0,.66,25.9c.883,4.25,2.732,8.36,3.533,10.7s2.486,6.635,3.7,7.148a16.942,16.942,0,0,0,4.337.554h.018a16.951,16.951,0,0,0,4.337-.554c1.211-.513,2.9-4.806,3.7-7.148s2.65-6.45,3.533-10.7a44.962,44.962,0,0,0-.082-15.817" transform="translate(20.152 41.921)" fill="#f3e8dc"/>
      <path id="Path_394" data-name="Path 394" d="M10,0H.289A26.682,26.682,0,0,1,0,4.011H10.292A26.81,26.81,0,0,1,10,0Z" transform="translate(27.242 29.815)" fill="#d2111c"/>
      <path id="Path_395" data-name="Path 395" d="M14.783,1.357A13.869,13.869,0,0,1,14.19,0H1.836a13.654,13.654,0,0,1-.593,1.357C.848,2.139.426,3.038,0,4.011H16.027C15.6,3.038,15.179,2.139,14.783,1.357Z" transform="translate(24.375 37.91)" fill="#d2111c"/>
    </g>
    <g id="Group_428" data-name="Group 428" transform="matrix(0.998, -0.07, 0.07, 0.998, 476.562, 746.624)">
      <path id="Path_396" data-name="Path 396" d="M1.834,5.289A2.718,2.718,0,1,0,.148,1.834,2.722,2.722,0,0,0,1.834,5.289Zm.92-2.675a.111.111,0,1,1-.141.069A.11.11,0,0,1,2.754,2.613Z" transform="translate(26.707 16.812)" fill="#d2111c"/>
      <path id="Path_397" data-name="Path 397" d="M3.171,9.142A4.7,4.7,0,1,0,.256,3.171,4.7,4.7,0,0,0,3.171,9.142Zm2.135-6.21A1.869,1.869,0,1,1,2.93,4.091,1.871,1.871,0,0,1,5.306,2.931Z" transform="translate(15.83 0)" fill="#a30f17"/>
      <path id="Path_398" data-name="Path 398" d="M4.426,12.758A6.557,6.557,0,1,0,.357,4.426,6.565,6.565,0,0,0,4.426,12.758ZM7.769,3.032A3.728,3.728,0,1,1,3.032,5.345,3.733,3.733,0,0,1,7.769,3.032Z" transform="translate(0 27.76)" fill="#5c0c0c"/>
    </g>
    <g id="Group_429" data-name="Group 429" transform="matrix(0.998, -0.07, 0.07, 0.998, 401, 790.725)">
      <path id="Path_396-2" data-name="Path 396" d="M3.6,5.289A2.718,2.718,0,1,1,5.289,1.834,2.722,2.722,0,0,1,3.6,5.289Zm-.92-2.675a.111.111,0,1,0,.141.069A.11.11,0,0,0,2.682,2.613Z" transform="translate(0 13.425)" fill="#d2111c"/>
      <path id="Path_397-2" data-name="Path 397" d="M6.226,9.142A4.7,4.7,0,1,1,9.141,3.171,4.7,4.7,0,0,1,6.226,9.142ZM4.091,2.931a1.869,1.869,0,1,0,2.375,1.16A1.871,1.871,0,0,0,4.091,2.931Z" transform="translate(11.641 0)" fill="#a30f17"/>
      <path id="Path_398-2" data-name="Path 398" d="M8.689,12.758a6.557,6.557,0,1,1,4.069-8.333A6.565,6.565,0,0,1,8.689,12.758ZM5.346,3.032a3.728,3.728,0,1,0,4.738,2.314A3.733,3.733,0,0,0,5.346,3.032Z" transform="translate(34.562 20.62)" fill="#5c0c0c"/>
    </g>
  </g>
</svg>
