<svg xmlns="http://www.w3.org/2000/svg" width="98.983" height="96.141" viewBox="0 0 98.983 96.141">
  <g id="Group_436" data-name="Group 436" transform="translate(-391 -1309.525)">
    <g id="Group_435" data-name="Group 435" transform="translate(182.753 1049.148)">
      <path id="Path_399" data-name="Path 399" d="M298.435,293.48a17.708,17.708,0,0,0-17.654-16.737H266.23v-.08l-17.963.08,1.333,16.019Z" transform="translate(-2.74 -0.647)" fill="#d2111c"/>
      <path id="Path_400" data-name="Path 400" d="M297.388,303.74v-8.533h-65.3v60.434h65.3V313.894l.1-.06V303.68Z" transform="translate(-1.632 -1.917)" fill="#f3e8dc"/>
      <path id="Path_401" data-name="Path 401" d="M214.375,298.6a3.59,3.59,0,1,0-5.077,5.077l10.249,10.248V303.769Z" transform="translate(0 -2.077)" fill="#410d0e"/>
      <path id="Path_402" data-name="Path 402" d="M220.39,295.207v8.415l-.013-.013v10.154l.013.013v41.866h38.242V295.207Z" transform="translate(-0.83 -1.917)" fill="#dad3cc"/>
      <path id="Path_403" data-name="Path 403" d="M312.619,298.6a3.593,3.593,0,0,0-5.077,0l-5.244,5.242V314l10.321-10.32A3.592,3.592,0,0,0,312.619,298.6Z" transform="translate(-6.439 -2.077)" fill="#410d0e"/>
      <path id="Path_404" data-name="Path 404" d="M252.708,276.663v.08H238.156A17.708,17.708,0,0,0,220.5,293.48h38.138V276.663Z" transform="translate(-0.839 -0.647)" fill="#a30f17"/>
      <path id="Path_405" data-name="Path 405" d="M261,271.841h-6.1a2.077,2.077,0,0,0,.166.134v4.358h11.621v-4.357c.061-.038.11-.091.167-.135Z" transform="translate(-3.194 -0.317)" fill="#410d0e"/>
      <path id="Path_406" data-name="Path 406" d="M265.583,267.21H256.05a1.975,1.975,0,0,0-1.973,1.973v.809a1.947,1.947,0,0,0,.764,1.532h11.954a1.945,1.945,0,0,0,.765-1.532v-.809A1.976,1.976,0,0,0,265.583,267.21Z" transform="translate(-3.137)" fill="#5c0c0c"/>
      <path id="Path_407" data-name="Path 407" d="M297.344,295.452H219.629c-.252,0-.457-.339-.457-.754h0c0-.415.206-.754.457-.754h77.715c.252,0,.457.339.457.754h0C297.8,295.113,297.6,295.452,297.344,295.452Z" transform="translate(-0.748 -1.83)" fill="#dad3cc"/>
    </g>
    <g id="Group_428" data-name="Group 428" transform="matrix(0.891, -0.454, 0.454, 0.891, 444.422, 1320.977)">
      <path id="Path_396" data-name="Path 396" d="M1.834,5.289A2.718,2.718,0,1,0,.148,1.834,2.722,2.722,0,0,0,1.834,5.289Zm.92-2.675a.111.111,0,1,1-.141.069A.11.11,0,0,1,2.754,2.613Z" transform="translate(26.707 16.812)" fill="#d2111c"/>
      <path id="Path_397" data-name="Path 397" d="M3.171,9.142A4.7,4.7,0,1,0,.256,3.171,4.7,4.7,0,0,0,3.171,9.142Zm2.135-6.21A1.869,1.869,0,1,1,2.93,4.091,1.871,1.871,0,0,1,5.306,2.931Z" transform="translate(15.83 0)" fill="#a30f17"/>
      <path id="Path_398" data-name="Path 398" d="M4.426,12.758A6.557,6.557,0,1,0,.357,4.426,6.565,6.565,0,0,0,4.426,12.758ZM7.769,3.032A3.728,3.728,0,1,1,3.032,5.345,3.733,3.733,0,0,1,7.769,3.032Z" transform="translate(0 27.76)" fill="#5c0c0c"/>
    </g>
    <g id="Group_429" data-name="Group 429" transform="translate(430.378 1408.929) rotate(-166)">
      <path id="Path_396-2" data-name="Path 396" d="M4.174,6.128a3.149,3.149,0,1,1,1.954-4A3.154,3.154,0,0,1,4.174,6.128Zm-1.066-3.1a.129.129,0,1,0,.163.08A.128.128,0,0,0,3.108,3.028Z" transform="translate(0 15.556)" fill="#d2111c"/>
      <path id="Path_397-2" data-name="Path 397" d="M7.214,10.592a5.444,5.444,0,1,1,3.378-6.918A5.449,5.449,0,0,1,7.214,10.592ZM4.74,3.4A2.165,2.165,0,1,0,7.492,4.74,2.168,2.168,0,0,0,4.74,3.4Z" transform="translate(16.399 -0.726)" fill="#a30f17"/>
      <path id="Path_398-2" data-name="Path 398" d="M8.529,12.523a6.436,6.436,0,1,1,3.994-8.179A6.444,6.444,0,0,1,8.529,12.523ZM5.247,2.976A3.659,3.659,0,1,0,9.9,5.247,3.664,3.664,0,0,0,5.247,2.976Z" transform="translate(32.049 18.935)" fill="#5c0c0c"/>
    </g>
  </g>
</svg>
