<svg xmlns="http://www.w3.org/2000/svg" width="118.405" height="103.938" viewBox="0 0 118.405 103.938">
  <g id="Group_482" data-name="Group 482" transform="translate(-553.507 -131.567)">
    <g id="Group_477" data-name="Group 477" transform="translate(553.507 147.233)">
      <path id="Path_410" data-name="Path 410" d="M629.313,174.142l3.261,7.048.029.067.92-.43,4.094-1.89A7.134,7.134,0,0,0,630.369,174,5.838,5.838,0,0,0,629.313,174.142Z" transform="translate(-567.915 -154.175)" fill="#f3e8dc"/>
      <path id="Path_411" data-name="Path 411" d="M633.375,182.419l2.551,5.54a7.065,7.065,0,0,0,.8-.717,7.152,7.152,0,0,0,1.663-7.144l-4.094,1.89Z" transform="translate(-568.687 -155.336)" fill="#dad3cc"/>
      <path id="Path_412" data-name="Path 412" d="M555.046,213.926l.324.71.457.987.484,1.047.223.49.709-.326v0l.279-.126.609-.283-1.83-3.963-.608.284-.252.113A.813.813,0,0,0,555.046,213.926Z" transform="translate(-553.785 -161.486)" fill="#f3e8dc"/>
      <path id="Path_413" data-name="Path 413" d="M556.9,218.091l.232.5.484,1.045.456.982.324.709a.806.806,0,0,0,1.071.392l.253-.113.611-.276-.449-.982-1.374-2.982-.008,0,0-.013-.609.283-.279.126,0,0Z" transform="translate(-554.152 -162.416)" fill="#dad3cc"/>
      <path id="Path_414" data-name="Path 414" d="M587.165,200.591l5.077,10.99a63.47,63.47,0,0,1,23.572-5.719c.544-.023,1.08-.048,1.616-.073a42.772,42.772,0,0,1,13.419,1.153c.309.073.617.147.926.228a10.48,10.48,0,0,1-.682-1.244l-7.238-15.676-2.51-5.443-.6.276-4.012,1.852Z" transform="translate(-559.904 -156.231)" fill="#dad3cc"/>
      <path id="Path_415" data-name="Path 415" d="M580.677,183.844l.178-.08,5.077,11L615.5,181.107l4.012-1.852.6-.276-3.241-7.009-7.707-16.692a10.626,10.626,0,0,1-.448-1.145q-.181.451-.365.9a43.457,43.457,0,0,1-7.92,12.655c-.35.406-.707.82-1.057,1.234A62.905,62.905,0,0,1,580.677,183.844Z" transform="translate(-558.671 -150.401)" fill="#f3e8dc"/>
      <path id="Path_416" data-name="Path 416" d="M565.539,211.8l15.566-7.187.685-.317,5.077,10.993-.111.051-2.644,1.22-2.673,1.236-3.734,1.723-8.556,3.95-3.171,1.466a2.234,2.234,0,0,1-2.965-1.093l-2.311-5-1.83-3.961Z" transform="translate(-554.527 -159.935)" fill="#a30f17" fill-rule="evenodd"/>
      <path id="Path_417" data-name="Path 417" d="M580.77,201.713l-.685.317-15.566,7.187-6.666,3.079-1.829-3.965-2.312-5a2.235,2.235,0,0,1,1.094-2.965l20.708-9.562.18-.083Z" transform="translate(-553.507 -157.355)" fill="#d2111c" fill-rule="evenodd"/>
      <path id="Path_418" data-name="Path 418" d="M631.874,189.9l-2.512-5.44,1.282-.591,1.963-.906,2.56,5.542,7.192,15.574c1.033,2.24,1.147,4.391.249,4.805-.716.332-1.857-.551-2.816-2.059a10.9,10.9,0,0,1-.679-1.249Z" transform="translate(-567.924 -155.88)" fill="#a30f17" fill-rule="evenodd"/>
      <path id="Path_419" data-name="Path 419" d="M627.875,177.512l-1.282.591-3.237-7.011L615.648,154.4a10.493,10.493,0,0,1-.449-1.14c-.593-1.789-.543-3.324.2-3.666.9-.414,2.461,1.067,3.5,3.306l7.661,16.59,3.284,7.115Z" transform="translate(-565.155 -149.525)" fill="#d2111c" fill-rule="evenodd"/>
      <path id="Path_420" data-name="Path 420" d="M586.734,220.671l.569,1.082,2.866,5.486.931,1.791,1.132-.52A1.173,1.173,0,0,0,592.9,227c-.249-.544-.455-.98-.455-.98l-2.526-5.474-.51-1.114Z" transform="translate(-559.822 -162.812)" fill="#5c0c0c"/>
      <path id="Path_421" data-name="Path 421" d="M571.559,226.639l.7,1.026,3.912,5.785,10.686,15.821.8,1.181c.415.612.955,1.021,1.205.9l.449-.21,7.761-3.578.548-.258-.013-.033c.983-.594,1.557-1.388,1.311-1.918s-1.286-.611-2.427-.2l-.516-.991-7.754-14.841-.931-1.791-2.866-5.486-.569-1.082-3.731,1.721Z" transform="translate(-556.938 -163.103)" fill="#400e0f"/>
    </g>
    <g id="Group_478" data-name="Group 478" transform="translate(620.426 137.467)">
      <path id="Path_422" data-name="Path 422" d="M640.014,145.2l3.3-7.733-1.771,9.815Z" transform="translate(-636.868 -137.467)" fill="#f3e8db" stroke="#f3e8dc" stroke-miterlimit="10" stroke-width="1.382"/>
      <path id="Path_423" data-name="Path 423" d="M639.429,146.8l-3.3,7.732,1.771-9.815Z" transform="translate(-636.13 -138.845)" fill="#f3e8db" stroke="#f3e8dc" stroke-miterlimit="10" stroke-width="1.382"/>
    </g>
    <g id="Group_479" data-name="Group 479" transform="translate(637.141 178.98)">
      <path id="Path_424" data-name="Path 424" d="M674.033,192.749l14.183.734-16.594,2.9Z" transform="translate(-659.59 -189.487)" fill="#f3e8db" stroke="#f3e8dc" stroke-miterlimit="10" stroke-width="1.382"/>
      <path id="Path_425" data-name="Path 425" d="M670.949,192.357l-14.182-.735,16.6-2.9Z" transform="translate(-656.767 -188.722)" fill="#f3e8db" stroke="#f3e8dc" stroke-miterlimit="10" stroke-width="1.382"/>
    </g>
    <g id="Group_480" data-name="Group 480" transform="translate(628.777 139.618)">
      <path id="Path_426" data-name="Path 426" d="M658.973,149.958l10.245-9.836-9.243,14.083Z" transform="translate(-648.822 -140.123)" fill="#f3e8db" stroke="#f3e8dc" stroke-miterlimit="10" stroke-width="1.382"/>
      <path id="Path_427" data-name="Path 427" d="M656.685,151.82l-10.244,9.835,9.246-14.083Z" transform="translate(-646.441 -141.539)" fill="#f3e8db" stroke="#f3e8dc" stroke-miterlimit="10" stroke-width="1.382"/>
    </g>
    <g id="Group_481" data-name="Group 481" transform="translate(632.909 165.283)">
      <path id="Path_428" data-name="Path 428" d="M663.805,174.6l10.009-2.253L662.837,177.6Z" transform="translate(-653.689 -171.912)" fill="#f3e8db" stroke="#f3e8dc" stroke-miterlimit="10" stroke-width="1.382"/>
      <path id="Path_429" data-name="Path 429" d="M661.55,174.808l-10.008,2.253,10.978-5.251Z" transform="translate(-651.542 -171.81)" fill="#f3e8db" stroke="#f3e8dc" stroke-miterlimit="10" stroke-width="1.382"/>
    </g>
  </g>
</svg>
