<svg xmlns="http://www.w3.org/2000/svg" width="1201" height="83.084" viewBox="0 0 1201 83.084">
  <g id="Group_964" data-name="Group 964" transform="translate(0.5 -67.355)">
    <g id="Group_516" data-name="Group 516" transform="translate(0 68)">
      <path id="Path_606" data-name="Path 606" d="M1151.971,902.6q-11.7,22.366-24.3,44.5-12.594-22.128-24.3-44.5Q1127.673,903.088,1151.971,902.6Z" transform="translate(-827.639 -864.659)" fill="#a30f17"/>
      <path id="Path_607" data-name="Path 607" d="M1061.267,900.8q10.685,22.874,22.273,45.55,13.582-21.537,26.282-43.358Q1085.53,902.386,1061.267,900.8Z" transform="translate(-839.93 -865.185)" fill="#f3e8dc"/>
      <path id="Path_608" data-name="Path 608" d="M1145.521,902.992q12.7,21.818,26.281,43.358,11.586-22.672,22.273-45.55Q1169.816,902.387,1145.521,902.992Z" transform="translate(-815.339 -865.185)" fill="#5c0c0c"/>
      <path id="Path_609" data-name="Path 609" d="M1019.248,897.11q9.654,23.333,20.215,46.511,14.551-20.9,28.228-42.126Q1043.438,899.791,1019.248,897.11Z" transform="translate(-852.194 -866.262)" fill="#a30f17"/>
      <path id="Path_610" data-name="Path 610" d="M977.388,891.508q8.608,23.748,18.127,47.38,15.495-20.217,30.129-40.8Q1001.468,895.287,977.388,891.508Z" transform="translate(-864.411 -867.897)" fill="#5c0c0c"/>
      <path id="Path_611" data-name="Path 611" d="M935.752,884q7.548,24.118,16.009,48.163,16.417-19.494,31.985-39.393Q959.685,888.88,935.752,884Z" transform="translate(-876.563 -870.087)" fill="#f3e8dc"/>
      <path id="Path_612" data-name="Path 612" d="M894.4,874.6q6.476,24.443,13.867,48.853,17.312-18.723,33.791-37.89Q918.152,880.57,894.4,874.6Z" transform="translate(-888.631 -872.832)" fill="#a30f17"/>
      <path id="Path_613" data-name="Path 613" d="M1187.626,901.495q13.677,21.221,28.227,42.126,10.561-23.174,20.217-46.511Q1211.884,899.792,1187.626,901.495Z" transform="translate(-803.05 -866.262)" fill="#f3e8dc"/>
      <path id="Path_614" data-name="Path 614" d="M1229.631,898.085q14.63,20.581,30.129,40.8,9.52-23.627,18.126-47.38Q1253.811,895.285,1229.631,898.085Z" transform="translate(-790.791 -867.897)" fill="#a30f17"/>
      <path id="Path_615" data-name="Path 615" d="M1271.47,892.774q15.567,19.893,31.984,39.393,8.46-24.04,16.01-48.163Q1295.536,888.878,1271.47,892.774Z" transform="translate(-778.58 -870.087)" fill="#5c0c0c"/>
      <path id="Path_616" data-name="Path 616" d="M1313.078,885.562q16.477,19.163,33.79,37.89,7.393-24.4,13.868-48.853Q1336.994,880.569,1313.078,885.562Z" transform="translate(-766.436 -872.832)" fill="#f3e8dc"/>
      <path id="Path_617" data-name="Path 617" d="M1489.935,873.85v-.619a1206.305,1206.305,0,0,1-600,0v.619A1206.932,1206.932,0,0,0,1489.935,873.85Z" transform="translate(-889.935 -873.231)" fill="#f3e8db" stroke="#f3e8dc" stroke-miterlimit="10" stroke-width="1"/>
    </g>
    <g id="Group_708" data-name="Group 708" transform="translate(600 68)">
      <path id="Path_606-2" data-name="Path 606" d="M1151.971,902.6q-11.7,22.366-24.3,44.5-12.594-22.128-24.3-44.5Q1127.673,903.088,1151.971,902.6Z" transform="translate(-827.639 -864.659)" fill="#a30f17"/>
      <path id="Path_607-2" data-name="Path 607" d="M1061.267,900.8q10.685,22.874,22.273,45.55,13.582-21.537,26.282-43.358Q1085.53,902.386,1061.267,900.8Z" transform="translate(-839.93 -865.185)" fill="#f3e8dc"/>
      <path id="Path_608-2" data-name="Path 608" d="M1145.521,902.992q12.7,21.818,26.281,43.358,11.586-22.672,22.273-45.55Q1169.816,902.387,1145.521,902.992Z" transform="translate(-815.339 -865.185)" fill="#5c0c0c"/>
      <path id="Path_609-2" data-name="Path 609" d="M1019.248,897.11q9.654,23.333,20.215,46.511,14.551-20.9,28.228-42.126Q1043.438,899.791,1019.248,897.11Z" transform="translate(-852.194 -866.262)" fill="#a30f17"/>
      <path id="Path_610-2" data-name="Path 610" d="M977.388,891.508q8.608,23.748,18.127,47.38,15.495-20.217,30.129-40.8Q1001.468,895.287,977.388,891.508Z" transform="translate(-864.411 -867.897)" fill="#5c0c0c"/>
      <path id="Path_611-2" data-name="Path 611" d="M935.752,884q7.548,24.118,16.009,48.163,16.417-19.494,31.985-39.393Q959.685,888.88,935.752,884Z" transform="translate(-876.563 -870.087)" fill="#f3e8dc"/>
      <path id="Path_612-2" data-name="Path 612" d="M894.4,874.6q6.476,24.443,13.867,48.853,17.312-18.723,33.791-37.89Q918.152,880.57,894.4,874.6Z" transform="translate(-888.631 -872.832)" fill="#a30f17"/>
      <path id="Path_613-2" data-name="Path 613" d="M1187.626,901.495q13.677,21.221,28.227,42.126,10.561-23.174,20.217-46.511Q1211.884,899.792,1187.626,901.495Z" transform="translate(-803.05 -866.262)" fill="#f3e8dc"/>
      <path id="Path_614-2" data-name="Path 614" d="M1229.631,898.085q14.63,20.581,30.129,40.8,9.52-23.627,18.126-47.38Q1253.811,895.285,1229.631,898.085Z" transform="translate(-790.791 -867.897)" fill="#a30f17"/>
      <path id="Path_615-2" data-name="Path 615" d="M1271.47,892.774q15.567,19.893,31.984,39.393,8.46-24.04,16.01-48.163Q1295.536,888.878,1271.47,892.774Z" transform="translate(-778.58 -870.087)" fill="#5c0c0c"/>
      <path id="Path_616-2" data-name="Path 616" d="M1313.078,885.562q16.477,19.163,33.79,37.89,7.393-24.4,13.868-48.853Q1336.994,880.569,1313.078,885.562Z" transform="translate(-766.436 -872.832)" fill="#f3e8dc"/>
      <path id="Path_617-2" data-name="Path 617" d="M1489.935,873.85v-.619a1206.305,1206.305,0,0,1-600,0v.619A1206.932,1206.932,0,0,0,1489.935,873.85Z" transform="translate(-889.935 -873.231)" fill="#f3e8db" stroke="#f3e8dc" stroke-miterlimit="10" stroke-width="1"/>
    </g>
  </g>
</svg>
