<svg xmlns="http://www.w3.org/2000/svg" width="744.296" height="504.158" viewBox="0 0 744.296 504.158">
  <g id="Group_700" data-name="Group 700" transform="translate(-901.877 -670.887)">
    <path id="Path_471" data-name="Path 471" d="M1387.978,979.921l-1.614,3.48a3.568,3.568,0,0,1-1.636,1.689,14.348,14.348,0,0,1-3.823,1.211c1.943,2.038,5.521.562,7.6-.581a4.767,4.767,0,0,0,2.179-2.55l1.044-2.863Z" transform="translate(106.299 68.577)" fill="#f3e8dc"/>
    <rect id="Rectangle_919" data-name="Rectangle 919" width="194.283" height="68.091" transform="translate(966.878 1095.07)" fill="#dad3cc"/>
    <rect id="Rectangle_920" data-name="Rectangle 920" width="194.283" height="169.677" transform="translate(1175.878 993.07)" fill="#f3e8dc"/>
    <path id="Path_604" data-name="Path 604" d="M0,0H194.283V108.111H0Z" transform="translate(1382.878 1055.07)" fill="#c4bbb3"/>
    <path id="Path_472" data-name="Path 472" d="M1033.176,923.626l-.664,1.369a5.743,5.743,0,0,0-.092,4.8h0a1.509,1.509,0,0,0,1.362.913s7.025,2.042,6.514.076-2.908-2.852-2.908-2.852l.978-3.414Z" transform="translate(28.862 56.084)" fill="#f3e8dc"/>
    <path id="Path_473" data-name="Path 473" d="M1048.337,894.916a78.256,78.256,0,0,1-6.547,8.276c-.873.969-1.841,2.075-2.9,3.11l1.667,1.618-7.6,22.077,5.189.888s12.184-17.08,15.574-24.24C1055.034,903.862,1052.24,899.369,1048.337,894.916Z" transform="translate(29.086 49.713)" fill="#0f787a"/>
    <path id="Path_474" data-name="Path 474" d="M1027.172,876.218l1.625,7.254-7.647,1.3.15-11.588Z" transform="translate(26.467 44.89)" fill="#f3e8dc"/>
    <g id="Group_468" data-name="Group 468" transform="translate(1047.011 905.967)">
      <path id="Path_475" data-name="Path 475" d="M1029.806,879.457a3.83,3.83,0,0,0,2.09-.8c2.108-4.167-2.089-14.132-2.089-14.132l-4.331-1.249-4.822,4.012.547,6.969a5.674,5.674,0,0,0,2.918,4.482h0A10.572,10.572,0,0,0,1029.806,879.457Z" transform="translate(-1020.654 -863.275)" fill="#f3e8dc"/>
    </g>
    <path id="Path_476" data-name="Path 476" d="M1022.861,872.077c.145-1.2-.332-3.867.848-3.822.861.033,3.769-.215,4.743-.34,2.319-.3,6.34-1.756,5.9-5.373-.221-1.808-2.123-3.148-3.264-3.473a4.634,4.634,0,0,0-3.359.386c-2.444,1.241-5.584,3.694-6.97,3.589-2.329-.177-4.431,1.48-4.157,3.454a20.185,20.185,0,0,0,3.017,7.04,20.543,20.543,0,0,0,2.7,2.808h0Z" transform="translate(25.453 41.724)" fill="#161615"/>
    <path id="Path_477" data-name="Path 477" d="M1019.864,870.224a1.728,1.728,0,0,1,2.186-.079c.747.49.98,1.321.519,1.855a1.727,1.727,0,0,1-2.185.079C1019.638,871.588,1019.4,870.758,1019.864,870.224Z" transform="translate(26.13 44.14)" fill="#f3e8dc"/>
    <path id="Path_478" data-name="Path 478" d="M1027.359,881.23c14.833,0,14.707,22.687,14.707,22.687l-.391,31.434H1011.5l-.537-33.407S1012.528,881.23,1027.359,881.23Z" transform="translate(24.206 46.676)" fill="#d2111c"/>
    <path id="Path_479" data-name="Path 479" d="M1015.279,905.167s-17.693-1.571-21.637-9.431,29.508-27.249,29.508-27.249l3.073,3.882s-9.785,14.458-18.115,17.752c7.885-2.73,17.358-4.824,17.358-4.824l-3.727,16.5Z" transform="translate(20.291 43.849)" fill="#d2111c"/>
    <path id="Path_480" data-name="Path 480" d="M1017.732,869.575a10.858,10.858,0,0,1,7.66-4.64,39.6,39.6,0,0,0,7.5-1.307.56.56,0,0,1,.733.642c-.6,3.575-1.923,4.021-8.465,6.476-3.874,1.641-4.63,3.44-4.63,3.44Z" transform="translate(25.709 42.762)" fill="#dad3cc"/>
    <g id="Group_469" data-name="Group 469" transform="translate(1064.646 1084.65)">
      <path id="Path_481" data-name="Path 481" d="M1040.7,1012.831s2.715,2.578,8.9,4.194c1.361.355,2.831-.12,2.831,2.182h-7.51l-6.245-1.106v1.106h-3.373s-.939-5.651,1.031-6.376Z" transform="translate(-1035.087 -1008.771)" fill="#410d0e"/>
      <path id="Path_482" data-name="Path 482" d="M1039.813,1009.508l.663,4.06h0a3.738,3.738,0,0,1-4.132.142l-.231-.142.336-4.06Z" transform="translate(-1034.858 -1009.508)" fill="#f3e8dc"/>
    </g>
    <path id="Path_483" data-name="Path 483" d="M1039.752,925.522l4.782,103.971h-5.66s-8.919-32.224-8.863-47a16.157,16.157,0,0,0-.545-4.348c-5.057-18.414-9.837-52.625-9.837-52.625Z" transform="translate(26.129 56.505)" fill="#5c0c0c"/>
    <g id="Group_470" data-name="Group 470" transform="translate(1038.941 1084.65)">
      <path id="Path_484" data-name="Path 484" d="M1019.669,1012.831s2.714,2.578,8.9,4.194c1.362.355,2.831-.12,2.831,2.182h-7.51l-6.245-1.106v1.106h-3.372s-.94-5.651,1.03-6.376Z" transform="translate(-1014.05 -1008.771)" fill="#410d0e"/>
      <path id="Path_485" data-name="Path 485" d="M1018.777,1009.508l.663,4.06h0a3.739,3.739,0,0,1-4.132.142l-.232-.142.336-4.06Z" transform="translate(-1013.822 -1009.508)" fill="#f3e8dc"/>
    </g>
    <path id="Path_486" data-name="Path 486" d="M1011.555,925.522s-2.734,28.527,1.537,47.578a21.266,21.266,0,0,1,.474,6.573c-2.639,29.005,1.646,49.821,1.646,49.821h5.042L1035.2,925.522Z" transform="translate(24.147 56.505)" fill="#5c0c0c"/>
    <path id="Path_487" data-name="Path 487" d="M1019.628,882.837l1.588-3.26h7.363l1.689,2.861Z" transform="translate(26.129 46.31)" fill="#d2111c"/>
    <path id="Path_488" data-name="Path 488" d="M1029.123,881.918c9.216,0,29.794,20.451,26.4,27.611s-15.574,24.24-15.574,24.24l-5.19-.888,7.6-22.077-14.1-13.684S1019.907,881.918,1029.123,881.918Z" transform="translate(27.276 46.829)" fill="#d2111c"/>
    <g id="Group_471" data-name="Group 471" transform="translate(1225.827 793.802)">
      <path id="Path_489" data-name="Path 489" d="M1171.581,781.753l-4.112-3.522a1.4,1.4,0,0,1-.457-1.271l.177-1.129a1.4,1.4,0,0,1,.538-.9l4.268-3.188a1.325,1.325,0,0,1,1.674.069l.5.439a1.4,1.4,0,0,1,.465.916l.638,6.785Z" transform="translate(-1166.995 -771.48)" fill="#f3e8dc"/>
      <path id="Path_490" data-name="Path 490" d="M1174.584,779.564l.752-4.792a1.313,1.313,0,0,0-1.366-1.531l-2.054.148c-.547.039-1.819,2.784-1.819,2.784s1.642,1.468,2.553-1.169a2,2,0,0,0,1.017.2,6.021,6.021,0,0,0-1.747,5.661Z" transform="translate(-1166.307 -771.09)" fill="#f3e8dc"/>
    </g>
    <path id="Path_491" data-name="Path 491" d="M1170.053,780.5s9.63,26.674,14.98,36.356,22.017,25.4,22.017,25.4l7.748-21.559s-14.979-7.482-22.373-15.461-17.379-27.655-17.379-27.655Z" transform="translate(59.51 23.674)" fill="#410d0e"/>
    <g id="Group_472" data-name="Group 472" transform="translate(1339.279 952.511)">
      <path id="Path_492" data-name="Path 492" d="M1263.931,908.777s3.173,3.506,5.16,11.5c.437,1.759-.146,3.656,2.686,3.656v-9.7l-1.361-8.065h1.361v-4.356s-6.954-1.213-7.846,1.331Z" transform="translate(-1258.937 -901.332)" fill="#161615"/>
      <path id="Path_493" data-name="Path 493" d="M1259.844,908.321l4.993.49h0a5.027,5.027,0,0,0,.175-5.336l-.175-.3-4.993-1.81Z" transform="translate(-1259.844 -901.366)" fill="#f3e8dc"/>
    </g>
    <path id="Path_494" data-name="Path 494" d="M1228.307,849.808s5.866,17.806,4.184,37.284a10.165,10.165,0,0,0,8.188,10.844c15.379,2.967,32.943,14.517,32.943,14.517v8.039s-47.537-4.385-57.45-11.327-14.594-52.253-14.594-52.253Z" transform="translate(66.505 39.704)" fill="#a30f17"/>
    <path id="Path_495" data-name="Path 495" d="M1206.393,819.426c-10.779,7.308-5.859,52.253-5.859,52.253l32.909-4.02-3.566-33.252s14.979-18.7,17.834-32.368,4.279-35.23,4.279-35.23h-6.063s-6.777,28.106-11.056,35.23-18.547,17.2-18.547,17.2Z" transform="translate(66.026 21.286)" fill="#410d0e"/>
    <g id="Group_473" data-name="Group 473" transform="translate(1214.359 980.262)">
      <path id="Path_496" data-name="Path 496" d="M1172.4,928.265s-3.421,3.25-11.221,5.286c-1.717.448-3.568-.15-3.568,2.752h9.465l7.871-1.4v1.4h4.252s1.184-7.124-1.3-8.038Z" transform="translate(-1157.61 -923.148)" fill="#161615"/>
      <path id="Path_497" data-name="Path 497" d="M1170.192,924.077l-.479,5.117h0a4.714,4.714,0,0,0,5.209.18l.291-.18,1.767-5.117Z" transform="translate(-1154.924 -924.077)" fill="#f3e8dc"/>
    </g>
    <g id="Group_476" data-name="Group 476" transform="translate(1264.493 812.723)">
      <g id="Group_474" data-name="Group 474" transform="translate(6.13 21.027)">
        <path id="Path_498" data-name="Path 498" d="M1212.667,810.457l-1.438-6.284-7.048.806-.524,7.468a1.555,1.555,0,0,0,.145.149A19.659,19.659,0,0,1,1212.667,810.457Z" transform="translate(-1203.656 -804.173)" fill="#f3e8dc"/>
      </g>
      <g id="Group_475" data-name="Group 475">
        <path id="Path_499" data-name="Path 499" d="M1215.829,794.224l-1.85,9.886c-.961-.178-1.674.8-1.615,1.761a1.931,1.931,0,0,0-.263.711,11.014,11.014,0,0,1-8.939.829c-5.986-2.085-.617-13.734-.617-13.734Z" transform="translate(-1198.264 -785.476)" fill="#f3e8dc"/>
        <path id="Path_500" data-name="Path 500" d="M1218.277,803.634a6.139,6.139,0,0,1,1.934-2.536c3.9-2.589,1.093-5.283.087-6.169-1.112-.979-.563-3.215-1.972-4.709-2.153-2.282-4.755-.607-6.261-1.122s-2.181-2.761-4.582-1.965-2.4,2.641-3.225,3.3-1.863-1.639-4.385.458c-3.836,3.189,2.5,5.693,2.5,5.693a11.74,11.74,0,0,0,8.377.8,1.554,1.554,0,0,1,1.772.723c.917,1.748-.2,10.055-.2,10.055l1.766-1.122S1217.613,806.948,1218.277,803.634Z" transform="translate(-1198.639 -786.965)" fill="#5c0c0c"/>
        <path id="Path_501" data-name="Path 501" d="M1212.111,801.263a1.484,1.484,0,0,1-2.058.558,1.564,1.564,0,0,1-.545-2.11,1.488,1.488,0,0,1,2.06-.559A1.564,1.564,0,0,1,1212.111,801.263Z" transform="translate(-1196.273 -784.307)" fill="#f3e8dc"/>
      </g>
    </g>
    <path id="Path_502" data-name="Path 502" d="M1207.05,853.363s-23.819,23.23-25.95,28.91-11.047,58.785-11.047,58.785h6.775s13.594-22.631,17.752-40.4a18.1,18.1,0,0,1,12.078-13.178c37.516-11.906,33.3-38.137,33.3-38.137Z" transform="translate(59.51 39.601)" fill="#a30f17"/>
    <path id="Path_503" data-name="Path 503" d="M1203.794,809.216l-.145,3.422,10.9-2.228-2.285-3.729Z" transform="translate(66.965 30.134)" fill="#a30f17"/>
    <g id="Group_482" data-name="Group 482" transform="translate(1232.412 676.432)">
      <g id="Group_481" data-name="Group 481">
        <g id="Group_480" data-name="Group 480" transform="translate(0 5.582)">
          <g id="Group_477" data-name="Group 477" transform="translate(0 42.944)">
            <path id="Path_504" data-name="Path 504" d="M1221.4,756.43c-.755.185-1.526.374-2.348.585-23.337,5.983-38.708-6.969-44.778-19.877-2.6-5.527-2.509-11.771.24-16.3a11.407,11.407,0,0,1,11.173-5.645l7,.667,12.621,12.439.407.5a32.368,32.368,0,0,0,7.93,8.476l.757.562.292.916c.462,1.454.86,2.558,1.294,3.577a32.241,32.241,0,0,0,6.366,9.649l3.259,3.421Zm-19.566-24.548-11.017-10.858-5.191-.5a6.989,6.989,0,0,0-6.839,3.464c-1.829,3.011-1.854,7.245-.064,11.051,5.044,10.721,17.784,21.436,37.3,17.123a37.943,37.943,0,0,1-4.579-7.942c-.412-.97-.79-1.983-1.2-3.2A38.2,38.2,0,0,1,1201.833,731.882Z" transform="translate(-1172.385 -715.139)" fill="#dad3cc"/>
          </g>
          <g id="Group_478" data-name="Group 478" transform="translate(75.718 6.843)">
            <path id="Path_505" data-name="Path 505" d="M1243.6,747.117l-.537-4.695a32.245,32.245,0,0,0-3.326-11.07c-.5-.986-1.1-2-1.916-3.286l-.517-.811.054-.94a32.405,32.405,0,0,0-1.422-11.521l-.124-.633-1.456-17.66,3.972-5.8a11.412,11.412,0,0,1,11.5-4.958c5.235.791,10.087,4.722,12.663,10.259,6.016,12.935,6.1,33.033-13.446,47.112-.689.5-1.329.966-1.954,1.427ZM1242.4,726.1c.675,1.093,1.21,2.032,1.691,2.971a37.953,37.953,0,0,1,3.16,8.6c15.82-12.214,15.761-28.859,10.765-39.6-1.774-3.812-5.039-6.508-8.522-7.034a6.986,6.986,0,0,0-7.042,3.029l-2.948,4.3,1.273,15.417A38.153,38.153,0,0,1,1242.4,726.1Z" transform="translate(-1234.352 -685.594)" fill="#fda630"/>
          </g>
          <path id="Path_506" data-name="Path 506" d="M1244.23,756.628c-8.706-38.714-37.137-25.416-13,6.082S1245.4,805.8,1245.4,805.8h0a45.337,45.337,0,0,0,22.822-10.674h0S1252.936,795.342,1244.23,756.628Z" transform="translate(-1161.436 -668.264)" fill="#dad3cc"/>
          <path id="Path_507" data-name="Path 507" d="M1249.106,680.257c0-.024.026-.062.017-.083-.638-1.361-17.349,5.11-37.326,14.454s-35.655,18.023-35.018,19.384c.01.022.06.024.077.041.546,1.309,23.949,56.865,63.666,60.33a2.032,2.032,0,0,0,.15,1.086l.188.4a2.1,2.1,0,0,0,2.777,1.008l10.885-5.092a2.1,2.1,0,0,0,1.006-2.778l-.188-.4a2.026,2.026,0,0,0-.736-.811C1277.414,735.077,1249.734,681.464,1249.106,680.257Z" transform="translate(-1171.415 -679.993)" fill="#dad3cc"/>
          <g id="Group_479" data-name="Group 479" transform="translate(75.718 6.843)">
            <path id="Path_508" data-name="Path 508" d="M1243.6,747.117l-.537-4.695a32.245,32.245,0,0,0-3.326-11.07c-.5-.986-1.1-2-1.916-3.286l-.517-.811.054-.94a32.405,32.405,0,0,0-1.422-11.521l-.124-.633-1.456-17.66,3.972-5.8a11.412,11.412,0,0,1,11.5-4.958c5.235.791,10.087,4.722,12.663,10.259,6.016,12.935,6.1,33.033-13.446,47.112-.689.5-1.329.966-1.954,1.427ZM1242.4,726.1c.675,1.093,1.21,2.032,1.691,2.971a37.953,37.953,0,0,1,3.16,8.6c15.82-12.214,15.761-28.859,10.765-39.6-1.774-3.812-5.039-6.508-8.522-7.034a6.986,6.986,0,0,0-7.042,3.029l-2.948,4.3,1.273,15.417A38.153,38.153,0,0,1,1242.4,726.1Z" transform="translate(-1234.352 -685.594)" fill="#f3e8dc"/>
          </g>
          <path id="Path_509" data-name="Path 509" d="M1243.024,680.257c0-.024.026-.062.017-.083-.638-1.361-17.349,5.11-37.325,14.454q-.779.365-1.55.728c2.835,3.074,5.593,6.212,8.337,9.3a175.477,175.477,0,0,1,19.579,27.245,346.016,346.016,0,0,1,17.759,33.881C1270.214,732.921,1243.639,681.44,1243.024,680.257Z" transform="translate(-1165.333 -679.993)" fill="#f3e8dc"/>
          <path id="Path_605" data-name="Path 605" d="M1239.343,708.125l-4.858,12.866,7.845,11.3-13.737-.644-8.319,10.952-3.632-13.264-12.986-4.527,11.493-7.554.292-13.75,10.735,8.6Z" transform="translate(-1165.068 -676.314)" fill="#a30f17"/>
        </g>
        <path id="Path_510" data-name="Path 510" d="M1234.835,698.341l16.9-10.941-19.482,4.93-10.941-16.9,4.929,19.482-16.9,10.941,19.482-4.93,10.941,16.9Z" transform="translate(-1164.185 -675.425)" fill="#fff"/>
      </g>
      <path id="Path_511" data-name="Path 511" d="M1270.509,786.734l-30.346,14.195a3.143,3.143,0,0,1-4.167-1.511h0a3.142,3.142,0,0,1,1.51-4.167l30.348-14.195a3.143,3.143,0,0,1,4.167,1.512h0A3.143,3.143,0,0,1,1270.509,786.734Z" transform="translate(-1158.335 -652.05)" fill="#f3e8dc"/>
      <path id="Path_512" data-name="Path 512" d="M1278.934,789.478l-40.691,19.032a4.213,4.213,0,0,1-5.587-2.026h0a4.215,4.215,0,0,1,2.026-5.587l40.691-19.032a4.213,4.213,0,0,1,5.587,2.026h0A4.215,4.215,0,0,1,1278.934,789.478Z" transform="translate(-1159.097 -651.893)" fill="#f3e8dc"/>
    </g>
    <g id="Group_483" data-name="Group 483" transform="translate(1311.389 777.115)">
      <path id="Path_513" data-name="Path 513" d="M1243.509,758.858a7.808,7.808,0,0,1,1.411,8.742l-.039.081a1.413,1.413,0,0,1-1.1.785l-1.136.131a1.34,1.34,0,0,1-.989-.283l-4.121-3.283a1.356,1.356,0,0,1-.373-1.657l.3-.6a1.418,1.418,0,0,1,.763-.7l4.3-4.249Z" transform="translate(-1237.019 -757.823)" fill="#f3e8dc"/>
    </g>
    <g id="Group_485" data-name="Group 485" transform="translate(1492.711 854.438)">
      <path id="Path_514" data-name="Path 514" d="M1386.609,830.128l-.439,31.357,8.51-2.266-4.8-30.569Z" transform="translate(-1385.243 -819.429)" fill="#f3e8dc"/>
      <g id="Group_484" data-name="Group 484">
        <path id="Path_515" data-name="Path 515" d="M1391.348,824.092a4.553,4.553,0,0,1-.205,3.248l-1.106,4.11-.779.395-2.5.9c.39-.787.156.062.156.062l-.9-6.338s-2.666-3.724,3.2-5.312a1.4,1.4,0,0,1,1.523.5A3.581,3.581,0,0,1,1391.348,824.092Z" transform="translate(-1385.411 -821.104)" fill="#f3e8dc"/>
      </g>
      <path id="Path_516" data-name="Path 516" d="M1390.9,880.942a184.3,184.3,0,0,1-4.734-24.662l8.21-4.175,3.705,10.832Z" transform="translate(-1385.243 -814.225)" fill="#f3e8dc"/>
    </g>
    <path id="Path_517" data-name="Path 517" d="M1407.421,991.279l-3.569.619c-.737-4.427-11.838-25.414-12.739-36.315a246.142,246.142,0,0,0-3.815-25.575l11.939-3.551s3.023,0-.3,24.664C1406.406,960.922,1408.406,983.157,1407.421,991.279Z" transform="translate(107.718 56.713)" fill="#f3e8dc"/>
    <path id="Path_518" data-name="Path 518" d="M1399.9,919.117s-2.8,16.871-6.7,34.916c4.074,10.9-2.135,41.3-2.249,41.194-.468-.44-2.612,2.2-2.612,2.2s-4.527-26.834-5.529-38.935-1.25-26.856-1.25-26.856Z" transform="translate(106.444 55.084)" fill="#f3e8dc"/>
    <path id="Path_519" data-name="Path 519" d="M1392.33,980.014a3.983,3.983,0,0,1,1.388,3.278c-.312,1.838-.752,6.139-.752,6.139h-1.748l.053-4.011c0-.263-3.747,4.011-4.382,4.011h-9.246s-.614-2.706,4.815-3.576S1392.33,980.014,1392.33,980.014Z" transform="translate(105.571 68.597)" fill="#a30f17"/>
    <g id="Group_486" data-name="Group 486" transform="translate(1501.683 1044.101)">
      <path id="Path_520" data-name="Path 520" d="M1401.086,977.775l.247,3.828a3.575,3.575,0,0,1-.631,2.267,14.363,14.363,0,0,1-2.78,2.89c2.681.862,5.118-2.144,6.4-4.142a4.769,4.769,0,0,0,.694-3.281l-.451-3.013Z" transform="translate(-1391.608 -976.323)" fill="#f3e8dc"/>
      <path id="Path_521" data-name="Path 521" d="M1406.211,979.234s2.358.213,2.749,2.006,1.507,5.422,1.507,5.422l-1.287,1.025-1.813-3.6s-3.9,5.257-4.52,5.516h-10.093s0-3.34,6.316-3.491C1404.89,985.974,1406.211,979.234,1406.211,979.234Z" transform="translate(-1392.754 -975.677)" fill="#a30f17"/>
    </g>
    <g id="Group_488" data-name="Group 488" transform="translate(1459.769 858.091)">
      <path id="Path_522" data-name="Path 522" d="M1361.835,833.646l11.209,29.289,7.066-5.257-15.787-26.614Z" transform="translate(-1357.701 -822.547)" fill="#f3e8dc"/>
      <g id="Group_487" data-name="Group 487">
        <path id="Path_523" data-name="Path 523" d="M1363.975,826.336a4.556,4.556,0,0,1,1.013,3.093l.495,4.229-.577.655-1.983,1.76c.07-.875.169,0,.169,0l-3.189-5.551s-3.856-2.472,1.007-6.121a1.4,1.4,0,0,1,1.6-.1A3.576,3.576,0,0,1,1363.975,826.336Z" transform="translate(-1358.452 -824.093)" fill="#f3e8dc"/>
      </g>
    </g>
    <path id="Path_524" data-name="Path 524" d="M1387.536,864.564h7.223l-2.883-8.489-5.648,3.471Z" transform="translate(107.481 41.094)" fill="#f3e8dc"/>
    <path id="Path_525" data-name="Path 525" d="M1381.318,874.713c.035-.214.084-.392.127-.589a109.1,109.1,0,0,1-10.438-15.72l6.079-6.921,11.032,13.122,4.054.017a8.121,8.121,0,0,1,10.26,1.318c1.749,1.8,2.912,6.69,1.745,11.857-3.22,14.244-.7,21.779-.7,21.779l-18.637,6.949s-.424-12.387-.716-21.074v-.031a9.7,9.7,0,0,0-1.513-4.753A8.495,8.495,0,0,1,1381.318,874.713Z" transform="translate(104.103 40.075)" fill="#410d0e"/>
    <g id="Group_489" data-name="Group 489" transform="translate(1488.229 881.909)">
      <path id="Path_526" data-name="Path 526" d="M1385.993,843.586l11.845,4.147-1.168,8.842c-.016.126-.051.245-.074.369-.227.042-.454.083-.681.139-.037.008-.073.022-.11.032s-.072.012-.108.021a8.109,8.109,0,0,0-5.538,5.544,13.973,13.973,0,0,1-5.127-.066,5.136,5.136,0,0,1-2.692-1.161C1379.842,856,1385.993,843.586,1385.993,843.586Z" transform="translate(-1381.744 -843.586)" fill="#f3e8dc"/>
    </g>
    <path id="Path_527" data-name="Path 527" d="M1385.9,851.643c3.189,1.559,2.438,17.994,2.989,29.186a12.72,12.72,0,0,0,10.769,11.9c4.223.674,8.858.8,11.653-.794-1.849-1.513-11.813-16.174-8.62-35.589.419-2.555.47-9.669-3.833-13.53-4.779-4.289-14.642,1.306-14.642,1.306S1381.518,849.5,1385.9,851.643Z" transform="translate(106.852 37.792)" fill="#161615"/>
    <path id="Path_528" data-name="Path 528" d="M1382.469,890.489s-2.481,12.63-2.481,20.142c0,4.126,1.012,30.127,1.012,30.127s17.706,1.282,21.145,1.282c.853-21.307,5.71-21.961,5.71-31.9,0-4.318-2.214-9.2-3.915-12.311a18,18,0,0,1-2.455-6.909l-.116-.4Z" transform="translate(106.096 48.731)" fill="#410d0e"/>
    <path id="Path_529" data-name="Path 529" d="M1398.819,929.4" transform="translate(110.274 57.367)" fill="#ffc630"/>
    <g id="Group_499" data-name="Group 499" transform="translate(901.877 980.404)">
      <g id="Group_490" data-name="Group 490" transform="translate(36.584 182.483)">
        <path id="Path_530" data-name="Path 530" d="M938.523,1077.407s3.24,3.005,10.623,4.886c1.626.414,3.38-.139,3.38,2.542h-8.963l-7.453-1.289v1.289h-4.025s-1.122-6.584,1.229-7.428Z" transform="translate(-931.817 -1072.678)" fill="#161615"/>
        <path id="Path_531" data-name="Path 531" d="M937.459,1073.537l.792,4.729h0a4.553,4.553,0,0,1-4.932.165l-.277-.165.4-4.729Z" transform="translate(-931.545 -1073.537)" fill="#f3e8dc"/>
      </g>
      <g id="Group_491" data-name="Group 491" transform="translate(6.866 182.483)">
        <path id="Path_532" data-name="Path 532" d="M914.2,1077.407s3.24,3.005,10.623,4.886c1.626.414,3.378-.139,3.378,2.542h-8.961l-7.454-1.289v1.289h-4.026s-1.121-6.584,1.23-7.428Z" transform="translate(-907.497 -1072.678)" fill="#161615"/>
        <path id="Path_533" data-name="Path 533" d="M913.139,1073.537l.792,4.729h0a4.553,4.553,0,0,1-4.931.165l-.277-.165.4-4.729Z" transform="translate(-907.224 -1073.537)" fill="#f3e8dc"/>
      </g>
      <g id="Group_492" data-name="Group 492" transform="translate(7.717 82.134)">
        <path id="Path_534" data-name="Path 534" d="M948.391,993.319s4.031,37.639,4.746,43.276-10.076,57.689-10.076,57.689l-6.9.2s-1.822-30.375-1.5-47.674c.114-6.1-2.6-12.935-6.117-18.1C913.8,1007.016,915.1,992.313,915.1,992.313Z" transform="translate(-906.667 -991.212)" fill="#a30f17"/>
        <path id="Path_535" data-name="Path 535" d="M944.71,994.119s-1.988,25.926-5.665,39.848c-1.546,5.854-24.644,60.067-24.644,60.067l-6.207-.115s.931-26.579,7.631-44.551c2.364-6.34,1.636-9.589,1.239-14.9a345.79,345.79,0,0,1-.439-43.053Z" transform="translate(-908.193 -991.412)" fill="#a30f17"/>
      </g>
      <g id="Group_498" data-name="Group 498">
        <g id="Group_493" data-name="Group 493" transform="translate(52.234 2.75)">
          <path id="Path_536" data-name="Path 536" d="M954.575,932.751l-1.687-5.138a1.363,1.363,0,0,0-.993-.892l-1.1-.244a1.367,1.367,0,0,0-1.023.176l-4.511,2.841a1.361,1.361,0,0,0-.562,1.593l.215.629a1.359,1.359,0,0,0,.666.77l5.97,3.071Z" transform="translate(-944.625 -926.444)" fill="#f3e8dc"/>
          <path id="Path_537" data-name="Path 537" d="M951.326,934.891l-4.665-1.042a1.3,1.3,0,0,1-.891-1.838l.9-1.873c.241-.5,3.228-.692,3.228-.692s.728,2.075-2.025,1.969a2.043,2.043,0,0,1-.2,1.025,5.859,5.859,0,0,1,5.833.425Z" transform="translate(-944.4 -925.778)" fill="#f3e8dc"/>
        </g>
        <path id="Path_538" data-name="Path 538" d="M957.1,930.983s13.082,15.247,7.9,24.9S943.355,981.4,943.355,981.4l-8.3-21.055s11.844.7,19.126-7.324-1.617-18.422-1.617-18.422Z" transform="translate(-894.515 -922.687)" fill="#410d0e"/>
        <g id="Group_494" data-name="Group 494" transform="translate(21.444)">
          <path id="Path_539" data-name="Path 539" d="M919.427,930.007l2.259-4.913a1.361,1.361,0,0,1,1.088-.774l1.119-.118a1.37,1.37,0,0,1,1,.291l4.159,3.335a1.363,1.363,0,0,1,.377,1.648l-.285.6a1.365,1.365,0,0,1-.749.689l-6.282,2.373Z" transform="translate(-919.427 -924.194)" fill="#f3e8dc"/>
          <path id="Path_540" data-name="Path 540" d="M921.976,932.466l4.754-.506a1.3,1.3,0,0,0,1.095-1.725l-.683-1.963c-.182-.522-3.128-1.053-3.128-1.053s-.961,1.978,1.786,2.185a2.06,2.06,0,0,0,.082,1.041,5.857,5.857,0,0,0-5.844-.24Z" transform="translate(-919.291 -923.523)" fill="#f3e8dc"/>
        </g>
        <path id="Path_541" data-name="Path 541" d="M944.245,957.388c11.037,6.951,7.074,51.325,7.074,51.325l-33.293-3.208,2.859-32.828s-15.53-18.072-18.714-31.471S922.7,927.9,922.7,927.9l3.834,4.769s-15.882,1.325-11.406,8.243,19.1,16.52,19.1,16.52Z" transform="translate(-901.877 -923.371)" fill="#410d0e"/>
        <g id="Group_497" data-name="Group 497" transform="translate(29.153 7.727)">
          <g id="Group_495" data-name="Group 495" transform="translate(5.92 19.566)">
            <path id="Path_542" data-name="Path 542" d="M930.581,952.752l1.311-6.222,7.129.633.7,7.344a1.392,1.392,0,0,1-.144.151A20.212,20.212,0,0,0,930.581,952.752Z" transform="translate(-930.581 -946.53)" fill="#f3e8dc"/>
          </g>
          <g id="Group_496" data-name="Group 496">
            <path id="Path_543" data-name="Path 543" d="M928.241,936.86l2.086,9.693c.967-.2,1.707.754,1.669,1.7a1.847,1.847,0,0,1,.281.693,11.357,11.357,0,0,0,9.038.613c5.993-2.19.317-13.54.317-13.54Z" transform="translate(-925.18 -929.297)" fill="#f3e8dc"/>
            <path id="Path_544" data-name="Path 544" d="M927.075,943.475a6.524,6.524,0,0,1,.558-8.555c2.121-2.3,5.023-4.321,7.57-4.387,4.487-.117,6.27.42,8.861,2.427,3.942,3.055-1.291,5.663-1.291,5.663a12.1,12.1,0,0,1-8.433.981,1.587,1.587,0,0,0-1.773.753c-.885,1.741.426,9.9.426,9.9A28.006,28.006,0,0,1,927.075,943.475Z" transform="translate(-925.736 -930.518)" fill="#d2111c"/>
            <path id="Path_545" data-name="Path 545" d="M929.856,943.71a1.521,1.521,0,1,0,.5-2.091A1.52,1.52,0,0,0,929.856,943.71Z" transform="translate(-924.871 -928.104)" fill="#f3e8dc"/>
          </g>
        </g>
        <path id="Path_546" data-name="Path 546" d="M939.862,951.323l.222,3.367-11.049-1.945,2.223-3.724Z" transform="translate(-895.851 -918.685)" fill="#410d0e"/>
      </g>
    </g>
    <g id="Group_505" data-name="Group 505" transform="translate(1582.321 976.926)">
      <g id="Group_500" data-name="Group 500" transform="translate(7.675 185.616)">
        <path id="Path_547" data-name="Path 547" d="M1491.413,1077.124s-3.239,3-10.624,4.885c-1.625.414-3.379-.139-3.379,2.544h8.963l7.452-1.289v1.289h4.026s1.122-6.585-1.23-7.429Z" transform="translate(-1477.41 -1072.395)" fill="#410d0e"/>
        <path id="Path_548" data-name="Path 548" d="M1489.662,1073.254l-.792,4.729h0a4.554,4.554,0,0,0,4.932.166l.276-.166-.4-4.729Z" transform="translate(-1474.867 -1073.254)" fill="#f3e8dc"/>
      </g>
      <g id="Group_501" data-name="Group 501" transform="translate(43.144 185.616)">
        <path id="Path_549" data-name="Path 549" d="M1520.44,1077.124s-3.239,3-10.623,4.885c-1.626.414-3.38-.139-3.38,2.544h8.963l7.454-1.289v1.289h4.025s1.121-6.585-1.229-7.429Z" transform="translate(-1506.437 -1072.395)" fill="#410d0e"/>
        <path id="Path_550" data-name="Path 550" d="M1518.689,1073.254l-.792,4.729h0a4.555,4.555,0,0,0,4.932.166l.277-.166-.4-4.729Z" transform="translate(-1503.894 -1073.254)" fill="#f3e8dc"/>
      </g>
      <g id="Group_504" data-name="Group 504">
        <path id="Path_551" data-name="Path 551" d="M1497.479,928.094a1.353,1.353,0,0,0,.163-1.234l-1.668-4.62a1.352,1.352,0,0,0-2.012-.672l-7.157,4.686a1.35,1.35,0,0,0-.611,1.13v7.027s-3.586,19-1.9,26.465,7.061,1.706,8.525.435c-3.151-9.449-1.586-24.287-1.586-24.287Z" transform="translate(-1468.307 -921.347)" fill="#f3e8dc"/>
        <path id="Path_552" data-name="Path 552" d="M1487.616,974.977s-11.673-3.718-15.331-8.717,2.532-32.356,2.532-32.356l-.8-4.923a4.582,4.582,0,0,1,4.482-5.318l3.118-.028a1.785,1.785,0,0,1,1.648,2.508l-4.1,9.23s-3.079,20.721,1.233,22.294a48.6,48.6,0,0,0,10.963,2.273Z" transform="translate(-1471.129 -920.84)" fill="#f3e8dc"/>
        <path id="Path_553" data-name="Path 553" d="M1516.906,997.273a219.612,219.612,0,0,1-3.69,29.591,26.438,26.438,0,0,0,.911,13.608c6.97,20.709,15.641,51.848,15.641,51.848h-6.491s-20.8-36.8-25.873-55.058-5.945-24.052-5.945-24.052l6.04-15.937Z" transform="translate(-1466.617 -904.499)" fill="#5c0c0c"/>
        <g id="Group_503" data-name="Group 503" transform="translate(29.271 11.989)">
          <g id="Group_502" data-name="Group 502" transform="translate(0 3.693)">
            <path id="Path_554" data-name="Path 554" d="M1503.883,934.181l11.7,7.626-3.609,9.242c-.052.131-.12.252-.178.379-.258-.016-.514-.031-.773-.031-.043,0-.084,0-.127.005s-.081-.005-.122-.005a9.022,9.022,0,0,0-7.454,4.518,15.547,15.547,0,0,1-5.521-1.432,5.723,5.723,0,0,1-2.6-1.97C1493.94,945.958,1503.883,934.181,1503.883,934.181Z" transform="translate(-1495.083 -934.181)" fill="#f3e8dc"/>
          </g>
          <path id="Path_555" data-name="Path 555" d="M1505.971,952.234l1.022,6.382h-9.042l-.65-7.82Z" transform="translate(-1494.592 -926.801)" fill="#f3e8dc"/>
          <path id="Path_556" data-name="Path 556" d="M1502.411,956.592l2.747-6.094-1.786-1.121a3.356,3.356,0,0,1-1.391-3.926l1.955-5.743s-5.564-.681-5.4-5.865c0-2.67,3.675-2.685,3.675-2.685a5.341,5.341,0,0,0,4.506,2.67c1.463-.185,5.479.354,8.189,5.084,1.823,3.182,1.024,8.165-.563,11.9-1.422,3.351-5.052,5.222-8.649,5.775Z" transform="translate(-1494.318 -931.159)" fill="#a30f17"/>
          <path id="Path_557" data-name="Path 557" d="M1505.932,944.838a2.585,2.585,0,0,1-1.478,2.837c-1.143.609-2.336.323-2.664-.638a2.586,2.586,0,0,1,1.479-2.837C1504.413,943.593,1505.605,943.877,1505.932,944.838Z" transform="translate(-1493.614 -928.336)" fill="#f3e8dc"/>
        </g>
        <path id="Path_558" data-name="Path 558" d="M1491.656,1007.1H1520V970.736a15.429,15.429,0,0,0-13.994-15.363l-19.712-2.386s-2.317,3.549-8.775,11.792a66.521,66.521,0,0,0,16.745,7.005Z" transform="translate(-1469.711 -914.326)" fill="#161615"/>
        <path id="Path_559" data-name="Path 559" d="M1519.329,997.273s-4,14.489-18.775,30.728a19,19,0,0,0-5.513,14.767l1.946,49.552h-6.615s-11.848-41.149-9.53-61.433,10.142-33.614,10.142-33.614Z" transform="translate(-1469.04 -904.499)" fill="#5c0c0c"/>
      </g>
    </g>
    <g id="Group_510" data-name="Group 510" transform="translate(1357.979 673.215)">
      <g id="Group_507" data-name="Group 507">
        <g id="Group_506" data-name="Group 506">
          <path id="Path_560" data-name="Path 560" d="M1356.47,723.7l54.559,31.541c3.315,1.917,5.566,5.648,4.84,8.08h0c-.746,2.5-4.292,2.529-7.582.013Z" transform="translate(-1257.101 -661.494)" fill="#a30f17"/>
          <path id="Path_561" data-name="Path 561" d="M1369.669,732.581,1312.607,699.6c-3.641-2.105-5.061-5.44-3.085-7.14h0c1.949-1.676,6.359-1.018,9.5,1.381Z" transform="translate(-1267.718 -668.635)" fill="#a30f17"/>
          <path id="Path_562" data-name="Path 562" d="M1372.039,723.114l-58.692,99.842c-5.6,9.524-13.037,16.81-15.678,15.111h0c-2.66-1.711.98-11.612,7.417-20.676Z" transform="translate(-1270.345 -661.625)" fill="#a30f17"/>
          <path id="Path_563" data-name="Path 563" d="M1356.668,735.756l30.646-52.046c1.41-2.395,3.663-3.7,4.889-2.875h0c1.234.83.941,3.489-.673,5.766Z" transform="translate(-1257.058 -671.062)" fill="#a30f17"/>
          <path id="Path_564" data-name="Path 564" d="M1357.384,722.994l13.959,89.612c1.127,7.236-.167,15.368-2.873,17.3h0c-2.78,1.987-5.639-3.533-6.062-11.559Z" transform="translate(-1256.899 -661.652)" fill="#a30f17"/>
          <path id="Path_565" data-name="Path 565" d="M1359.353,737.626,1350.2,678.64c-.463-2.982.682-5.667,2.434-5.84h0c1.744-.171,3.386,2.22,3.545,5.193Z" transform="translate(-1258.516 -672.792)" fill="#a30f17"/>
          <path id="Path_566" data-name="Path 566" d="M1377.449,723.992,1288.3,757.486c-7.534,2.831-13.755,2.4-13.1-.984h0c.645-3.341,7.7-7.9,14.89-9.772Z" transform="translate(-1275.147 -661.43)" fill="#a30f17"/>
          <path id="Path_567" data-name="Path 567" d="M1356.169,728.671l54.879-20.578c2.7-1.012,5.434-.434,5.956,1.239h0c.531,1.7-1.443,3.845-4.3,4.591Z" transform="translate(-1257.169 -665.07)" fill="#a30f17"/>
        </g>
      </g>
      <g id="Group_509" data-name="Group 509" transform="translate(54.12 22.386)">
        <g id="Group_508" data-name="Group 508">
          <path id="Path_568" data-name="Path 568" d="M1360.076,722.811l-7.869,51.241c-.593,3.861-2.418,7.4-3.925,7.528h0c-1.528.13-1.991-3.3-1.008-7.255Z" transform="translate(-1313.377 -684.078)" fill="#dad3cc"/>
          <path id="Path_569" data-name="Path 569" d="M1357.31,731.929l5.756-37.388c.3-1.981,1.436-3.555,2.434-3.42h0c1,.134,1.456,1.93.972,3.884Z" transform="translate(-1311.035 -691.113)" fill="#dad3cc"/>
          <path id="Path_570" data-name="Path 570" d="M1366.854,724.494l-42.819.565c-2.965.039-5.071-1.227-4.5-2.709h0c.565-1.476,3.525-2.49,6.326-2.195Z" transform="translate(-1319.439 -684.679)" fill="#dad3cc"/>
          <path id="Path_571" data-name="Path 571" d="M1356.722,723.707l35.69-.461c2.019-.026,3.7,1.012,3.641,2.244h0c-.061,1.254-1.89,2.171-3.941,1.955Z" transform="translate(-1311.166 -683.982)" fill="#dad3cc"/>
          <path id="Path_572" data-name="Path 572" d="M1366.543,723.086l-39.068,37.494c-3.018,2.9-6.336,4.323-7.058,3h0c-.724-1.326,1.511-4.775,4.707-7.334Z" transform="translate(-1319.252 -684.017)" fill="#dad3cc"/>
          <path id="Path_573" data-name="Path 573" d="M1356.821,729.285l27.454-26.327c1.429-1.37,3.165-1.859,3.761-1.076h0c.6.792-.2,2.555-1.756,3.8Z" transform="translate(-1311.144 -688.806)" fill="#dad3cc"/>
          <path id="Path_574" data-name="Path 574" d="M1362.058,730.385l-21.816-28.859c-1.29-1.708-1.443-3.789-.346-4.481h0c1.094-.689,2.961.3,4.021,2.124Z" transform="translate(-1315.062 -689.845)" fill="#dad3cc"/>
          <path id="Path_575" data-name="Path 575" d="M1357.069,723.032l23.938,31.656c1.571,2.078,2.123,4.917,1.168,6.11h0c-.973,1.216-3.064.175-4.459-2.227Z" transform="translate(-1311.089 -684.029)" fill="#dad3cc"/>
        </g>
      </g>
    </g>
    <path id="Path_576" data-name="Path 576" d="M1352.115,822.732l-4.7,2.9-.278,5.517-4.21-3.576-5.333,1.441,2.1-5.109-3.018-4.627,5.508.419,3.467-4.3,1.3,5.368Z" transform="translate(96.484 32.067)" fill="#c4bbb3"/>
    <path id="Path_577" data-name="Path 577" d="M1331.675,675.8l-3.15,1.942-.186,3.7-2.82-2.4-3.572.965,1.407-3.423-2.022-3.1,3.69.28,2.323-2.88.873,3.6Z" transform="translate(93.079 0)" fill="#f3e8dc"/>
    <path id="Path_578" data-name="Path 578" d="M1113.485,798.163c18.356,10.392,33.865,17.7,34.644,16.327s-13.47-10.913-31.825-21.3-33.865-17.7-34.643-16.327S1095.131,787.772,1113.485,798.163Z" transform="translate(39.888 23.479)" fill="#a30f17"/>
    <path id="Path_579" data-name="Path 579" d="M1047.272,772.505c20.719,3.952,37.754,5.9,38.05,4.345s-16.26-6.013-36.978-9.965-37.755-5.9-38.05-4.345S1026.553,768.554,1047.272,772.505Z" transform="translate(24.057 20.22)" fill="#a30f17"/>
    <path id="Path_580" data-name="Path 580" d="M1069.938,814.805c7.782-19.6,12.9-35.969,11.432-36.552s-8.968,14.838-16.749,34.442-12.9,35.968-11.432,36.551S1062.156,834.409,1069.938,814.805Z" transform="translate(33.521 23.822)" fill="#a30f17"/>
    <path id="Path_581" data-name="Path 581" d="M1082.087,743.848c1.871-21.01,2.113-38.154.538-38.295s-4.366,16.778-6.237,37.788-2.113,38.153-.539,38.293S1080.215,764.857,1082.087,743.848Z" transform="translate(38.375 7.693)" fill="#ffc630"/>
    <path id="Path_582" data-name="Path 582" d="M1082.087,743.848c1.871-21.01,2.113-38.154.538-38.295s-4.366,16.778-6.237,37.788-2.113,38.153-.539,38.293S1080.215,764.857,1082.087,743.848Z" transform="translate(38.375 7.693)" fill="#a30f17"/>
    <path id="Path_583" data-name="Path 583" d="M1121.353,752.219c17.212-12.192,30.425-23.12,29.513-24.409s-15.608,7.549-32.819,19.74-30.425,23.12-29.512,24.409S1104.141,764.409,1121.353,752.219Z" transform="translate(41.411 12.604)" fill="#a30f17"/>
    <path id="Path_584" data-name="Path 584" d="M1099.912,802.115c6.65,8.7,12.568,15.343,13.219,14.844s-4.211-7.951-10.86-16.647-12.567-15.342-13.218-14.844S1093.264,793.419,1099.912,802.115Z" transform="translate(41.522 25.42)" fill="#410d0e"/>
    <path id="Path_585" data-name="Path 585" d="M1061.191,749.417c6.649,8.7,12.567,15.342,13.218,14.844s-4.211-7.951-10.86-16.647-12.568-15.341-13.219-14.844S1054.541,740.722,1061.191,749.417Z" transform="translate(32.929 13.726)" fill="#410d0e"/>
    <path id="Path_586" data-name="Path 586" d="M1051.1,781.412c10.888-1.13,19.647-2.708,19.561-3.524s-8.98-.56-19.868.57-19.646,2.709-19.56,3.524S1040.209,782.542,1051.1,781.412Z" transform="translate(28.704 23.638)" fill="#410d0e"/>
    <path id="Path_587" data-name="Path 587" d="M1107.522,775.833c10.889-1.13,19.646-2.708,19.562-3.523s-8.98-.56-19.868.571-19.646,2.708-19.561,3.524S1096.634,776.964,1107.522,775.833Z" transform="translate(41.225 22.4)" fill="#410d0e"/>
    <path id="Path_588" data-name="Path 588" d="M1144.051,772.173l-.118,5.828,4.735,3.4-5.58,1.688-1.772,5.554-3.33-4.785-5.83.031,3.521-4.646-1.831-5.535,5.507,1.913Z" transform="translate(51.1 22.476)" fill="#f3e8dc"/>
    <path id="Path_589" data-name="Path 589" d="M1024.853,785.512l-.118,5.829,4.734,3.4-5.58,1.689-1.772,5.554-3.33-4.785-5.83.031,3.522-4.646-1.831-5.535,5.507,1.914Z" transform="translate(24.649 25.436)" fill="#dad3cc"/>
    <path id="Path_590" data-name="Path 590" d="M1072.275,684.233l-.066,3.264,2.651,1.9-3.125.946-.993,3.11-1.865-2.68-3.265.017,1.972-2.6-1.026-3.1,3.084,1.072Z" transform="translate(36.334 2.962)" fill="#f3e8dc"/>
    <path id="Path_591" data-name="Path 591" d="M1081.725,818.742l-.066,3.264,2.651,1.9-3.124.946-.992,3.11-1.865-2.68-3.265.017,1.972-2.6-1.025-3.1,3.084,1.071Z" transform="translate(38.431 32.81)" fill="#dad3cc"/>
    <path id="Path_592" data-name="Path 592" d="M1100.831,741.445c-15.321,29.519-26.6,54.039-25.2,54.767s14.957-22.612,30.278-52.131,26.6-54.04,25.2-54.767S1116.15,711.927,1100.831,741.445Z" transform="translate(38.531 4.085)" fill="#f3e8dc"/>
    <path id="Path_593" data-name="Path 593" d="M1046.448,808.871c-25.874,20.9-46.044,38.831-45.052,40.06s22.772-14.714,48.645-35.61,46.044-38.831,45.052-40.06S1072.321,787.975,1046.448,808.871Z" transform="translate(22.076 22.703)" fill="#f3e8dc"/>
    <path id="Path_594" data-name="Path 594" d="M1128.677,759.952c-31.11,11.759-55.875,22.489-55.317,23.967s26.231-6.857,57.339-18.616,55.877-22.489,55.318-23.966S1159.786,748.192,1128.677,759.952Z" transform="translate(38.051 15.595)" fill="#53b6b9"/>
    <path id="Path_595" data-name="Path 595" d="M1128.677,759.952c-31.11,11.759-55.875,22.489-55.317,23.967s26.231-6.857,57.339-18.616,55.877-22.489,55.318-23.966S1159.786,748.192,1128.677,759.952Z" transform="translate(38.051 15.595)" fill="#f3e8dc"/>
    <path id="Path_596" data-name="Path 596" d="M1046.947,752.4c25.649,21.172,47.255,37.347,48.261,36.129s-18.971-19.37-44.619-40.54-47.256-37.348-48.261-36.129S1021.3,731.231,1046.947,752.4Z" transform="translate(22.282 9.079)" fill="#f3e8dc"/>
    <path id="Path_597" data-name="Path 597" d="M1099.452,830.185c13.839,30.241,26.223,54.223,27.66,53.566s-8.62-25.705-22.459-55.946-26.225-54.223-27.661-53.566S1085.611,799.945,1099.452,830.185Z" transform="translate(38.829 22.932)" fill="#f3e8dc"/>
    <path id="Path_598" data-name="Path 598" d="M1161.3,851.205s-5.576,2.223-12.288-1.862c4.467,14.521-17.575,9.83-17.575,9.83l5.315,9.038C1166.871,875.747,1161.3,851.205,1161.3,851.205Z" transform="translate(50.941 39.601)" fill="#a30f17"/>
    <path id="Path_599" data-name="Path 599" d="M1089.546,849.774c3.922,23.583-9.562,30.966-9.562,30.966l6.405,14.615S1118.473,872.537,1089.546,849.774Z" transform="translate(39.523 39.696)" fill="#5c0c0c"/>
    <path id="Path_600" data-name="Path 600" d="M1119.16,923.051s5-9.5,1.216-27.136c7.925,7.415,14.7,10.209,14.7,10.209s1.944,10.006-11.156,21A20.474,20.474,0,0,0,1119.16,923.051Z" transform="translate(48.217 49.935)" fill="#d2111c"/>
    <path id="Path_601" data-name="Path 601" d="M1247.868,815.15s5.576,2.223,12.288-1.862c-4.467,14.521,17.574,9.83,17.574,9.83l-5.315,9.039C1242.3,839.692,1247.868,815.15,1247.868,815.15Z" transform="translate(76.687 31.6)" fill="#a30f17"/>
    <path id="Path_602" data-name="Path 602" d="M1318.058,813.719c-3.923,23.583,9.563,30.966,9.563,30.966l-6.405,14.615S1289.13,836.482,1318.058,813.719Z" transform="translate(89.671 31.695)" fill="#5c0c0c"/>
    <path id="Path_603" data-name="Path 603" d="M1287.42,887s-5-9.5-1.216-27.136c-7.925,7.415-14.7,10.209-14.7,10.209s-1.944,10.006,11.156,21A20.479,20.479,0,0,1,1287.42,887Z" transform="translate(82.001 41.934)" fill="#d2111c"/>
    <g id="Group_512" data-name="Group 512" transform="translate(1207.878 1023.07)">
      <text id="WHO_WILL_BE_THE_HOOD_CHAMPION_" data-name="WHO WILL 
BE THE 
HOOD 
CHAMPION?" transform="translate(65 23)" fill="#631b1b" font-size="22" font-family="IBMPlexSans-Bold, IBM Plex Sans" font-weight="700"><tspan x="-58.828" y="0">WHO WILL </tspan><tspan x="-40.271" y="27">BE THE </tspan><tspan fill="#a30f17"><tspan x="-33.935" y="54">HOOD </tspan><tspan x="-64.955" y="81">CHAMPION?</tspan></tspan></text>
    </g>
    <g id="Group_513" data-name="Group 513" transform="translate(999.209 1118.357)">
      <text id="Is_it_their_hood_" data-name="Is it their hood?" transform="translate(0.669 17.712)" fill="#fff" font-size="18" font-family="IBMPlexSans-Text, IBM Plex Sans"><tspan x="0" y="0">Is it their hood?</tspan></text>
    </g>
    <g id="Group_514" data-name="Group 514" transform="translate(1404.878 1103.07)">
      <text id="Or_will_it_be_yours_" data-name="Or will it be yours?" transform="translate(0 13)" fill="#fff" font-size="18" font-family="IBMPlexSans-Text, IBM Plex Sans"><tspan x="0" y="0">Or will it be yours?</tspan></text>
    </g>
  </g>
</svg>
