<svg xmlns="http://www.w3.org/2000/svg" width="320.387" height="152.328" viewBox="0 0 320.387 152.328">
  <g id="Group_749" data-name="Group 749" transform="translate(-416.713 -133)">
    <g id="Group_632" data-name="Group 632" transform="translate(416.713 155.371)">
      <g id="Group_630" data-name="Group 630">
        <g id="Group_616" data-name="Group 616">
          <rect id="Rectangle_1036" data-name="Rectangle 1036" width="138.479" height="114.779" rx="1.816" fill="#a30f17"/>
        </g>
        <g id="Group_617" data-name="Group 617" transform="translate(16.885 65.242)">
          <path id="Path_598" data-name="Path 598" d="M96.884,482.368s-26.612,15.57-31.37,24.693c-3.553,6.814,7.662,8.286,19.545,12.865l-3.644,4.367s-32.575-.1-27.946-14.712,22.655-29.722,22.655-29.722c3.857-4.6,9.8-6.258,14.5-4.281A12.1,12.1,0,0,1,96.884,482.368Z" transform="translate(-53.018 -474.757)" fill="#f3e8dc"/>
        </g>
        <g id="Group_618" data-name="Group 618" transform="translate(44.269 31.612)">
          <path id="Path_599" data-name="Path 599" d="M88.221,447.089a8.587,8.587,0,0,1,7.449,2.353,23.686,23.686,0,0,1,5.567,8.778c3.072,8.352,7.247,8.106,7.247,8.106s-5.9,13.513-28.375,12.53a40.113,40.113,0,0,1-2.354-5.377c-1.7-4.745-3.314-11.791-.84-17.594C78.131,453.037,80.22,448.437,88.221,447.089Z" transform="translate(-75.645 -446.97)" fill="#410d0e"/>
        </g>
        <g id="Group_619" data-name="Group 619" transform="translate(129.556 23.585)">
          <path id="Path_600" data-name="Path 600" d="M146.165,457.485s-.474.415,1.472-11.743c.326-2.036,1.464-.969,1.535.422.123,2.506.128,4.65.128,4.65s6.057-9.95,7.339-10.457-4.169,8.837-4.169,8.837,5.82-8.531,7.053-8.7-5.133,9.288-5.133,9.288,5.461-7.477,6.569-7.734-5.652,9.766-5.652,9.766,4.672-4.861,5.818-4.9-11.062,13.276-11.062,13.276Z" transform="translate(-146.114 -440.338)" fill="#f3e8dc"/>
        </g>
        <g id="Group_620" data-name="Group 620" transform="translate(51.648 41.347)">
          <path id="Path_601" data-name="Path 601" d="M92.891,460.661s-1.042,8.495,2.611,14.558a4.378,4.378,0,0,1-3.912,3.622,4.731,4.731,0,0,1-4.638-1.963,27.46,27.46,0,0,0-.238-5.758,35.373,35.373,0,0,0-3.968-12.558C77.771,449.5,92.891,460.661,92.891,460.661Z" transform="translate(-81.741 -455.014)" fill="#f3e8dc"/>
        </g>
        <g id="Group_621" data-name="Group 621" transform="translate(50.611 34.19)">
          <path id="Path_602" data-name="Path 602" d="M88.729,449.1a7.152,7.152,0,0,1,6.675,4.917c1.3,3.885,2.675,10.285-.8,13.705-5.2,5.127-15.078-8.116-13.568-12.051C82.153,452.77,84.431,449.064,88.729,449.1Z" transform="translate(-80.885 -449.1)" fill="#f3e8dc"/>
        </g>
        <g id="Group_622" data-name="Group 622" transform="translate(67.788 39.728)">
          <path id="Path_603" data-name="Path 603" d="M102.9,478.214s24.766,8.478,34.11,4.171c9.487-4.374,9.236-11.638,19.759-28.709l5.67.9s-7.033,29.652-20.888,36.218-46.477.467-46.477.467Z" transform="translate(-95.077 -453.676)" fill="#f3e8dc"/>
        </g>
        <g id="Group_623" data-name="Group 623" transform="translate(45.024 60.397)">
          <path id="Path_604" data-name="Path 604" d="M114.583,504.155c3.523-7.753-2.128-9.628-2.128-9.628a95.45,95.45,0,0,0-2.01-12.267c-1.29-6.066-3.206-6.617-6.435-7.708a7.823,7.823,0,0,1-2.467-1.762s-11.806-4.581-13.984,0c-1.8,3.792-7.522,1.5-11.292,4.021A38.157,38.157,0,0,0,81.1,492.878a10.183,10.183,0,0,1,1.107,2.5c2.4,3.738,7.87,13.564,7.725,25.389h24.342C113.759,512.837,113.668,506.168,114.583,504.155Z" transform="translate(-76.268 -470.754)" fill="#f3e8dc"/>
        </g>
        <g id="Group_624" data-name="Group 624" transform="translate(70.299 62.423)">
          <path id="Path_605" data-name="Path 605" d="M97.268,472.479l-.116-.04S97.193,472.4,97.268,472.479Z" transform="translate(-97.152 -472.428)" fill="#e5e1ea"/>
        </g>
        <g id="Group_625" data-name="Group 625" transform="translate(47.716 62.474)">
          <path id="Path_606" data-name="Path 606" d="M115.347,523.707q-1.276.6-2.54,1.068H89.226a23.083,23.083,0,0,1-2.6-1.068L84.865,500.8c5.046-5.629-6.372-25.45-6.372-25.45L86.61,473.2s7.415,5.926,11.118,8.215c2.85,1.766,5.11,1.058,4.4-4.58-.419-3.371-.766-4.184-.94-4.365l7.812,2.6s5.967,13.737,6.578,18.777S115.347,523.707,115.347,523.707Z" transform="translate(-78.493 -472.47)" fill="#d2111c"/>
        </g>
        <g id="Group_626" data-name="Group 626" transform="translate(50.575 45.432)">
          <path id="Path_607" data-name="Path 607" d="M85.9,463.127s-4.1-1.306-4.864-2.768,1.1-2.6,2.468-1.581S85.9,463.127,85.9,463.127Z" transform="translate(-80.855 -458.389)" fill="#f3e8dc"/>
        </g>
        <g id="Group_627" data-name="Group 627" transform="translate(48.957 33.606)">
          <path id="Path_608" data-name="Path 608" d="M90.582,449.209s-4.315,10.892-8.555,11.512L80.76,460.4s-3.8-6.442,1.9-9.823S90.582,449.209,90.582,449.209Z" transform="translate(-79.518 -448.617)" fill="#410d0e"/>
        </g>
        <g id="Group_628" data-name="Group 628" transform="translate(59.599 33.141)">
          <path id="Path_609" data-name="Path 609" d="M88.311,449.817a8.419,8.419,0,0,1,5.387,4.013l.528-1.372L91.057,449.5l-2.746-1.267Z" transform="translate(-88.311 -448.233)" fill="#410d0e"/>
        </g>
        <g id="Group_629" data-name="Group 629" transform="translate(45.024 110.412)">
          <path id="Path_610" data-name="Path 610" d="M79.981,512.11s-.4-.609,13.191,3.564c2.275.7.874,1.83-.73,1.686-2.885-.259-5.336-.6-5.336-.6s10.4,8.52,10.779,10.067-9.435-6.185-9.435-6.185,8.822,8.022,8.817,9.46-9.8-7.357-9.8-7.357,7.674,7.442,7.789,8.75S85,523.471,85,523.471s4.807,6.12,4.673,7.438-13.405-14.775-13.405-14.775Z" transform="translate(-76.268 -512.079)" fill="#f3e8dc"/>
        </g>
      </g>
      <g id="Group_631" data-name="Group 631" transform="translate(86.475 17.04)">
        <path id="Path_611" data-name="Path 611" d="M129,454.411a3.137,3.137,0,1,0-1.138-4.288A3.14,3.14,0,0,0,129,454.411Zm1.641-2.824a.128.128,0,1,1-.177.046A.129.129,0,0,1,130.639,451.588Z" transform="translate(-106.96 -432.063)" fill="#f3e8dc" stroke="#a40f17" stroke-miterlimit="10" stroke-width="1"/>
        <path id="Path_612" data-name="Path 612" d="M125.133,445.043a5.424,5.424,0,1,0-1.967-7.415A5.43,5.43,0,0,0,125.133,445.043Zm3.808-6.557a2.158,2.158,0,1,1-2.949.783A2.16,2.16,0,0,1,128.941,438.486Z" transform="translate(-108.012 -434.93)" fill="#f3e8dc" stroke="#a40f17" stroke-miterlimit="10" stroke-width="1"/>
        <path id="Path_613" data-name="Path 613" d="M114.284,467.126a7.57,7.57,0,1,0-2.745-10.349A7.579,7.579,0,0,0,114.284,467.126Zm5.963-10.269a4.3,4.3,0,1,1-5.883,1.561A4.308,4.308,0,0,1,120.248,456.857Z" transform="translate(-110.517 -431.128)" fill="#f3e8dc" stroke="#a40f17" stroke-miterlimit="10" stroke-width="1"/>
      </g>
    </g>
    <g id="Group_657" data-name="Group 657" transform="translate(605.844 133)">
      <g id="Group_655" data-name="Group 655">
        <g id="Group_633" data-name="Group 633">
          <rect id="Rectangle_1037" data-name="Rectangle 1037" width="105.011" height="138.479" rx="1.816" fill="#410d0e"/>
        </g>
        <g id="Group_634" data-name="Group 634" transform="translate(39.552 76.281)">
          <path id="Path_614" data-name="Path 614" d="M261.043,468.641a13.093,13.093,0,0,0-3.2-3.247s-12.971,6.59-20.682,4.9c0,0-8.759,10.341-9.133,12.033C227.327,485.5,261.043,468.641,261.043,468.641Z" transform="translate(-228.018 -465.394)" fill="#a30f17"/>
        </g>
        <g id="Group_635" data-name="Group 635" transform="translate(48.758 59.068)">
          <path id="Path_615" data-name="Path 615" d="M239.9,478.332a19.792,19.792,0,0,0-.635-8,28.791,28.791,0,0,0-1.3-3.7,28.4,28.4,0,0,0-2.344-4.444s12.074-19.017,10.877-7.06a38.015,38.015,0,0,0,4.468,21.371,7.7,7.7,0,0,1-5.606,3.593A7.523,7.523,0,0,1,239.9,478.332Z" transform="translate(-235.624 -451.172)" fill="#f3e8dc"/>
        </g>
        <g id="Group_636" data-name="Group 636" transform="translate(42.971 51.72)">
          <path id="Path_616" data-name="Path 616" d="M230.848,450.1s-.465,15.172,7.441,18.153,12.133-15.651,8.692-19.1S237.141,441.683,230.848,450.1Z" transform="translate(-230.843 -445.101)" fill="#f3e8dc"/>
        </g>
        <g id="Group_637" data-name="Group 637" transform="translate(35.245 43.584)">
          <path id="Path_617" data-name="Path 617" d="M252.755,458.48s7.187-14.23-4.8-16.949c0,0-8.294-9.054-18.73,3.523a11.362,11.362,0,0,1-4.767,3.639s1.12,4.477,8.495,3.384a39.064,39.064,0,0,0,11.358-3.171S248.159,460.921,252.755,458.48Z" transform="translate(-224.459 -438.378)" fill="#a30f17"/>
        </g>
        <g id="Group_638" data-name="Group 638" transform="translate(58.561 61.674)">
          <path id="Path_618" data-name="Path 618" d="M243.826,459.35s3.276-2.908,3.386-4.586-2.1-1.966-2.952-.453S243.826,459.35,243.826,459.35Z" transform="translate(-243.724 -453.325)" fill="#f3e8dc"/>
        </g>
        <g id="Group_639" data-name="Group 639" transform="translate(14.588 103.944)">
          <path id="Path_619" data-name="Path 619" d="M234.885,488.251a116.9,116.9,0,0,1-4.554,19.479,75.128,75.128,0,0,1-5.168,12.237q-.784,1.447-1.648,2.818H207.391c.851-2.335,2.028-5.6,2.719-7.034.186-.386,0-.432.22-.812a38.571,38.571,0,0,0,2.322-4.76,74.375,74.375,0,0,0,3.735-12.495c.749-3.5,1.163-6.358,1.334-7.683l0,0c.067-.512.1-.8.1-.8l.312-.018Z" transform="translate(-207.391 -488.251)" fill="#f3e8dc"/>
        </g>
        <g id="Group_640" data-name="Group 640" transform="translate(93.217 15.576)">
          <path id="Path_620" data-name="Path 620" d="M286.361,437.273s.243.673-12.1-6.066c-2.066-1.129-.409-1.959,1.132-1.5,2.775.818,5.1,1.63,5.1,1.63s-8.146-10.361-8.134-11.947,7.765,7.89,7.765,7.89-6.711-9.564-6.354-10.966,7.832,9.1,7.832,9.1-5.723-8.773-5.515-10.073,8.123,9.85,8.123,9.85-3.229-6.92-2.773-8.18S291,434.069,291,434.069Z" transform="translate(-272.359 -415.236)" fill="#f3e8dc"/>
        </g>
        <g id="Group_641" data-name="Group 641" transform="translate(104.898 32.602)">
          <path id="Path_621" data-name="Path 621" d="M303.195,487.395c10.005-12.588-15.1-58.091-15.1-58.091l-6.084,3.967c5.723,14.257,13.751,32.615,9.234,41.968a9.907,9.907,0,0,1-2.153,2.814L299.468,491.1A24.092,24.092,0,0,0,303.195,487.395Z" transform="translate(-282.01 -429.304)" fill="#f3e8dc"/>
        </g>
        <g id="Group_642" data-name="Group 642" transform="translate(22.015 79.529)">
          <path id="Path_622" data-name="Path 622" d="M289.116,490.2c-.554,1.508-8.37-.73-8.739.969-1.348,6.186,3.62,22.7,8.183,35.862h-56.4c.706-9.181.767-17.622-.767-20.33-.013-.022-.025-.046-.039-.068a2.3,2.3,0,0,0-.145-.219c-.258-.35-.793.953-.992,2.776a8.444,8.444,0,0,1-1.375,3.59c-.2-.2-1.225-1.444-1.446-1.648a85.252,85.252,0,0,0-12.3-9.2c-.975-.605-1.57-.956-1.57-.956.923-2.452,1.9-4.689,2.906-6.732.134-.275.271-.545.409-.813,6.986-13.663,15.576-18.285,21.1-19.825.03-.01.063-.018.1-.027.387-.108.759-.2,1.112-.277.293-.064.572-.119.84-.167a14.654,14.654,0,0,1,3.568-.259h0q.521.332,1.011.6c6.339,3.453,9.181-.869,11.955-3.1a5.977,5.977,0,0,1,1.589-.974l.01,0q.933-.348,1.765-.6a18.428,18.428,0,0,1,2.073-.511,11.521,11.521,0,0,1,1.855-.2c.092,0,.18,0,.267,0h0c9.588.094,1.893,16.492,1.893,16.492S292.854,480.034,289.116,490.2Z" transform="translate(-213.528 -468.078)" fill="#040405"/>
        </g>
        <g id="Group_643" data-name="Group 643" transform="translate(67.82 73.991)">
          <path id="Path_623" data-name="Path 623" d="M314.811,479.286a34.044,34.044,0,0,1-6.648,6.379,35.354,35.354,0,0,1-19.6,7.164,37.753,37.753,0,0,1-10.792-1.106s1.772,18.178,5.5,36.266H251.609c-1.158-11.5,2.321-21.532,2.851-30.23.358-5.9-.244-16.4-.016-22.189a33.271,33.271,0,0,0-.029-3.582,15.417,15.417,0,0,0-.307-2.315c-.033-.156-.068-.3-.1-.428a3.178,3.178,0,0,0-.506-1.2s.778.128,2.119.315a.061.061,0,0,0,.022,0v0c6.078.848,23.605,2.923,32.924.119l.287-.088a31.51,31.51,0,0,0,3.362-1.051c2.2-.82,4.9-2.113,6.226-3.845a15.824,15.824,0,0,0,.046,3.417c.5,4.414,3,11.616,13.9,12.318C313.15,479.286,313.96,479.3,314.811,479.286Z" transform="translate(-251.374 -463.502)" fill="#d2111c"/>
        </g>
        <g id="Group_644" data-name="Group 644" transform="translate(108.303 73.991)">
          <path id="Path_624" data-name="Path 624" d="M307.777,479.286s-.937,5.831-2.439,8.465c0,0-19.187-7.7-20.514-22.74a30.947,30.947,0,0,1,6.581-1.509S293.857,474.031,307.777,479.286Z" transform="translate(-284.824 -463.502)" fill="#a30f17"/>
        </g>
        <g id="Group_645" data-name="Group 645" transform="translate(15.635 84.193)">
          <path id="Path_625" data-name="Path 625" d="M240.043,473.7c-.159,1.842.081,4.742.156,7.634.283,11.21-2.878,29.946-4.313,44.882h-5.2a159.377,159.377,0,0,0,1.815-20.33c0-.189,0-.287,0-.287-.013.071-.029.144-.044.219-.207,1.015-.473,2.073-.785,3.153-.265.921-.564,1.857-.89,2.8a111.62,111.62,0,0,1-5.438,12.7c-.306.615-.6,1.2-.882,1.749h-4.725c-2.649-3.841-7.08-6.537-9.593-7.846-1.146-.6-1.893-.909-1.893-.909q.541-2.34,1.126-4.523c8.814-33.048,24.268-39.476,29.444-40.715l.408-.093a9.375,9.375,0,0,1,1.335-.2,1.4,1.4,0,0,0-.309.554,4.235,4.235,0,0,0-.182.883C240.062,473.474,240.051,473.587,240.043,473.7Z" transform="translate(-208.256 -471.931)" fill="#d2111c"/>
        </g>
        <g id="Group_646" data-name="Group 646" transform="translate(15.299 125.024)">
          <path id="Path_626" data-name="Path 626" d="M225.774,519.123h-6.781a19.866,19.866,0,0,0-9.467-6.736,10.862,10.862,0,0,0-1.211-.326,16.558,16.558,0,0,1,0-6.393c.385.056.761.113,1.13.177,1.1.186,2.133.413,3.09.672,8.14,2.192,11.289,6.689,12.509,9.789.15.38.271.738.368,1.069A10.88,10.88,0,0,1,225.774,519.123Z" transform="translate(-207.978 -505.668)" fill="#a30f17"/>
        </g>
        <g id="Group_647" data-name="Group 647" transform="translate(72.587 91.321)">
          <path id="Path_627" data-name="Path 627" d="M255.313,479.045a1.222,1.222,0,1,0,1.221-1.224A1.222,1.222,0,0,0,255.313,479.045Z" transform="translate(-255.313 -477.821)" fill="#f3e8dc"/>
        </g>
        <g id="Group_648" data-name="Group 648" transform="translate(69.977 123.856)">
          <path id="Path_628" data-name="Path 628" d="M253.157,505.925a1.222,1.222,0,1,0,1.221-1.222A1.222,1.222,0,0,0,253.157,505.925Z" transform="translate(-253.157 -504.703)" fill="#f3e8dc"/>
        </g>
        <g id="Group_649" data-name="Group 649" transform="translate(72.599 108.058)">
          <path id="Path_629" data-name="Path 629" d="M255.323,492.872a1.222,1.222,0,1,0,1.221-1.222A1.22,1.22,0,0,0,255.323,492.872Z" transform="translate(-255.323 -491.65)" fill="#f3e8dc"/>
        </g>
        <g id="Group_654" data-name="Group 654" transform="translate(3.571 134.776)">
          <g id="Group_650" data-name="Group 650" transform="translate(9.513 0.177)">
            <path id="Path_630" data-name="Path 630" d="M206.152,515.451a1.483,1.483,0,0,1,.921-1.5c.5-.186,1.124-.115,1.754.8,1.356,1.974.2,8.129-.85,8.41C207,523.426,206.35,518.57,206.152,515.451Z" transform="translate(-206.148 -513.872)" fill="#f3e8dc"/>
          </g>
          <g id="Group_651" data-name="Group 651" transform="translate(0 2.926)">
            <path id="Path_631" data-name="Path 631" d="M198.427,518.033a1.376,1.376,0,0,1,.207-1.523c.358-.378.944-.6,1.858.022,1.829,1.242,2.9,6.923,2.1,7.517C201.84,524.6,199.648,520.647,198.427,518.033Z" transform="translate(-198.288 -516.144)" fill="#f3e8dc"/>
          </g>
          <g id="Group_652" data-name="Group 652" transform="translate(6.071)">
            <path id="Path_632" data-name="Path 632" d="M203.328,515.45a1.5,1.5,0,0,1,.647-1.538c.48-.3,1.162-.341,1.964.682,1.6,2.047,1.215,8.831.2,9.215C205.188,524.167,203.91,518.824,203.328,515.45Z" transform="translate(-203.305 -513.726)" fill="#f3e8dc"/>
          </g>
          <g id="Group_653" data-name="Group 653" transform="translate(2.73 0.805)">
            <path id="Path_633" data-name="Path 633" d="M200.614,516.276a1.512,1.512,0,0,1,.45-1.618c.441-.356,1.111-.482,2.033.436,1.842,1.835,2.289,8.617,1.325,9.122C203.525,524.686,201.607,519.554,200.614,516.276Z" transform="translate(-200.544 -514.391)" fill="#f3e8dc"/>
          </g>
        </g>
      </g>
      <g id="Group_656" data-name="Group 656" transform="translate(11.135 22.825)">
        <path id="Path_634" data-name="Path 634" d="M210.265,447.077a2.909,2.909,0,1,0-2.1,3.538A2.911,2.911,0,0,0,210.265,447.077Zm-2.7.69a.119.119,0,1,1-.145-.086A.121.121,0,0,1,207.563,447.767Z" transform="translate(-204.538 -416.25)" fill="#f3e8dc" stroke="#400e0f" stroke-miterlimit="10" stroke-width="1"/>
        <path id="Path_635" data-name="Path 635" d="M228.56,429.024a10.362,10.362,0,1,0-7.475,12.605A10.374,10.374,0,0,0,228.56,429.024Zm-6.045,1.544A4.123,4.123,0,1,1,217.5,427.6,4.127,4.127,0,0,1,222.515,430.568Z" transform="translate(-203.777 -421.225)" fill="#f3e8dc" stroke="#400e0f" stroke-miterlimit="10" stroke-width="2.061"/>
        <path id="Path_636" data-name="Path 636" d="M224.739,457.358a7.018,7.018,0,1,0-5.063,8.537A7.027,7.027,0,0,0,224.739,457.358Zm-2.934.749a3.991,3.991,0,1,1-4.854-2.878A4,4,0,0,1,221.805,458.107Z" transform="translate(-203.196 -414.738)" fill="#f3e8dc" stroke="#400e0f" stroke-miterlimit="10" stroke-width="1"/>
      </g>
    </g>
  </g>
</svg>
