<svg xmlns="http://www.w3.org/2000/svg" xmlns:xlink="http://www.w3.org/1999/xlink" width="113.07" height="105.601" viewBox="0 0 113.07 105.601">
  <defs>
    <clipPath id="clip-path">
      <path id="Path_374" data-name="Path 374" d="M536.9,339.489a21.052,21.052,0,0,0-1.7-5.392c-6.011-12.484-19.749-8.263-19.749-8.263.048-1.135-2.509-7.407-11.191-4.554a17,17,0,0,0-7.919,6l0,0c-.065.083-.122.167-.184.25-.162.214-.324.428-.476.643-.055.078-.1.154-.157.231-.159.23-.317.46-.466.689-.039.061-.075.121-.114.183-.154.242-.306.484-.449.721-.028.048-.054.095-.081.142-.147.247-.29.494-.423.734-.022.041-.041.078-.064.118-.134.244-.264.485-.384.717-.018.036-.034.068-.052.1-.119.233-.234.462-.339.68-.028.059-.052.111-.079.169-.09.188-.178.376-.257.549-.1.229-.2.445-.284.647-.43,1.01-.637,1.647-.637,1.647-4.922.335-7.24.962-8.334,1.487h0c-1.008.483-.977.879-.977.879-2.39.459-1.546,5.8-1.546,5.8s.424,5.932,1.462,11.9c.968,5.567,2.642,4.662,2.642,4.662.714,1.982,10.326-.233,10.326-.233q.44.312.873.6c8.725,5.9,17.466,6.3,25.376,4.465,4.22-.98,9-2.851,11.009-4.936l.009-.006C537.255,357.013,538.3,347.24,536.9,339.489Z" transform="translate(-480.895 -320.543)" fill="none"/>
    </clipPath>
    <clipPath id="clip-path-2">
      <path id="Path_379" data-name="Path 379" d="M555.016,339.489a21,21,0,0,1,1.7-5.392c6.011-12.484,19.749-8.263,19.749-8.263-.049-1.135,2.509-7.407,11.191-4.554a17,17,0,0,1,7.918,6v0c.064.083.121.167.184.25.162.214.323.428.475.643.054.078.1.154.158.231.159.23.317.46.465.689.04.061.075.121.115.183.155.242.307.484.449.721.029.048.054.095.082.142.147.247.29.494.423.734.022.041.041.078.064.118.134.244.264.485.384.717.018.036.034.068.051.1.119.233.235.462.34.68.029.059.051.111.079.169.089.188.178.376.257.549.1.229.2.445.284.647.43,1.01.637,1.647.637,1.647,4.923.335,7.24.962,8.335,1.487h0c1.008.483.976.879.976.879,2.39.459,1.547,5.8,1.547,5.8s-.424,5.932-1.462,11.9c-.968,5.567-2.642,4.662-2.642,4.662-.714,1.982-10.326-.233-10.326-.233q-.441.312-.873.6c-8.725,5.9-17.466,6.3-25.376,4.465-4.22-.98-9-2.851-11.009-4.936l-.009-.006C554.663,357.013,553.615,347.24,555.016,339.489Z" transform="translate(-554.437 -320.543)" fill="none"/>
    </clipPath>
  </defs>
  <g id="Group_604" data-name="Group 604" transform="translate(-480.895 -282.145)">
    <path id="Path_368" data-name="Path 368" d="M542.023,308.135l6.732-16.1,5.655,15.819,23.08-19.3-9.348,28.627,9.694-.283L567.3,331.226l14.54,12.676L567.6,347.4,580.8,375.367l-22.08-13.277-2.949,16.364-9.132-15.677-10.455,24.969-5.469-23.679-22.177,16.569,11.406-28.716-16.426-.565,14.406-13.645-15.415-12.284,12.858-4.3-11.157-24.348,21.928,13.9-1.077-28.531Z" transform="translate(-5.013 0)" fill="#dad3cc"/>
    <path id="Path_369" data-name="Path 369" d="M536.867,360.833l-14.208,10.615,7.587-19.1-11.437-.393,9.833-9.314L516,332.566l9.278-3.1-6.526-14.243,15.713,9.957-.768-20.328,12.388,18.978,5.448-13.031,3.81,10.659,15.306-12.8-6.064,18.57,9.9.451-12.222,8.308,12.117,10.564-10.7,2.629,8.838,18.734-14.168-8.519-1.876,10.413-7.411-12.722-8.418,20.1Z" transform="translate(-8.143 -5.267)" fill="#f3e8dc"/>
    <g id="Group_446" data-name="Group 446" transform="translate(480.895 311.637)">
      <g id="Group_445" data-name="Group 445">
        <path id="Path_370" data-name="Path 370" d="M536.9,339.489a21.052,21.052,0,0,0-1.7-5.392c-6.011-12.484-19.749-8.263-19.749-8.263.048-1.135-2.509-7.407-11.191-4.554a17,17,0,0,0-7.919,6l0,0c-.065.083-.122.167-.184.25-.162.214-.324.428-.476.643-.055.078-.1.154-.157.231-.159.23-.317.46-.466.689-.039.061-.075.121-.114.183-.154.242-.306.484-.449.721-.028.048-.054.095-.081.142-.147.247-.29.494-.423.734-.022.041-.041.078-.064.118-.134.244-.264.485-.384.717-.018.036-.034.068-.052.1-.119.233-.234.462-.339.68-.028.059-.052.111-.079.169-.09.188-.178.376-.257.549-.1.229-.2.445-.284.647-.43,1.01-.637,1.647-.637,1.647-4.922.335-7.24.962-8.334,1.487h0c-1.008.483-.977.879-.977.879-2.39.459-1.546,5.8-1.546,5.8s.424,5.932,1.462,11.9c.968,5.567,2.642,4.662,2.642,4.662.714,1.982,10.326-.233,10.326-.233q.44.312.873.6c8.725,5.9,17.466,6.3,25.376,4.465,4.22-.98,9-2.851,11.009-4.936l.009-.006C537.255,357.013,538.3,347.24,536.9,339.489Z" transform="translate(-480.895 -320.543)" fill="#d2111c"/>
        <g id="Group_444" data-name="Group 444">
          <g id="Group_443" data-name="Group 443" clip-path="url(#clip-path)">
            <path id="Path_371" data-name="Path 371" d="M499.825,363.606l.058-.013q.815.576,1.6,1.087c-.189-.618-.374-1.237-.54-1.863a101.619,101.619,0,0,1-2.518-14.232c-.28-2.4-.515-4.807-.674-7.22-.071-1.08-.134-2.16-.161-3.241a15.776,15.776,0,0,1-.007-2.07,28.347,28.347,0,0,0-1.223,2.893c.174,2.439.416,4.872.686,7.3.534,4.8,1.19,9.605,2.127,14.345Q499.475,362.1,499.825,363.606Z" transform="translate(-484.482 -324.141)" fill="#a30f17" stroke="#a40f18" stroke-miterlimit="10" stroke-width="2"/>
            <path id="Path_372" data-name="Path 372" d="M488.3,365.1a42.089,42.089,0,0,1-1.3-5.879q-.543-3.29-.889-6.611c-.224-2.18-.412-4.366-.495-6.556-.038-.982-.067-1.966-.042-2.949.011-.44,0-.938.055-1.411-1.452.568-1.233,1.083-1.233,1.083-.028.005-.053.015-.081.021.033,2.257.236,4.512.44,6.757.4,4.422.915,8.868,1.737,13.233.158.839.331,1.68.544,2.508a2.147,2.147,0,0,0,1.567.634C488.494,365.657,488.395,365.382,488.3,365.1Z" transform="translate(-481.689 -325.448)" fill="#a30f17" stroke="#a40f18" stroke-miterlimit="10" stroke-width="2"/>
            <path id="Path_373" data-name="Path 373" d="M511.587,329.121a3.484,3.484,0,0,0-1.058,2.508.738.738,0,0,0,.81.7.941.941,0,0,0,.676-.563,6.95,6.95,0,0,1,1.674-2.217,9.87,9.87,0,0,1,1.349-.9,3.591,3.591,0,0,0-.243,2.953.844.844,0,0,0,1.332.25c.388-.37.224-.832.136-1.281a3.335,3.335,0,0,1,.125-1.727c.452-1.3,1.737-1.537,2.93-1.866.753-.208,1.515-.383,2.281-.533a2.983,2.983,0,0,0-.23-.943c-.08.008-.159.018-.236.025a25.063,25.063,0,0,0-3.5.575A11.57,11.57,0,0,0,511.587,329.121Z" transform="translate(-487.766 -321.695)" fill="#a30f17" stroke="#a40f18" stroke-miterlimit="10" stroke-width="2"/>
          </g>
        </g>
      </g>
    </g>
    <g id="Group_449" data-name="Group 449" transform="translate(537.378 311.637)">
      <path id="Path_375" data-name="Path 375" d="M555.016,339.489a21,21,0,0,1,1.7-5.392c6.011-12.484,19.749-8.263,19.749-8.263-.049-1.135,2.509-7.407,11.191-4.554a17,17,0,0,1,7.918,6v0c.064.083.121.167.184.25.162.214.323.428.475.643.054.078.1.154.158.231.159.23.317.46.465.689.04.061.075.121.115.183.155.242.307.484.449.721.029.048.054.095.082.142.147.247.29.494.423.734.022.041.041.078.064.118.134.244.264.485.384.717.018.036.034.068.051.1.119.233.235.462.34.68.029.059.051.111.079.169.089.188.178.376.257.549.1.229.2.445.284.647.43,1.01.637,1.647.637,1.647,4.923.335,7.24.962,8.335,1.487h0c1.008.483.976.879.976.879,2.39.459,1.547,5.8,1.547,5.8s-.424,5.932-1.462,11.9c-.968,5.567-2.642,4.662-2.642,4.662-.714,1.982-10.326-.233-10.326-.233q-.441.312-.873.6c-8.725,5.9-17.466,6.3-25.376,4.465-4.22-.98-9-2.851-11.009-4.936l-.009-.006C554.663,357.013,553.615,347.24,555.016,339.489Z" transform="translate(-554.437 -320.543)" fill="#5c0c0c"/>
      <g id="Group_448" data-name="Group 448">
        <g id="Group_447" data-name="Group 447" clip-path="url(#clip-path-2)">
          <path id="Path_376" data-name="Path 376" d="M607.762,363.563l-.058-.014q-.814.577-1.6,1.087c.189-.618.374-1.237.54-1.863a101.575,101.575,0,0,0,2.518-14.232c.28-2.4.515-4.807.674-7.22.071-1.08.134-2.16.161-3.241a15.753,15.753,0,0,0,.007-2.07,28.217,28.217,0,0,1,1.223,2.894c-.174,2.439-.415,4.872-.686,7.3-.534,4.8-1.19,9.6-2.128,14.344Q608.112,362.061,607.762,363.563Z" transform="translate(-566.421 -324.131)" fill="#400e0f" stroke="#400e0f" stroke-miterlimit="10" stroke-width="2"/>
          <path id="Path_377" data-name="Path 377" d="M619.666,365.1a42.1,42.1,0,0,0,1.3-5.879q.543-3.29.889-6.611c.224-2.18.412-4.366.495-6.556.038-.982.067-1.966.042-2.949-.011-.44,0-.938-.055-1.411,1.452.568,1.233,1.083,1.233,1.083.028.005.053.015.081.021-.033,2.257-.236,4.512-.44,6.757-.4,4.422-.915,8.868-1.737,13.233-.158.839-.331,1.68-.544,2.508a2.147,2.147,0,0,1-1.567.634C619.475,365.657,619.574,365.382,619.666,365.1Z" transform="translate(-569.497 -325.448)" fill="#400e0f" stroke="#400e0f" stroke-miterlimit="10" stroke-width="2"/>
          <path id="Path_378" data-name="Path 378" d="M593.827,329.019a3.485,3.485,0,0,1,1.058,2.508.739.739,0,0,1-.811.7.941.941,0,0,1-.675-.563,6.941,6.941,0,0,0-1.674-2.217,9.762,9.762,0,0,0-1.349-.9,3.585,3.585,0,0,1,.243,2.953.843.843,0,0,1-1.332.25c-.388-.37-.223-.832-.136-1.281a3.327,3.327,0,0,0-.124-1.727c-.452-1.3-1.737-1.537-2.93-1.866-.754-.208-1.515-.383-2.282-.533a2.966,2.966,0,0,1,.231-.943c.079.008.159.018.236.025a25.051,25.051,0,0,1,3.5.575A11.565,11.565,0,0,1,593.827,329.019Z" transform="translate(-561.251 -321.671)" fill="#400e0f" stroke="#400e0f" stroke-miterlimit="10" stroke-width="2"/>
        </g>
      </g>
    </g>
  </g>
</svg>
