<svg id="Group_673" data-name="Group 673" xmlns="http://www.w3.org/2000/svg" width="93.499" height="103.844" viewBox="0 0 93.499 103.844">
  <rect id="Rectangle_1045" data-name="Rectangle 1045" width="38.665" height="2.609" transform="translate(7.837 100.266)" fill="#a30f17"/>
  <g id="Group_673-2" data-name="Group 673" transform="translate(39.788 83.708)">
    <rect id="Rectangle_1046" data-name="Rectangle 1046" width="2.263" height="4.662" transform="translate(14.952)" fill="#a30f17"/>
    <rect id="Rectangle_1047" data-name="Rectangle 1047" width="2.263" height="4.662" transform="translate(7.476)" fill="#a30f17"/>
    <rect id="Rectangle_1048" data-name="Rectangle 1048" width="2.263" height="4.662" fill="#a30f17"/>
  </g>
  <path id="Path_686" data-name="Path 686" d="M677.057,192.614c-2.319-1.7-3.4-4.665-3.4-9.347,0-7.821,3.162-10.625,6.861-11.562a8.7,8.7,0,0,1,1.766-4.48,8.326,8.326,0,0,1,6.127-2.852c.342-.027.824-.075,1.436-.136,6.156-.62,22.5-2.267,30.579,5.01a26.745,26.745,0,0,0-3.634-8.491,21.006,21.006,0,0,0-10.173-8.012l1.2-3.139a24.307,24.307,0,0,1,11.764,9.279c3.6,5.363,5.418,12.526,5.418,21.288v3.174a10.945,10.945,0,0,1-10.932,10.932H684.59C681.82,194.279,679.159,194.152,677.057,192.614Zm41.138-20.856c-2.925-2.646-7.73-4.206-14.282-4.639a83.048,83.048,0,0,0-13.727.462c-.635.063-1.135.114-1.519.143a5.077,5.077,0,0,0-3.773,1.621,4.775,4.775,0,0,0-.9,1.935c.2,0,.4-.007.595-.007h20.163l.136.006a6.415,6.415,0,0,1,2.783,12.031,10.723,10.723,0,0,1-4.94,1.1,130.194,130.194,0,0,1-13.569-.057,10.43,10.43,0,0,1-4.858-1.138,7.852,7.852,0,0,1-3.582-5.837l-.011-.088c-.077-.581-.168-1.28-.23-2.049a4.621,4.621,0,0,0-1.324.805c-1.439,1.263-2.138,3.624-2.138,7.218,0,3.469.661,5.639,2.021,6.634,1.284.939,3.359,1.017,5.551,1.017h29.48a7.581,7.581,0,0,0,7.571-7.572v-3.174A10.688,10.688,0,0,0,718.194,171.759Zm-33.6,2.876c-.271,0-.533.005-.784.014.054.81.154,1.575.237,2.209l.012.088A4.5,4.5,0,0,0,686,180.314a7.651,7.651,0,0,0,3.357.687,126.866,126.866,0,0,0,13.217.055,7.927,7.927,0,0,0,3.452-.674,3.054,3.054,0,0,0-1.344-5.748Z" transform="translate(-651.477 -108.585)" fill="#d2111c"/>
  <path id="Path_687" data-name="Path 687" d="M698.624,205.094a37.107,37.107,0,0,0,12.987-2.21c4.809-1.787,17.6-7.124,24.086-27.073,1.771-5.446,3.338-12.879,1.326-28.19-.333-2.532-.793-5.294-1.407-8.314-1.181-5.8-3.27-21.947,3.658-29.533,0,0-12.408-8.829-29.033.374s-16.788,24.461-16.788,24.461c14.982-.556,24.916,2.714,30.535,9.559,9.174,11.174,5.617,24.5,4.626,29.886a35.647,35.647,0,0,1-8.367,16.65c-6.624,7.18-15.759,10.078-27.152,8.611-9.817-1.265-17.232-5.066-21.029-11.9-8.586-15.449-2.916-35.243,6.434-41.608,6.279-4.275,16.053-4.974,28.3.506l2.539-2.4c-8.654-5.471-14.874-6.023-20.119-5.841a26.2,26.2,0,0,0-12.754,3.648c-9.483,5.705-13.081,16.5-13.712,21.975a51.322,51.322,0,0,0,.188,14.08,33.706,33.706,0,0,0,4.536,12.5,28.478,28.478,0,0,0,9.737,9.477,39.449,39.449,0,0,0,15.192,4.923A48.838,48.838,0,0,0,698.624,205.094Z" transform="translate(-649.578 -101.25)" fill="#d2111c"/>
  <g id="Group_674" data-name="Group 674" transform="translate(33.047 40.593)">
    <path id="Path_688" data-name="Path 688" d="M686.719,188.5v-32.07a4.549,4.549,0,0,1,4.544-4.544h.064a4.549,4.549,0,0,1,4.544,4.544V188.5a4.549,4.549,0,0,1-4.544,4.544h-.064A4.549,4.549,0,0,1,686.719,188.5Zm4.544-33.814a1.746,1.746,0,0,0-1.744,1.744V188.5a1.746,1.746,0,0,0,1.744,1.744h.064a1.745,1.745,0,0,0,1.743-1.744v-32.07a1.745,1.745,0,0,0-1.743-1.744Z" transform="translate(-686.719 -149.562)" fill="#a30f17"/>
    <path id="Path_689" data-name="Path 689" d="M712.317,188.032V161.037c0-8.252,5.38-11.945,10.712-11.945a11.366,11.366,0,0,1,7.362,2.666,17.675,17.675,0,0,1,4.468,6.185,13.308,13.308,0,0,1,1.157,7.53,8.522,8.522,0,0,1-5.69,6.665,5.193,5.193,0,0,1-1.886.353,5.32,5.32,0,0,1-4.32-2.234c-1.5-2.05-1.7-5.121-.581-8.65a5.217,5.217,0,0,0-.079-4.076c-.051-.071-.123-.146-.16-.146s-.239.01-.657.35c-2.071,1.685-1.922,6.613-1.75,12.32.034,1.158.071,2.357.09,3.581.086,5.494,0,14.122,0,14.4a4.433,4.433,0,0,1-4.3,4.537h-.058A4.434,4.434,0,0,1,712.317,188.032Zm13.4-32.152c1.092,1.494,1.283,4.076.486,6.578-1.141,3.582-.381,5.389.174,6.147a2.546,2.546,0,0,0,2.059,1.086,2.39,2.39,0,0,0,.871-.163A5.779,5.779,0,0,0,733.257,165c.665-3.836-1.868-8.666-4.7-11.12a8.529,8.529,0,0,0-5.528-1.983A7.643,7.643,0,0,0,717.612,154a9.584,9.584,0,0,0-2.493,7.032v26.995a1.638,1.638,0,0,0,1.5,1.744h.058a1.639,1.639,0,0,0,1.5-1.744v-.014c0-.087.087-8.815,0-14.336-.019-1.2-.055-2.392-.089-3.541-.195-6.449-.363-12.019,2.782-14.576a3.85,3.85,0,0,1,2.424-.978A2.968,2.968,0,0,1,725.722,155.88Z" transform="translate(-691.021 -149.092)" fill="#a30f17"/>
    <path id="Path_690" data-name="Path 690" d="M700.342,191.8V171.591a3.907,3.907,0,0,1,3.9-3.9h.051a3.907,3.907,0,0,1,3.9,3.9V191.8a3.907,3.907,0,0,1-3.9,3.9h-.051A3.907,3.907,0,0,1,700.342,191.8Zm3.9-21.31a1.1,1.1,0,0,0-1.1,1.1V191.8a1.1,1.1,0,0,0,1.1,1.1h.051a1.1,1.1,0,0,0,1.1-1.1V171.591a1.1,1.1,0,0,0-1.1-1.1Z" transform="translate(-689.009 -152.217)" fill="#a30f17"/>
  </g>
  <g id="Group_675" data-name="Group 675" transform="translate(33.824 78.318)">
    <path id="Path_691" data-name="Path 691" d="M700.5,198.3a3.8,3.8,0,1,0,3.8-3.86A3.83,3.83,0,0,0,700.5,198.3Z" transform="translate(-689.812 -194.438)" fill="#f3e8dc"/>
    <path id="Path_692" data-name="Path 692" d="M687.653,198.3a3.8,3.8,0,1,0,3.8-3.86A3.831,3.831,0,0,0,687.653,198.3Z" transform="translate(-687.653 -194.438)" fill="#f3e8dc"/>
    <path id="Path_693" data-name="Path 693" d="M713.177,198.3a3.8,3.8,0,1,0,3.8-3.86A3.83,3.83,0,0,0,713.177,198.3Z" transform="translate(-691.943 -194.438)" fill="#f3e8dc"/>
  </g>
  <g id="Group_676" data-name="Group 676" transform="translate(35.817 80.343)">
    <path id="Path_694" data-name="Path 694" d="M702.893,198.707a1.806,1.806,0,1,0,1.806-1.835A1.821,1.821,0,0,0,702.893,198.707Z" transform="translate(-692.208 -196.872)" fill="#f3e8dc"/>
    <path id="Path_695" data-name="Path 695" d="M690.049,198.707a1.806,1.806,0,1,0,1.805-1.835A1.821,1.821,0,0,0,690.049,198.707Z" transform="translate(-690.049 -196.872)" fill="#f3e8dc"/>
    <path id="Path_696" data-name="Path 696" d="M715.572,198.707a1.806,1.806,0,1,0,1.806-1.835A1.821,1.821,0,0,0,715.572,198.707Z" transform="translate(-694.339 -196.872)" fill="#f3e8dc"/>
  </g>
  <path id="Path_697" data-name="Path 697" d="M698.866,123.814a5.981,5.981,0,0,0,.61,3.1C702.5,132.828,715.722,132.1,729,125.3c7.959-4.077,14.131-9.413,17.147-14.307-.337,5.979-7.992,14.187-19.167,19.912-13.277,6.8-26.495,7.527-29.522,1.617C696.243,130.157,696.851,127.085,698.866,123.814Z" transform="translate(-655.372 -102.096)" fill="#ffe8cb"/>
  <path id="Path_698" data-name="Path 698" d="M694.263,132.081c3.361,6.56,18.032,5.757,32.769-1.794s23.96-18.99,20.6-25.55-18.033-5.756-32.77,1.794S690.9,125.521,694.263,132.081Zm24.106-18.7c7.784-3.988,15.059-5.341,16.248-3.022s-4.159,7.434-11.943,11.423-15.059,5.341-16.249,3.022S710.584,117.367,718.37,113.378Z" transform="translate(-654.824 -100.298)" fill="#5c0c0c"/>
  <g id="Group_677" data-name="Group 677" transform="translate(40.614 87.533)">
    <path id="Path_699" data-name="Path 699" d="M712.233,221.193c1.8,0,1.878-2.253,1.333-6.872-.31-2.633-.823-8.808-1.333-8.808s-1.023,6.17-1.334,8.8C710.354,218.934,710.431,221.193,712.233,221.193Z" transform="translate(-698.3 -205.514)" fill="#dad3cc"/>
    <path id="Path_700" data-name="Path 700" d="M704.839,221.193c1.8,0,1.879-2.253,1.334-6.872-.31-2.633-.823-8.808-1.334-8.808s-1.023,6.17-1.333,8.8C702.96,218.934,703.038,221.193,704.839,221.193Z" transform="translate(-697.058 -205.514)" fill="#dad3cc"/>
    <path id="Path_701" data-name="Path 701" d="M697.446,221.193c1.8,0,1.878-2.253,1.334-6.872-.311-2.633-.824-8.808-1.334-8.808s-1.023,6.17-1.333,8.8C695.567,218.934,695.644,221.193,697.446,221.193Z" transform="translate(-695.815 -205.514)" fill="#dad3cc"/>
  </g>
  <rect id="Rectangle_1049" data-name="Rectangle 1049" width="20.923" height="3.413" rx="1.707" transform="translate(37.934 87.309)" fill="#d2111c"/>
  <path id="Path_702" data-name="Path 702" d="M647.222,219.835c3.341.333,6.683.6,10.025.793v2.689c-3.346.159-6.691.4-10.037.7A10.061,10.061,0,0,1,647.222,219.835Z" transform="translate(-646.996 -120.388)" fill="#5c0c0c"/>
</svg>
