<svg xmlns="http://www.w3.org/2000/svg" xmlns:xlink="http://www.w3.org/1999/xlink" width="85.821" height="80.4" viewBox="0 0 85.821 80.4">
  <defs>
    <clipPath id="clip-path">
      <path id="Path_621" data-name="Path 621" d="M508.088,789.2h-4.9a8.83,8.83,0,0,0-8.037,4.56,8.164,8.164,0,0,0,0,8.549c.855,1.6,7.922,13.284,7.922,13.284s-7.352,4.331-7.295,9.974v20.348h37.049V822.606S504.555,822.691,508.088,789.2Z" transform="translate(-493.944 -789.195)" fill="none"/>
    </clipPath>
    <clipPath id="clip-path-2">
      <path id="Path_628" data-name="Path 628" d="M566.352,790.034l-49.73-.827s-5.985,31.694,24.737,33.4C569.173,822.7,566.352,790.034,566.352,790.034Zm-25.1,25.051c-16.331,0-16.249-15.393-16.231-18.813l32.66.174S557.583,815.087,541.253,815.085Z" transform="translate(-516.151 -789.207)" fill="none"/>
    </clipPath>
  </defs>
  <g id="Group_529" data-name="Group 529" transform="matrix(0.974, -0.225, 0.225, 0.974, -650.092, -636)">
    <g id="Group_520" data-name="Group 520" transform="translate(486.672 781.92)">
      <g id="Group_519" data-name="Group 519">
        <path id="Path_618" data-name="Path 618" d="M500.106,786.4c.184,0,.287.007.287.007h4.9l49.73.827s2.815,32.577-24.885,32.577h-.108v23.311H492.983V822.774c-.057-5.643,7.3-9.974,7.3-9.974s-7.068-11.688-7.923-13.284a8.165,8.165,0,0,1,0-8.549,8.779,8.779,0,0,1,7.75-4.568m0-4.479h0a13.979,13.979,0,0,0-5.116,1.007,12.889,12.889,0,0,0-6.575,5.911,12.634,12.634,0,0,0-.007,12.795c.6,1.121,3.752,6.376,5.944,10.015-2.708,2.407-5.886,6.275-5.848,11.147V847.6h46.008V824.036A25.739,25.739,0,0,0,550.94,815.9c9.991-10.892,8.611-28.319,8.547-29.056l-.348-4.026-4.041-.067-49.73-.827H500.5c-.106,0-.24-.007-.4-.007Z" transform="translate(-486.672 -781.92)" fill="#f3e8dc"/>
      </g>
    </g>
    <path id="Path_619" data-name="Path 619" d="M508.088,789.2h-4.9a8.83,8.83,0,0,0-8.037,4.56,8.164,8.164,0,0,0,0,8.549c.855,1.6,7.922,13.284,7.922,13.284s-7.352,4.331-7.295,9.974v20.348h37.049V822.606S504.555,822.691,508.088,789.2Z" transform="translate(-2.794 -2.795)" fill="#d2111c"/>
    <g id="Group_523" data-name="Group 523" transform="translate(491.15 786.399)">
      <g id="Group_522" data-name="Group 522" clip-path="url(#clip-path)">
        <g id="Group_521" data-name="Group 521" transform="translate(-12.494 -1.449)">
          <rect id="Rectangle_921" data-name="Rectangle 921" width="63.988" height="0.852" transform="translate(0.001 20.582)" fill="#a30f17"/>
          <rect id="Rectangle_922" data-name="Rectangle 922" width="63.988" height="0.851" transform="translate(0.001 27.59)" fill="#a30f17"/>
          <rect id="Rectangle_923" data-name="Rectangle 923" width="63.988" height="0.852" transform="translate(0.001 34.596)" fill="#a30f17"/>
          <rect id="Rectangle_924" data-name="Rectangle 924" width="63.988" height="0.852" transform="translate(0.001 41.604)" fill="#a30f17"/>
          <rect id="Rectangle_925" data-name="Rectangle 925" width="63.988" height="0.852" transform="translate(0.001 48.611)" fill="#a30f17"/>
          <path id="Path_620" data-name="Path 620" d="M473.655,876.921l63.987.3,0,.852-63.988-.3Z" transform="translate(-473.653 -821.454)" fill="#a30f17"/>
          <rect id="Rectangle_926" data-name="Rectangle 926" width="0.852" height="60.776" transform="translate(16.947)" fill="#a30f17"/>
          <rect id="Rectangle_927" data-name="Rectangle 927" width="0.852" height="60.776" transform="translate(24.813)" fill="#a30f17"/>
          <rect id="Rectangle_928" data-name="Rectangle 928" width="0.852" height="60.776" transform="translate(32.678)" fill="#a30f17"/>
          <rect id="Rectangle_929" data-name="Rectangle 929" width="0.852" height="60.776" transform="translate(40.543)" fill="#a30f17"/>
          <rect id="Rectangle_930" data-name="Rectangle 930" width="0.852" height="60.776" transform="translate(48.409)" fill="#a30f17"/>
        </g>
      </g>
    </g>
    <g id="Group_524" data-name="Group 524" transform="translate(494.621 791.423)">
      <path id="Path_622" data-name="Path 622" d="M508.1,801.614a4.261,4.261,0,1,1-4.26-4.26A4.261,4.261,0,0,1,508.1,801.614Z" transform="translate(-499.581 -797.353)" fill="#a30f17"/>
      <path id="Path_623" data-name="Path 623" d="M507.467,802.667A2.572,2.572,0,1,1,504.9,800.1,2.572,2.572,0,0,1,507.467,802.667Z" transform="translate(-500.635 -798.407)" fill="#fff"/>
    </g>
    <g id="Group_525" data-name="Group 525" transform="translate(502.188 816.191)">
      <path id="Path_624" data-name="Path 624" d="M526.576,844.93a7.353,7.353,0,1,1-7.353-7.353A7.353,7.353,0,0,1,526.576,844.93Z" transform="translate(-511.87 -837.577)" fill="#a30f17"/>
      <path id="Path_625" data-name="Path 625" d="M525.782,846.245A5.243,5.243,0,1,1,520.539,841,5.243,5.243,0,0,1,525.782,846.245Z" transform="translate(-513.186 -838.893)" fill="#fff"/>
    </g>
    <path id="Path_626" data-name="Path 626" d="M566.352,790.034l-49.73-.827s-5.985,31.694,24.737,33.4C569.173,822.7,566.352,790.034,566.352,790.034Z" transform="translate(-11.327 -2.8)" fill="#5c0c0c"/>
    <g id="Group_528" data-name="Group 528" transform="translate(504.824 786.407)">
      <g id="Group_527" data-name="Group 527" clip-path="url(#clip-path-2)">
        <g id="Group_526" data-name="Group 526" transform="translate(-5.305 -15.545)">
          <rect id="Rectangle_931" data-name="Rectangle 931" width="63.988" height="0.852" transform="translate(0.001 20.579)" fill="#410d0e"/>
          <rect id="Rectangle_932" data-name="Rectangle 932" width="63.988" height="0.851" transform="translate(0.001 27.587)" fill="#410d0e"/>
          <rect id="Rectangle_933" data-name="Rectangle 933" width="63.988" height="0.852" transform="translate(0.001 34.596)" fill="#410d0e"/>
          <rect id="Rectangle_934" data-name="Rectangle 934" width="63.988" height="0.852" transform="translate(0.001 41.604)" fill="#410d0e"/>
          <rect id="Rectangle_935" data-name="Rectangle 935" width="63.988" height="0.852" transform="translate(0.001 48.611)" fill="#410d0e"/>
          <path id="Path_627" data-name="Path 627" d="M507.538,854.042l63.988.3,0,.852-63.988-.3Z" transform="translate(-507.536 -798.574)" fill="#410d0e"/>
          <rect id="Rectangle_936" data-name="Rectangle 936" width="0.852" height="60.776" transform="translate(11.815)" fill="#410d0e"/>
          <rect id="Rectangle_937" data-name="Rectangle 937" width="0.852" height="60.776" transform="translate(19.681)" fill="#410d0e"/>
          <rect id="Rectangle_938" data-name="Rectangle 938" width="0.852" height="60.776" transform="translate(27.544)" fill="#410d0e"/>
          <rect id="Rectangle_939" data-name="Rectangle 939" width="0.852" height="60.776" transform="translate(35.409)" fill="#410d0e"/>
          <rect id="Rectangle_940" data-name="Rectangle 940" width="0.852" height="60.776" transform="translate(43.275)" fill="#410d0e"/>
          <rect id="Rectangle_941" data-name="Rectangle 941" width="0.851" height="60.776" transform="translate(50.806)" fill="#410d0e"/>
        </g>
      </g>
    </g>
    <path id="Path_629" data-name="Path 629" d="M546.788,819.495c-16.331,0-16.249-15.393-16.231-18.813l32.66.174S563.118,819.5,546.788,819.495Z" transform="translate(-16.862 -7.209)" fill="#fff" stroke="#fff" stroke-miterlimit="10" stroke-width="0.699"/>
  </g>
</svg>
