<svg xmlns="http://www.w3.org/2000/svg" width="223.882" height="22.297" viewBox="0 0 223.882 22.297">
  <g id="Group_72" data-name="Group 72" transform="translate(-918 -187.321)">
    <g id="Group_9" data-name="Group 9" transform="translate(989.038 191.151)">
      <path id="Path_37" data-name="Path 37" d="M202.857,190.145v-.051a9.075,9.075,0,0,1,9.31-9.234,9.454,9.454,0,0,1,5.969,1.811,1.965,1.965,0,0,1,.765,1.556,1.916,1.916,0,0,1-1.939,1.912,2.053,2.053,0,0,1-1.173-.383,5.879,5.879,0,0,0-3.648-1.275,5.29,5.29,0,0,0-5.178,5.561v.051a5.3,5.3,0,0,0,5.178,5.611,5.729,5.729,0,0,0,3.877-1.4,1.819,1.819,0,1,1,2.347,2.781,9.408,9.408,0,0,1-15.508-6.938Z" transform="translate(-202.857 -180.86)" fill="#1a1818"/>
      <path id="Path_38" data-name="Path 38" d="M240.995,183.139a1.964,1.964,0,1,1,3.928,0v5.254h7.245v-5.254a1.964,1.964,0,1,1,3.928,0v14.233a1.964,1.964,0,0,1-3.928,0v-5.356h-7.245v5.356a1.964,1.964,0,0,1-3.928,0Z" transform="translate(-222.403 -181.021)" fill="#1a1818"/>
      <path id="Path_39" data-name="Path 39" d="M276.382,196.523l6.224-14.055a2.427,2.427,0,0,1,2.3-1.557h.23a2.394,2.394,0,0,1,2.27,1.557l6.224,14.055a1.91,1.91,0,0,1,.2.791,1.862,1.862,0,0,1-1.862,1.887,2,2,0,0,1-1.887-1.352l-1.2-2.806h-7.856l-1.25,2.934a1.93,1.93,0,0,1-1.811,1.225,1.808,1.808,0,0,1-1.811-1.837A2.079,2.079,0,0,1,276.382,196.523Zm11.044-4.948-2.474-5.892-2.474,5.892Z" transform="translate(-240.422 -180.887)" fill="#1a1818"/>
      <path id="Path_40" data-name="Path 40" d="M316.646,183.243a1.949,1.949,0,0,1,1.964-1.964h.433a2.017,2.017,0,0,1,1.786,1.02l4.745,7.729,4.77-7.754a1.922,1.922,0,0,1,1.76-.995h.434a1.948,1.948,0,0,1,1.964,1.964v14.182a1.951,1.951,0,1,1-3.9,0v-8.9l-3.444,5.305a1.836,1.836,0,0,1-3.265,0L320.5,188.6v8.877a1.916,1.916,0,0,1-1.938,1.913,1.894,1.894,0,0,1-1.913-1.913Z" transform="translate(-261.176 -181.075)" fill="#1a1818"/>
      <path id="Path_41" data-name="Path 41" d="M359.964,183.453a1.949,1.949,0,0,1,1.964-1.965h5.331c4.26,0,6.836,2.526,6.836,6.173v.051c0,4.133-3.214,6.275-7.219,6.275h-2.984v3.546a1.964,1.964,0,1,1-3.928,0Zm7.04,7.04c1.964,0,3.111-1.173,3.111-2.7v-.051c0-1.76-1.224-2.7-3.188-2.7h-3.036v5.458Z" transform="translate(-283.377 -181.182)" fill="#1a1818"/>
      <path id="Path_42" data-name="Path 42" d="M393.185,183.139a1.964,1.964,0,1,1,3.928,0v14.233a1.964,1.964,0,1,1-3.928,0Z" transform="translate(-300.404 -181.021)" fill="#1a1818"/>
      <path id="Path_43" data-name="Path 43" d="M406.681,190.145v-.051a9.493,9.493,0,0,1,18.978-.051v.051a9.493,9.493,0,0,1-18.978.051Zm14.872,0v-.051a5.425,5.425,0,0,0-5.408-5.611,5.34,5.34,0,0,0-5.356,5.561v.051a5.424,5.424,0,0,0,5.408,5.611A5.34,5.34,0,0,0,421.553,190.145Z" transform="translate(-307.321 -180.86)" fill="#1a1818"/>
      <path id="Path_44" data-name="Path 44" d="M450.682,183.189a1.949,1.949,0,0,1,1.964-1.964h.408a2.433,2.433,0,0,1,2.041,1.148l7.576,9.948v-9.208a1.939,1.939,0,0,1,3.877,0V197.32a1.949,1.949,0,0,1-1.965,1.964h-.127a2.433,2.433,0,0,1-2.04-1.147l-7.857-10.305V197.4a1.938,1.938,0,1,1-3.877,0Z" transform="translate(-329.872 -181.021)" fill="#1a1818"/>
      <path id="Path_45" data-name="Path 45" d="M488.408,197.188a1.834,1.834,0,0,1-.74-1.479A1.808,1.808,0,0,1,489.5,193.9a1.891,1.891,0,0,1,1.123.357,7.527,7.527,0,0,0,4.565,1.607c1.607,0,2.576-.638,2.576-1.684v-.051c0-.994-.612-1.5-3.6-2.27-3.6-.918-5.917-1.913-5.917-5.459v-.051c0-3.239,2.6-5.382,6.249-5.382a10.362,10.362,0,0,1,5.663,1.581,1.818,1.818,0,0,1-.969,3.367,1.89,1.89,0,0,1-.995-.281,7.431,7.431,0,0,0-3.75-1.2c-1.505,0-2.3.689-2.3,1.556v.05c0,1.173.765,1.556,3.852,2.347,3.622.944,5.663,2.244,5.663,5.356v.051c0,3.546-2.7,5.535-6.556,5.535A11.526,11.526,0,0,1,488.408,197.188Z" transform="translate(-348.828 -180.914)" fill="#1a1818"/>
    </g>
    <path id="Path_46" data-name="Path 46" d="M57.132,183.139a1.964,1.964,0,1,1,3.928,0v5.255H68.3v-5.255a1.964,1.964,0,1,1,3.928,0v14.233a1.964,1.964,0,1,1-3.928,0v-5.356H61.06v5.356a1.964,1.964,0,1,1-3.928,0Z" transform="translate(860.868 10.13)" fill="#d20f1b"/>
    <path id="Path_47" data-name="Path 47" d="M162.81,183.453a1.948,1.948,0,0,1,1.964-1.964h5c5.611,0,9.488,3.852,9.488,8.876v.051c0,5.025-3.877,8.927-9.488,8.927h-5a1.948,1.948,0,0,1-1.964-1.964Zm6.963,12.345a5.088,5.088,0,0,0,5.382-5.331v-.051a5.128,5.128,0,0,0-5.382-5.382h-3.036V195.8Z" transform="translate(806.706 9.969)" fill="#d20f1b"/>
    <path id="Path_48" data-name="Path 48" d="M115.893,176.932h0a1.735,1.735,0,0,0-.155-.25,1.792,1.792,0,0,0-1.153-.7,2.484,2.484,0,0,0,.15-.469,2.124,2.124,0,0,0-.357-1.636,2.115,2.115,0,0,0-2.809-.561l-1.4.913-.461-.425a2.673,2.673,0,0,0-2.533-.584l-3.058,1.027a1.121,1.121,0,0,0-.428.256l-.346-.135a2.164,2.164,0,0,0-2.844,2.64c0,.013.007.024.011.037a9,9,0,0,0-6.985,5.871,9.4,9.4,0,0,0-.541,3.156v.05a9.419,9.419,0,0,0,.541,3.169,8.97,8.97,0,0,0,8.243,5.954c.156.006.315.011.473.011a9.944,9.944,0,0,0,2.379-.283,9.047,9.047,0,0,0,3.939-2.071,8.9,8.9,0,0,0,3.194,1.86,9.868,9.868,0,0,0,3.05.491c.025,0,.049,0,.076,0a9.1,9.1,0,0,0,9.31-9.184v-.05A8.977,8.977,0,0,0,115.893,176.932Zm-11.756-1.66a.344.344,0,0,1,.231-.271l3.049-1.017a1.843,1.843,0,0,1,1.753.408l.327.3-2.036,1.331a2.19,2.19,0,0,1-1.107.28,3.124,3.124,0,0,1-.73-.091,3.774,3.774,0,0,1-1.375-.642A.3.3,0,0,1,104.138,175.271Zm-2.755.451a1.379,1.379,0,0,1,1.677-.607l.3.115v.013a1.078,1.078,0,0,0,.4.936,4.453,4.453,0,0,0,1.586.766l.006,0,0,0a.345.345,0,0,0,.063.059l1.113.82h0l.223.165a.191.191,0,0,0,.048.034.939.939,0,0,1,.436,1.2.9.9,0,0,1-.548.524.926.926,0,0,1-.761-.054l-3.994-2.1a1.359,1.359,0,0,1-.613-.666h0a1.47,1.47,0,0,1-.056-.154A1.36,1.36,0,0,1,101.382,175.722Zm-1.223,3.127a1.008,1.008,0,0,1,1.288-.578l.354.135,3.613,1.906c.057.033.349.22.657.418l.024.016a.706.706,0,0,1,.323.7.728.728,0,0,1-.073.222.718.718,0,0,1-.263.28.7.7,0,0,1-.363.1.716.716,0,0,1-.146-.016h0a1.388,1.388,0,0,0-.146-.061l-1.017-.385-3.681-1.45a1,1,0,0,1-.236-.135h0A1.009,1.009,0,0,1,100.159,178.849Zm-.011,2.311a.949.949,0,0,1,.8-.092l.013,0,4.206,1.656h0a.114.114,0,0,0,.041.013.275.275,0,0,1,.035.009h0a.714.714,0,0,1,.317.868l-.009.028a.716.716,0,0,1-.669.477.708.708,0,0,1-.2-.027l-1.4-.383c-.978-.269-2.087-.573-2.9-.791a.975.975,0,0,1-.7-1.091A.989.989,0,0,1,100.148,181.16Zm2.715,3.247-.014.021a3.245,3.245,0,0,1-1.439,1.2,1.581,1.581,0,0,1-.483.063,2.2,2.2,0,0,1-1.109-.284.737.737,0,0,1-.4-.758v-.037a.918.918,0,0,1,1.136-.836l.161.044q.539.145,1.148.312l.978.267Zm-6.606,1.662v-.05a6.172,6.172,0,0,1,3.422-5.707h0a1.6,1.6,0,0,0,.112.131l-.062.035a1.771,1.771,0,0,0-.337,2.757l-.08.052a1.724,1.724,0,0,0-.691,1.265,1.511,1.511,0,0,0,.776,1.537,2.466,2.466,0,0,0,.624.271,4.1,4.1,0,0,0-1.013,1.149.261.261,0,0,0-.015.035A17.466,17.466,0,0,1,97.53,190,6.543,6.543,0,0,1,96.257,186.069Zm13.791,3.77-.019.01-.036.019-.017.009a1.809,1.809,0,0,1-.364.143l-.108.026a1.92,1.92,0,0,1-.684.017l-.921-.147-.051-.007-.026,0-.051,0a1.32,1.32,0,0,0-.224.006l-.036,0c-.037,0-.073.012-.108.019s-.071.018-.105.029l-.035.011a1.294,1.294,0,0,0-.177.076h0c-.023.012-.046.025-.069.039l-.056.036h0a.651.651,0,0,0-.041.051c-.078.1-.16.2-.245.289l-.013-.028s-.006.007-.009.009l-.2.252-.094.091-.062.058-.02.018a5.831,5.831,0,0,1-3.982,1.5h-.07l-.133,0-.07,0-.09,0c-.119-.006-.238-.017-.355-.03a6.02,6.02,0,0,1-.852-.159,5.811,5.811,0,0,1-1.1-.408c-.064-.032-.127-.064-.19-.1l-.063-.034-.123-.07a5.912,5.912,0,0,1-.529-.351l-.142-.11-.049-.039-.084-.069c-.125-.106-.246-.217-.362-.332h0l-.013-.013h0l-.013-.013c.026-.033.052-.067.076-.1a17.2,17.2,0,0,0,1.571-2.62,3.266,3.266,0,0,1,1.529-1.349l.485-.207h0l0,0,0,0a1.138,1.138,0,0,0,.226-.108,4.062,4.062,0,0,0,1.634-1.514.336.336,0,0,0,.035-.083l.006-.018.017,0,.493.135c.12.035.235.065.343.1a1.557,1.557,0,0,0,.4.057,1.466,1.466,0,0,0,.832-.254,1.529,1.529,0,0,0,.574-.739l.009-.028a1.485,1.485,0,0,0-.046-1.136l-.009-.018.018-.006a1.506,1.506,0,0,0,.725-.617c.016-.026.031-.052.044-.078a1.5,1.5,0,0,0,.111-1.1,1.485,1.485,0,0,0-.2-.419l-.016-.02.024-.009a1.73,1.73,0,0,0,1-.956,1.73,1.73,0,0,0,.033-1.238,1.735,1.735,0,0,0-.8-.945h0l-.154-.115.021-.015L112,173.99a1.3,1.3,0,0,1,1.369,2.218l-1.208.756-.013.009-.013.011c-.006,0-.011.009-.017.013l-.015.013s-.007.009-.011.013-.006.008-.011.015a.13.13,0,0,0-.028.03l0,0a.081.081,0,0,0-.013.019l0,0a.145.145,0,0,1-.013.026.033.033,0,0,0,0,.011c0,.013-.011.024-.016.035a.032.032,0,0,0,0,.013c0,.008-.007.015-.009.024a.094.094,0,0,1,0,.035.074.074,0,0,1,0,.019c0,.006,0,.013,0,.02a.07.07,0,0,0,0,.031l0,0v.041c0,.007,0,.013,0,.02a.061.061,0,0,0,0,.018v0s0,.011,0,.015a.066.066,0,0,0,0,.019l.007.013.013.024,0,.007c0,.008.006.017.013.021l0,.007v0s0,0,0,0l0,0a.5.5,0,0,0,.05.063s0,0,.006,0l.018.015a.2.2,0,0,0,.048.035l.006,0a.044.044,0,0,1,.019.011.251.251,0,0,0,.067.026.018.018,0,0,1,.016.006.381.381,0,0,0,.089.007h.007l0,0a.014.014,0,0,1,.009,0,.293.293,0,0,0,.074-.009l.018,0,.011,0,.006,0a.306.306,0,0,0,.08-.035l1.084-.663.115-.069a1.006,1.006,0,0,1,1.025-.007.938.938,0,0,1,.3.27.993.993,0,0,1-.172,1.36l-1.134.916-.011.011-.007.006,0,0-.031.03a.09.09,0,0,0-.02.026v0l0,0a.207.207,0,0,0-.019.024l0,0c0,.009-.009.017-.013.024a.085.085,0,0,1,0,.011c-.007.013-.011.024-.016.035l0,0a.185.185,0,0,0-.006.033v0l0,0a.088.088,0,0,0,0,.011c0,.006,0,.011,0,.018v.039s0,.011,0,.015v.018l0,.006a.1.1,0,0,0,0,.028l0,0v0a.109.109,0,0,0,0,.028l0,0,0,.007a.227.227,0,0,0,.011.028v0a.31.31,0,0,0,.016.037v0a.032.032,0,0,0,.008.016.107.107,0,0,1,.009.02.044.044,0,0,1,.011.019l0,0,.006.007c.007.006.009.011.009.015s0,0,0,0a.036.036,0,0,1,.015.016.1.1,0,0,0,.02.02.1.1,0,0,0,.016.015.068.068,0,0,0,.021.015l0,0,.037.024.006,0s.007,0,.011,0,.013.007.019.009a.093.093,0,0,0,.039.015l0,0a.1.1,0,0,1,.035.009l.028,0a.089.089,0,0,0,.024,0h.024a.3.3,0,0,0,.114-.018h.006l.013-.006,0,0a.311.311,0,0,0,.087-.045l.4-.285a.217.217,0,0,1,.024-.018,1.023,1.023,0,0,1,.78-.152,1.026,1.026,0,0,1,.673.478,1.031,1.031,0,0,1-.189,1.288l-1.258,1.062h0s-.006,0-.008.009,0,.006-.006.006l-.026.031,0,0a.064.064,0,0,0-.02.024l0,0a.032.032,0,0,1-.007.011.078.078,0,0,1-.015.022l0,.008c0,.009-.007.02-.009.026s-.006.013-.008.02a.168.168,0,0,0-.007.018l0,0a.1.1,0,0,0-.007.031v0a.084.084,0,0,0,0,.018c0,.006,0,.011,0,.018v.074a.064.064,0,0,0,0,.019c0,.007,0,.013,0,.02a.057.057,0,0,1,0,.021.149.149,0,0,1,0,.015c0,.007.006.02.011.031l0,.006a.045.045,0,0,1,.009.018.038.038,0,0,0,0,.013l0,0s0,.011.006.015a.114.114,0,0,1,.011.019.051.051,0,0,1,.011.013s0,0,.007.009l0,0v0s0,0,0,0h0l.024.023a.228.228,0,0,0,.035.033l0,0a.022.022,0,0,1,.011.009.041.041,0,0,1,.017.013l.009.006.026.015a.209.209,0,0,1,.03.013h0a.194.194,0,0,1,.046.015h0a.116.116,0,0,0,.024.007l.007,0a.14.14,0,0,0,.041,0,.054.054,0,0,1,.02,0h0l0,0h.006a.3.3,0,0,0,.113-.019h.007s0,0,.009,0l.008,0a.337.337,0,0,0,.089-.046l.819-.613a.957.957,0,0,1,1.41.2,1.238,1.238,0,0,1-.107,1.539c-.349.385-.8.865-1.34,1.388s-1.158,1.089-1.838,1.642a24.8,24.8,0,0,1-3.153,2.155c-.352.2-.661.374-.908.5A.077.077,0,0,1,110.048,189.839Zm9.042.852c-.074.076-.152.15-.232.222s-.163.139-.247.206c-.009.006-.016.013-.024.019a.147.147,0,0,0-.024.02,6.043,6.043,0,0,1-7.978-.654h0l0-.007-.007-.006-.013-.016c-.021-.021-.041-.045-.063-.069l-.016-.018-.026-.032h0a.1.1,0,0,1,.05.032h0a.105.105,0,0,1,.033.037l.028.048a26.2,26.2,0,0,0,4.05-2.675c.441-.363.867-.735,1.267-1.106l.017-.015.011.017c.534.758,1.427,2,2.195,2.9.137.162.394.432.4.432l.625.625Zm1.828-4.571a6.5,6.5,0,0,1-1.273,3.938h0l0,0h0l-.237-.237-.345-.345.023.016h0l0,0h0a37.577,37.577,0,0,1-2.589-3.362c.562-.541,1.032-1.04,1.394-1.44a2.032,2.032,0,0,0,.17-2.524,1.765,1.765,0,0,0-1.178-.745,1.842,1.842,0,0,0,.13-1.295,6.221,6.221,0,0,1,3.9,5.935Z" transform="translate(842.493 14.318)" fill="#d20f1b"/>
  </g>
</svg>
