<svg xmlns="http://www.w3.org/2000/svg" width="119.22" height="49.243" viewBox="0 0 119.22 49.243">
  <g id="Group_833" data-name="Group 833" transform="translate(-289.918 -947.528)">
    <path id="Path_791" data-name="Path 791" d="M553.888,1052.181l-.148,1.464c.17-.321.336-.649.5-.98C554.119,1052.5,554,1052.34,553.888,1052.181Z" transform="translate(-189.638 -75.227)" fill="none"/>
    <path id="Path_792" data-name="Path 792" d="M560.856,1028.48a12.223,12.223,0,0,1-2.055.858,10.241,10.241,0,0,1,1.372.984C560.6,1029.213,560.856,1028.48,560.856,1028.48Z" transform="translate(-193.275 -58.19)" fill="none"/>
    <path id="Path_793" data-name="Path 793" d="M339.133,982.3a15.37,15.37,0,0,1,1.853-2.981C340.2,978.917,339.229,979.1,339.133,982.3Z" transform="translate(-35.376 -22.741)" fill="none"/>
    <path id="Path_794" data-name="Path 794" d="M678.228,1060.9l-.031-.029q-.1-.1-.206-.19l-.034-.03c-.073-.064-.147-.128-.222-.192l-.024-.02q-.125-.1-.255-.208-.275-.218-.57-.429c.206,1.984.386,4.1.495,6.172h0c.01.192.02.386.029.578a8.124,8.124,0,0,0,1.006-.742,5.228,5.228,0,0,0,.482-.478l.031-.035c.042-.049.083-.1.121-.146h0a3.56,3.56,0,0,0,.208-.3l.026-.041c.026-.043.051-.086.074-.13l.031-.059c.022-.043.044-.086.063-.129a2.278,2.278,0,0,0,.19-1.263h0a2.51,2.51,0,0,0-.052-.263c0-.018-.01-.035-.015-.053-.019-.071-.042-.142-.067-.212l-.019-.053a3.481,3.481,0,0,0-.255-.524,5.517,5.517,0,0,0-.786-1.007h0Q678.341,1061.013,678.228,1060.9Z" transform="translate(-278.156 -80.707)" fill="none"/>
    <path id="Path_795" data-name="Path 795" d="M426.528,1034.667l-.125-.019,0,.016Z" transform="translate(-98.107 -62.623)" fill="none"/>
    <path id="Path_796" data-name="Path 796" d="M555.861,1032.785l-.142,1.409.142-1.409Z" transform="translate(-191.06 -61.284)" fill="none"/>
    <path id="Path_797" data-name="Path 797" d="M321.009,1098.865a14.224,14.224,0,0,1,.129-3.424c-3.184-.282-7.735-.267-10.434-.225a16.05,16.05,0,0,0-2.255,7.7h16.7l.438-4.505C323.149,1098.527,321.009,1098.865,321.009,1098.865Z" transform="translate(-13.32 -106.143)" fill="#a30f17"/>
    <path id="Path_798" data-name="Path 798" d="M339.61,1002.967a3.557,3.557,0,0,1-1.281-.881,21.785,21.785,0,0,1-.393,3.731q.436-.5.911-.96h0Z" transform="translate(-34.515 -39.217)" fill="#f3e8dc"/>
    <path id="Path_799" data-name="Path 799" d="M373.869,1104.805a16.1,16.1,0,0,0-5.59-.457l-.438,4.505h16.9a24.406,24.406,0,0,0-.008-5.4C382.621,1105.044,376.541,1105.783,373.869,1104.805Z" transform="translate(-56.012 -112.084)" fill="#5c0c0c"/>
    <path id="Path_800" data-name="Path 800" d="M614.593,1109.339l-.618.006h0l-.012,3.6h18.064l.04-3.8-7.671.084h0Z" transform="translate(-232.926 -116.175)" fill="#dad3cc"/>
    <path id="Path_801" data-name="Path 801" d="M363.743,1003.313a28.393,28.393,0,0,1-3.831,1.023c1.025.125,2.225.278,3.589.462A7.389,7.389,0,0,0,363.743,1003.313Z" transform="translate(-50.312 -40.1)" fill="#5c0c0c"/>
    <path id="Path_802" data-name="Path 802" d="M319.249,1024.016h0c.1-.018.193-.036.292-.054h.009c.351-.061.731-.118,1.136-.174h0c.343-.048.7-.1,1.085-.147l.094-.013h0l.808-.109h0q.453-.063.936-.135h0q.516-.077,1.064-.168c.195-.033.391-.066.592-.1.058-.01.114-.023.171-.035a9.021,9.021,0,0,0,1.442-.406h0a7.827,7.827,0,0,0,.754-.33l.021-.01c.077-.039.153-.079.227-.121h0a6.556,6.556,0,0,0,1.818-1.471c-2.811-.975-2.374-4.913-.949-6.4-1.726-1.271-2.921-2.353-3.4-2.4q-.474.463-.911.96c-.751,3.9-2.495,7.422-4.607,9.246-.225.621-.45,1.253-.673,1.89l.084-.017Z" transform="translate(-21.019 -46.299)" fill="#5c0c0c"/>
    <path id="Path_803" data-name="Path 803" d="M321.135,1073.864a7.23,7.23,0,0,1,.81-2.409c1.313-2.243,1.454-6.281,1.454-6.281l-.208.071h0l-.1.034-.011,0-.094.032-.038.013-.109.038-.023.008-.128.044-.027.01-.79.276-1.16.409h0l-.8.284h0l-1.011.363-.747.27h0q-.61.221-1.26.46l-.062.022c-.092.033-.184.065-.272.1s-.2.064-.3.093l-.02.007c-.1.031-.2.058-.3.083h0c-.1.025-.191.047-.283.067h-.006a5.84,5.84,0,0,1-.914.127h0a3.972,3.972,0,0,1-1.045-.069h0c-.059-.012-.116-.026-.172-.041l-.006,0c-.056-.015-.109-.031-.162-.048l-.005,0a7.689,7.689,0,0,1-1.909-1.228.85.85,0,0,0-.246-.1v0c-.722-.158-1.253.852-1.316.979h0l-.006.011v0l-.081-.06a29.569,29.569,0,0,0-1.34,6.255s.891-.028,2.256-.049C313.4,1073.6,317.951,1073.582,321.135,1073.864Z" transform="translate(-13.317 -84.566)" fill="#5c0c0c"/>
    <path id="Path_804" data-name="Path 804" d="M526.89,984.763q.048-.459.121-.951c.8-5.321-4.286-7.671-6.025-7.389a7.029,7.029,0,0,0-5.287,7.588l.009.064c.717.228,1.5.474,2.359.727A19.792,19.792,0,0,0,526.89,984.763Z" transform="translate(-162.244 -20.754)" fill="#040405"/>
    <path id="Path_805" data-name="Path 805" d="M556.238,1032.293h0l-.014.138h0Z" transform="translate(-191.423 -60.931)" fill="#142245"/>
    <path id="Path_806" data-name="Path 806" d="M453.92,995.644v-3c-2.143,1.96-4.819,3.283-6.817-.995l-.388,3.708A33.511,33.511,0,0,1,453.92,995.644Z" transform="translate(-112.707 -31.714)" fill="#f3e8dc"/>
    <path id="Path_807" data-name="Path 807" d="M452.027,960.928c.866-.792,1.646-1.688,2.258-2.36a3.057,3.057,0,0,0-.374-4.636c8.9.523,5.38-8.6,2.692-5.907-.385.386-.733.73-1.045,1.036a3.3,3.3,0,0,1-4.1.389c-1.689-1.074-1.962,1.117-1.962,1.117-1.795-2.393-2.093.673-2.093.673-4.935-1.645-2.916,6.8-2.916,6.8a15.273,15.273,0,0,0,.72,1.889C447.208,964.211,449.883,962.888,452.027,960.928Z" transform="translate(-110.814 0)" fill="#040405"/>
    <path id="Path_808" data-name="Path 808" d="M611.1,1046.769l.031.156.227-.136Z" transform="translate(-230.869 -71.336)" fill="#040405"/>
    <path id="Path_809" data-name="Path 809" d="M627.992,1028.276c-6.7.853-13.408,1.783-20.132,1.136.1.377.239.929.4,1.613,6.66.6,13.43-.624,20.113-1.3q.634-.059,1.267-.113l1.5-.127c-.62-.493-1.228-.933-1.815-1.323l-.342.027C628.651,1028.219,628.321,1028.246,627.992,1028.276Z" transform="translate(-228.54 -57.964)" fill="#040405"/>
    <path id="Path_810" data-name="Path 810" d="M703.106,1044.743q.144.164.289.332Q703.251,1044.907,703.106,1044.743Z" transform="translate(-297.003 -69.88)" fill="#040405"/>
    <path id="Path_811" data-name="Path 811" d="M633.69,1036.872c-6.736.7-13.466,3.087-20.209,2.689a7.214,7.214,0,0,1,.96,1.434c6.518.312,13.037-1.382,19.342-2.7q.71-.081,1.42-.143,1.295-.114,2.592-.171.292.3.582.619c-.646-.707-1.294-1.348-1.937-1.929q-.627.032-1.252.075Q634.438,1036.8,633.69,1036.872Z" transform="translate(-232.58 -64.08)" fill="#040405"/>
    <path id="Path_812" data-name="Path 812" d="M702.056,1043.574c.092.1.185.2.277.309C702.241,1043.778,702.149,1043.676,702.056,1043.574Z" transform="translate(-296.249 -69.039)" fill="#040405"/>
    <path id="Path_813" data-name="Path 813" d="M636.592,1045.948q-.729.021-1.457.061a22.736,22.736,0,0,0-4.363.382c-5.3.922-10.6,2.727-15.912,2.913a1.106,1.106,0,0,1-1.3,1.093c.016.132.032.266.048.4,6.909.287,13.783-2.341,20.712-3.228q.787-.085,1.573-.14,2.123-.15,4.257-.107c-.079-.11-.16-.22-.246-.33q-.434-.555-.873-1.067Q637.81,1045.913,636.592,1045.948Z" transform="translate(-232.638 -70.727)" fill="#040405"/>
    <path id="Path_814" data-name="Path 814" d="M710.721,1055.043c.017.033.036.065.053.1C710.757,1055.108,710.738,1055.076,710.721,1055.043Z" transform="translate(-302.477 -77.283)" fill="#040405"/>
    <path id="Path_815" data-name="Path 815" d="M709.857,1053.521c.036.059.071.118.1.176C709.928,1053.638,709.893,1053.58,709.857,1053.521Z" transform="translate(-301.856 -76.189)" fill="#040405"/>
    <path id="Path_816" data-name="Path 816" d="M694.019,1035.687q.156.136.312.277Q694.175,1035.824,694.019,1035.687Z" transform="translate(-290.471 -63.37)" fill="#040405"/>
    <path id="Path_817" data-name="Path 817" d="M709.01,1052.181c.047.07.093.141.137.212C709.1,1052.322,709.057,1052.252,709.01,1052.181Z" transform="translate(-301.247 -75.227)" fill="#040405"/>
    <path id="Path_818" data-name="Path 818" d="M708.123,1050.9c.059.081.115.162.17.243C708.237,1051.062,708.182,1050.981,708.123,1050.9Z" transform="translate(-300.609 -74.305)" fill="#040405"/>
    <path id="Path_819" data-name="Path 819" d="M621.64,1022.6c4.861.086,9.794-.624,14.636-.936l.843-.07c-.631-.333-1.215-.6-1.737-.825-1.023.716-3.42,1.121-6.627,1.121A39.882,39.882,0,0,0,621.64,1022.6Z" transform="translate(-238.445 -52.649)" fill="#040405"/>
    <path id="Path_820" data-name="Path 820" d="M681.551,1063.612l.031.029Z" transform="translate(-281.509 -83.443)" fill="#040405"/>
    <path id="Path_821" data-name="Path 821" d="M682.249,1026.914q.269.168.546.351Q682.519,1027.082,682.249,1026.914Z" transform="translate(-282.011 -57.064)" fill="#040405"/>
    <path id="Path_822" data-name="Path 822" d="M680.348,1025.755c.172.1.346.208.522.318Q680.606,1025.907,680.348,1025.755Z" transform="translate(-280.645 -56.231)" fill="#040405"/>
    <path id="Path_823" data-name="Path 823" d="M679.822,1062.073l.024.02Z" transform="translate(-280.267 -82.337)" fill="#040405"/>
    <path id="Path_824" data-name="Path 824" d="M712.871,1060.244q.05.168.091.335Q712.921,1060.412,712.871,1060.244Z" transform="translate(-304.022 -81.022)" fill="#040405"/>
    <path id="Path_825" data-name="Path 825" d="M678.491,1024.685q.25.14.508.292Q678.741,1024.825,678.491,1024.685Z" transform="translate(-279.31 -55.462)" fill="#040405"/>
    <path id="Path_826" data-name="Path 826" d="M635.809,1054.836a16.518,16.518,0,0,0-5.287.736c-5.782,1.107-11.289,3.038-16.86,2.975.035.415.063.829.083,1.24,5.448-.01,10.862-1.708,16.447-2.9.38-.069.761-.129,1.142-.185q.051.507.1,1.024c-6.059,1.147-11.734,3.438-17.653,3.529,0,.333-.008.663-.022.986,5.986-.092,11.747-2.229,17.782-3.295q.041.486.078.975c-6.166,1.068-11.96,3.507-17.976,3.741-.053.448-.12.891-.2,1.327a17.261,17.261,0,0,0,5.87-.354,113.494,113.494,0,0,1,12.4-3.407q.037.575.066,1.146c-.108-2.069-.289-4.187-.494-6.172q.3.211.57.429h0c1.264-.166,2.537-.269,3.839-.339.442-.029.885-.053,1.327-.07a30.612,30.612,0,0,1,4.383.1,7.863,7.863,0,0,0-.552-1.364c-1.2-.083-2.388-.112-3.529-.167Q636.564,1054.8,635.809,1054.836Z" transform="translate(-232.553 -77.106)" fill="#040405"/>
    <path id="Path_827" data-name="Path 827" d="M692.9,1034.727q.142.12.284.245C693.093,1034.889,693,1034.808,692.9,1034.727Z" transform="translate(-289.67 -62.68)" fill="#040405"/>
    <path id="Path_828" data-name="Path 828" d="M680.7,1062.828l.034.03Z" transform="translate(-280.896 -82.88)" fill="#040405"/>
    <path id="Path_829" data-name="Path 829" d="M691.771,1033.782q.145.119.291.243Q691.916,1033.9,691.771,1033.782Z" transform="translate(-288.855 -62.001)" fill="#040405"/>
    <path id="Path_830" data-name="Path 830" d="M690.648,1032.873q.153.122.307.248Q690.8,1032.995,690.648,1032.873Z" transform="translate(-288.048 -61.348)" fill="#040405"/>
    <path id="Path_831" data-name="Path 831" d="M684.071,1079.346l-.031.036Z" transform="translate(-283.298 -94.752)" fill="#040405"/>
    <path id="Path_832" data-name="Path 832" d="M613.069,1102.934q-.019-.151-.038-.314Q613.05,1102.783,613.069,1102.934Z" transform="translate(-232.256 -111.482)" fill="#040405"/>
    <path id="Path_833" data-name="Path 833" d="M685.346,1077.623l-.026.041Z" transform="translate(-284.219 -93.514)" fill="#040405"/>
    <path id="Path_834" data-name="Path 834" d="M676.69,1023.707q.244.129.5.271Q676.934,1023.836,676.69,1023.707Z" transform="translate(-278.015 -54.759)" fill="#040405"/>
    <path id="Path_835" data-name="Path 835" d="M684.58,1078.823h0Z" transform="translate(-283.687 -94.377)" fill="#040405"/>
    <path id="Path_836" data-name="Path 836" d="M694.537,1097.465l-.245.194Z" transform="translate(-290.668 -107.777)" fill="#040405"/>
    <path id="Path_837" data-name="Path 837" d="M695.64,1096.446q-.151.126-.3.247Q695.489,1096.572,695.64,1096.446Z" transform="translate(-291.42 -107.045)" fill="#040405"/>
    <path id="Path_838" data-name="Path 838" d="M693.456,1098.394l-.206.158Z" transform="translate(-289.919 -108.445)" fill="#040405"/>
    <path id="Path_839" data-name="Path 839" d="M612.8,1100.6q-.041-.348-.085-.744Q612.757,1100.254,612.8,1100.6Z" transform="translate(-232.028 -109.497)" fill="#040405"/>
    <path id="Path_840" data-name="Path 840" d="M658.414,1102.668q-.769.122-1.536.267c-1.964.363-3.887.822-5.812,1.246l7.671-.084c.008-.073.015-.147.023-.222a29.185,29.185,0,0,0,2.929-1.754l-.27.181C660.417,1102.383,659.415,1102.509,658.414,1102.668Z" transform="translate(-259.596 -111.124)" fill="#040405"/>
    <path id="Path_841" data-name="Path 841" d="M686.139,1069.935l.019.053Z" transform="translate(-284.807 -87.988)" fill="#040405"/>
    <path id="Path_842" data-name="Path 842" d="M686.446,1070.877c0,.018.011.036.015.053C686.457,1070.913,686.451,1070.895,686.446,1070.877Z" transform="translate(-285.028 -88.665)" fill="#040405"/>
    <path id="Path_843" data-name="Path 843" d="M685.707,1076.953l-.031.058Z" transform="translate(-284.474 -93.033)" fill="#040405"/>
    <path id="Path_844" data-name="Path 844" d="M634.736,1087.276q-.75.055-1.5.148c-4.878.41-9.329,2.553-14.438,3.542a39.5,39.5,0,0,1-4.73.3q-.424,0-.848-.007l-.037-.291c.091.734.167,1.258.2,1.51l.041,0q.778.024,1.56.023.5.041,1,.033c5.281-.582,10.226-2.725,15.519-3.279q.752-.111,1.5-.194a29.879,29.879,0,0,1,3.576-.183,18.587,18.587,0,0,0,2.9-2.959,15.912,15.912,0,0,1-1.173,1.362A22.813,22.813,0,0,0,634.736,1087.276Z" transform="translate(-232.366 -99.479)" fill="#040405"/>
    <path id="Path_845" data-name="Path 845" d="M613.935,1109.4c0-.025-.012-.075-.023-.152C613.924,1109.324,613.932,1109.374,613.935,1109.4Z" transform="translate(-232.89 -116.246)" fill="#040405"/>
    <path id="Path_846" data-name="Path 846" d="M689.29,1101.449l-.208.143Z" transform="translate(-286.922 -110.64)" fill="#040405"/>
    <path id="Path_847" data-name="Path 847" d="M634.141,1080.311c-.713.035-1.421.107-2.125.205h0a8.081,8.081,0,0,1-1.006.742c-.009-.192-.019-.385-.029-.578-5.39.954-10.566,3.357-16.089,3.909a15.725,15.725,0,0,1-2.524.032l0,.007-.016.068c-.005.021-.01.042-.015.063q.053.536.105,1.01c7.078.465,13.671-2.718,20.4-3.8q.731-.107,1.46-.176a19.966,19.966,0,0,1,4.569.056,12.319,12.319,0,0,0,.817-1.21,19.835,19.835,0,0,0-4.078-.381C635.124,1080.261,634.633,1080.28,634.141,1080.311Z" transform="translate(-231.758 -95.409)" fill="#040405"/>
    <path id="Path_848" data-name="Path 848" d="M691.223,1063.8c.014.1.026.2.035.3a30.189,30.189,0,0,0-4.716-.371q-.675,0-1.35.024a12.138,12.138,0,0,0-2.754.19,5.534,5.534,0,0,1,.786,1.007h0a11.031,11.031,0,0,1,2.8-.213c.483-.013.965-.014,1.445,0a20.824,20.824,0,0,1,3.8.44,7.145,7.145,0,0,1-.229,1.354A6.865,6.865,0,0,0,691.223,1063.8Z" transform="translate(-282.146 -83.526)" fill="#040405"/>
    <path id="Path_849" data-name="Path 849" d="M713.207,1061.486q.039.16.071.32Q713.246,1061.647,713.207,1061.486Z" transform="translate(-304.264 -81.915)" fill="#040405"/>
    <path id="Path_850" data-name="Path 850" d="M690.337,1100.742l-.191.134Z" transform="translate(-287.688 -110.132)" fill="#040405"/>
    <path id="Path_851" data-name="Path 851" d="M713.481,1062.75c.02.1.036.2.051.3C713.518,1062.952,713.5,1062.851,713.481,1062.75Z" transform="translate(-304.461 -82.824)" fill="#040405"/>
    <path id="Path_852" data-name="Path 852" d="M692.405,1099.222l-.193.144Z" transform="translate(-289.173 -109.04)" fill="#040405"/>
    <path id="Path_853" data-name="Path 853" d="M688.1,1071.8a15.226,15.226,0,0,0-1.9.048,2.283,2.283,0,0,1-.189,1.263h0c.551-.071,1.106-.133,1.668-.179q.693-.03,1.384-.023a19.977,19.977,0,0,1,4.179.475,9.948,9.948,0,0,1-.59,1.166,9.045,9.045,0,0,0,.955-2.22,25,25,0,0,0-3.959-.5Q688.875,1071.8,688.1,1071.8Z" transform="translate(-284.714 -89.32)" fill="#040405"/>
    <path id="Path_854" data-name="Path 854" d="M691.367,1100l-.189.137Z" transform="translate(-288.429 -109.6)" fill="#040405"/>
    <path id="Path_855" data-name="Path 855" d="M614.623,1109.827l-.618.007h0Z" transform="translate(-232.956 -116.663)" fill="#040405"/>
    <path id="Path_856" data-name="Path 856" d="M629.39,1033.112c-6.682.673-13.453,1.894-20.113,1.3.159.677.336,1.482.513,2.371l.258.021c.161-.1.25-.153.25-.153s.063.066.161.181c6.743.4,13.473-1.987,20.209-2.689q.748-.07,1.5-.122.625-.044,1.252-.076h0q-.157-.141-.313-.277l-.029-.025q-.142-.124-.284-.245l-.027-.023c-.1-.082-.195-.163-.291-.243l-.009-.007-.307-.248h0l-1.5.127Q630.024,1033.054,629.39,1033.112Z" transform="translate(-229.558 -61.347)" fill="#410d0e"/>
    <path id="Path_857" data-name="Path 857" d="M636.016,1050.98q-.786.056-1.573.14c-6.929.888-13.8,3.515-20.712,3.228.053.456.1.914.137,1.373,5.57.062,11.078-1.869,16.86-2.976a16.508,16.508,0,0,1,5.287-.736q.755-.034,1.512-.04c1.141.055,2.329.084,3.53.167h0c-.017-.032-.035-.065-.053-.1-.044-.084-.09-.168-.138-.252-.033-.058-.069-.118-.1-.176s-.067-.11-.1-.165c-.044-.071-.09-.142-.137-.212-.026-.039-.053-.078-.08-.117-.055-.081-.111-.162-.17-.243h0Q638.14,1050.828,636.016,1050.98Z" transform="translate(-232.76 -74.279)" fill="#410d0e"/>
    <path id="Path_858" data-name="Path 858" d="M689.474,1067.261q-.721-.02-1.445,0a11.06,11.06,0,0,0-2.8.213h0a3.481,3.481,0,0,1,.255.524l.019.053q.038.106.067.212c0,.018.01.035.015.053a2.519,2.519,0,0,1,.052.263h0a15.2,15.2,0,0,1,1.9-.048q.775,0,1.546.032a24.986,24.986,0,0,1,3.959.5h0l0-.007a7.155,7.155,0,0,0,.229-1.354A20.814,20.814,0,0,0,689.474,1067.261Z" transform="translate(-284.156 -86.051)" fill="#410d0e"/>
    <path id="Path_859" data-name="Path 859" d="M634.576,1085.454q-.729.068-1.461.175c-6.732,1.08-13.325,4.263-20.4,3.8h0v0q.044.4.086.744l0,.032q.019.163.038.314l0,.037c.013.1.025.2.037.292q.423.007.847.007a39.531,39.531,0,0,0,4.73-.3c5.109-.989,9.559-3.132,14.438-3.542q.751-.093,1.5-.148a22.9,22.9,0,0,1,3.574.008,15.834,15.834,0,0,0,1.172-1.362h0A19.95,19.95,0,0,0,634.576,1085.454Z" transform="translate(-232.027 -99.069)" fill="#410d0e"/>
    <path id="Path_860" data-name="Path 860" d="M632.129,1070.542q-.037-.489-.078-.975c-6.036,1.065-11.8,3.2-17.782,3.295-.005.111-.011.221-.018.33-.012.206-.029.41-.048.614h0v0q-.022.238-.05.474C620.169,1074.049,625.962,1071.61,632.129,1070.542Z" transform="translate(-233.063 -87.724)" fill="#410d0e"/>
    <path id="Path_861" data-name="Path 861" d="M631.065,1078.824q-.03-.572-.066-1.146a113.49,113.49,0,0,0-12.4,3.407,17.272,17.272,0,0,1-5.871.355c-.053.293-.111.584-.174.87l0,.008c-.033.15-.068.3-.1.447a15.725,15.725,0,0,0,2.524-.032c5.523-.552,10.7-2.955,16.089-3.909Z" transform="translate(-231.84 -93.553)" fill="#5c0c0c"/>
    <path id="Path_862" data-name="Path 862" d="M632.03,1096.818c-5.293.555-10.237,2.7-15.519,3.28-.332,0-.665-.006-1-.033q-.781,0-1.559-.024l-.041,0h0v0c.011.077.019.128.023.152l0,.018h0l.618-.007,9.8-.107h0c1.925-.425,3.848-.884,5.812-1.247q.767-.144,1.536-.267c1-.158,2-.284,3-.365l.27-.181.068-.046.207-.143.092-.065.191-.134.1-.071.189-.137.1-.075.193-.144.1-.075.206-.158.087-.067.245-.194.049-.039q.152-.122.3-.248h0a29.9,29.9,0,0,0-3.576.183Q632.782,1096.706,632.03,1096.818Z" transform="translate(-232.889 -107.039)" fill="#5c0c0c"/>
    <path id="Path_863" data-name="Path 863" d="M684.078,1059.791q-.663.026-1.327.071c-1.3.07-2.575.173-3.839.339h0q.13.1.256.208l.024.02c.076.064.15.127.222.192l.034.03c.07.063.139.126.206.19l.031.029c.075.072.148.145.218.218h0a12.125,12.125,0,0,1,2.754-.19q.675-.026,1.35-.025a30.294,30.294,0,0,1,4.716.371c-.009-.1-.021-.2-.035-.3,0-.016,0-.032-.006-.048-.015-.1-.031-.2-.051-.3,0-.012,0-.024-.006-.036-.021-.106-.044-.213-.071-.319l0-.014c-.027-.112-.058-.223-.091-.336h0A30.718,30.718,0,0,0,684.078,1059.791Z" transform="translate(-279.612 -80.673)" fill="#5c0c0c"/>
    <path id="Path_864" data-name="Path 864" d="M686.41,1075.771q-.69-.008-1.384.023c-.561.046-1.116.108-1.667.178h0c-.019.043-.041.086-.063.13l-.031.059c-.023.043-.048.086-.074.13l-.026.041a3.5,3.5,0,0,1-.208.3h0c-.039.049-.079.1-.121.147l-.031.036a5.209,5.209,0,0,1-.482.477h0c.7-.1,1.411-.171,2.125-.205q.738-.047,1.473-.052a19.884,19.884,0,0,1,4.078.381h0a9.849,9.849,0,0,0,.59-1.166A20,20,0,0,0,686.41,1075.771Z" transform="translate(-282.063 -92.182)" fill="#5c0c0c"/>
    <path id="Path_865" data-name="Path 865" d="M611.349,1024.712c-2.4.445-4.026.935-4.026.935s.057.2.151.56c6.724.647,13.428-.282,20.132-1.136.33-.03.659-.057.989-.083l.343-.027h0q-.276-.183-.546-.352l-.012-.007q-.265-.166-.522-.318l-.014-.008q-.258-.153-.508-.293l-.008,0q-.253-.141-.5-.27h0l-.843.07C621.143,1024.088,616.21,1024.8,611.349,1024.712Z" transform="translate(-228.154 -54.758)" fill="#5c0c0c"/>
    <path id="Path_866" data-name="Path 866" d="M637.658,1041.5c-.473.042-.947.089-1.42.143-6.3,1.316-12.824,3.01-19.342,2.7a3.161,3.161,0,0,1,.374,1.5c0,.055-.008.106-.014.156,5.31-.186,10.611-1.991,15.912-2.913a22.757,22.757,0,0,1,4.364-.383q.727-.039,1.457-.061,1.217-.037,2.44-.023h0l0,0q-.144-.168-.289-.332l-.018-.02q-.139-.156-.277-.308l-.01-.012q-.291-.318-.582-.619Q638.954,1041.39,637.658,1041.5Z" transform="translate(-235.035 -67.428)" fill="#5c0c0c"/>
    <path id="Path_867" data-name="Path 867" d="M612.909,1057.1v0Z" transform="translate(-232.169 -78.759)" fill="#5c0c0c"/>
    <path id="Path_868" data-name="Path 868" d="M614.55,1066.14c5.919-.091,11.594-2.382,17.653-3.528q-.048-.518-.1-1.024c-.381.055-.761.115-1.142.185-5.585,1.188-11,2.888-16.447,2.9C614.538,1065.166,614.551,1065.658,614.55,1066.14Z" transform="translate(-233.323 -81.988)" fill="#5c0c0c"/>
    <path id="Path_869" data-name="Path 869" d="M341.422,973.871a2.717,2.717,0,0,0-.456-.3,15.371,15.371,0,0,0-1.852,2.981c-.016.547-.007,1.181.032,1.916.025.463.032.928.024,1.393a3.553,3.553,0,0,0,1.281.881h0s1.533.127,4.5.488a28.308,28.308,0,0,0,3.831-1.024c.021-.3.032-.612.029-.953a12.831,12.831,0,0,1,.74-4.547c-.727-1.167-4.126-6.035-7.944-1.913a6.086,6.086,0,0,1,.256.806A.276.276,0,0,1,341.422,973.871Z" transform="translate(-35.356 -16.989)" fill="#040405"/>
    <path id="Path_870" data-name="Path 870" d="M311.488,1057.8c.027-.025.055-.049.084-.072C311.543,1057.755,311.515,1057.779,311.488,1057.8Z" transform="translate(-15.505 -79.216)" fill="#f3e8dc"/>
    <path id="Path_871" data-name="Path 871" d="M314.768,1056c.047-.018.1-.034.145-.051C314.864,1055.962,314.815,1055.978,314.768,1056Z" transform="translate(-17.862 -77.932)" fill="#f3e8dc"/>
    <path id="Path_872" data-name="Path 872" d="M315.6,1055.714c.053-.017.108-.034.164-.05C315.706,1055.68,315.651,1055.7,315.6,1055.714Z" transform="translate(-18.459 -77.73)" fill="#f3e8dc"/>
    <path id="Path_873" data-name="Path 873" d="M313.994,1056.3l.131-.054Z" transform="translate(-17.306 -78.148)" fill="#f3e8dc"/>
    <path id="Path_874" data-name="Path 874" d="M312.623,1056.989c.034-.021.069-.042.106-.062C312.692,1056.947,312.657,1056.967,312.623,1056.989Z" transform="translate(-16.32 -78.638)" fill="#f3e8dc"/>
    <path id="Path_875" data-name="Path 875" d="M313.279,1056.629l.118-.057Z" transform="translate(-16.792 -78.382)" fill="#f3e8dc"/>
    <path id="Path_876" data-name="Path 876" d="M426.418,1034.7a6.58,6.58,0,0,1,.152.768l.055-.752h0l-.086-.013Z" transform="translate(-98.117 -62.663)" fill="#f3e8dc"/>
    <path id="Path_877" data-name="Path 877" d="M317.428,1055.2l.221-.051Z" transform="translate(-19.774 -77.361)" fill="#f3e8dc"/>
    <path id="Path_878" data-name="Path 878" d="M316.485,1055.451c.06-.017.123-.033.186-.049C316.608,1055.418,316.545,1055.434,316.485,1055.451Z" transform="translate(-19.097 -77.541)" fill="#f3e8dc"/>
    <path id="Path_879" data-name="Path 879" d="M312.026,1057.379c.031-.022.062-.045.094-.067C312.088,1057.334,312.057,1057.356,312.026,1057.379Z" transform="translate(-15.891 -78.914)" fill="#f3e8dc"/>
    <path id="Path_880" data-name="Path 880" d="M309.708,1060.557c.012-.043.024-.087.038-.128C309.732,1060.47,309.72,1060.513,309.708,1060.557Z" transform="translate(-14.225 -81.155)" fill="#f3e8dc"/>
    <path id="Path_881" data-name="Path 881" d="M309.944,1059.907c.015-.036.029-.073.046-.107C309.973,1059.835,309.959,1059.872,309.944,1059.907Z" transform="translate(-14.395 -80.703)" fill="#f3e8dc"/>
    <path id="Path_882" data-name="Path 882" d="M309.508,1061.313a2.044,2.044,0,0,1,.038-.205A2.044,2.044,0,0,0,309.508,1061.313Z" transform="translate(-14.081 -81.643)" fill="#f3e8dc"/>
    <path id="Path_883" data-name="Path 883" d="M373.7,1058.278l.06-9.575a2.015,2.015,0,0,1-.464-.455l.284-3.874c-1.022,3.408-5.161,4.957-5.161,4.957s4.414,7.566-4.376,8.893-6.465-8.9-6.465-8.9c-5.483.594-2.193-5.447-2.193-5.447a4.987,4.987,0,0,1-.719-.055c-.277.495-1.784,3.739.507,6.075l.208-.072s-.141,4.038-1.454,6.281a7.23,7.23,0,0,0-.81,2.409,14.226,14.226,0,0,0-.129,3.423s2.14-.337,4.578-.457a16.119,16.119,0,0,1,5.59.457c2.672.978,8.752.239,10.863-1.348a1.957,1.957,0,0,0,.652-.753v-1.422C374.058,1058.333,373.7,1058.278,373.7,1058.278Z" transform="translate(-45.303 -69.221)" fill="#dad3cc"/>
    <path id="Path_884" data-name="Path 884" d="M311.011,1058.266c.024-.027.048-.053.074-.079C311.059,1058.213,311.035,1058.239,311.011,1058.266Z" transform="translate(-15.162 -79.543)" fill="#f3e8dc"/>
    <path id="Path_885" data-name="Path 885" d="M310.239,1059.314c.018-.032.035-.064.055-.095C310.274,1059.25,310.257,1059.282,310.239,1059.314Z" transform="translate(-14.607 -80.285)" fill="#f3e8dc"/>
    <path id="Path_886" data-name="Path 886" d="M310.594,1058.768c.021-.029.042-.058.064-.086C310.636,1058.71,310.615,1058.739,310.594,1058.768Z" transform="translate(-14.862 -79.899)" fill="#f3e8dc"/>
    <path id="Path_887" data-name="Path 887" d="M349.3,1048.9l.021-.011Z" transform="translate(-42.686 -72.863)" fill="#f3e8dc"/>
    <path id="Path_888" data-name="Path 888" d="M319.09,1058.321c-.813-1.605.09-3.325.738-4.247-.405.057-.785.114-1.137.174l.016,0a8.583,8.583,0,0,0-.676,4.272h0a.836.836,0,0,1,.246.1,7.684,7.684,0,0,0,1.909,1.229c-.054-.018-.106-.036-.156-.056A8.294,8.294,0,0,1,319.09,1058.321Z" transform="translate(-20.159 -76.587)" fill="#dad3cc"/>
    <path id="Path_889" data-name="Path 889" d="M324.6,1053.7c.342-.048.706-.1,1.085-.147Q325.112,1053.627,324.6,1053.7Z" transform="translate(-24.928 -76.211)" fill="#f3e8dc"/>
    <path id="Path_890" data-name="Path 890" d="M326.048,1074.651c-.056-.015-.109-.031-.162-.048C325.939,1074.62,325.992,1074.636,326.048,1074.651Z" transform="translate(-25.854 -91.344)" fill="#f3e8dc"/>
    <path id="Path_891" data-name="Path 891" d="M327.108,1074.929a3.956,3.956,0,0,0,1.045.069A3.967,3.967,0,0,1,327.108,1074.929Z" transform="translate(-26.732 -91.578)" fill="#f3e8dc"/>
    <path id="Path_892" data-name="Path 892" d="M319.772,1054.7q-.149.026-.292.053Z" transform="translate(-21.249 -77.037)" fill="#f3e8dc"/>
    <path id="Path_893" data-name="Path 893" d="M313.519,1073.372h0Z" transform="translate(-16.965 -90.459)" fill="#f3e8dc"/>
    <path id="Path_894" data-name="Path 894" d="M326.655,1074.821c-.059-.012-.116-.026-.172-.041C326.539,1074.795,326.6,1074.809,326.655,1074.821Z" transform="translate(-26.283 -91.471)" fill="#f3e8dc"/>
    <path id="Path_895" data-name="Path 895" d="M318.717,1054.894l-.084.017c-.069.014-.139.027-.206.042C318.522,1054.932,318.618,1054.913,318.717,1054.894Z" transform="translate(-20.492 -77.176)" fill="#f3e8dc"/>
    <path id="Path_896" data-name="Path 896" d="M309.866,1070.741h0l-1.421-1.047,1.34.987.081.059Z" transform="translate(-13.317 -87.816)" fill="#f3e8dc"/>
    <path id="Path_897" data-name="Path 897" d="M351.252,1043.452l.154-.2-.042-.014a6.552,6.552,0,0,1-1.819,1.471c-.269,1.4-.5,3.631.311,5.191.088.169.159.316.219.448l1.16-.409h0A5.373,5.373,0,0,1,351.252,1043.452Z" transform="translate(-42.681 -68.795)" fill="#dad3cc"/>
    <path id="Path_898" data-name="Path 898" d="M326.889,1053.117l-.808.11c-.175.415-.468,1.083-.915,2.02-.574,1.2.68,3.062,1.486,4.074a5.866,5.866,0,0,0,.914-.127h0A5.632,5.632,0,0,1,326.889,1053.117Z" transform="translate(-25.231 -75.899)" fill="#dad3cc"/>
    <path id="Path_899" data-name="Path 899" d="M342.743,1050.1a8.987,8.987,0,0,1-1.442.406c.087-.017.176-.034.262-.053a5.454,5.454,0,0,0,.548,4.858c.141.233.258.435.358.614h0l1.011-.363A5.61,5.61,0,0,1,342.743,1050.1Z" transform="translate(-36.881 -73.733)" fill="#dad3cc"/>
    <path id="Path_900" data-name="Path 900" d="M334.827,1052.038h0q-.549.093-1.064.169a4.759,4.759,0,0,0,.772,5.334c.162.161.3.306.413.435l-.2.074-.062.022.062-.022,1.26-.46-.049-.049S333.2,1055.152,334.827,1052.038Z" transform="translate(-31.169 -75.123)" fill="#dad3cc"/>
    <path id="Path_901" data-name="Path 901" d="M359.578,1065.863l-.023.007Z" transform="translate(-50.056 -85.061)" fill="#f3e8dc"/>
    <path id="Path_902" data-name="Path 902" d="M359.029,1066.049l-.027.009Z" transform="translate(-49.658 -85.195)" fill="#f3e8dc"/>
    <path id="Path_903" data-name="Path 903" d="M360.5,1065.552l-.011,0Z" transform="translate(-50.728 -84.837)" fill="#f3e8dc"/>
    <path id="Path_904" data-name="Path 904" d="M334.376,1074.484q-.145.037-.283.067Q334.231,1074.521,334.376,1074.484Z" transform="translate(-31.753 -91.258)" fill="#f3e8dc"/>
    <path id="Path_905" data-name="Path 905" d="M360.06,1065.682l-.038.013Z" transform="translate(-50.391 -84.931)" fill="#f3e8dc"/>
    <path id="Path_906" data-name="Path 906" d="M335.4,1074.188q-.155.045-.3.083C335.2,1074.246,335.3,1074.218,335.4,1074.188Z" transform="translate(-32.477 -91.045)" fill="#f3e8dc"/>
    <path id="Path_907" data-name="Path 907" d="M336.545,1073.834c-.1.034-.2.064-.3.093C336.345,1073.9,336.444,1073.868,336.545,1073.834Z" transform="translate(-33.302 -90.791)" fill="#f3e8dc"/>
    <path id="Path_908" data-name="Path 908" d="M372.916,979.605a7.385,7.385,0,0,1-.242,1.486c2.57.348,5.73.809,9.462,1.415a10.934,10.934,0,0,0,1.31.128c.319-.174.616-.331.9-.476-.819-1.323-1.385-2.942-1.253-6.138a5.139,5.139,0,0,0-4.028-5.59c-2.59-.535-4.429,1.136-5.379,3.674a12.829,12.829,0,0,0-.74,4.547C372.948,978.993,372.938,979.309,372.916,979.605Z" transform="translate(-59.486 -16.392)" fill="#a30f17"/>
    <path id="Path_909" data-name="Path 909" d="M370.98,1024.468l0-.015c-2.726-.359-8.858,1-13.672-.367a22.117,22.117,0,0,1-6.891-3.622c-1.425,1.49-1.862,5.428.949,6.4l.042.014.005-.007a3.967,3.967,0,0,0,.639.154l0,.006a4.9,4.9,0,0,0,.719.055s-3.29,6.041,2.193,5.447c0,0-2.326,10.224,6.465,8.9s4.376-8.893,4.376-8.893,4.138-1.548,5.161-4.957l.172-2.345A6.591,6.591,0,0,0,370.98,1024.468Z" transform="translate(-42.679 -52.428)" fill="#a30f17"/>
    <path id="Path_910" data-name="Path 910" d="M430.229,1095.719v7.572h16.2a36.653,36.653,0,0,0,.424-6.865C441.685,1097.167,433.1,1096.115,430.229,1095.719Z" transform="translate(-100.857 -106.522)" fill="#dad3cc"/>
    <path id="Path_911" data-name="Path 911" d="M520.661,1044.4a17.243,17.243,0,0,1,1.686-3.534c.292-.476.579-.987.859-1.516l.148-1.465h0l.408-4.045.142-1.409.014-.138a15.4,15.4,0,0,1-3.252.535c-2.763,2.228-6.365,2.781-9.405,2.742l.169,9.035h0A15.008,15.008,0,0,1,520.661,1044.4Z" transform="translate(-159.103 -60.93)" fill="#d2111c"/>
    <path id="Path_912" data-name="Path 912" d="M530.808,1091.45c.468.061,1.3-.116,1.043-.749a2.321,2.321,0,0,0-1.321-.913c-.364-.12-1.254-.357-1.191.291A1.721,1.721,0,0,0,530.808,1091.45Z" transform="translate(-172.095 -102.156)" fill="#040405"/>
    <path id="Path_913" data-name="Path 913" d="M519.046,1090.215a1.2,1.2,0,0,0,.429.271c.224.059.264-.138.3-.341,0,0,0-.007.006-.011s0,0,0,0c.2-.372,0-.7-.213-1a3.189,3.189,0,0,0-.665-.747c-.073-.054-.2-.164-.3-.154-.119.011-.183.185-.221.295a1.055,1.055,0,0,0-.022.6A2.171,2.171,0,0,0,519.046,1090.215Z" transform="translate(-164.177 -101.134)" fill="#040405"/>
    <path id="Path_914" data-name="Path 914" d="M541.022,1099.972c-.529-.343-.576.519-.47.863a2.2,2.2,0,0,0,.689,1.007.919.919,0,0,0,.47.255c.176,0,.21-.21.236-.361,0,0,0-.008.006-.012a.143.143,0,0,1,.006-.015.59.59,0,0,0,.072-.243q-.133-.329-.252-.663c-.047-.066-.094-.129-.139-.19A2.587,2.587,0,0,0,541.022,1099.972Z" transform="translate(-180.125 -109.522)" fill="#040405"/>
    <path id="Path_915" data-name="Path 915" d="M507.139,1085.633c-.024.057-.048.115-.071.173C507.092,1085.748,507.116,1085.69,507.139,1085.633Z" transform="translate(-156.089 -99.272)" fill="#040405"/>
    <path id="Path_916" data-name="Path 916" d="M523.14,1081.241a1.04,1.04,0,0,0,.572-.313,5.462,5.462,0,0,0,.833-.95c.5-.738-.693-.482-1.028-.3a1.228,1.228,0,0,0-.724.964C522.773,1080.87,522.844,1081.239,523.14,1081.241Z" transform="translate(-167.391 -94.85)" fill="#040405"/>
    <path id="Path_917" data-name="Path 917" d="M521.345,1109.687a1.656,1.656,0,0,0-1.613,1.177c-.121.375-.144,1.056.393,1.072a2.454,2.454,0,0,0,1.5-1.126C521.921,1110.365,522.087,1109.718,521.345,1109.687Z" transform="translate(-165.141 -116.561)" fill="#040405"/>
    <path id="Path_918" data-name="Path 918" d="M513.8,1097.694c-.106-.165-.355-.566-.593-.547s-.376.556-.364.76a1.236,1.236,0,0,0,.21.581,1.956,1.956,0,0,0,.941.783c.108.038.223.086.3-.007.114-.137,0-.456-.043-.6A4.288,4.288,0,0,0,513.8,1097.694Z" transform="translate(-160.241 -107.547)" fill="#040405"/>
    <path id="Path_919" data-name="Path 919" d="M507,1108.038c-.362-.118-1.254-.356-1.191.289a1.718,1.718,0,0,0,1.469,1.369c.466.06,1.3-.115,1.044-.745A2.318,2.318,0,0,0,507,1108.038Z" transform="translate(-155.179 -115.275)" fill="#040405"/>
    <path id="Path_920" data-name="Path 920" d="M537.335,1079.464c-.1-.161-.361-.578-.6-.544s-.367.527-.36.733a1.211,1.211,0,0,0,.21.6,1.942,1.942,0,0,0,.94.78c.1.036.224.084.3-.006.115-.135,0-.454-.042-.595A4.294,4.294,0,0,0,537.335,1079.464Z" transform="translate(-177.156 -94.445)" fill="#040405"/>
    <path id="Path_921" data-name="Path 921" d="M515.245,1087.019l-.169-.294c-.264-.461-.532-.925-.795-1.4-.073.014-.147.029-.22.041a.941.941,0,0,1-.965-.251h0c-.569-.38-.231-.839.254-1.089.06-.031.123-.06.188-.088-.2-.389-.385-.783-.56-1.184a.7.7,0,0,1-.991.274,2.151,2.151,0,0,1-1.09-1.467c-.085-.535.256-1.223.887-1.069a1.144,1.144,0,0,1,.467.264,11.4,11.4,0,0,1-.446-3.7.519.519,0,0,1-.368.166,1.822,1.822,0,0,1-1.7-1.74c.047-.485.488-1.064,1.026-.865.593.219.917,1.077,1.1,1.621,0,.012.007.024.01.035a12.3,12.3,0,0,1,.561-2.457,15.009,15.009,0,0,0-9.231.2h0a25.581,25.581,0,0,0-1.276,2.684,1.572,1.572,0,0,1,1.559.105c.424.368.477.84-.058,1.092a3.637,3.637,0,0,1-1.839.219l-.022,0h-.009c-.055-.007-.112-.016-.168-.029.024-.069.049-.136.074-.2q-.179.485-.354,1.015-.082.248-.162.506-.094.3-.184.618l.02-.07a2.476,2.476,0,0,1,.389-.065c.492-.04.935.178.586.7l-.006.005a.066.066,0,0,1-.008.015,3.676,3.676,0,0,1-1.464,1.369c-.093.451-.176.911-.245,1.38,0,.015,0,.03-.006.044a.964.964,0,0,1,.181,1.036.726.726,0,0,1-.35.528q.024-.341.058-.678a.576.576,0,0,0,.018-.16c.027-.243.058-.486.093-.725q-.018.129-.036.259a19.2,19.2,0,0,0-.159,3.458h.5c-.018-.018-.036-.034-.053-.053-.528-.358-.368-.848.119-1.157a2.289,2.289,0,0,1,1.9-.274c.617.233.9.878.289,1.287a2.016,2.016,0,0,1-.393.2h4.765a.688.688,0,0,1,.056-.116,1.966,1.966,0,0,1,2.5-.633.815.815,0,0,1,.368.749h1.957a2.205,2.205,0,0,1,1.491-.613c.293,0,.7.032.84.339a.547.547,0,0,1,.043.273H515.3l-.018-.031Zm-6.321-9.408a2.813,2.813,0,0,1,2.047,1.145.116.116,0,0,1,.005.014.124.124,0,0,1,.009.015c.306.714-.561,1.086-1.132,1.12a2,2,0,0,1-2.075-1.453C507.614,1077.726,508.349,1077.54,508.924,1077.611ZM506.2,1075.5a2.307,2.307,0,0,1,1.656-.776c.522-.011.844.29.516.777-.406.554-.964,1.334-1.7,1.457C505.775,1077.106,505.8,1076,506.2,1075.5Zm-.685,1.788a1.454,1.454,0,0,1,.855.618c.306.37.735.874.463,1.373h0a.711.711,0,0,1-.992.54,2.076,2.076,0,0,1-1.149-1.418A.848.848,0,0,1,505.511,1077.287Zm-1.837-2.032a.08.08,0,0,1-.007-.017s0,0-.006,0a6.674,6.674,0,0,1-.54-1.064c.052-.1.081-.146.081-.146s.082-.036.239-.093a5.43,5.43,0,0,0,.567,1.188c.042.066.1.18.175.215.1.045.025.039.117-.019s.151-.29.182-.405a2.165,2.165,0,0,0-.031-1.177c-.01-.031-.022-.062-.034-.092.114-.028.235-.057.363-.085a2.1,2.1,0,0,1-.025,1.551C504.535,1075.6,503.987,1075.749,503.674,1075.255Zm-.438,9.783a2.008,2.008,0,0,1-2.076-1.456c-.164-.727.569-.916,1.145-.843a2.814,2.814,0,0,1,2.047,1.146.122.122,0,0,1,.006.015.1.1,0,0,1,.009.015C504.674,1084.629,503.808,1085,503.236,1085.038Zm-.115-4.421c.047-.485.49-1.058,1.027-.864.592.215.917,1.076,1.1,1.618.129.421.122.931-.426.979A1.814,1.814,0,0,1,503.121,1080.617Zm4.618,3.914a2.884,2.884,0,0,1-1.955,1.4h-.017l-.028,0c-.751,0-.808-.793-.59-1.349a2.126,2.126,0,0,1,1.96-1.311c.295,0,.7.036.842.346A1.056,1.056,0,0,1,507.739,1084.531Zm.244-2.39a1.046,1.046,0,0,1-1.11-.243c-.543-.363-.274-.823.2-1.091a2.436,2.436,0,0,1,1.852-.264c.619.208.878.822.266,1.2A3.557,3.557,0,0,1,507.983,1082.141Zm2.859,2.552c-.216.508-.767.674-1.089.166-.313-.539-.83-1.364-.632-2.027.226-.759,1.231-.441,1.577.025A2,2,0,0,1,510.842,1084.693Z" transform="translate(-150.876 -90.349)" fill="#040405"/>
    <path id="Path_922" data-name="Path 922" d="M547.514,1112.667s0,0,0,0,.008,0,.01.006a.758.758,0,0,0,.788.229c-.22-.4-.436-.8-.644-1.2a1.3,1.3,0,0,0-.248.169C547.115,1112.148,547.186,1112.448,547.514,1112.667Z" transform="translate(-184.955 -118.013)" fill="#040405"/>
    <path id="Path_923" data-name="Path 923" d="M506.068,1086.913c.42.04,1.5.137,1.627-.4.06-.256-.188-.549-.371-.691a.964.964,0,0,0-.652-.184,1.608,1.608,0,0,0-.6.169c-.128.314-.258.65-.389,1A1.387,1.387,0,0,0,506.068,1086.913Z" transform="translate(-155.094 -99.277)" fill="#040405"/>
    <path id="Path_924" data-name="Path 924" d="M528.384,1120.1a.9.9,0,0,0-.643-.2,1.7,1.7,0,0,0-1.176.579.518.518,0,0,0-.1.191h2.251A.839.839,0,0,0,528.384,1120.1Z" transform="translate(-170.031 -123.905)" fill="#040405"/>
    <path id="Path_925" data-name="Path 925" d="M503.083,1118.057c-.459-.059-2.2.412-1.286,1.023a.13.13,0,0,1,.039.039c.348.412,1.511.11,1.876-.244C504.107,1118.491,503.416,1118.1,503.083,1118.057Z" transform="translate(-152.112 -122.575)" fill="#040405"/>
    <path id="Path_926" data-name="Path 926" d="M534.524,1106.591c-.269-.107-.418-.007-.453.284a3.262,3.262,0,0,0,.631,1.8.569.569,0,0,0,.164.2c.1.053.044.063.128-.007a.848.848,0,0,0,.182-.4,2.169,2.169,0,0,0-.016-1.129A1.116,1.116,0,0,0,534.524,1106.591Z" transform="translate(-175.494 -114.306)" fill="#040405"/>
    <path id="Path_927" data-name="Path 927" d="M501.513,1099.223a2.49,2.49,0,0,0,.306-.251,5.975,5.975,0,0,0,.785-.912c.124-.187.22-.428-.034-.549a.877.877,0,0,0-.635.018c-.169.6-.326,1.224-.46,1.871Q501.494,1099.311,501.513,1099.223Z" transform="translate(-152.07 -107.772)" fill="#040405"/>
    <path id="Path_928" data-name="Path 928" d="M526.589,1099.631c-.55-.088-2.183.457-1.262,1.1a.06.06,0,0,1,.022.016c.287.372.782.24,1.173.133a1.351,1.351,0,0,0,.764-.386C527.572,1100.07,526.936,1099.687,526.589,1099.631Z" transform="translate(-169.015 -109.327)" fill="#040405"/>
    <path id="Path_929" data-name="Path 929" d="M544.9,1121.141a1.54,1.54,0,0,0-1.126.422h1.656C545.421,1121.336,545.278,1121.161,544.9,1121.141Z" transform="translate(-182.475 -124.794)" fill="#040405"/>
    <path id="Path_930" data-name="Path 930" d="M528.074,1089.641a2,2,0,0,0,2.075,1.453c.57-.035,1.438-.406,1.132-1.12a.13.13,0,0,0-.009-.015.111.111,0,0,0-.005-.014,2.812,2.812,0,0,0-2.047-1.145C528.645,1088.729,527.91,1088.915,528.074,1089.641Zm1.532-.471a2.319,2.319,0,0,1,1.321.913c.258.633-.575.81-1.043.749a1.722,1.722,0,0,1-1.469-1.371C528.352,1088.814,529.242,1089.051,529.606,1089.171Z" transform="translate(-171.172 -101.538)" fill="#5c0c0c"/>
    <path id="Path_931" data-name="Path 931" d="M522.3,1080.8c.738-.123,1.3-.9,1.7-1.457.328-.487.005-.788-.517-.777a2.306,2.306,0,0,0-1.656.776C521.435,1079.837,521.413,1080.947,522.3,1080.8Zm-.388-.819a1.228,1.228,0,0,1,.724-.965c.335-.179,1.525-.435,1.028.3a5.492,5.492,0,0,1-.833.949,1.045,1.045,0,0,1-.572.313C521.967,1080.58,521.9,1080.21,521.916,1079.979Z" transform="translate(-166.514 -94.191)" fill="#5c0c0c"/>
    <path id="Path_932" data-name="Path 932" d="M517.077,1088.786a2.076,2.076,0,0,0,1.15,1.418.711.711,0,0,0,.992-.539h0c.272-.5-.157-1-.463-1.373a1.454,1.454,0,0,0-.855-.618A.848.848,0,0,0,517.077,1088.786Zm.388-.667c.038-.11.1-.283.221-.295.1-.009.231.1.3.154a3.193,3.193,0,0,1,.665.748c.211.3.416.632.213,1,0,0,0,0,0,0s-.005.006-.006.01c-.035.2-.075.4-.3.341a1.2,1.2,0,0,1-.429-.271,2.169,2.169,0,0,1-.693-1.093A1.053,1.053,0,0,1,517.466,1088.12Z" transform="translate(-163.267 -100.735)" fill="#5c0c0c"/>
    <path id="Path_933" data-name="Path 933" d="M537.218,1079.717c-.181-.544-.505-1.4-1.1-1.621-.538-.2-.98.381-1.026.866a1.823,1.823,0,0,0,1.7,1.741.523.523,0,0,0,.368-.167q.019-.387.066-.783Zm-.315.691c-.077.09-.2.042-.3.006a1.944,1.944,0,0,1-.94-.78,1.214,1.214,0,0,1-.21-.6c-.007-.206.119-.7.36-.733s.495.383.6.544a4.288,4.288,0,0,1,.45.969C536.9,1079.953,537.018,1080.273,536.9,1080.407Z" transform="translate(-176.231 -93.825)" fill="#5c0c0c"/>
    <path id="Path_934" data-name="Path 934" d="M520.46,1108.96a2.125,2.125,0,0,0-1.96,1.311c-.218.556-.161,1.349.59,1.349l.028,0h.017a2.884,2.884,0,0,0,1.955-1.4,1.057,1.057,0,0,0,.212-.915C521.164,1109,520.755,1108.956,520.46,1108.96Zm.247,1.328a2.456,2.456,0,0,1-1.5,1.126c-.537-.016-.514-.7-.393-1.072a1.656,1.656,0,0,1,1.614-1.177C521.173,1109.2,521.008,1109.844,520.708,1110.288Z" transform="translate(-164.227 -116.039)" fill="#5c0c0c"/>
    <path id="Path_935" data-name="Path 935" d="M532.8,1106.235c-.2.664.32,1.489.632,2.028.323.508.874.342,1.089-.166a2,2,0,0,0-.145-1.837C534.027,1105.795,533.022,1105.477,532.8,1106.235Zm1.439,1.679a.849.849,0,0,1-.182.4c-.084.069-.026.059-.128.006a.563.563,0,0,1-.164-.2,3.261,3.261,0,0,1-.631-1.8c.034-.291.183-.391.453-.284a1.116,1.116,0,0,1,.637.748A2.169,2.169,0,0,1,534.235,1107.915Z" transform="translate(-174.551 -113.754)" fill="#5c0c0c"/>
    <path id="Path_936" data-name="Path 936" d="M526.2,1099.039a2.436,2.436,0,0,0-1.852.265c-.474.268-.743.728-.2,1.091a1.046,1.046,0,0,0,1.11.244,3.556,3.556,0,0,0,1.208-.4C527.076,1099.862,526.817,1099.247,526.2,1099.039Zm-.544,1.359c-.391.106-.886.238-1.173-.134a.051.051,0,0,0-.021-.016c-.921-.641.712-1.186,1.262-1.1.347.056.983.439.7.86A1.354,1.354,0,0,1,525.655,1100.4Z" transform="translate(-168.15 -108.847)" fill="#5c0c0c"/>
    <path id="Path_937" data-name="Path 937" d="M527.784,1119.371a1.965,1.965,0,0,0-2.5.633.667.667,0,0,0-.057.116h.349a.516.516,0,0,1,.1-.191,1.707,1.707,0,0,1,1.176-.579.907.907,0,0,1,.643.2.84.84,0,0,1,.331.573h.328A.815.815,0,0,0,527.784,1119.371Z" transform="translate(-169.14 -123.35)" fill="#5c0c0c"/>
    <path id="Path_938" data-name="Path 938" d="M541.008,1101.08a.13.13,0,0,0-.006.015s-.005.008-.006.012c-.026.151-.059.359-.236.361a.915.915,0,0,1-.47-.255,2.2,2.2,0,0,1-.689-1.007c-.106-.344-.058-1.205.47-.863a2.579,2.579,0,0,1,.618.64c.045.061.093.124.139.189-.1-.286-.195-.574-.278-.868a1.134,1.134,0,0,0-.466-.264c-.631-.155-.973.534-.887,1.069a2.151,2.151,0,0,0,1.09,1.467.7.7,0,0,0,.99-.274q-.1-.232-.2-.467A.59.59,0,0,1,541.008,1101.08Z" transform="translate(-179.175 -108.894)" fill="#5c0c0c"/>
    <path id="Path_939" data-name="Path 939" d="M544.927,1120.808c-.14-.308-.548-.344-.84-.339a2.208,2.208,0,0,0-1.491.613h.332a1.539,1.539,0,0,1,1.126-.423c.375.02.518.2.53.423h.386A.548.548,0,0,0,544.927,1120.808Z" transform="translate(-181.627 -124.312)" fill="#5c0c0c"/>
    <path id="Path_940" data-name="Path 940" d="M546.636,1112.423s-.007,0-.01-.006,0,0,0,0c-.328-.219-.4-.519-.094-.792a1.3,1.3,0,0,1,.247-.169l-.051-.1c-.064.027-.128.056-.187.088-.485.251-.823.71-.254,1.09h0a.941.941,0,0,0,.965.251c.073-.012.146-.027.22-.041l-.048-.087A.758.758,0,0,1,546.636,1112.423Z" transform="translate(-184.067 -117.759)" fill="#5c0c0c"/>
    <path id="Path_941" data-name="Path 941" d="M507.737,1108.195s0-.009-.006-.014a2.815,2.815,0,0,0-2.047-1.146c-.576-.073-1.309.116-1.145.843a2.008,2.008,0,0,0,2.076,1.456c.572-.034,1.438-.409,1.131-1.123A.109.109,0,0,0,507.737,1108.195Zm-1.388.871a1.718,1.718,0,0,1-1.469-1.369c-.062-.645.83-.408,1.191-.289a2.316,2.316,0,0,1,1.321.913C507.649,1108.952,506.815,1109.126,506.349,1109.066Z" transform="translate(-154.255 -114.645)" fill="#5c0c0c"/>
    <path id="Path_942" data-name="Path 942" d="M502.938,1097.653a.056.056,0,0,0,.008-.014l.006-.005c.349-.518-.094-.736-.586-.7a2.487,2.487,0,0,0-.389.066c-.007.023-.014.047-.02.07l-.022.078h0a.881.881,0,0,1,.635-.018c.255.121.158.362.034.549a5.976,5.976,0,0,1-.785.912,2.456,2.456,0,0,1-.306.25c-.013.059-.025.118-.037.177h0A3.676,3.676,0,0,0,502.938,1097.653Z" transform="translate(-152.069 -107.393)" fill="#5c0c0c"/>
    <path id="Path_943" data-name="Path 943" d="M500.058,1110.157a.581.581,0,0,1-.017.16q-.035.337-.059.678a.726.726,0,0,0,.35-.528.965.965,0,0,0-.181-1.036h0Q500.1,1109.791,500.058,1110.157Z" transform="translate(-150.996 -116.378)" fill="#5c0c0c"/>
    <path id="Path_944" data-name="Path 944" d="M513.685,1097.973c-.181-.541-.506-1.4-1.1-1.617-.537-.195-.98.378-1.027.864a1.813,1.813,0,0,0,1.7,1.733C513.807,1098.9,513.814,1098.394,513.685,1097.973Zm-.315.693c-.077.093-.193.045-.3.007a1.956,1.956,0,0,1-.941-.783,1.238,1.238,0,0,1-.21-.581c-.012-.2.113-.74.365-.759s.486.382.593.547a4.279,4.279,0,0,1,.451.971C513.37,1098.211,513.485,1098.529,513.37,1098.666Z" transform="translate(-159.316 -106.951)" fill="#5c0c0c"/>
    <path id="Path_945" data-name="Path 945" d="M502.65,1117.107a2.288,2.288,0,0,0-1.9.274c-.487.309-.647.8-.119,1.156a.719.719,0,0,0,.052.053h1.862a2.02,2.02,0,0,0,.393-.2C503.554,1117.985,503.267,1117.34,502.65,1117.107Zm-1.7,1.259a.123.123,0,0,0-.039-.039c-.915-.611.827-1.083,1.286-1.023.333.043,1.024.434.629.818C502.462,1118.475,501.3,1118.778,500.95,1118.365Z" transform="translate(-151.227 -121.821)" fill="#5c0c0c"/>
    <path id="Path_946" data-name="Path 946" d="M513.209,1075.965a2.1,2.1,0,0,0,.025-1.551c-.128.028-.25.057-.363.085.012.031.024.061.034.092a2.164,2.164,0,0,1,.031,1.177c-.03.115-.077.339-.182.405s-.021.063-.117.019c-.074-.035-.133-.149-.175-.215a5.426,5.426,0,0,1-.567-1.188c-.157.056-.239.092-.239.092s-.029.051-.081.146a6.722,6.722,0,0,0,.54,1.064l.006,0a.079.079,0,0,0,.007.017C512.441,1076.607,512.989,1076.461,513.209,1075.965Z" transform="translate(-159.329 -91.208)" fill="#5c0c0c"/>
    <path id="Path_947" data-name="Path 947" d="M505.418,1086.62c.056.013.112.022.168.029h.009l.022,0a3.638,3.638,0,0,0,1.839-.219c.535-.252.482-.724.058-1.092a1.571,1.571,0,0,0-1.559-.106h0v0l-.071.173h0a1.607,1.607,0,0,1,.6-.169.965.965,0,0,1,.652.185c.183.141.431.434.371.69-.126.532-1.207.435-1.627.4a1.4,1.4,0,0,1-.384-.1h0v0Q505.455,1086.517,505.418,1086.62Z" transform="translate(-154.903 -98.877)" fill="#5c0c0c"/>
    <path id="Path_948" data-name="Path 948" d="M444.968,1062.909a1.116,1.116,0,0,1-.252-.207,21.75,21.75,0,0,1-1.094,2.927,2.347,2.347,0,0,1-2.572,1.066l-.04,0q-.148-.015-.3-.037l-.028,0a12.675,12.675,0,0,1-2.163-.561h0q-.322-.11-.651-.232h0q-.329-.122-.662-.255h0c-.67-.266-1.35-.557-2.02-.849h0l-.883-.386-.716-.31c-.524-.226-1.031-.437-1.509-.621-.376-.145-.735-.273-1.07-.377l-.042-.013c-.794-.243-1.452-.483-2-.712h0l-.253-.108,0,0a11.548,11.548,0,0,1-1.1-.544h0c-.071-.041-.138-.08-.2-.119l-.03-.018c-.125-.077-.235-.15-.333-.218l-.027-.019c-.046-.032-.089-.065-.129-.1h0l-.047-.037-.06,9.575s.355.055.972.14c2.873.4,11.456,1.447,16.622.707.471-.067.915-.149,1.323-.249l-.688-8.42-.034-.017Z" transform="translate(-98.373 -81.689)" fill="#410d0e"/>
    <path id="Path_949" data-name="Path 949" d="M441.207,1005.157q-.677-.13-1.348-.231a33.519,33.519,0,0,0-7.2-.289,30.846,30.846,0,0,0-4.354.6l-1.146,7.811h0s.613.368,1.615.916h0c.238.131.5.271.778.419h0c.4.211.835.438,1.3.673h0c.363.183.744.371,1.139.561.413.2.84.4,1.279.6q.464.209.941.412c.389.166.783.328,1.179.483h0q.454.179.912.345h0c.381.139.762.269,1.14.391q.243.078.484.15h0q.241.072.48.138.191.053.381.1c.344.088.669.166.977.236q.226.051.439.1l.01,0q.211.044.41.082h0c.608.116,1.134.193,1.589.24h0c.238.025.457.041.657.051h.019c.091,0,.179.007.262.008h.029c.087,0,.17,0,.249,0,1.239-.019,1.552-.331,1.553-.331h0l-.113-1.374h0l-.2-2.454-.967-8.347C442.688,1005.924,441.827,1005.478,441.207,1005.157Z" transform="translate(-98.646 -40.996)" fill="#410d0e"/>
    <path id="Path_950" data-name="Path 950" d="M502.507,1017.722a13.74,13.74,0,0,1-7.292-1.607c-3.079-1.64-6.639-3.5-9.217-4.837l.967,8.347a25.4,25.4,0,0,0,6.136.839C496.142,1020.5,499.744,1019.95,502.507,1017.722Z" transform="translate(-140.944 -45.825)" fill="#410d0e"/>
    <path id="Path_951" data-name="Path 951" d="M359.482,1007.583c-3.732-.605-6.893-1.067-9.462-1.415-1.364-.185-2.564-.338-3.589-.462-2.972-.361-4.505-.488-4.505-.488h0l-.768,1.888h0c.482.044,1.677,1.126,3.4,2.4a22.12,22.12,0,0,0,6.891,3.621c4.814,1.372,10.946.009,13.672.367l.125.019.086.013,1.146-7.811.011-.078a14.138,14.138,0,0,0-4.806,1.6c-.283.145-.581.3-.9.476A10.951,10.951,0,0,1,359.482,1007.583Z" transform="translate(-36.832 -41.469)" fill="#410d0e"/>
    <path id="Path_952" data-name="Path 952" d="M493.341,1067.436l-.031.013Z" transform="translate(-146.2 -86.192)" fill="#f3e8dc"/>
    <path id="Path_953" data-name="Path 953" d="M492.843,1067.607l-.033.006Z" transform="translate(-145.841 -86.315)" fill="#f3e8dc"/>
    <path id="Path_954" data-name="Path 954" d="M493.094,1067.538l-.032.01Z" transform="translate(-146.022 -86.265)" fill="#f3e8dc"/>
    <path id="Path_955" data-name="Path 955" d="M492.586,1067.643l-.033,0Z" transform="translate(-145.656 -86.34)" fill="#f3e8dc"/>
    <path id="Path_956" data-name="Path 956" d="M491.78,1067.493l-.029-.01Z" transform="translate(-145.079 -86.226)" fill="#f3e8dc"/>
    <path id="Path_957" data-name="Path 957" d="M492.056,1067.585l-.033-.007Z" transform="translate(-145.275 -86.294)" fill="#f3e8dc"/>
    <path id="Path_958" data-name="Path 958" d="M492.323,1067.636l-.033,0Z" transform="translate(-145.467 -86.333)" fill="#f3e8dc"/>
    <path id="Path_959" data-name="Path 959" d="M495.992,1056.982c-.005-.015-.009-.031-.015-.045-.055-.146-.117-.282-.181-.414.064.132.126.268.181.414C495.983,1056.952,495.987,1056.968,495.992,1056.982Z" transform="translate(-147.987 -78.347)" fill="#f3e8dc"/>
    <path id="Path_960" data-name="Path 960" d="M496.14,1063.484l-.014.04Z" transform="translate(-148.224 -83.351)" fill="#f3e8dc"/>
    <path id="Path_961" data-name="Path 961" d="M493.583,1067.305l-.029.017Z" transform="translate(-146.375 -86.098)" fill="#f3e8dc"/>
    <path id="Path_962" data-name="Path 962" d="M496.008,1063.85l-.013.033Z" transform="translate(-148.13 -83.614)" fill="#f3e8dc"/>
    <path id="Path_963" data-name="Path 963" d="M496.824,1060.319h0a1.6,1.6,0,0,0,.012-.219,1.6,1.6,0,0,1-.012.219Z" transform="translate(-148.726 -80.918)" fill="#f3e8dc"/>
    <path id="Path_964" data-name="Path 964" d="M495.824,1064.3l-.013.029Z" transform="translate(-147.998 -83.939)" fill="#f3e8dc"/>
    <path id="Path_965" data-name="Path 965" d="M496.261,1063.132l-.014.043Z" transform="translate(-148.311 -83.098)" fill="#f3e8dc"/>
    <path id="Path_966" data-name="Path 966" d="M495.661,1064.634l-.018.037Z" transform="translate(-147.877 -84.178)" fill="#f3e8dc"/>
    <path id="Path_967" data-name="Path 967" d="M496.642,1061.789c0,.013-.006.027-.009.04C496.636,1061.816,496.639,1061.8,496.642,1061.789Z" transform="translate(-148.589 -82.133)" fill="#f3e8dc"/>
    <path id="Path_968" data-name="Path 968" d="M496.372,1062.788l-.013.043Z" transform="translate(-148.392 -82.851)" fill="#f3e8dc"/>
    <path id="Path_969" data-name="Path 969" d="M496.77,1061.169l-.005.029Z" transform="translate(-148.683 -81.687)" fill="#f3e8dc"/>
    <path id="Path_970" data-name="Path 970" d="M496.711,1061.474c0,.012,0,.023-.007.036C496.707,1061.5,496.709,1061.486,496.711,1061.474Z" transform="translate(-148.64 -81.906)" fill="#f3e8dc"/>
    <path id="Path_971" data-name="Path 971" d="M496.473,1062.45l-.012.042Z" transform="translate(-148.465 -82.608)" fill="#f3e8dc"/>
    <path id="Path_972" data-name="Path 972" d="M496.563,1062.116l-.01.04Z" transform="translate(-148.531 -82.368)" fill="#f3e8dc"/>
    <path id="Path_973" data-name="Path 973" d="M494.958,1065.872l-.025.037Z" transform="translate(-147.367 -85.067)" fill="#f3e8dc"/>
    <path id="Path_974" data-name="Path 974" d="M495.324,1065.276l-.022.039Z" transform="translate(-147.632 -84.639)" fill="#f3e8dc"/>
    <path id="Path_975" data-name="Path 975" d="M494.763,1066.15l-.026.034Z" transform="translate(-147.226 -85.267)" fill="#f3e8dc"/>
    <path id="Path_976" data-name="Path 976" d="M495.144,1065.579l-.024.039Z" transform="translate(-147.501 -84.857)" fill="#f3e8dc"/>
    <path id="Path_977" data-name="Path 977" d="M494.349,1066.66l-.025.026Z" transform="translate(-146.929 -85.634)" fill="#f3e8dc"/>
    <path id="Path_978" data-name="Path 978" d="M495.5,1064.959l-.02.04Z" transform="translate(-147.756 -84.411)" fill="#f3e8dc"/>
    <path id="Path_979" data-name="Path 979" d="M494.56,1066.413l-.026.031Z" transform="translate(-147.08 -85.456)" fill="#f3e8dc"/>
    <path id="Path_980" data-name="Path 980" d="M494.125,1066.9l-.019.018Z" transform="translate(-146.772 -85.807)" fill="#f3e8dc"/>
    <path id="Path_981" data-name="Path 981" d="M493.825,1067.146l-.025.017Z" transform="translate(-146.552 -85.983)" fill="#f3e8dc"/>
    <path id="Path_982" data-name="Path 982" d="M425.623,1037.857l-.284,3.874a2.013,2.013,0,0,0,.464.456l.047.036a21.18,21.18,0,0,0,1.615-6.547c-1-.548-1.615-.916-1.615-.916h0l-.055.752Z" transform="translate(-97.342 -62.704)" fill="#dad3cc"/>
    <path id="Path_983" data-name="Path 983" d="M445.619,1053.6h0c.478.184.985.4,1.509.621h0c.1-.193.233-.429.419-.723a10.74,10.74,0,0,0,1.112-5.527c-.4-.156-.79-.318-1.179-.483h0C447.454,1049.275,447.139,1052.006,445.619,1053.6Z" transform="translate(-111.919 -71.849)" fill="#dad3cc"/>
    <path id="Path_984" data-name="Path 984" d="M484.038,1055.752h0Z" transform="translate(-139.535 -77.793)" fill="#f3e8dc"/>
    <path id="Path_985" data-name="Path 985" d="M465.45,1052.352h0Z" transform="translate(-126.174 -75.349)" fill="#f3e8dc"/>
    <path id="Path_986" data-name="Path 986" d="M479.287,1059.746a12.217,12.217,0,0,1-1.45,2.229c-.1,0-.194-.011-.294-.02a2.347,2.347,0,0,0,2.572-1.066,21.77,21.77,0,0,0,1.094-2.927,4.92,4.92,0,0,0-.009-3.384s-.314.312-1.553.331h0A7.054,7.054,0,0,1,479.287,1059.746Z" transform="translate(-134.866 -76.949)" fill="#dad3cc"/>
    <path id="Path_987" data-name="Path 987" d="M435.113,1050.141q-.3-.113-.565-.224c.549.228,1.207.468,2,.711l.042.013h0a12.933,12.933,0,0,0,1.991-6.148h0c-.439-.2-.866-.4-1.279-.6h0A12.528,12.528,0,0,1,435.113,1050.141Z" transform="translate(-103.961 -69.272)" fill="#dad3cc"/>
    <path id="Path_988" data-name="Path 988" d="M464.52,1077.179q-.329-.122-.662-.255Q464.191,1077.056,464.52,1077.179Z" transform="translate(-125.03 -93.012)" fill="#f3e8dc"/>
    <path id="Path_989" data-name="Path 989" d="M466.874,1078.066c-.215-.073-.432-.151-.651-.232Q466.552,1077.956,466.874,1078.066Z" transform="translate(-126.73 -93.666)" fill="#f3e8dc"/>
    <path id="Path_990" data-name="Path 990" d="M473.557,1054.388l.01,0Z" transform="translate(-132.001 -76.813)" fill="#f3e8dc"/>
    <path id="Path_991" data-name="Path 991" d="M483.039,1055.719h0Z" transform="translate(-138.817 -77.769)" fill="#f3e8dc"/>
    <path id="Path_992" data-name="Path 992" d="M457.722,1058.679s-.2.168-.448.348l-.6-.26c.67.292,1.35.583,2.02.849a7.791,7.791,0,0,1,.763-.7c2.152-1.777,1.828-4.472,1.522-5.732h0c-.308-.069-.633-.147-.977-.236q-.19-.049-.381-.1h0A5.3,5.3,0,0,1,457.722,1058.679Z" transform="translate(-119.866 -75.704)" fill="#dad3cc"/>
    <path id="Path_993" data-name="Path 993" d="M468.882,1061.32s-.139.048-.343.108a12.7,12.7,0,0,0,2.163.56q-.327-.049-.675-.129c.979-1.289,2.578-3.721,2.221-5.464-.113-.556-.208-1.042-.289-1.468-.455-.047-.982-.124-1.589-.24A6.484,6.484,0,0,1,468.882,1061.32Z" transform="translate(-128.394 -77.028)" fill="#dad3cc"/>
    <path id="Path_994" data-name="Path 994" d="M453.674,1056.538s-.057.045-.143.108h0l.883.386c.16-.259.4-.6.733-1.047a6.358,6.358,0,0,0,1.251-5.164h0c-.378-.121-.759-.251-1.14-.39C455.87,1054.495,453.674,1056.538,453.674,1056.538Z" transform="translate(-117.606 -73.968)" fill="#dad3cc"/>
    <path id="Path_995" data-name="Path 995" d="M490.582,1066.613a1.105,1.105,0,0,0,.252.207C490.678,1066.693,490.582,1066.613,490.582,1066.613Z" transform="translate(-144.239 -85.6)" fill="#f3e8dc"/>
    <path id="Path_996" data-name="Path 996" d="M430.818,1046.652q-.123-.053-.238-.106a17.832,17.832,0,0,0,2.112-6.362c-.467-.235-.9-.462-1.3-.674a19.274,19.274,0,0,1-1.671,6.6A11.705,11.705,0,0,0,430.818,1046.652Z" transform="translate(-100.491 -66.118)" fill="#dad3cc"/>
    <path id="Path_997" data-name="Path 997" d="M428.048,1061.929c-.125-.077-.235-.15-.333-.218C427.812,1061.78,427.922,1061.853,428.048,1061.929Z" transform="translate(-99.05 -82.077)" fill="#f3e8dc"/>
    <path id="Path_998" data-name="Path 998" d="M429.2,1062.671c-.071-.041-.137-.08-.2-.119C429.067,1062.591,429.133,1062.63,429.2,1062.671Z" transform="translate(-99.976 -82.681)" fill="#f3e8dc"/>
    <path id="Path_999" data-name="Path 999" d="M433.892,1065.025l-.253-.108Z" transform="translate(-103.308 -84.381)" fill="#f3e8dc"/>
    <path id="Path_1000" data-name="Path 1000" d="M427.287,1061.4c-.046-.033-.089-.065-.129-.1C427.2,1061.336,427.242,1061.367,427.287,1061.4Z" transform="translate(-98.649 -81.785)" fill="#f3e8dc"/>
    <path id="Path_1001" data-name="Path 1001" d="M476.631,1080.706q-.148-.015-.3-.037Q476.483,1080.691,476.631,1080.706Z" transform="translate(-133.995 -95.704)" fill="#f3e8dc"/>
    <path id="Path_1002" data-name="Path 1002" d="M451.4,1054.729c-.186.294-.321.53-.419.723h0l.716.31h0c.086-.063.143-.108.143-.108s2.2-2.043,1.584-6.108h0q-.457-.166-.912-.345h0A10.739,10.739,0,0,1,451.4,1054.729Z" transform="translate(-115.776 -73.085)" fill="#bf1119"/>
    <path id="Path_1003" data-name="Path 1003" d="M457.405,1056.982c-.337.448-.573.788-.733,1.047h0l.6.26c.246-.181.448-.348.448-.348a5.3,5.3,0,0,0,1.9-5.833h0q-.239-.066-.48-.138h0q-.241-.072-.484-.15h0A6.358,6.358,0,0,1,457.405,1056.982Z" transform="translate(-119.864 -74.965)" fill="#5c0c0c"/>
    <path id="Path_1004" data-name="Path 1004" d="M464.621,1059.779a7.853,7.853,0,0,0-.763.7h0q.333.132.662.255h0q.329.122.651.232h0c.2-.061.343-.108.343-.108a6.483,6.483,0,0,0,1.488-6.633h0q-.2-.038-.41-.082l-.01,0q-.213-.045-.439-.1h0C466.45,1055.307,466.774,1058,464.621,1059.779Z" transform="translate(-125.03 -76.568)" fill="#bf1119"/>
    <path id="Path_1005" data-name="Path 1005" d="M473.829,1062.473q.347.079.675.129l.028,0q.153.022.3.037l.04,0c.1.009.2.017.294.02a12.212,12.212,0,0,0,1.45-2.229,7.055,7.055,0,0,0,.362-4.837h0c-.079,0-.163,0-.249,0H476.7c-.083,0-.171,0-.262-.009h-.019c-.2-.009-.419-.026-.657-.05h0c.08.426.175.913.289,1.469C476.407,1058.752,474.808,1061.184,473.829,1062.473Z" transform="translate(-132.197 -77.641)" fill="#5c0c0c"/>
    <path id="Path_1006" data-name="Path 1006" d="M441.812,1052.164h0c.335.1.694.232,1.07.377h0c1.521-1.59,1.835-4.321,1.861-6.113h0q-.477-.2-.941-.413h0A12.932,12.932,0,0,1,441.812,1052.164Z" transform="translate(-109.183 -70.795)" fill="#5c0c0c"/>
    <path id="Path_1007" data-name="Path 1007" d="M433.017,1048.374l0,0c.082.036.166.072.253.108h0q.265.11.565.224a12.527,12.527,0,0,0,2.19-6.242h0c-.4-.189-.776-.377-1.139-.56h0a17.824,17.824,0,0,1-2.112,6.362C432.855,1048.3,432.935,1048.338,433.017,1048.374Z" transform="translate(-102.69 -67.84)" fill="#bf1119"/>
    <path id="Path_1008" data-name="Path 1008" d="M427.154,1044.566h0c.04.03.083.063.129.095l.027.019c.1.069.207.142.333.219l.029.018c.064.039.13.078.2.119h0a19.278,19.278,0,0,0,1.671-6.6h0c-.279-.148-.54-.289-.778-.419h0a21.184,21.184,0,0,1-1.615,6.547Z" transform="translate(-98.646 -65.046)" fill="#5c0c0c"/>
    <path id="Path_1009" data-name="Path 1009" d="M490.263,1051.066h0a4.92,4.92,0,0,1,.009,3.384l.252.207h0c.012.007.022.011.034.017s.029.016.043.021l.029.01.048.016.033.007.042.008.034,0,.04,0,.033,0,.039,0,.033-.006.038-.01.032-.01a.327.327,0,0,0,.038-.015l.031-.013.038-.02.029-.017.04-.027.024-.017c.021-.016.041-.033.062-.051l.019-.018c.014-.013.029-.026.042-.041l.025-.027.034-.038.026-.031.031-.04c.009-.01.017-.023.026-.034l.029-.041.025-.037.028-.043.024-.039.027-.046.022-.039.026-.05.021-.039.027-.054.018-.037.029-.065c0-.009.009-.018.013-.028l.039-.094.013-.034.024-.063.014-.04.02-.056.014-.043.017-.054.013-.043.016-.053.011-.042c.005-.018.01-.036.014-.054l.01-.04.012-.052c0-.013.006-.026.009-.04s.008-.035.011-.053.005-.024.007-.036.007-.038.01-.057,0-.02.005-.029c0-.028.008-.055.011-.081h0a1.554,1.554,0,0,0,.011-.219,1.735,1.735,0,0,0-.105-.547c-.005-.015-.009-.031-.015-.045-.055-.146-.117-.283-.181-.414a5.278,5.278,0,0,0-.927-1.342,4.157,4.157,0,0,0-.66-.579h0Z" transform="translate(-143.929 -73.438)" fill="#f3e8dc"/>
    <path id="Path_1010" data-name="Path 1010" d="M636.022,1004.2l-.031.414c.409.047.818.1,1.224.148A4.335,4.335,0,0,1,636.022,1004.2Z" transform="translate(-248.76 -40.734)" fill="#f3e8dc"/>
    <path id="Path_1011" data-name="Path 1011" d="M646.342,1003.855c1.11.163,2.161.342,3.091.54l-.084-1.774a4.255,4.255,0,0,1-3,1.234Z" transform="translate(-256.201 -39.602)" fill="#f3e8dc"/>
    <path id="Path_1012" data-name="Path 1012" d="M634.133,974.977h0a4.254,4.254,0,0,0,3-1.234,9.125,9.125,0,0,0,2.213-4.715c.033-.329.051-.639.058-.936.025-.236.038-.461.047-.68a4.873,4.873,0,0,1-2.285.44c-3.219-.2-5.276-3.854-5.276-3.854s-.583-1.143,2.581-1.493c-.005-.02-.011-.039-.015-.059a7.6,7.6,0,0,0-1.561.351,5.007,5.007,0,0,0-3.085,4.106c-1.024,3.736-.245,6.137,1.437,7.283a4.341,4.341,0,0,0,1.192.562C633.017,974.82,633.582,974.9,634.133,974.977Z" transform="translate(-243.991 -10.724)" fill="#040405"/>
    <path id="Path_1013" data-name="Path 1013" d="M604.494,1117.055l-.1.2Z" transform="translate(-226.051 -121.858)" fill="#f3e8dc"/>
    <path id="Path_1014" data-name="Path 1014" d="M604,1118.084l-.092.183Z" transform="translate(-225.698 -122.598)" fill="#f3e8dc"/>
    <path id="Path_1015" data-name="Path 1015" d="M603.533,1119.042c-.029.057-.057.113-.085.166C603.475,1119.155,603.5,1119.1,603.533,1119.042Z" transform="translate(-225.368 -123.286)" fill="#f3e8dc"/>
    <path id="Path_1016" data-name="Path 1016" d="M605.012,1115.946q-.05.108-.1.21C604.945,1116.088,604.979,1116.018,605.012,1115.946Z" transform="translate(-226.421 -121.061)" fill="#f3e8dc"/>
    <path id="Path_1017" data-name="Path 1017" d="M605.551,1114.76l-.1.227Z" transform="translate(-226.804 -120.209)" fill="#f3e8dc"/>
    <path id="Path_1018" data-name="Path 1018" d="M602.7,1120.711l-.071.132Z" transform="translate(-224.777 -124.486)" fill="#f3e8dc"/>
    <path id="Path_1019" data-name="Path 1019" d="M603.1,1119.92l-.079.149Z" transform="translate(-225.058 -123.918)" fill="#f3e8dc"/>
    <path id="Path_1020" data-name="Path 1020" d="M601.809,1122.577l.016-.028-.016.028Z" transform="translate(-224.19 -125.807)" fill="#f3e8dc"/>
    <path id="Path_1021" data-name="Path 1021" d="M602.334,1121.422l-.062.113Z" transform="translate(-224.523 -124.997)" fill="#f3e8dc"/>
    <path id="Path_1022" data-name="Path 1022" d="M606.1,1113.512l-.108.242Z" transform="translate(-227.2 -119.311)" fill="#f3e8dc"/>
    <path id="Path_1023" data-name="Path 1023" d="M602.016,1122.036l-.054.1Z" transform="translate(-224.3 -125.439)" fill="#f3e8dc"/>
    <path id="Path_1024" data-name="Path 1024" d="M610.64,1101.377c-.036.117-.073.234-.11.349C610.567,1101.611,610.6,1101.495,610.64,1101.377Z" transform="translate(-230.459 -110.589)" fill="#f3e8dc"/>
    <path id="Path_1025" data-name="Path 1025" d="M611.16,1099.634c-.035.124-.071.245-.108.367C611.089,1099.879,611.125,1099.758,611.16,1099.634Z" transform="translate(-230.834 -109.336)" fill="#f3e8dc"/>
    <path id="Path_1026" data-name="Path 1026" d="M611.655,1097.851c-.035.131-.071.26-.107.389C611.584,1098.111,611.62,1097.982,611.655,1097.851Z" transform="translate(-231.19 -108.054)" fill="#f3e8dc"/>
    <path id="Path_1027" data-name="Path 1027" d="M610.1,1103.074c-.037.113-.074.224-.111.334C610.026,1103.3,610.064,1103.187,610.1,1103.074Z" transform="translate(-230.07 -111.809)" fill="#f3e8dc"/>
    <path id="Path_1028" data-name="Path 1028" d="M608.978,1106.332c-.037.1-.075.2-.113.305C608.9,1106.537,608.94,1106.435,608.978,1106.332Z" transform="translate(-229.262 -114.151)" fill="#f3e8dc"/>
    <path id="Path_1029" data-name="Path 1029" d="M607.823,1109.379c-.037.095-.075.188-.113.281C607.748,1109.567,607.785,1109.474,607.823,1109.379Z" transform="translate(-228.432 -116.341)" fill="#f3e8dc"/>
    <path id="Path_1030" data-name="Path 1030" d="M607.245,1110.818c-.038.09-.075.18-.112.267Q607.189,1110.954,607.245,1110.818Z" transform="translate(-228.017 -117.375)" fill="#f3e8dc"/>
    <path id="Path_1031" data-name="Path 1031" d="M606.67,1112.2c-.037.086-.073.171-.11.254C606.6,1112.369,606.633,1112.284,606.67,1112.2Z" transform="translate(-227.605 -118.367)" fill="#f3e8dc"/>
    <path id="Path_1032" data-name="Path 1032" d="M608.4,1107.883l-.113.293Z" transform="translate(-228.848 -115.265)" fill="#f3e8dc"/>
    <path id="Path_1033" data-name="Path 1033" d="M609.544,1104.727c-.037.108-.075.214-.112.319C609.47,1104.941,609.507,1104.835,609.544,1104.727Z" transform="translate(-229.67 -112.997)" fill="#f3e8dc"/>
    <path id="Path_1034" data-name="Path 1034" d="M613.2,1085.121c.018-.157.035-.316.05-.475a21.91,21.91,0,0,1-.423,2.673c.063-.286.121-.577.174-.87C613.079,1086.013,613.147,1085.569,613.2,1085.121Z" transform="translate(-232.109 -98.562)" fill="#f3e8dc"/>
    <path id="Path_1035" data-name="Path 1035" d="M612.014,1096.451c.03-.118.061-.235.091-.354l.015-.063Q612.068,1096.245,612.014,1096.451Z" transform="translate(-231.526 -106.749)" fill="#f3e8dc"/>
    <path id="Path_1036" data-name="Path 1036" d="M562.7,1061.6c.014-.323.021-.653.022-.986,0-.483-.012-.974-.036-1.47-.02-.411-.048-.826-.083-1.24-.038-.458-.084-.917-.137-1.373-.015-.133-.031-.266-.048-.4h0l-.183-1.331v0s-6.207,5.412-10.244,4.233c-2.176-.636-4.35-3.044-5.894-5.131-.164.331-.33.659-.5.98-.28.53-.568,1.041-.859,1.517a17.26,17.26,0,0,0-1.686,3.534,12.325,12.325,0,0,0-.561,2.457q-.048.4-.066.783a11.4,11.4,0,0,0,.445,3.7c.083.293.177.583.278.868q.119.335.252.663c.063.157.129.312.2.467.175.4.363.795.56,1.184l.051.1c.207.405.423.805.644,1.2l.048.087c.263.47.531.934.8,1.4-2.03-3.54-4.266-7.275-2.819-12.336,3.008-.147,12.077-.4,18.434,1.466a5.474,5.474,0,0,1,1.325.576c.019-.2.035-.408.048-.613Q562.7,1061.769,562.7,1061.6Z" transform="translate(-181.498 -76.465)" fill="#a30f17"/>
    <path id="Path_1037" data-name="Path 1037" d="M612.446,1094.633l0-.006c.035-.148.07-.3.1-.447Q612.5,1094.408,612.446,1094.633Z" transform="translate(-231.836 -105.415)" fill="#f3e8dc"/>
    <path id="Path_1038" data-name="Path 1038" d="M554.687,1122.294l.039.068Z" transform="translate(-190.318 -125.624)" fill="#f3e8dc"/>
    <path id="Path_1039" data-name="Path 1039" d="M486.141,1007.3a13.738,13.738,0,0,0,7.292,1.607,15.412,15.412,0,0,0,3.252-.534h0v0c.249-.068.489-.14.709-.212h0a12.219,12.219,0,0,0,2.055-.858s-.254.733-.682,1.843a22.782,22.782,0,0,1,5.023,6.831,28.172,28.172,0,0,0,8.342-3.375l-.031-.156c-.177-.89-.354-1.7-.513-2.372s-.3-1.236-.4-1.613c-.095-.36-.151-.56-.151-.56s1.626-.49,4.026-.935a39.883,39.883,0,0,1,7.115-.71c3.207,0,5.6-.405,6.627-1.121.789-.553.761-1.29-.346-2.169a9.422,9.422,0,0,0-3.358-1.161c-.93-.2-1.981-.377-3.091-.54-.55-.081-1.115-.157-1.687-.23-.406-.051-.815-.1-1.224-.148-1.6-.185-3.2-.337-4.638-.46-1.807,3.023-7.31,8.688-11.764,1.491a5.7,5.7,0,0,0-2.083-1.936,38.362,38.362,0,0,1-4.1,1.036,19.781,19.781,0,0,1-8.823.039c-.863-.253-1.641-.5-2.359-.727-3.944-1.254-6.03-1.975-10.038-.468-.888.334-1.921.763-1.921.763l1.057.546c.62.321,1.481.766,2.493,1.292C479.5,1003.8,483.062,1005.661,486.141,1007.3Z" transform="translate(-131.87 -37.01)" fill="#a30f17"/>
    <path id="Path_1040" data-name="Path 1040" d="M562.1,1082.368l.016-.068q.054-.225.105-.453l0-.008a21.919,21.919,0,0,0,.423-2.673h0a5.471,5.471,0,0,0-1.325-.577c-6.357-1.863-15.426-1.612-18.434-1.465-1.447,5.06.789,8.795,2.819,12.336l.168.294.039.069.018.031h13.193l.016-.028.027-.047.054-.1.033-.06.062-.113.037-.068.071-.132.039-.073.079-.149.042-.081.085-.166.044-.086.092-.183.046-.093.1-.2.049-.1.1-.211.05-.106.105-.227.05-.109.108-.242.051-.115c.037-.083.073-.168.11-.254l.051-.12.112-.268.051-.124c.038-.092.075-.186.113-.28l.05-.127c.038-.1.075-.194.113-.294l.049-.13c.038-.1.075-.2.112-.306l.047-.132c.038-.106.076-.212.113-.32l.044-.13c.038-.111.075-.221.111-.334.014-.042.027-.085.041-.128.037-.115.074-.232.11-.349l.037-.123c.037-.121.073-.243.108-.367.011-.037.021-.075.031-.113.036-.129.072-.258.107-.389.008-.031.016-.062.024-.094Q562.044,1082.578,562.1,1082.368Z" transform="translate(-181.502 -93.082)" fill="#5c0c0c"/>
    <path id="Path_1041" data-name="Path 1041" d="M303.42,978.961a21.8,21.8,0,0,0,.393-3.731q.012-.7-.024-1.393c-.04-.734-.049-1.369-.032-1.916.1-3.2,1.063-3.385,1.853-2.981a2.716,2.716,0,0,1,.456.3.276.276,0,0,0,.445-.276,6.077,6.077,0,0,0-.256-.805c-.647-1.638-2.356-3.838-6.857-3.375-7.018.723-3.7,6.236-4.844,9.418,0,0-9.523,8.258-1.272,11,0,0-3.274,2.751,1.449,4.164a4.286,4.286,0,0,0,4.082-1.164C300.925,986.383,302.669,982.865,303.42,978.961Z" transform="translate(0 -12.362)" fill="#040405"/>
    <path id="Path_1042" data-name="Path 1042" d="M560.512,1042.951c4.037,1.179,10.243-4.232,10.244-4.233h0v0l.183,1.331h0a1.106,1.106,0,0,0,1.3-1.093c.006-.05.011-.1.014-.157a3.157,3.157,0,0,0-.374-1.5,7.211,7.211,0,0,0-.96-1.435c-.1-.115-.161-.181-.161-.181s-.09.056-.25.154l-.227.135a28.163,28.163,0,0,1-8.342,3.375,22.785,22.785,0,0,0-5.023-6.831,10.268,10.268,0,0,0-1.372-.984h0c-.22.072-.46.143-.709.212v0l-.014.139-.142,1.409-.408,4.045h0c.113.158.231.321.352.484C556.162,1039.907,558.336,1042.316,560.512,1042.951Z" transform="translate(-190.016 -60.381)" fill="#f3e8dc"/>
    <path id="Path_1043" data-name="Path 1043" d="M346.687,1048.466h0c-.074.041-.15.081-.227.121l-.021.01a7.819,7.819,0,0,1-.754.33h0a5.608,5.608,0,0,0,.733,5.462h0l.8-.285h0c-.06-.131-.131-.278-.219-.448C346.187,1052.1,346.418,1049.865,346.687,1048.466Z" transform="translate(-39.823 -72.556)" fill="#bf1119"/>
    <path id="Path_1044" data-name="Path 1044" d="M339.04,1056.216a5.453,5.453,0,0,1-.548-4.858c-.085.019-.174.036-.262.053-.057.012-.112.025-.171.035-.2.036-.4.07-.592.1h0c-1.626,3.114,1.13,5.5,1.13,5.5l.049.048h0l.747-.27h0C339.3,1056.651,339.182,1056.45,339.04,1056.216Z" transform="translate(-33.811 -74.635)" fill="#5c0c0c"/>
    <path id="Path_1045" data-name="Path 1045" d="M332.16,1058.407c-.115-.129-.251-.274-.413-.435a4.759,4.759,0,0,1-.772-5.334h0q-.482.072-.936.135h0a5.632,5.632,0,0,0,.675,6.076h.007c.092-.02.186-.042.283-.067h0q.148-.037.3-.083l.021-.007c.1-.029.2-.06.3-.093s.18-.062.273-.1l.061-.022Z" transform="translate(-28.381 -75.555)" fill="#bf1119"/>
    <path id="Path_1046" data-name="Path 1046" d="M322.149,1055.526c.448-.936.741-1.6.915-2.019h0l-.094.012c-.379.051-.743.1-1.085.147h0c-.647.921-1.551,2.641-.738,4.246a8.3,8.3,0,0,0,.939,1.468c.051.02.1.039.156.056l.005,0c.053.017.106.033.162.048l.006,0c.056.015.113.028.172.041h0a3.966,3.966,0,0,0,1.045.07h0C322.829,1058.588,321.575,1056.725,322.149,1055.526Z" transform="translate(-22.215 -76.179)" fill="#5c0c0c"/>
    <path id="Path_1047" data-name="Path 1047" d="M353.561,1043.259l-.005.007-.154.2a5.374,5.374,0,0,0-.021,6.484h0l.79-.276.027-.01.128-.045.023-.007.109-.038.038-.013.094-.033.011,0,.1-.035h0c-2.291-2.335-.784-5.58-.507-6.075l0-.006A3.968,3.968,0,0,1,353.561,1043.259Z" transform="translate(-44.831 -68.813)" fill="#5c0c0c"/>
    <path id="Path_1048" data-name="Path 1048" d="M567.621,970.414c4.454,7.2,9.957,1.532,11.764-1.492a7.219,7.219,0,0,0,.444-.853,4.13,4.13,0,0,0-.618-4.643c1.5.018,3.313-1.9,1.913-3.641s-4.556-.428-4.556-.428,3.57-4.669-1.073-4.126-.574,4.256-3.918,2.5-3.839,2.123-3.839,2.123c-4.841-.857-3.88,2.573-2.929,4.613-.978.975-1.662,2.2-.52,3.215a3.987,3.987,0,0,0,.889.61q.183.09.361.19A5.7,5.7,0,0,1,567.621,970.414Z" transform="translate(-196.792 -5.506)" fill="#410d0e"/>
    <path id="Path_1049" data-name="Path 1049" d="M309.865,1059.953h0l.006-.011h0c.064-.127.594-1.136,1.316-.979v0h0a8.582,8.582,0,0,1,.676-4.272l-.016,0h0l-.009,0-.292.053h-.006l-.29.058-.06.014-.221.05-.079.02-.186.049-.086.025c-.056.016-.111.032-.164.05l-.088.03-.145.051-.087.034c-.044.017-.088.035-.131.053l-.083.038c-.04.019-.08.038-.118.057l-.079.042q-.054.03-.106.062l-.073.047c-.033.022-.064.044-.095.067l-.067.051c-.029.023-.057.048-.084.072s-.041.037-.06.056-.05.052-.074.079-.036.04-.053.06-.044.057-.064.086-.031.042-.045.065-.037.063-.055.1-.026.045-.037.068-.031.071-.046.107-.02.046-.028.07c-.015.041-.026.084-.038.128-.006.021-.013.041-.018.063-.016.066-.029.134-.038.205l-.3,2.21Z" transform="translate(-13.317 -77.026)" fill="#f3e8dc"/>
    <path id="Path_1050" data-name="Path 1050" d="M641.639,959.182l-.095.006c-.245.016-.472.036-.683.059-3.164.351-2.581,1.494-2.581,1.494s2.057,3.656,5.276,3.854a4.875,4.875,0,0,0,2.285-.441,8.976,8.976,0,0,0,3.286-2.748l-1.953.232c2.113-1,.62-3.723.62-3.723s-.62,1.231-4.821,1.231c-.146,0-.286,0-.424,0Q642.06,959.158,641.639,959.182Z" transform="translate(-250.376 -7.466)" fill="#040405"/>
  </g>
</svg>
