<svg xmlns="http://www.w3.org/2000/svg" xmlns:xlink="http://www.w3.org/1999/xlink" width="653.364" height="306.635" viewBox="0 0 653.364 306.635">
  <defs>
    <clipPath id="clip-path">
      <path id="Path_1070" data-name="Path 1070" d="M614.265,603.255l39.136-1.578c-9.583,12.6-17.956,24.075-27.772,36.258l-39.138,1.578C596.308,627.332,604.682,615.854,614.265,603.255Z" transform="translate(-586.492 -601.677)" fill="#a30f17"/>
    </clipPath>
    <clipPath id="clip-path-2">
      <path id="Path_1085" data-name="Path 1085" d="M506.917,634.711l.682,24.158c-.74-26.2-8.559-40.579-23.431-42.041-17.617-1.732-32.153,18.489-37.3,64.966a196.921,196.921,0,0,0-1.318,26.968l-.682-24.158a196.9,196.9,0,0,1,1.316-26.968c5.145-46.477,19.679-66.7,37.3-64.966C498.358,594.132,506.177,608.513,506.917,634.711Z" transform="translate(-444.814 -592.567)" fill="#a30f17"/>
    </clipPath>
    <clipPath id="clip-path-3">
      <path id="Path_1094" data-name="Path 1094" d="M571.235,625.86l.683,24.158a180.645,180.645,0,0,1-1.093,24.891c-6.768,61.154-37.422,101.105-90.278,95.91-45.935-4.516-66.213-40.506-67.5-85.956l-.682-24.158c1.284,45.45,21.563,81.44,67.5,85.956,52.856,5.2,83.509-34.755,90.278-95.91A180.41,180.41,0,0,0,571.235,625.86Z" transform="translate(-412.367 -625.86)" fill="#a30f17"/>
    </clipPath>
    <clipPath id="clip-path-4">
      <path id="Path_1132" data-name="Path 1132" d="M361.179,641.05,327.2,652.892c-2.216-12.332-3.918-25.059-5.733-38.412l33.975-11.844C357.262,615.991,358.964,628.718,361.179,641.05Z" transform="translate(-321.472 -602.636)" fill="#a30f17"/>
    </clipPath>
  </defs>
  <g id="Group_1013" data-name="Group 1013" transform="translate(-250.002 -153)">
    <g id="Group_1012" data-name="Group 1012" transform="translate(15.044 -381.229)">
      <g id="Group_978" data-name="Group 978" transform="translate(668.978 591.123)">
        <g id="Group_965" data-name="Group 965" transform="translate(51.917 121.102)">
          <path id="Path_1065" data-name="Path 1065" d="M561.767,655.346l39.138-1.579-.464.6L561.3,655.943Z" transform="translate(-561.303 -653.767)" fill="#094787"/>
        </g>
        <g id="Group_976" data-name="Group 976" transform="translate(51.917)">
          <g id="Group_966" data-name="Group 966" transform="translate(0.464 79.796)">
            <path id="Path_1066" data-name="Path 1066" d="M598.658,627.606l39.138-1.579-37.044,41.306-39.138,1.579Z" transform="translate(-561.614 -626.027)" fill="#a30f17"/>
          </g>
          <g id="Group_967" data-name="Group 967" transform="translate(0 121.699)">
            <path id="Path_1067" data-name="Path 1067" d="M561.3,655.747l39.137-1.579,45.324,12.6-39.138,1.579Z" transform="translate(-561.303 -654.168)" fill="#a30f17"/>
          </g>
          <g id="Group_970" data-name="Group 970" transform="translate(37.508 43.538)">
            <path id="Path_1068" data-name="Path 1068" d="M614.265,603.255l39.136-1.578c-9.583,12.6-17.956,24.075-27.772,36.258l-39.138,1.578C596.308,627.332,604.682,615.854,614.265,603.255Z" transform="translate(-586.492 -601.677)" fill="#a30f17"/>
            <g id="Group_969" data-name="Group 969" clip-path="url(#clip-path)">
              <g id="Group_968" data-name="Group 968">
                <path id="Path_1069" data-name="Path 1069" d="M614.265,603.255l39.136-1.578c-9.583,12.6-17.956,24.075-27.772,36.258l-39.138,1.578c9.816-12.182,18.19-23.659,27.773-36.258Z" transform="translate(-586.492 -601.677)" fill="#a30f17"/>
              </g>
            </g>
          </g>
          <g id="Group_971" data-name="Group 971" transform="translate(69.767 185.695)">
            <path id="Path_1071" data-name="Path 1071" d="M619.653,698.726l39.138-1.579-11.5,53.128-39.138,1.579Z" transform="translate(-608.157 -697.147)" fill="#a30f17"/>
          </g>
          <g id="Group_972" data-name="Group 972" transform="translate(89.709 146.621)">
            <path id="Path_1072" data-name="Path 1072" d="M621.549,672.484l39.138-1.579,23.736,6.586-39.138,1.579Z" transform="translate(-621.549 -670.905)" fill="#a30f17"/>
          </g>
          <g id="Group_973" data-name="Group 973" transform="translate(105 153.207)">
            <path id="Path_1073" data-name="Path 1073" d="M640.263,676.907l39.138-1.579L670.956,714.4l-39.138,1.579Z" transform="translate(-631.818 -675.328)" fill="#a30f17"/>
          </g>
          <g id="Group_974" data-name="Group 974" transform="translate(89.709 16.015)">
            <path id="Path_1074" data-name="Path 1074" d="M649.812,584.772l39.137-1.579L660.687,713.8l-39.138,1.579Z" transform="translate(-621.549 -583.193)" fill="#a30f17"/>
          </g>
          <g id="Group_975" data-name="Group 975" transform="translate(60.316)">
            <path id="Path_1075" data-name="Path 1075" d="M601.809,574.017l39.138-1.579L698.6,588.453l-39.138,1.579Z" transform="translate(-601.809 -572.438)" fill="#a30f17"/>
          </g>
        </g>
        <g id="Group_977" data-name="Group 977" transform="translate(0 1.579)">
          <path id="Path_1076" data-name="Path 1076" d="M668.062,720.119,691.8,726.7l-8.446,39.075-23.737-6.586-11.5,53.129-44.4-12.329,11.5-53.127L526.436,722.2l7.353-33.941L638.669,573.5l57.657,16.016Zm-33.71-61.7c2.9-13.367,6.474-26.9,10.207-41.134l-.925-.253c-9.583,12.6-17.958,24.076-27.773,36.258L578.817,694.6l-.465.6,45.325,12.6,10.675-49.369Z" transform="translate(-526.436 -573.498)" fill="#f3e8dc"/>
        </g>
      </g>
      <g id="Group_979" data-name="Group 979" transform="translate(358.657 628.268)">
        <path id="Path_1077" data-name="Path 1077" d="M352.861,597.384l-33.975,11.843-.855.12L352.006,597.5Z" transform="translate(-318.032 -597.384)" fill="#0d3b6f"/>
      </g>
      <g id="Group_987" data-name="Group 987" transform="translate(499.06 585.667)">
        <g id="Group_982" data-name="Group 982" transform="translate(48.38 35.43)">
          <path id="Path_1078" data-name="Path 1078" d="M506.917,634.711l.682,24.158c-.74-26.2-8.559-40.579-23.431-42.041-17.617-1.732-32.153,18.489-37.3,64.966a196.921,196.921,0,0,0-1.318,26.968l-.682-24.158a196.9,196.9,0,0,1,1.316-26.968c5.145-46.477,19.679-66.7,37.3-64.966C498.358,594.132,506.177,608.513,506.917,634.711Z" transform="translate(-444.814 -592.567)" fill="#a30f17"/>
          <g id="Group_981" data-name="Group 981" clip-path="url(#clip-path-2)">
            <g id="Group_980" data-name="Group 980" transform="translate(0 0)">
              <path id="Path_1079" data-name="Path 1079" d="M497.02,634.711l.682,24.158c-.74-26.2-8.559-40.579-23.431-42.041a19.8,19.8,0,0,0-8.537.989l-.682-24.158a19.8,19.8,0,0,1,8.537-.989c14.872,1.462,22.691,15.843,23.431,42.041Z" transform="translate(-434.918 -592.568)" fill="#a30f17"/>
              <path id="Path_1080" data-name="Path 1080" d="M466.308,593.3l.682,24.158a20.976,20.976,0,0,0-3.825,1.791l-.682-24.158a20.972,20.972,0,0,1,3.825-1.791Z" transform="translate(-436.174 -592.209)" fill="#a30f17"/>
              <path id="Path_1081" data-name="Path 1081" d="M463.679,594.5l.682,24.158a25.049,25.049,0,0,0-3.641,2.653l-.683-24.158a25.06,25.06,0,0,1,3.642-2.653Z" transform="translate(-437.37 -591.621)" fill="#a30f17"/>
              <path id="Path_1082" data-name="Path 1082" d="M461.428,596.285l.683,24.158a32.954,32.954,0,0,0-4.235,4.5l-.683-24.158a33.135,33.135,0,0,1,4.235-4.5Z" transform="translate(-438.761 -590.75)" fill="#a30f17"/>
              <path id="Path_1083" data-name="Path 1083" d="M459.307,599.3l.683,24.158a53.55,53.55,0,0,0-6.437,10.828l-.682-24.158a53.663,53.663,0,0,1,6.436-10.828Z" transform="translate(-440.874 -589.273)" fill="#a30f17"/>
              <path id="Path_1084" data-name="Path 1084" d="M456.811,606.576l.682,24.158c-4.829,10.523-8.514,25.162-10.621,44.209a196.921,196.921,0,0,0-1.318,26.968l-.682-24.158a196.9,196.9,0,0,1,1.316-26.968c2.108-19.048,5.794-33.686,10.623-44.209Z" transform="translate(-444.814 -585.717)" fill="#a30f17"/>
            </g>
          </g>
        </g>
        <g id="Group_983" data-name="Group 983">
          <path id="Path_1086" data-name="Path 1086" d="M503.918,569.216c55.414,5.447,72.273,55.008,66.247,109.451-6.769,61.155-37.422,101.105-90.278,95.91-53.824-5.29-72.422-53.8-66.512-110.093C419.771,606.685,450.092,563.925,503.918,569.216Zm-19.185,170.3c18.9,1.858,31.666-19.765,36.675-65.027,4.874-44.034-2.49-68.263-22.033-70.184-17.618-1.732-32.153,18.489-37.3,64.966-5.043,45.566,4.081,68.418,22.656,70.245Z" transform="translate(-412.323 -568.774)" fill="#f3e8dc"/>
        </g>
        <g id="Group_986" data-name="Group 986" transform="translate(0.065 85.003)">
          <path id="Path_1087" data-name="Path 1087" d="M571.235,625.86l.683,24.158a180.645,180.645,0,0,1-1.093,24.891c-6.768,61.154-37.422,101.105-90.278,95.91-45.935-4.516-66.213-40.506-67.5-85.956l-.682-24.158c1.284,45.45,21.563,81.44,67.5,85.956,52.856,5.2,83.509-34.755,90.278-95.91A180.41,180.41,0,0,0,571.235,625.86Z" transform="translate(-412.367 -625.86)" fill="#a30f17"/>
          <g id="Group_985" data-name="Group 985" clip-path="url(#clip-path-3)">
            <g id="Group_984" data-name="Group 984">
              <path id="Path_1088" data-name="Path 1088" d="M523.612,625.86l.683,24.158a180.645,180.645,0,0,1-1.093,24.891c-2.059,18.614-6.333,35.265-12.771,49.275l-.682-24.158c6.439-14.01,10.711-30.661,12.771-49.275a180.41,180.41,0,0,0,1.092-24.891Z" transform="translate(-364.744 -625.86)" fill="#a30f17"/>
              <path id="Path_1089" data-name="Path 1089" d="M513.683,675.668l.682,24.158a97.989,97.989,0,0,1-11.979,19.853l-.682-24.156a98.187,98.187,0,0,0,11.979-19.855Z" transform="translate(-368.679 -601.502)" fill="#a30f17"/>
              <path id="Path_1090" data-name="Path 1090" d="M504.959,689l.682,24.156a76.8,76.8,0,0,1-9.91,10.446l-.682-24.158A76.876,76.876,0,0,0,504.959,689Z" transform="translate(-371.933 -594.982)" fill="#a30f17"/>
              <path id="Path_1091" data-name="Path 1091" d="M498.315,696.016,499,720.174a68.328,68.328,0,0,1-9.942,7.2l-.683-24.158a68.263,68.263,0,0,0,9.944-7.2Z" transform="translate(-375.199 -591.552)" fill="#a30f17"/>
              <path id="Path_1092" data-name="Path 1092" d="M492.313,700.853,493,725.011a66.24,66.24,0,0,1-12,5.588l-.683-24.158a66.034,66.034,0,0,0,12-5.588Z" transform="translate(-379.14 -589.186)" fill="#a30f17"/>
              <path id="Path_1093" data-name="Path 1093" d="M513.538,731.672l.683,24.158c-9.975,3.484-21.207,4.771-33.674,3.545-45.935-4.516-66.213-40.506-67.5-85.956l-.682-24.158c1.284,45.45,21.563,81.44,67.5,85.956,12.468,1.225,23.7-.061,33.673-3.545Z" transform="translate(-412.367 -614.416)" fill="#a30f17"/>
            </g>
          </g>
        </g>
      </g>
      <path id="Path_1095" data-name="Path 1095" d="M538.213,685.891l-.07-.039-.1-.06-.213-.133c-.143-.089-.292-.192-.438-.289-.295-.2-.59-.412-.88-.63-.584-.435-1.155-.9-1.712-1.383a37.8,37.8,0,0,1-3.178-3.1,43.732,43.732,0,0,1-5.267-7.143,48.14,48.14,0,0,1-3.775-8.029,55.148,55.148,0,0,1-2.342-8.581v0a1.011,1.011,0,0,0-1.19-.756.982.982,0,0,0-.849,1.035,56.76,56.76,0,0,0,1.7,9.059,50.219,50.219,0,0,0,3.286,8.748,46.544,46.544,0,0,0,5.049,8.1,41.179,41.179,0,0,0,3.236,3.676c.581.587,1.185,1.16,1.823,1.714.319.278.646.551.983.822.173.136.341.27.523.4l.277.2.147.1.182.122a2.654,2.654,0,0,0,3.475-.658A2.181,2.181,0,0,0,538.213,685.891Z" transform="translate(138.512 59.419)" fill="#f3e8dc"/>
      <path id="Path_1096" data-name="Path 1096" d="M534.786,733.349l-1.105,4.326-2.275-.361.691-4.814Z" transform="translate(144.972 96.961)" fill="#f3e8dc"/>
      <path id="Path_1097" data-name="Path 1097" d="M536.505,753.445,531.094,753s-1.495-34.392-.811-40.813.022-19.027.022-19.027l6.074,3.849L539.443,718l1.446,3.227s-2.694,6.029-2.74,10.233S540.527,742.706,536.505,753.445Z" transform="translate(144.335 77.723)" fill="#5c0c0c"/>
      <path id="Path_1098" data-name="Path 1098" d="M536.255,735.361l-4.308.59s-4.466,2.305-3.752,3.83,8.225-.688,8.225-.688S536.737,735.662,536.255,735.361Z" transform="translate(143.364 98.36)" fill="#dad3cc"/>
      <path id="Path_1099" data-name="Path 1099" d="M551.164,712.253l3.169-3.109,1.721,2.032-3.73,3.019Z" transform="translate(154.634 85.539)" fill="#f3e8dc"/>
      <path id="Path_1100" data-name="Path 1100" d="M531.5,661.4s-1.7,3.8-1.766,4.05c-.471,1.7-1.986,8.4,3.142,9.137l-1.126,5.314-2.244,2.957a29.414,29.414,0,0,0,7.578-1.927l3.739-13.342-3.118-3.388-4.332-2.433Z" transform="translate(143.874 62.192)" fill="#f3e8dc"/>
      <path id="Path_1101" data-name="Path 1101" d="M535.773,674.109l-3.877.451s-5.621,8.513-4.884,11.017,4.346,12.8,4.382,16.193l11.212-1.124s1.066-16.2.819-20.638-2.237-6.171-2.237-6.171Z" transform="translate(142.791 68.273)" fill="#dad3cc"/>
      <path id="Path_1102" data-name="Path 1102" d="M529.933,692.966s7.045,36.654,15.459,42.5c9.829,6.826,21.572-11.742,21.572-11.742l-7.1-5.734s-8.834,14.99-11.741,7.646.463-21.257-1.407-25.059a69.477,69.477,0,0,0-5.57-8.732Z" transform="translate(144.252 77.077)" fill="#5c0c0c"/>
      <path id="Path_1103" data-name="Path 1103" d="M552.543,709.695l2.984,3.163s4.472,2.295,5.3.828-5.341-6.294-5.341-6.294S552.509,709.127,552.543,709.695Z" transform="translate(155.309 84.681)" fill="#dad3cc"/>
      <path id="Path_1104" data-name="Path 1104" d="M529.556,661.436s-1.931,3.5,3.932,3.932,4.655,2.284,4.655,2.284-7.6,9.32,1.062,12.268c4.9,1.669,11.95-5.484,8.872-12.4s.116-6.016-6.089-7.231S535.776,656.394,529.556,661.436Z" transform="translate(143.918 60.765)" fill="#a30f17"/>
      <path id="Path_1105" data-name="Path 1105" d="M536.7,662.9c0-.38-3.045-8.118,2.79-6.723s13.193,6.343,9.26,8.753-7.231,2.79-8.5,1.9A25.825,25.825,0,0,1,536.7,662.9Z" transform="translate(147.174 59.554)" fill="#a30f17"/>
      <path id="Path_1106" data-name="Path 1106" d="M539.2,688.93l-.015-.079-.016-.115-.033-.249c-.022-.168-.037-.348-.055-.523-.031-.356-.057-.716-.072-1.079-.036-.728-.039-1.465-.019-2.2a37.641,37.641,0,0,1,.377-4.419,43.657,43.657,0,0,1,2.175-8.6,48.115,48.115,0,0,1,3.807-8.014,55.059,55.059,0,0,1,5.143-7.258l0,0a1.009,1.009,0,0,0-.171-1.4.979.979,0,0,0-1.337,0,56.619,56.619,0,0,0-5.922,7.064,50.178,50.178,0,0,0-4.673,8.094,46.377,46.377,0,0,0-3.055,9.044,41.126,41.126,0,0,0-.788,4.833c-.083.822-.143,1.651-.167,2.5-.013.421-.016.849-.012,1.281.006.22.009.435.021.661l.018.342.013.18.021.217a2.654,2.654,0,0,0,2.714,2.268A2.18,2.18,0,0,0,539.2,688.93Z" transform="translate(146.42 58.926)" fill="#f4b7bf"/>
      <path id="Path_1107" data-name="Path 1107" d="M539.2,688.93l-.015-.079-.016-.115-.033-.249c-.022-.168-.037-.348-.055-.523-.031-.356-.057-.716-.072-1.079-.036-.728-.039-1.465-.019-2.2a37.641,37.641,0,0,1,.377-4.419,43.657,43.657,0,0,1,2.175-8.6,48.115,48.115,0,0,1,3.807-8.014,55.059,55.059,0,0,1,5.143-7.258l0,0a1.009,1.009,0,0,0-.171-1.4.979.979,0,0,0-1.337,0,56.619,56.619,0,0,0-5.922,7.064,50.178,50.178,0,0,0-4.673,8.094,46.377,46.377,0,0,0-3.055,9.044,41.126,41.126,0,0,0-.788,4.833c-.083.822-.143,1.651-.167,2.5-.013.421-.016.849-.012,1.281.006.22.009.435.021.661l.018.342.013.18.021.217a2.654,2.654,0,0,0,2.714,2.268A2.18,2.18,0,0,0,539.2,688.93Z" transform="translate(146.42 58.926)" fill="#f3e8dc"/>
      <path id="Path_1108" data-name="Path 1108" d="M462.529,728.128l5.63,1.449-.149,1.185H454.531l.058-1.839,5.867-1.864Z" transform="translate(107.378 94.3)" fill="#040405"/>
      <path id="Path_1109" data-name="Path 1109" d="M457.242,691.294s-14.962,32.169-19.554,37.2-9.479,11.851-9.479,11.851a6.558,6.558,0,0,0,4.3,1.994c2.814.228,19.4-19.917,20.738-21.25s18.09-33.025,18.09-33.025Z" transform="translate(94.506 75.232)" fill="#5c0c0c"/>
      <path id="Path_1110" data-name="Path 1110" d="M457.156,671.363l.928-6.648.581-1.918s7.067,1.821,7.118,2.311-2.25,9.2-2.25,9.2Z" transform="translate(108.662 62.874)" fill="#f3e8dc"/>
      <path id="Path_1111" data-name="Path 1111" d="M459.3,664.786s3.876,3.794,4.414,3.772l.628-2.627C464.3,665.464,459.572,664.773,459.3,664.786Z" transform="translate(109.712 63.846)" fill="#f3e8dc"/>
      <path id="Path_1112" data-name="Path 1112" d="M458.1,655.916c.374-.161.783-.327,1.217-.488A6.589,6.589,0,0,0,458.1,655.916Z" transform="translate(109.121 59.27)" fill="#8b6053"/>
      <path id="Path_1113" data-name="Path 1113" d="M466.255,657.747a5.1,5.1,0,0,1-.846,1.392,5.842,5.842,0,0,1-1.7.943l-.987,3.477-2.509-.323-1.22-.052-1.214,4a7.248,7.248,0,0,0,11.323-6.72,6.586,6.586,0,0,0-.844-2.6c-.191,0-.353-.006-.462-.012C467.208,657.827,466.255,657.747,466.255,657.747Z" transform="translate(108.966 60.404)" fill="#8b6053"/>
      <path id="Path_1114" data-name="Path 1114" d="M461.74,655.278a7.012,7.012,0,0,0-1.24.243c-.433.161-.843.328-1.217.488a7.1,7.1,0,0,0-3.571,7.185,7.234,7.234,0,0,0,3.1,5.218l1.214-4,1.22.052,2.509.323.987-3.477a5.842,5.842,0,0,0,1.7-.943,5.1,5.1,0,0,0,.846-1.392s.953.08,1.541.109c.109.006.271.013.462.012A7.9,7.9,0,0,0,461.74,655.278Z" transform="translate(107.934 59.177)" fill="#1958a4"/>
      <path id="Path_1115" data-name="Path 1115" d="M470.134,661.692a7.25,7.25,0,1,1-14.421,1.5c-.414-3.982,2.044-7.5,6.028-7.916S469.72,657.71,470.134,661.692Z" transform="translate(107.934 59.177)" fill="#f3e8dc"/>
      <path id="Path_1116" data-name="Path 1116" d="M459.821,667.845s6.2,2.655,7.546,1.8c.713-.454,1.8-6.7.788-9.711s-6.19,1.05-6.634,2.4S459.264,666.823,459.821,667.845Z" transform="translate(109.913 60.94)" fill="#f3e8dc"/>
      <path id="Path_1117" data-name="Path 1117" d="M469.354,659.1a7.341,7.341,0,0,0-7.18-3.861c-4.693.4-6.873,3.98-6.459,7.962a7.233,7.233,0,0,0,3.1,5.218l1.214-4,1.22.052,2.509.323.987-3.477a5.842,5.842,0,0,0,1.7-.943,5.1,5.1,0,0,0,.846-1.392s.953.08,1.541.109C468.95,659.1,469.136,659.109,469.354,659.1Z" transform="translate(107.932 59.166)" fill="#040405"/>
      <path id="Path_1118" data-name="Path 1118" d="M461.461,661.6a1.733,1.733,0,1,1-1.909-1.848A1.893,1.893,0,0,1,461.461,661.6Z" transform="translate(109.1 61.38)" fill="#f3e8dc"/>
      <path id="Path_1119" data-name="Path 1119" d="M467.488,659.268s2.729.272,2.8-1.2-1.41-3.385-4.792-3.236-6.071.667-7.524,1.51,6.7,2,6.7,2Z" transform="translate(108.976 58.976)" fill="#040405"/>
      <path id="Path_1120" data-name="Path 1120" d="M446.885,693.267a8.819,8.819,0,0,0,1.334,7c2.369,3.258,14.219,20,14.219,20l-4,27.934h1.927l4.74-1.272s3.7-17.774,4.889-22.07-7.852-37.195-7.852-37.195Z" transform="translate(103.528 75.03)" fill="#5c0c0c"/>
      <path id="Path_1121" data-name="Path 1121" d="M429.01,723.961v2.289l5.935,6.644h3.3l.815-1.2h0a7,7,0,0,0-2.33-1.379l-1.039-.368-2.671-6.827Z" transform="translate(94.897 92.372)" fill="#040405"/>
      <path id="Path_1122" data-name="Path 1122" d="M462.973,668.47a33.8,33.8,0,0,0-8.324,13.771c-2.222,8-9.628,22.07-9.628,22.07l21.758-.888,4.016-33.033Z" transform="translate(102.727 65.648)" fill="#040405"/>
      <path id="Path_1123" data-name="Path 1123" d="M455.106,678.63a26.883,26.883,0,0,0,8.951,3.723q.507-3.936,1.013-7.871Z" transform="translate(107.659 68.588)" fill="#040405"/>
      <path id="Path_1124" data-name="Path 1124" d="M490.577,662.72a4.472,4.472,0,0,1-1.267-.322,6.774,6.774,0,0,1-.637,1.084c-1.925,2.712-26.52,10.715-26.52,10.715s-6.468,1.49-7.46,4.157-.509,6.109,1.693,6.555,5.767-.588,5.767-.588,30.37-15.256,31.259-16.6c.864-1.3,1.556-.9.669-5.16A11.485,11.485,0,0,1,490.577,662.72Z" transform="translate(107.216 62.678)" fill="#040405"/>
      <path id="Path_1125" data-name="Path 1125" d="M482.266,660.187c-1.179,2.752-3.417,2.2-4.64,4.34a5.507,5.507,0,0,0,4.656,4.452c.716-.865.535-1.717,1.321-6.12C484.452,658.106,483.077,658.295,482.266,660.187Z" transform="translate(118.672 60.988)" fill="#f3e8dc"/>
      <g id="Group_988" data-name="Group 988" transform="translate(619.04 647.613)">
        <circle id="Ellipse_79" data-name="Ellipse 79" cx="30.355" cy="30.355" r="30.355" transform="translate(3.708 3.837)" fill="#f3e8dc" opacity="0.57"/>
        <path id="Path_1126" data-name="Path 1126" d="M523.2,610.657A34.672,34.672,0,1,0,552.841,668.8L580.2,689.974c1.8,1.4,6.94,2.932,8.337,1.127s-1.678-6.422-3.483-7.819l-23.166-17.934-4.142-3.207A34.675,34.675,0,0,0,523.2,610.657Zm8.045,63.194a29.033,29.033,0,1,1,25.133-32.467A29.033,29.033,0,0,1,531.242,673.851Z" transform="translate(-492.899 -610.375)" fill="#040405"/>
        <path id="Path_1127" data-name="Path 1127" d="M566.78,672.435h0a4.132,4.132,0,0,1-5.8.739l-22.093-17.1a4.129,4.129,0,0,1-.737-5.8h0a4.13,4.13,0,0,1,5.8-.739l22.093,17.1A4.13,4.13,0,0,1,566.78,672.435Z" transform="translate(-471.192 -591.647)" fill="#410d0e"/>
        <circle id="Ellipse_80" data-name="Ellipse 80" cx="6.529" cy="6.529" r="6.529" transform="translate(33.318 9.469)" fill="#fff"/>
        <path id="Path_1128" data-name="Path 1128" d="M526.436,627.818a3.482,3.482,0,1,1,3.481,3.481A3.482,3.482,0,0,1,526.436,627.818Z" transform="translate(-476.499 -603.548)" fill="#fff"/>
      </g>
      <g id="Group_1002" data-name="Group 1002" transform="translate(295.952 593.778)">
        <g id="Group_999" data-name="Group 999" transform="translate(0 7.537)">
          <g id="Group_989" data-name="Group 989" transform="translate(129.495 145.841)">
            <path id="Path_1129" data-name="Path 1129" d="M418.936,677.226l-33.975,11.843-22.074,3.1,33.975-11.843Z" transform="translate(-362.887 -677.226)" fill="#a30f17"/>
          </g>
          <g id="Group_992" data-name="Group 992" transform="translate(67.828 34.774)">
            <path id="Path_1130" data-name="Path 1130" d="M361.179,641.05,327.2,652.892c-2.216-12.332-3.918-25.059-5.733-38.412l33.975-11.844C357.262,615.991,358.964,628.718,361.179,641.05Z" transform="translate(-321.472 -602.636)" fill="#a30f17"/>
            <g id="Group_991" data-name="Group 991" clip-path="url(#clip-path-4)">
              <g id="Group_990" data-name="Group 990">
                <path id="Path_1131" data-name="Path 1131" d="M361.179,641.05,327.2,652.892c-2.216-12.332-3.918-25.059-5.733-38.412l33.975-11.844c1.815,13.355,3.517,26.082,5.731,38.414Z" transform="translate(-321.472 -602.636)" fill="#a30f17"/>
              </g>
            </g>
          </g>
          <g id="Group_993" data-name="Group 993" transform="translate(73.56 73.187)">
            <path id="Path_1133" data-name="Path 1133" d="M367.472,673.951,333.5,685.795l-8.176-45.518L359.3,628.434Z" transform="translate(-325.322 -628.434)" fill="#a30f17"/>
          </g>
          <g id="Group_994" data-name="Group 994" transform="translate(88.209 154.746)">
            <path id="Path_1134" data-name="Path 1134" d="M377.933,732.193l-33.974,11.843-8.8-48.986,33.975-11.843Z" transform="translate(-335.16 -683.206)" fill="#a30f17"/>
          </g>
          <g id="Group_995" data-name="Group 995" transform="translate(97.008 197.929)">
            <path id="Path_1135" data-name="Path 1135" d="M416.33,712.208l-33.974,11.843-41.286,5.8,33.974-11.843Z" transform="translate(-341.069 -712.208)" fill="#a30f17"/>
          </g>
          <g id="Group_996" data-name="Group 996">
            <path id="Path_1136" data-name="Path 1136" d="M309.895,714.333l-33.974,11.843,47.764-135.051,33.974-11.843Z" transform="translate(-275.921 -579.283)" fill="#a30f17"/>
          </g>
          <g id="Group_997" data-name="Group 997" transform="translate(0 135.051)">
            <path id="Path_1137" data-name="Path 1137" d="M315.517,701.281l-33.974,11.843-5.622-31.3,33.974-11.843Z" transform="translate(-275.921 -669.98)" fill="#a30f17"/>
          </g>
          <g id="Group_998" data-name="Group 998" transform="translate(5.622 154.746)">
            <path id="Path_1138" data-name="Path 1138" d="M396.258,683.206,362.283,695.05,279.7,706.656l33.974-11.843Z" transform="translate(-279.696 -683.206)" fill="#a30f17"/>
          </g>
        </g>
        <g id="Group_1000" data-name="Group 1000" transform="translate(33.974)">
          <path id="Path_1139" data-name="Path 1139" d="M421.759,694.66l22.073-3.1,6.474,36.041-22.075,3.1,8.8,48.986-41.286,5.8-8.8-48.988L304.36,748.11l-5.623-31.3L346.5,581.759l53.626-7.538ZM372.3,654.946c-2.214-12.332-3.916-25.059-5.731-38.414l-.855.121c-3.636,14.12-6.643,26.865-10.62,40.712l-16.6,48.355-.173.669,42.154-5.925L372.3,654.946Z" transform="translate(-298.737 -574.221)" fill="#f3e8dc"/>
        </g>
        <g id="Group_1001" data-name="Group 1001" transform="translate(137.487 180.739)">
          <rect id="Rectangle_1154" data-name="Rectangle 1154" width="27.404" height="27.645" rx="9.202" transform="translate(31.311 38.703)" fill="#a30f17"/>
          <ellipse id="Ellipse_81" data-name="Ellipse 81" cx="11.178" cy="13.822" rx="11.178" ry="13.822" transform="translate(28.667 38.703)" fill="#5c0c0c"/>
          <ellipse id="Ellipse_82" data-name="Ellipse 82" cx="11.178" cy="13.822" rx="11.178" ry="13.822" transform="translate(25.783 38.703)" fill="#f3e8dc"/>
          <path id="Path_1140" data-name="Path 1140" d="M384.706,736.5h12.261a2.049,2.049,0,0,0,2.043-2.043h0a2.049,2.049,0,0,0-2.043-2.043H384.706a2.049,2.049,0,0,0-2.043,2.043h0A2.049,2.049,0,0,0,384.706,736.5Z" transform="translate(-361.208 -677.6)" fill="#5c0c0c"/>
          <path id="Path_1141" data-name="Path 1141" d="M384.706,730.523h12.261a2.05,2.05,0,0,0,2.043-2.043h0a2.05,2.05,0,0,0-2.043-2.044H384.706a2.05,2.05,0,0,0-2.043,2.044h0A2.05,2.05,0,0,0,384.706,730.523Z" transform="translate(-361.208 -680.522)" fill="#5c0c0c"/>
          <path id="Path_1142" data-name="Path 1142" d="M421.082,747.59a.776.776,0,0,1-.082-1.547,23.436,23.436,0,0,0-2.506-46.738H370.769a.776.776,0,1,1,0-1.552h47.725a24.987,24.987,0,0,1,2.671,49.832A.784.784,0,0,1,421.082,747.59Z" transform="translate(-367.404 -694.548)" fill="#a30f17"/>
          <path id="Path_1143" data-name="Path 1143" d="M375.946,699.447a3.846,3.846,0,1,0-3.846,3.846A3.846,3.846,0,0,0,375.946,699.447Z" transform="translate(-368.254 -695.601)" fill="#a30f17"/>
        </g>
      </g>
      <g id="Group_1003" data-name="Group 1003" transform="translate(779.103 534.229)">
        <path id="Path_1144" data-name="Path 1144" d="M613.235,600.263l-.4,5.282-2.641-.264-.264-5.414Z" transform="translate(-595.729 -502.13)" fill="#f3e8dc"/>
        <path id="Path_1145" data-name="Path 1145" d="M629.626,597.972l1.944,4.928-2.493.912-2.6-4.759Z" transform="translate(-587.636 -503.057)" fill="#f3e8dc"/>
        <path id="Path_1146" data-name="Path 1146" d="M616.906,602.705l-4.357.66s-4.358,2.907-6.075,3.038-3.434,1.717-1.717,1.982,12.678-.529,12.678-.529Z" transform="translate(-598.608 -500.742)" fill="#040405"/>
        <path id="Path_1147" data-name="Path 1147" d="M644.488,576.578s-23.2,3.039-22.541,9.643-6.872,28.991-6.872,28.991l-6.206-.133s4.376-28.314,4.376-32.276,21.734-12.7,21.734-12.7Z" transform="translate(-596.249 -516.684)" fill="#dad3cc"/>
        <path id="Path_1148" data-name="Path 1148" d="M635.481,546.073l-6.6,2.773s-5.046,27.106-3.83,31.3c1.19,4.095,6.075,3.434,6.075,3.434l12.678-.527-1.056-15.319Z" transform="translate(-588.43 -528.437)" fill="#040405"/>
        <path id="Path_1149" data-name="Path 1149" d="M624.785,538.836s-1.715,10.3,4.887,10.3l-.264,7.131,6.074-2.641-.4-15.715-8.056-.264Z" transform="translate(-588.564 -532.557)" fill="#f3e8dc"/>
        <path id="Path_1150" data-name="Path 1150" d="M631.29,540.243s-7.264,1.586-7.395.133-1.453-7.923,5.282-5.678,9.244,2.244,8.584,5.414-1.849,7-1.849,7l-1.321-.529-.792-3.3s2.509-1.452.792-2.64-1.98.923-1.98.923Z" transform="translate(-588.994 -534.229)" fill="#040405"/>
        <path id="Path_1151" data-name="Path 1151" d="M633.63,600.754l-4.49,1.717s-.265,3.169-1.982,3.565-4.357,1.717-4.093,2.774,7.923-.529,7.923-.529l5.018-3.962Z" transform="translate(-589.316 -501.697)" fill="#040405"/>
        <path id="Path_1152" data-name="Path 1152" d="M622.107,567.175c-.088.01-.267.013-.408.015s-.305,0-.46-.01c-.31-.012-.623-.04-.929-.081a9.985,9.985,0,0,1-1.8-.4,6.888,6.888,0,0,1-1.584-.782,5.062,5.062,0,0,1-1.209-1.208l-.06-.079a1,1,0,0,0-1.69,1.051,7.264,7.264,0,0,0,1.5,2,9.313,9.313,0,0,0,2.022,1.386,12.563,12.563,0,0,0,2.229.844c.381.106.764.2,1.154.265.194.039.392.068.588.1s.383.051.646.067l.1.006a1.6,1.6,0,0,0,.188-3.185A1.655,1.655,0,0,0,622.107,567.175Z" transform="translate(-593.81 -519.562)" fill="#f3e8dc"/>
        <path id="Path_1153" data-name="Path 1153" d="M638.9,547.061s-8.98-1.057-6.208,8.187,7.264,13.074.925,15.187-14.658,4.622-14.658,4.622l.527,5.02s27.6,1.319,28.129-5.547-3.434-20.337-4.094-21.79S640.215,547.853,638.9,547.061Z" transform="translate(-591.317 -527.972)" fill="#a30f17"/>
        <path id="Path_1154" data-name="Path 1154" d="M647.357,570.2s3.979,6.8-1.738,10.737c-4.835,3.329-19.566,3.787-19.082,4.877,1.057,2.376,10.952,27.114,10.952,27.114l-5.943,1.453s-14.895-21.411-15.818-28.013,16.311-15.111,16.311-15.111Z" transform="translate(-592.912 -516.64)" fill="#dad3cc"/>
        <path id="Path_1155" data-name="Path 1155" d="M609.115,565.94h25.25a1.579,1.579,0,0,0,1.574-1.574h0a1.579,1.579,0,0,0-1.574-1.574h-25.25a1.578,1.578,0,0,0-1.572,1.574h0A1.578,1.578,0,0,0,609.115,565.94Z" transform="translate(-596.898 -520.261)" fill="#410d0e"/>
        <path id="Path_1156" data-name="Path 1156" d="M614.509,570.474,603.464,548.48a1.644,1.644,0,0,0-2.164-.724h0a1.558,1.558,0,0,0-.743,2.105L611.6,571.855a1.642,1.642,0,0,0,2.164.724h0A1.557,1.557,0,0,0,614.509,570.474Z" transform="translate(-600.394 -527.692)" fill="#410d0e"/>
      </g>
      <g id="Group_1008" data-name="Group 1008" transform="translate(234.958 722.025)">
        <path id="Path_1157" data-name="Path 1157" d="M258.2,732.222l.1,5.1s8.275,3.752,8.659,2.982-2.019-4.811-4.233-5.484-1.443-3.079-1.443-3.079Z" transform="translate(-223.593 -625.435)" fill="#a30f17"/>
        <path id="Path_1158" data-name="Path 1158" d="M242.582,728.9s-3.175,3.656-2.789,5.292,6.735,5.868,6.735,5.868,2.4.675.865-3.175a35.781,35.781,0,0,1-2.021-6.832Z" transform="translate(-232.61 -626.826)" fill="#a30f17"/>
        <path id="Path_1159" data-name="Path 1159" d="M270.1,699.434s2.983,17.125,2.116,27.324-1.154,21.841-1.154,21.841l-5.387.289s-1.155-24.727-2.117-26.94S260.864,713,260.864,713l-1.54.481S258.748,725.8,257.3,728.3s-11.93,17.7-11.93,17.7l-4.041-2.4s8.852-18.762,8.563-20.013-.289-21.167-.289-21.167l8.852-1.059Z" transform="translate(-231.841 -641.235)" fill="#5c0c0c"/>
        <rect id="Rectangle_1155" data-name="Rectangle 1155" width="2.633" height="5.388" rx="0.754" transform="translate(52.311 26.184) rotate(27.843)" fill="#f3e8dc"/>
        <path id="Path_1160" data-name="Path 1160" d="M256.7,673.617a23.839,23.839,0,0,1,9.43,16.452c1.249,11.064,8.659-7.216,8.659-7.216l3.175,2.4s-3.271,14.624-9.14,14.817-11.738-7.024-11.738-7.024Z" transform="translate(-224.325 -653.86)" fill="#dad3cc"/>
        <path id="Path_1161" data-name="Path 1161" d="M261.1,672.826s-2.589,1.793-4.116,1.659-3.651-1.925-3.651-1.925a12.731,12.731,0,0,0-8.039,7.372l-.675,2.429,2.686,33.268c-.716.611,14.329,1.153,21.271-1.951.363-.162,0-.481,0-.481s-2.5-29.538-2.5-31.751S265.264,672.96,261.1,672.826Z" transform="translate(-230.233 -654.377)" fill="#dad3cc"/>
        <path id="Path_1162" data-name="Path 1162" d="M256.685,677.884l-.067-1.925s3.121-.731,3.718-3.054a51.909,51.909,0,0,0,.864-7.17l-2.39-3.254-2.988-.265-3.054,2.987-2.058,2.257.332,2.655,1.86,3.918-.067,3.584-2.987.731s-.2,3.584,4.315,3.187,4.713-3.054,4.713-3.054Z" transform="translate(-227.677 -659.435)" fill="#f3e8dc"/>
        <path id="Path_1163" data-name="Path 1163" d="M261.157,689.265h0a1.206,1.206,0,0,1-.149,1.693l-2.36,1.979a1.206,1.206,0,0,1-1.695-.15h0a1.206,1.206,0,0,1,.149-1.693l2.36-1.979A1.206,1.206,0,0,1,261.157,689.265Z" transform="translate(-224.338 -646.418)" fill="#f4b7bf"/>
        <path id="Path_1164" data-name="Path 1164" d="M253.765,675.476c.664-.6-1.461-4.713-1.194-6.24,0,0,2.123.4,3.054-.6s4.448-1.062,3.584-3.519a3.575,3.575,0,0,1,1.925,3.586s3.121-.332,2.324-1.528-2.856-7.5-7.968-6.771-6.51,4.576-6.306,8.1c.2,3.452,3.319,6.9,3.319,6.9Z" transform="translate(-228.01 -660.349)" fill="#a30f17"/>
        <path id="Path_1165" data-name="Path 1165" d="M251.655,712.725a11,11,0,0,0-2.01-4.3c.036,5.045.109,10.155.25,10.769.289,1.251-8.563,20.013-8.563,20.013l.95.565a1.206,1.206,0,0,1,.019-.214c.219-1.136.9-1.519,1.784-2.116a14.83,14.83,0,0,0,2.716-1.784,2.446,2.446,0,0,0,.523-1.223,1.01,1.01,0,0,1-.761-1.5c.7-1.211,2.29-2.828,2.03-4.306-.244-1.388-.065-2.436,1.285-3.079a10.035,10.035,0,0,1,.948-2.631,5.179,5.179,0,0,1,2.067-2.28,4.429,4.429,0,0,1,.566-.249C251.727,718.26,252.068,715.41,251.655,712.725Z" transform="translate(-231.841 -636.84)" fill="#5c0c0c"/>
        <path id="Path_1166" data-name="Path 1166" d="M258.866,734.245c.442-2.988,1.748-5.984,1.419-9.031-.168-1.561-.579-3.1-.893-4.64-.286-1.4-.6-2.8-1-4.18a20.57,20.57,0,0,0-3.922-7.771c.231.887,1.775,6.787,2.664,8.831.564,1.3,1.2,10.352,1.622,17.611C258.79,734.791,258.824,734.519,258.866,734.245Z" transform="translate(-225.417 -636.741)" fill="#5c0c0c"/>
        <g id="Group_1007" data-name="Group 1007" transform="translate(0 14.834)">
          <g id="Group_1004" data-name="Group 1004" transform="translate(17.574 18.669)">
            <path id="Path_1167" data-name="Path 1167" d="M268.3,702.078,278.482,691.9l-9.047-9.047-10.183,10.183L246.76,705.524l9.047,9.047L268.3,702.078Z" transform="translate(-246.76 -682.849)" fill="#040405"/>
          </g>
          <g id="Group_1005" data-name="Group 1005" transform="translate(37.978)">
            <path id="Path_1168" data-name="Path 1168" d="M275.456,700.3a14.961,14.961,0,0,0,14.1-20.05l-10.183,10.183-9.046-9.047L280.511,671.2a14.988,14.988,0,1,0-5.055,29.1Z" transform="translate(-260.463 -670.311)" fill="#040405"/>
          </g>
          <g id="Group_1006" data-name="Group 1006" transform="translate(0 37.976)">
            <path id="Path_1169" data-name="Path 1169" d="M249.953,695.815a14.956,14.956,0,0,0-14.1,20.048l10.182-10.182,9.047,9.046L244.9,724.911a14.988,14.988,0,1,0,5.055-29.1Z" transform="translate(-234.958 -695.815)" fill="#040405"/>
          </g>
        </g>
        <path id="Path_1170" data-name="Path 1170" d="M261.058,689.166h0a1.2,1.2,0,0,1-.149,1.695l-2.359,1.977a1.2,1.2,0,0,1-1.695-.149h0a1.206,1.206,0,0,1,.149-1.694l2.36-1.977A1.206,1.206,0,0,1,261.058,689.166Z" transform="translate(-224.386 -646.466)" fill="#f3e8dc"/>
        <path id="Path_1171" data-name="Path 1171" d="M246.414,677.833a5.618,5.618,0,0,1,4.626-1.019c2.589.664,1.593,6.44,1.593,6.44s-3.851,10.888-4.448,14.8c-.444,2.9,9.539-.07,15.312-1.9.558-.177,1.178.667,1.178.667-.031.021.651,2.655.625,2.685-3.151,3.516-19.487,13.1-22.526,2.957s-.124-16.752,2.341-22.925Z" transform="translate(-231.771 -652.372)" fill="#dad3cc"/>
      </g>
      <g id="Group_1009" data-name="Group 1009" transform="translate(299.6 593.676)">
        <path id="Path_1172" data-name="Path 1172" d="M285.275,582.494a3.342,3.342,0,1,0,.158,4.723A3.346,3.346,0,0,0,285.275,582.494Zm-2.377,2.54a.138.138,0,0,1-.006-.194.137.137,0,1,1,.006.194Z" transform="translate(-277.743 -570.513)" fill="#d2111c"/>
        <path id="Path_1173" data-name="Path 1173" d="M288.089,592.026a5.776,5.776,0,1,0,.274,8.164A5.782,5.782,0,0,0,288.089,592.026Zm-5.514,5.9a2.3,2.3,0,1,1,3.248-.109A2.3,2.3,0,0,1,282.575,597.922Z" transform="translate(-278.37 -566.172)" fill="#a30f17"/>
        <path id="Path_1174" data-name="Path 1174" d="M302.8,576.321a8.061,8.061,0,1,0,.383,11.4A8.071,8.071,0,0,0,302.8,576.321Zm-8.636,9.236a4.583,4.583,0,1,1,6.479-.217A4.587,4.587,0,0,1,294.167,585.558Z" transform="translate(-273.055 -574.152)" fill="#5c0c0c"/>
      </g>
      <g id="Group_1010" data-name="Group 1010" transform="translate(870.913 725.77)">
        <path id="Path_1175" data-name="Path 1175" d="M671.765,668.617a1.906,1.906,0,1,0-2.631-.587A1.907,1.907,0,0,0,671.765,668.617Zm-1.063-1.675a.079.079,0,0,1,.107.024.081.081,0,0,1-.024.109.078.078,0,0,1-.107-.025A.076.076,0,0,1,670.7,666.942Z" transform="translate(-658.732 -661.769)" fill="#d2111c"/>
        <path id="Path_1176" data-name="Path 1176" d="M667.112,668.938a3.295,3.295,0,1,0-4.548-1.014A3.3,3.3,0,0,0,667.112,668.938Zm-2.469-3.886a1.31,1.31,0,1,1-.4,1.809A1.309,1.309,0,0,1,664.643,665.052Z" transform="translate(-662.051 -662.864)" fill="#a30f17"/>
        <path id="Path_1177" data-name="Path 1177" d="M674.63,679.429a4.6,4.6,0,1,0-6.346-1.416A4.6,4.6,0,0,0,674.63,679.429Zm-3.867-6.089a2.614,2.614,0,1,1-.8,3.608A2.619,2.619,0,0,1,670.763,673.34Z" transform="translate(-659.353 -658.91)" fill="#5c0c0c"/>
      </g>
      <g id="Group_1011" data-name="Group 1011" transform="translate(623.069 792.233)">
        <path id="Path_1178" data-name="Path 1178" d="M510.286,722.645a2.866,2.866,0,1,0,.281-4.044A2.868,2.868,0,0,0,510.286,722.645Zm2.251-1.958a.118.118,0,0,1-.012.165.117.117,0,0,1-.153-.177A.118.118,0,0,1,512.537,720.687Z" transform="translate(-488.769 -702.413)" fill="#d2111c"/>
        <path id="Path_1179" data-name="Path 1179" d="M510.023,715.7a4.954,4.954,0,1,0,.487-6.989A4.96,4.96,0,0,0,510.023,715.7Zm5.225-4.544a1.971,1.971,0,1,1-2.78-.194A1.972,1.972,0,0,1,515.248,711.158Z" transform="translate(-489.148 -707.499)" fill="#5c0c0c"/>
        <path id="Path_1180" data-name="Path 1180" d="M497.3,729.15a6.915,6.915,0,1,0,.679-9.755A6.923,6.923,0,0,0,497.3,729.15Zm8.184-7.118a3.932,3.932,0,1,1-5.547-.387A3.936,3.936,0,0,1,505.483,722.033Z" transform="translate(-495.605 -702.51)" fill="#5c0c0c"/>
      </g>
    </g>
  </g>
</svg>
