<svg id="Group_426" data-name="Group 426" xmlns="http://www.w3.org/2000/svg" width="118.915" height="103.936" viewBox="0 0 118.915 103.936">
  <path id="Path_348" data-name="Path 348" d="M369.691,98.329a21.273,21.273,0,0,0-21.208-20.108H331v-.1l-21.58.1,1.6,19.245Z" transform="translate(-264.634 -67.547)" fill="#d2111c"/>
  <path id="Path_349" data-name="Path 349" d="M370.092,108.754V98.5H291.638v72.6h78.454V120.953l.124-.072v-12.2Z" transform="translate(-264.962 -67.171)" fill="#f3e8dc"/>
  <path id="Path_350" data-name="Path 350" d="M272.806,102.337a4.313,4.313,0,1,0-6.1,6.1l12.312,12.312v-12.2Z" transform="translate(-265.444 -67.124)" fill="#410d0e"/>
  <path id="Path_351" data-name="Path 351" d="M278.789,98.5v10.109l-.016-.015v12.2l.016.015v50.3h45.943V98.5Z" transform="translate(-265.199 -67.171)" fill="#dad3cc"/>
  <path id="Path_352" data-name="Path 352" d="M381.192,102.337a4.318,4.318,0,0,0-6.1,0l-6.3,6.3v12.2l12.4-12.4A4.314,4.314,0,0,0,381.192,102.337Z" transform="translate(-263.54 -67.124)" fill="#410d0e"/>
  <path id="Path_353" data-name="Path 353" d="M317.6,78.125v.1H300.119a21.275,21.275,0,0,0-21.208,20.108H324.73v-20.2Z" transform="translate(-265.196 -67.547)" fill="#a30f17"/>
  <path id="Path_354" data-name="Path 354" d="M324.034,72.826h-7.328a2.306,2.306,0,0,0,.2.161v5.236h13.961V72.989a2.192,2.192,0,0,0,.2-.163Z" transform="translate(-264.5 -67.644)" fill="#410d0e"/>
  <path id="Path_355" data-name="Path 355" d="M329.629,67.738H318.175a2.373,2.373,0,0,0-2.37,2.37v.972a2.338,2.338,0,0,0,.918,1.84h14.36a2.334,2.334,0,0,0,.919-1.84v-.972A2.373,2.373,0,0,0,329.629,67.738Z" transform="translate(-264.516 -67.738)" fill="#5c0c0c"/>
  <path id="Path_356" data-name="Path 356" d="M371.362,98.927H278c-.3,0-.549-.407-.549-.905h0c0-.5.247-.905.549-.905h93.364c.3,0,.549.407.549.905h0C371.911,98.519,371.665,98.927,371.362,98.927Z" transform="translate(-265.223 -67.197)" fill="#dad3cc"/>
</svg>
