<?xml version="1.0" encoding="utf-8"?>
<!-- Generator: Adobe Illustrator 23.0.4, SVG Export Plug-In . SVG Version: 6.00 Build 0)  -->
<svg version="1.1" id="Layer_1" xmlns="http://www.w3.org/2000/svg" xmlns:xlink="http://www.w3.org/1999/xlink" x="0px" y="0px"
	 viewBox="0 0 110.3 105.3" style="enable-background:new 0 0 110.3 105.3;" xml:space="preserve">
<style type="text/css">
	.st0{fill:#F3E8DC;}
	.st1{fill:#FFFFFF;}
	.st2{fill:#D2111C;}
	.st3{fill:#A30F17;}
	.st4{fill:#410D0E;}
	.st5{fill:#040405;}
</style>
<g id="Group_428" transform="translate(0 0)">
	<path id="Path_347" class="st0" d="M109.7,69.2C115.4,33.1,75.6,2.5,60,0.1C52.2-1.1,46.1,10.2,38.5,14s-9.8-5.5-16.1-7.5
		S4.3,6.9,0.3,32.3S28.4,99,56.5,104.4S106.7,88.4,109.7,69.2z M38.4,43.9c-4.5-5.2-5-12.1-1.2-15.5s10.7-2,15.2,3.2
		s5,12.1,1.2,15.5S42.9,49.1,38.4,43.9z"/>
	<ellipse id="Ellipse_31" class="st1" cx="78.1" cy="29.1" rx="10.6" ry="10.6"/>
	<ellipse id="Ellipse_32" class="st2" cx="88.9" cy="61.9" rx="10.2" ry="10.2"/>
	<ellipse id="Ellipse_33" class="st3" cx="73.3" cy="85.7" rx="10.4" ry="10.4"/>
	<ellipse id="Ellipse_34" class="st4" cx="42.8" cy="75.9" rx="10.5" ry="10.5"/>
	<ellipse id="Ellipse_35" class="st5" cx="21.6" cy="49.1" rx="10.2" ry="10.2"/>
</g>
</svg>
