<svg id="Group_437" data-name="Group 437" xmlns="http://www.w3.org/2000/svg" width="122.202" height="93.233" viewBox="0 0 122.202 93.233">
  <g id="Group_439" data-name="Group 439" transform="translate(57.29 0)">
    <path id="Path_357" data-name="Path 357" d="M779.534,827.962l-6.6-3.179,14.4-29.9a25.834,25.834,0,0,0-23.276-37.042h-.5a25.832,25.832,0,0,0-22.643,13.4l-2.183,3.975-6.423-3.528,2.183-3.975a33.16,33.16,0,0,1,29.066-17.2h.5a33.162,33.162,0,0,1,29.879,47.549Z" transform="translate(-732.307 -750.51)" fill="#a30f17"/>
  </g>
  <path id="Path_358" data-name="Path 358" d="M704.824,784.655l5.361-16.353-26.735,18.05,15.268,2.375Z" transform="translate(-677.86 -749.475)" fill="#c73922"/>
  <path id="Path_359" data-name="Path 359" d="M704.824,784.655l5.361-16.353-26.735,18.05,15.268,2.375Z" transform="translate(-677.86 -749.475)" fill="#5c0c0c"/>
  <path id="Path_360" data-name="Path 360" d="M697.877,787.827l6.107-4.071,25.853,25.039L718.21,833.63Z" transform="translate(-677.02 -748.575)" fill="#d2111c"/>
  <path id="Path_361" data-name="Path 361" d="M708.679,763.6l-30.211,19.833a.666.666,0,0,0,.03,1.132l5.512,3.229a.667.667,0,0,0,.7-.018L711.027,770.5a.667.667,0,0,0,.276-.736l-1.616-5.786A.667.667,0,0,0,708.679,763.6Z" transform="translate(-678.167 -749.755)" fill="#410d0e"/>
  <path id="Path_362" data-name="Path 362" d="M781.831,831.141l-7.558-48.336a8.43,8.43,0,0,0-8.328-7.126h-8.9a7.6,7.6,0,0,1-6.827-4.258,5.823,5.823,0,0,0-5.2-3.342H734.127a8.428,8.428,0,0,0-8.327,7.126l-8.747,55.936a10.031,10.031,0,0,0,9.911,11.58h44.957A10.03,10.03,0,0,0,781.831,831.141Z" transform="translate(-675.911 -749.487)" fill="#d2111c"/>
  <rect id="Rectangle_893" data-name="Rectangle 893" width="36.439" height="4.275" rx="0.924" transform="translate(55.311 35.013)" fill="#a30f17"/>
  <rect id="Rectangle_894" data-name="Rectangle 894" width="40.041" height="4.275" rx="0.967" transform="translate(53.744 52.909)" fill="#a30f17"/>
  <rect id="Rectangle_895" data-name="Rectangle 895" width="44.275" height="4.275" rx="1.101" transform="translate(51.628 70.804)" fill="#a30f17"/>
</svg>
