<svg id="Group_662" data-name="Group 662" xmlns="http://www.w3.org/2000/svg" width="120.546" height="83.448" viewBox="0 0 120.546 83.448">
  <path id="Path_663" data-name="Path 663" d="M493.6,172.235a8.723,8.723,0,0,1-3.192,11.915l-24.666,14.241a8.723,8.723,0,0,1-11.914-3.192l-21.307-36.9a8.721,8.721,0,0,1,3.192-11.914l24.666-14.241a8.721,8.721,0,0,1,11.914,3.192Z" transform="translate(-421.427 -116.113)" fill="#a30f17"/>
  <path id="Path_664" data-name="Path 664" d="M489.564,165.239a8.722,8.722,0,0,1-3.193,11.915l-24.665,14.241a8.723,8.723,0,0,1-11.915-3.192l-21.306-36.9a8.721,8.721,0,0,1,3.192-11.915l24.665-14.241a8.724,8.724,0,0,1,11.915,3.192Z" transform="translate(-420.756 -114.95)" fill="#dad3cc"/>
  <rect id="Rectangle_1038" data-name="Rectangle 1038" width="45.925" height="60.057" rx="10.461" transform="translate(0 22.963) rotate(-30)" fill="#f3e8dc"/>
  <path id="Path_665" data-name="Path 665" d="M447.545,160.446a26.794,26.794,0,0,1-5.375,5.912c-.69.4-.823.169-.42-.728a20.631,20.631,0,0,1,1.75-3.872,27.529,27.529,0,0,0,1.774-4.806,34.832,34.832,0,0,0,.763-4.786,4.289,4.289,0,0,1-2.09,1.514c-.125.227-.609.1-1.374-.433-.8-.507-1.267-.955-1.329-1.328-.1-.351.108-.522.639-.574a16.232,16.232,0,0,0,4.185-1.957c-.078-2.611-.424-4.1-.9-4.487-.928-.279-1.883.986-2.931,3.686-.589.75-1.232.609-1.944-.359-.773-.984-.977-1.429-.688-1.545a5.323,5.323,0,0,0,3.035-2.621,3.273,3.273,0,0,1,2.928-2.1,7.827,7.827,0,0,1,2.74.053q1.121.349.547,1.216a6.767,6.767,0,0,0-.655,4.262,47.535,47.535,0,0,1-.711,7.975,14.049,14.049,0,0,0,2.269-2.179,8.246,8.246,0,0,1,2.811-2.389c1.333-.259,1.747.013,1.234.72a5.684,5.684,0,0,0-.078,2.345,14.957,14.957,0,0,0,1.079,3.107,1.852,1.852,0,0,1-.129.84,19.394,19.394,0,0,1-1.921,2.335,2.6,2.6,0,0,0-.026,2.879c.133.228.593-.037,1.418-.82a6.605,6.605,0,0,1,2.074-1.452c1.552-.232,2.4,0,2.555.62a6.594,6.594,0,0,0,.51,3.538,35,35,0,0,1,1.246,6.229,6.725,6.725,0,0,0,.024,1.724c.091.511-.09.818-.44.92-.963-.16-2.083-.331-3.182-.465a9.579,9.579,0,0,1-4.563-1.708c-.721-.452-.711-.612.047-.539,2.676.653,4.235.519,4.767-.505a12.1,12.1,0,0,0-.858-4.051c-.545-1.476-.965-2.2-1.251-2.345a2.323,2.323,0,0,0-1.494.863,3.954,3.954,0,0,0-.831,2.013c-.236,1.006-.618,1.584-1.123,1.773-.58.232-.9-.143-.9-1.116-.08-.671-.117-1.62-.149-2.826a10.617,10.617,0,0,0-.934-3.653c-.364-.454-.4-.788-.141-1.041a9.607,9.607,0,0,0,1.372-1.254,5.827,5.827,0,0,0,.834-1.3,4.182,4.182,0,0,0-.68-2.418c-.66-.079-1.425.72-2.191,2.491-.276.671-.684.5-1.182-.544a5.635,5.635,0,0,1-.4-.79c-.248.809-.138,1.357.382,1.723C448.135,158.724,448.063,159.483,447.545,160.446Zm14.648-4.371c1.141-1.477,2.125-2.249,2.992-2.341.4-.024,1.01-.02,1.883-.013.72.1,1.028.274,1.008.594a6.592,6.592,0,0,0-.077,3.673,10.959,10.959,0,0,1,.157,1.954,48,48,0,0,1,7.084-.564c.352-.1.887.562,1.683,1.942.7,1.386.91,2.284.736,2.691-.288.473-.656.634-1.046.4a12.547,12.547,0,0,1-1.941-.618c-2.653-.258-5.009-.531-7.008-.808-.369,1.131-.75,2.066-1.1,2.881a2.559,2.559,0,0,0-.2,1.34,1.453,1.453,0,0,1-.586,1.106,7.2,7.2,0,0,1-1.254.927,4.782,4.782,0,0,1-2.735,1.017c-.614,0-.387-.493.668-1.409.509-.8,1.069-1.689,1.632-2.575a13.609,13.609,0,0,0,1.161-3.123,1.246,1.246,0,0,0,.053-.44c-1.555-.123-2.928-.2-4.048-.371-.735-.035-.754-.331-.032-.85,1.481-.446,2.928-.77,4.376-1.1-.013-.554-.027-1.109-.023-1.723-.266-1.431-.588-2.164-.928-2.224-.356,0-.888.41-1.5,1.121a6.3,6.3,0,0,0-1.227,2.037c-.238,1.006-.84,1.2-1.671.555-.947-.578-1.229-.977-.792-1.28A11.634,11.634,0,0,0,462.193,156.076Zm-6.761-5.959c2.325-2.875,3.912-4.2,4.79-4.1,1.773-.2,2.5.089,2.189.782-.537,1.638-.334,2.7.65,3.252.462.091,1.283-.434,2.425-1.553.838-.586,1.282-.434,1.419.51a2.689,2.689,0,0,1-.415,2.027,7.581,7.581,0,0,1-1.819,1.716c-.717.617-1.579.452-2.511-.544a2.414,2.414,0,0,1-1.508-1.991q-.383-1.463-1.11-1.659a2.406,2.406,0,0,0-1.635,1.507,5.421,5.421,0,0,0,1.173,3.358q1.044,1.547.833,1.974a7.648,7.648,0,0,1-3.419,3.814c-.614.354-.817.267-.6-.321,1.117-1.873,1.506-3.323,1.183-4.414a6.248,6.248,0,0,0-1.783-3.263C454.886,150.942,454.907,150.625,455.432,150.117Zm8.234-7.157a18.893,18.893,0,0,0,4.923-.235,24.667,24.667,0,0,1,4.137-.447,4.957,4.957,0,0,1,1.489.366c.089.153-.1.363-.442.562-.439.3-1.029.7-1.713,1.193a11.065,11.065,0,0,1-3.172,1.678,14.688,14.688,0,0,0-2.448,1.158c-.761.542-1.552.232-2.261-1a6.066,6.066,0,0,0-4.2-1.252,15.325,15.325,0,0,1-4.336.1,6.2,6.2,0,0,0-3.171.349c-.421.6-.8.563-1.171-.346a9.411,9.411,0,0,1-.993-2.34c-.223-.74.084-.917.953-.651a5.057,5.057,0,0,0,1.322.257c-.022-.038.033-.121.165-.248.009-.158.191-1.438.481-3.855.17-2.806.712-3.988,1.532-3.542a5.363,5.363,0,0,0,2.058.908c.467.189.224,1.1-.706,2.758a18.286,18.286,0,0,0-1.049,3.672c-.033.121-.028.221.012.2.615,0,1.57.063,2.982.118.107-.522.355-1.687.856-3.56.478-2.627,1.087-3.694,1.913-3.149a5.468,5.468,0,0,0,1.773,1.122c.528.208.142,1.043-1,2.52a20.806,20.806,0,0,0-1.391,3.257C461.174,142.712,462.31,142.824,463.667,142.96Z" transform="translate(-422.778 -116.72)" fill="#5c0c0c"/>
  <path id="Path_666" data-name="Path 666" d="M520.831,195.2a8.721,8.721,0,0,1-11.915,3.192L484.249,184.15a8.722,8.722,0,0,1-3.192-11.914l21.307-36.9a8.721,8.721,0,0,1,11.914-3.192l24.666,14.241a8.722,8.722,0,0,1,3.193,11.914Z" transform="translate(-429.496 -116.113)" fill="#d2111c"/>
  <rect id="Rectangle_1039" data-name="Rectangle 1039" width="60.057" height="45.926" rx="10.461" transform="translate(50.569 57.844) rotate(-60)" fill="#dad3cc"/>
  <path id="Path_667" data-name="Path 667" d="M528.908,181.208a8.722,8.722,0,0,1-11.914,3.192L492.327,170.16a8.723,8.723,0,0,1-3.192-11.914l21.307-36.905a8.722,8.722,0,0,1,11.914-3.192l24.666,14.241a8.721,8.721,0,0,1,3.193,11.914Z" transform="translate(-430.839 -113.787)" fill="#f3e8dc"/>
  <path id="Path_668" data-name="Path 668" d="M529.116,146.031c4.363,1.649,7.443,3.837,9.326,6.507a16.884,16.884,0,0,1,1.653,3.153c.359.974.059,1.313-.839,1.1a16.989,16.989,0,0,0-4.3.99,6.6,6.6,0,0,0-3.789,2.669c-.266.46-.48.745-.6.776-.182.049-.526-.15-.959-.553a37.168,37.168,0,0,0-6.658-3.692l-.307-.177c-1.736,2.831-3.444,5.524-5.032,8.185-2.11,3.124-3.145,4.828-3.125,5.146-.042,1.049-.564,1.156-1.6.3-1.1-.84-1.488-1.319-1.126-1.416s.92-.8,1.793-2.133c1.084-1.878,2.2-3.894,3.382-6.121.564-1.157,1.484-2.927,2.811-5.226a32.288,32.288,0,0,0-6.174-1.877c-.553-.014-.82-.525-.639-1.546-.018-.675-.193-2.054-.509-4.075a10.522,10.522,0,0,1,.659-6.007c.431-.927.96-1.133,1.545-.64a23.136,23.136,0,0,0,6.659,2.362c1.486.347,2.971.694,4.452,1.139,2.379-4.3,3.631-6.643,3.83-6.987.286-1.47,1.187-1.614,2.856-.345,1.57,1.265,1.72,2.067.51,2.391-.407.173-1.5,1.794-3.189,4.9-.221.383-.5.782-.7,1.127Zm-7.907,6.882c.764-1.5,1.655-3.133,2.771-4.891a2.762,2.762,0,0,1,.56-1.057c-3.618-1.169-6.252-1.564-7.763-1.16-.693.316-1.141,1.181-1.39,2.674-.3,1.408-.2,2.287.346,2.5a7.61,7.61,0,0,0,2.69,1.092C519.086,152.25,520.04,152.545,521.209,152.912Zm6.613-4.819c-1.084,1.878-2.273,3.849-3.469,5.919,1.76.76,3.3,1.448,4.713,2.108a3.333,3.333,0,0,0,3.687-.99,5.5,5.5,0,0,0,1.688-2.655c-.67-1.408-2.728-2.8-6.036-4.148A5.193,5.193,0,0,1,527.822,148.093Z" transform="translate(-434.772 -117.066)" fill="#5c0c0c"/>
</svg>
