<svg id="Group_661" data-name="Group 661" xmlns="http://www.w3.org/2000/svg" width="93.695" height="110.207" viewBox="0 0 93.695 110.207">
  <path id="Path_650" data-name="Path 650" d="M338.317,231.7l-1.286-6.333H320.595l-1.286,6.333-2.533,12.475H340.85Z" transform="translate(-281.965 -134.619)" fill="#dad3cc"/>
  <path id="Path_651" data-name="Path 651" d="M348.287,247.073h-41.76a.541.541,0,0,1-.516-.7L307.064,243a.541.541,0,0,1,.517-.38h39.654a.54.54,0,0,1,.516.38l1.053,3.374A.541.541,0,0,1,348.287,247.073Z" transform="translate(-280.56 -136.866)" fill="#dad3cc"/>
  <ellipse id="Ellipse_57" data-name="Ellipse 57" cx="46.847" cy="46.847" rx="46.847" ry="46.847" transform="translate(0 1.042)" fill="#f3e8dc"/>
  <path id="Path_652" data-name="Path 652" d="M286.966,176.09a37.791,37.791,0,0,0,7.248,22.317L324.93,176.09Z" transform="translate(-278.082 -128.201)" fill="#410d0e"/>
  <path id="Path_653" data-name="Path 653" d="M295.3,198.407a38.046,38.046,0,0,0,18.98,13.8l11.735-36.116Z" transform="translate(-279.168 -128.201)" fill="#a30f17"/>
  <path id="Path_654" data-name="Path 654" d="M317.123,212.206a38.177,38.177,0,0,0,23.469,0L328.858,176.09Z" transform="translate(-282.011 -128.201)" fill="#d2111c"/>
  <path id="Path_655" data-name="Path 655" d="M342.35,212.206a38.048,38.048,0,0,0,18.981-13.8L330.615,176.09Z" transform="translate(-283.768 -128.201)" fill="#5c0c0c"/>
  <path id="Path_656" data-name="Path 656" d="M361.331,198.407a37.8,37.8,0,0,0,7.248-22.317H330.615Z" transform="translate(-283.768 -128.201)" fill="#410d0e"/>
  <path id="Path_657" data-name="Path 657" d="M368.579,172.748a37.8,37.8,0,0,0-7.248-22.316l-30.716,22.316Z" transform="translate(-283.768 -124.859)" fill="#a30f17"/>
  <path id="Path_658" data-name="Path 658" d="M361.331,148.365a38.048,38.048,0,0,0-18.981-13.8l-11.735,36.115Z" transform="translate(-283.768 -122.792)" fill="#d2111c"/>
  <path id="Path_659" data-name="Path 659" d="M340.592,134.289a38.176,38.176,0,0,0-23.469,0L328.858,170.4Z" transform="translate(-282.011 -122.515)" fill="#5c0c0c"/>
  <path id="Path_660" data-name="Path 660" d="M295.3,148.365l30.715,22.316L314.28,134.566A38.046,38.046,0,0,0,295.3,148.365Z" transform="translate(-279.168 -122.792)" fill="#410d0e"/>
  <path id="Path_661" data-name="Path 661" d="M294.214,150.432a37.79,37.79,0,0,0-7.248,22.316H324.93Z" transform="translate(-278.082 -124.859)" fill="#a30f17"/>
  <ellipse id="Ellipse_58" data-name="Ellipse 58" cx="1.071" cy="1.071" rx="1.071" ry="1.071" transform="translate(1.91 46.819)" fill="#a40f18" stroke="#a30f17" stroke-miterlimit="10" stroke-width="3"/>
  <ellipse id="Ellipse_59" data-name="Ellipse 59" cx="1.071" cy="1.071" rx="1.071" ry="1.071" transform="translate(10.288 72.603)" fill="#a40f18" stroke="#a30f17" stroke-miterlimit="10" stroke-width="3"/>
  <ellipse id="Ellipse_60" data-name="Ellipse 60" cx="1.071" cy="1.071" rx="1.071" ry="1.071" transform="translate(59.332 5.099)" fill="#fff"/>
  <ellipse id="Ellipse_61" data-name="Ellipse 61" cx="1.071" cy="1.071" rx="1.071" ry="1.071" transform="translate(32.221 5.099)" fill="#fff"/>
  <ellipse id="Ellipse_62" data-name="Ellipse 62" cx="1.071" cy="1.071" rx="1.071" ry="1.071" transform="translate(81.266 72.603)" fill="#a40f18" stroke="#a30f17" stroke-miterlimit="10" stroke-width="3"/>
  <ellipse id="Ellipse_63" data-name="Ellipse 63" cx="1.071" cy="1.071" rx="1.071" ry="1.071" transform="translate(59.332 88.539)" fill="#a40f18" stroke="#a30f17" stroke-miterlimit="10" stroke-width="3"/>
  <ellipse id="Ellipse_64" data-name="Ellipse 64" cx="1.071" cy="1.071" rx="1.071" ry="1.071" transform="translate(32.221 88.539)" fill="#a40f18" stroke="#a30f17" stroke-miterlimit="10" stroke-width="3"/>
  <ellipse id="Ellipse_65" data-name="Ellipse 65" cx="1.071" cy="1.071" rx="1.071" ry="1.071" transform="translate(89.644 46.819)" fill="#a40f18" stroke="#a30f17" stroke-miterlimit="10" stroke-width="3"/>
  <ellipse id="Ellipse_66" data-name="Ellipse 66" cx="1.071" cy="1.071" rx="1.071" ry="1.071" transform="translate(81.266 21.034)" fill="#a40f18" stroke="#a30f17" stroke-miterlimit="10" stroke-width="3"/>
  <ellipse id="Ellipse_67" data-name="Ellipse 67" cx="1.071" cy="1.071" rx="1.071" ry="1.071" transform="translate(59.332 5.099)" fill="#a40f18" stroke="#a30f17" stroke-miterlimit="10" stroke-width="3"/>
  <ellipse id="Ellipse_68" data-name="Ellipse 68" cx="1.071" cy="1.071" rx="1.071" ry="1.071" transform="translate(32.221 5.099)" fill="#a40f18" stroke="#a30f17" stroke-miterlimit="10" stroke-width="3"/>
  <ellipse id="Ellipse_69" data-name="Ellipse 69" cx="1.071" cy="1.071" rx="1.071" ry="1.071" transform="translate(10.288 21.034)" fill="#a40f18" stroke="#a30f17" stroke-miterlimit="10" stroke-width="3"/>
  <path id="Path_662" data-name="Path 662" d="M326.576,128.129l2.86,3.961a.311.311,0,0,0,.473,0l2.86-3.961,1.746-2.418a6.83,6.83,0,0,0,1.345-4.029v-.043a.242.242,0,0,0-.229-.215,44.863,44.863,0,0,0-11.917,0,.239.239,0,0,0-.229.215v.051a6.832,6.832,0,0,0,1.341,4.007Z" transform="translate(-282.839 -121.029)" fill="#040405"/>
  <ellipse id="Ellipse_70" data-name="Ellipse 70" cx="5.787" cy="5.787" rx="5.787" ry="5.787" transform="translate(41.06 42.102)" fill="#f3e8dc"/>
</svg>
