<svg xmlns="http://www.w3.org/2000/svg" width="103.245" height="75.17" viewBox="0 0 103.245 75.17">
  <g id="Group_426" data-name="Group 426" transform="matrix(0.978, -0.208, 0.208, 0.978, -542.251, 113.198)">
    <path id="Path_332" data-name="Path 332" d="M591.185,20.322l-.7-.728-1.3,1.46-1.714.235-1.3,1.471-1.493.188-1.133,1.191-1.374.032-.651,1.12-1.133-.135-1.105.443-.373.823,1.486.917C585.744,26.023,589.733,23.911,591.185,20.322Z" transform="translate(-6.456 -0.516)" fill="#d65352"/>
    <path id="Path_333" data-name="Path 333" d="M578.043,26.438c.7-5.022,4.9-7.361,9.992-9.026-6.66-1.9-11.931.288-16.247,5.274Z" transform="translate(-5.171 0)" fill="#961213"/>
    <path id="Path_334" data-name="Path 334" d="M558.3,34.281s7-9.979,11.378-11.747l6.848,4.151c4.425-1.322,8.219-3.247,10.936-6.2C591.7,32.751,569.165,41.93,558.3,34.281Z" transform="translate(-2.736 -0.677)" fill="#bf1119"/>
    <path id="Path_335" data-name="Path 335" d="M562.626,39.414l-4.493-2.091q-3.089,11.2,6.178,13.669l2.562-6.346Z" transform="translate(-2.565 -3.719)" fill="#961213"/>
    <path id="Path_336" data-name="Path 336" d="M568.405,46.113l-2.562,6.346c3.363,2.67,8.153,3.389,14.089,2.543l.932-6.107C576.212,46.021,571.9,44.479,568.405,46.113Z" transform="translate(-4.097 -5.186)" fill="#5c0c0c"/>
    <path id="Path_337" data-name="Path 337" d="M618.718,20.322l.7-.728,1.3,1.46,1.715.235,1.3,1.471,1.493.188,1.132,1.191,1.374.032.652,1.12,1.133-.135,1.106.443.372.823-1.485.917C624.16,26.023,620.171,23.911,618.718,20.322Z" transform="translate(-13.647 -0.516)" fill="#d65352"/>
    <path id="Path_338" data-name="Path 338" d="M630.987,26.438c-.7-5.022-4.9-7.361-9.992-9.026,6.661-1.9,11.931.288,16.247,5.274Z" transform="translate(-14.059 0)" fill="#961213"/>
    <path id="Path_339" data-name="Path 339" d="M647.765,34.281s-7-9.979-11.378-11.747l-6.848,4.151c-4.425-1.322-8.219-3.247-10.936-6.2C614.368,32.751,636.9,41.93,647.765,34.281Z" transform="translate(-13.532 -0.677)" fill="#bf1119"/>
    <path id="Path_340" data-name="Path 340" d="M647.89,39.414l4.492-2.091q3.089,11.2-6.178,13.669l-2.562-6.346Z" transform="translate(-18.149 -3.719)" fill="#961213"/>
    <path id="Path_341" data-name="Path 341" d="M640.9,46.113l2.562,6.346c-3.363,2.67-8.153,3.389-14.089,2.543l-.932-6.107C633.089,46.021,637.4,44.479,640.9,46.113Z" transform="translate(-15.403 -5.186)" fill="#5c0c0c"/>
    <g id="Group_423" data-name="Group 423" transform="translate(587.551 27.387)">
      <path id="Path_342" data-name="Path 342" d="M614.1,29.741a13.981,13.981,0,0,1-1.158.94,10.087,10.087,0,0,0-1.063,1.06,10.68,10.68,0,0,0-.99,1.4,9.869,9.869,0,0,0-.719,1.541,8.854,8.854,0,0,0-.384,1.427,5.805,5.805,0,0,0-.085.583c-.016.175-.042.326-.041.453l-.014.4c0,.038-.193.064-.427.06s-.421-.043-.419-.085l.034-.444c.006-.14.04-.306.066-.5a6.393,6.393,0,0,1,.123-.633,9.238,9.238,0,0,1,.494-1.524,9.972,9.972,0,0,1,.866-1.6,10.165,10.165,0,0,1,1.149-1.4,8.739,8.739,0,0,1,1.21-1A3.645,3.645,0,0,1,614.1,29.741Z" transform="translate(-599.409 -29.735)" fill="#946d34"/>
      <path id="Path_343" data-name="Path 343" d="M597.339,29.741a13.852,13.852,0,0,0,1.157.94,10.172,10.172,0,0,1,1.064,1.06,10.675,10.675,0,0,1,.989,1.4,9.932,9.932,0,0,1,.72,1.541,8.916,8.916,0,0,1,.383,1.427,5.856,5.856,0,0,1,.086.583c.015.175.041.326.04.453l.014.4c0,.038.193.064.427.06s.421-.043.419-.085l-.034-.444c-.006-.14-.04-.306-.066-.5a6.41,6.41,0,0,0-.124-.633,9.261,9.261,0,0,0-.494-1.524,9.466,9.466,0,0,0-2.015-3,8.733,8.733,0,0,0-1.209-1A3.656,3.656,0,0,0,597.339,29.741Z" transform="translate(-597.337 -29.735)" fill="#946d34"/>
    </g>
    <g id="Group_424" data-name="Group 424" transform="translate(587.147 33.342)">
      <path id="Path_344" data-name="Path 344" d="M613.583,37l-1.263,1.605,2.611.835.214-2.055Z" transform="translate(-599.638 -37.003)" fill="#a40613"/>
      <path id="Path_345" data-name="Path 345" d="M598.405,37l1.263,1.605-2.611.835-.214-2.055Z" transform="translate(-596.843 -37.003)" fill="#a40613"/>
    </g>
    <g id="Group_425" data-name="Group 425" transform="translate(586.744 32.379)">
      <circle id="Ellipse_1" data-name="Ellipse 1" cx="1.161" cy="1.161" r="1.161" transform="translate(0 0)" fill="#040506"/>
      <path id="Path_346" data-name="Path 346" d="M598.383,36.769a.307.307,0,1,1-.307-.307A.307.307,0,0,1,598.383,36.769Z" transform="translate(-596.607 -35.942)" fill="#fff"/>
      <path id="Path_347" data-name="Path 347" d="M615.748,36.988a1.161,1.161,0,1,1-1.16-1.161A1.16,1.16,0,0,1,615.748,36.988Z" transform="translate(-599.435 -35.827)" fill="#040506"/>
      <circle id="Ellipse_2" data-name="Ellipse 2" cx="0.307" cy="0.307" r="0.307" transform="translate(15.152 0.52)" fill="#fff"/>
    </g>
    <path id="Path_348" data-name="Path 348" d="M667.551,67.8c-.193.142-.714-.213-1.441-.716-.359-.256-.785-.537-1.233-.83s-.939-.577-1.436-.837a16.933,16.933,0,0,0-2.8-1.178c-.39-.125-.719-.208-.949-.27l-.37-.086a11.34,11.34,0,0,1,.449-1.634,8.757,8.757,0,0,1,.588-1.587l.438.182c.269.125.651.3,1.091.538a14.98,14.98,0,0,1,2.947,2.094,13.851,13.851,0,0,1,1.309,1.377,10.347,10.347,0,0,1,.939,1.349C667.566,67.036,667.735,67.668,667.551,67.8Z" transform="translate(-20.981 -7.934)" fill="#d65352"/>
    <path id="Path_349" data-name="Path 349" d="M651.144,62.352l.1-2.611s.452-.051,1.143-.112,1.623-.132,2.586-.145a22.483,22.483,0,0,1,2.7.112c.377.043.693.084.915.122l.35.057c.407.1.56.7.333,1.316l-.82,2.272c-.225.606-.64,1.018-.913.9,0,0-.085-.043-.238-.117s-.374-.176-.646-.295a18.337,18.337,0,0,0-2.125-.734c-.809-.231-1.658-.417-2.3-.549S651.144,62.352,651.144,62.352Z" transform="translate(-19.504 -7.721)" fill="#bf1119"/>
    <path id="Path_350" data-name="Path 350" d="M642.578,61.964l.079-2.612,3.582-.412,2.464-.283,1.136-.125c.368-.016.656.519.624,1.168l-.113,2.412c-.033.651-.342,1.155-.691,1.114l-1.092-.2-2.439-.433Z" transform="translate(-17.957 -7.549)" fill="#961213"/>
    <path id="Path_351" data-name="Path 351" d="M626.878,61.523l.079-2.613,12.9-.648c.359-.019.642.51.623,1.16l-.074,2.414c-.02.651-.335,1.16-.692,1.121Z" transform="translate(-15.121 -7.5)" fill="#5c0c0c"/>
    <path id="Path_352" data-name="Path 352" d="M665.437,80.966c-.2.125-.709-.284-1.395-.9s-1.573-1.437-2.5-2.189a30.814,30.814,0,0,0-2.606-1.93c-.37-.238-.676-.438-.9-.568l-.35-.215a10.474,10.474,0,0,1,.919-1.421,8.838,8.838,0,0,1,1.042-1.336l.356.3c.225.188.531.471.893.812a21.908,21.908,0,0,1,2.387,2.713,16.186,16.186,0,0,1,1.825,3.064C665.5,80.195,665.631,80.846,665.437,80.966Z" transform="translate(-20.687 -10.055)" fill="#d65352"/>
    <path id="Path_353" data-name="Path 353" d="M650.207,70.946l.893-2.456,1.165.27.567.133.632.181c.439.132.911.252,1.382.413L656.24,70c.228.08.43.178.629.263s.387.168.556.252c.342.161.627.3.823.4l.31.16c.351.209.308.832-.081,1.349l-1.442,1.938c-.392.522-.923.768-1.178.555l-.211-.2c-.132-.129-.328-.306-.567-.516-.118-.107-.25-.218-.391-.334s-.286-.248-.446-.359l-1-.739c-.352-.247-.733-.469-1.079-.694l-.506-.319-.472-.265Z" transform="translate(-19.335 -9.348)" fill="#bf1119"/>
    <path id="Path_354" data-name="Path 354" d="M641.895,68.43l.645-2.533s1.867.2,3.745.492c.47.075.941.143,1.382.22l1.209.229c.355.069.651.12.859.167l.326.076c.375.111.493.711.259,1.318l-.866,2.255c-.234.606-.693.988-1.008.837l-.264-.149c-.169-.093-.421-.215-.719-.368l-1.024-.519c-.379-.186-.791-.372-1.2-.565-.816-.392-1.659-.743-2.287-1.019-.314-.138-.578-.25-.764-.324Z" transform="translate(-17.834 -8.88)" fill="#961213"/>
    <path id="Path_355" data-name="Path 355" d="M626.2,65.245l.379-2.586.584.045,1.519.13c1.256.113,2.927.286,4.6.491s3.343.44,4.6.634c.628.091,1.151.186,1.517.247l.575.1c.374.064.548.642.383,1.273l-.611,2.337c-.165.628-.588,1.058-.931.941l-.531-.179c-.338-.113-.819-.281-1.4-.463-1.167-.374-2.733-.86-4.316-1.305s-3.173-.876-4.371-1.177l-1.447-.358Z" transform="translate(-14.999 -8.295)" fill="#5c0c0c"/>
    <path id="Path_356" data-name="Path 356" d="M650.155,91.5c-.466.1-1.291-2.066-2.126-4.131-.418-1.033-.855-2.032-1.21-2.757-.175-.363-.328-.66-.438-.866l-.175-.329a11.613,11.613,0,0,1,1.527-.732,9.7,9.7,0,0,1,1.581-.606l.039.111c.025.07.057.172.1.3.082.259.191.625.3,1.066a24.947,24.947,0,0,1,.594,3.22C650.618,89.119,650.6,91.411,650.155,91.5Z" transform="translate(-18.612 -11.803)" fill="#d65352"/>
    <path id="Path_357" data-name="Path 357" d="M642.338,76.809l1.753-1.939s.395.255.946.7a16.712,16.712,0,0,1,1.882,1.79,20.639,20.639,0,0,1,1.6,2.045c.4.583.642.989.642.989.18.335-.188.82-.792,1.061l-2.24.9c-.6.241-1.178.2-1.272-.083a17.406,17.406,0,0,0-.969-2.868,13.419,13.419,0,0,0-1-1.826C642.581,77.1,642.338,76.809,642.338,76.809Z" transform="translate(-17.914 -10.5)" fill="#bf1119"/>
    <path id="Path_358" data-name="Path 358" d="M635.812,73l.991-2.418.294.071c.187.041.453.114.773.206s.7.189,1.1.318l1.264.43,1.276.532c.41.2.8.413,1.128.589.169.085.312.183.443.263s.245.152.334.216l.285.2c.32.254.183.86-.283,1.311l-1.718,1.7c-.469.456-1,.654-1.177.451l-.144-.19c-.045-.063-.106-.131-.173-.213a3.048,3.048,0,0,0-.235-.268c-.184-.186-.392-.411-.635-.651l-.852-.725-.938-.692c-.306-.218-.61-.406-.863-.578s-.469-.31-.625-.4Z" transform="translate(-16.735 -9.725)" fill="#961213"/>
    <path id="Path_359" data-name="Path 359" d="M621.919,68.772l.542-2.557.538.074c.337.048.816.118,1.39.209,1.148.181,2.674.45,4.2.767.764.153,1.525.333,2.241.5.714.183,1.383.337,1.956.5s1.051.289,1.386.4l.526.165c.343.108.415.7.157,1.3l-.95,2.221c-.255.595-.707.973-.991.828l-.441-.227c-.277-.149-.691-.341-1.186-.576s-1.087-.492-1.718-.775c-.641-.267-1.323-.559-2.019-.828-1.386-.547-2.8-1.055-3.861-1.418-.532-.181-.977-.327-1.287-.427Z" transform="translate(-14.226 -8.937)" fill="#5c0c0c"/>
    <path id="Path_360" data-name="Path 360" d="M609.816,95.426c.02-.234.668-.395,1.613-.523s2.185-.234,3.369-.415a16.728,16.728,0,0,0,3.091-.734c.4-.136.711-.275.932-.371l.346-.162a11.565,11.565,0,0,1,.678,1.552,8.136,8.136,0,0,1,.537,1.606l-.133.039c-.084.024-.2.062-.357.1a12.938,12.938,0,0,1-1.271.265,15.28,15.28,0,0,1-3.766.1,19.146,19.146,0,0,1-3.528-.665C610.4,95.939,609.8,95.658,609.816,95.426Z" transform="translate(-12.039 -13.814)" fill="#d65352"/>
    <path id="Path_361" data-name="Path 361" d="M625.745,88.271l2.446.92-.021.092c-.012.06-.036.147-.068.259l-.116.4c-.049.156-.113.33-.18.523a10.521,10.521,0,0,1-.584,1.294,9.534,9.534,0,0,1-.936,1.4,10.914,10.914,0,0,1-2.325,2.133c-.352.245-.658.425-.872.551l-.341.19c-.416.195-.937-.179-1.135-.8l-.761-2.293c-.2-.618-.124-1.191.156-1.27l.251-.056c.158-.039.386-.1.649-.182a6.99,6.99,0,0,0,1.806-.871,6.049,6.049,0,0,0,.833-.687,7.466,7.466,0,0,0,.645-.751l.238-.335.171-.273c.048-.076.085-.137.108-.18Z" transform="translate(-14.013 -12.921)" fill="#bf1119"/>
    <path id="Path_362" data-name="Path 362" d="M627.727,80l2.614.029.034.363c.02.229.038.551.053.918.03.719.075,1.67.062,2.673a20.044,20.044,0,0,1-.215,2.846c-.067.4-.128.742-.189.982l-.09.378c-.147.441-.773.577-1.364.294l-2.19-1.019c-.582-.279-.961-.718-.826-.97l.129-.225c.086-.14.193-.36.324-.627a15.78,15.78,0,0,0,.8-2.175c.253-.842.468-1.749.629-2.422.079-.329.138-.589.173-.767Z" transform="translate(-14.888 -11.427)" fill="#961213"/>
    <path id="Path_363" data-name="Path 363" d="M616.349,73.312l.756-2.5,6.592,1.448c.413.093.811.174,1.272.289a8.972,8.972,0,0,1,1.446.484,5.571,5.571,0,0,1,1.486.946,5.044,5.044,0,0,1,1.083,1.405,6.04,6.04,0,0,1,.492,1.306,7.841,7.841,0,0,1,.172.941c.03.249.046.44.053.565l.011.194c.023.479-.527.791-1.174.742l-2.41-.168c-.649-.049-1.145-.361-1.112-.63l.011-.109c.008-.072.016-.17.023-.288s.009-.247.006-.374a2.8,2.8,0,0,0-.033-.329.785.785,0,0,0-.08-.253,1.188,1.188,0,0,0-.368-.353,4.814,4.814,0,0,0-.807-.421c-.327-.141-.737-.294-1.128-.447Z" transform="translate(-13.22 -9.767)" fill="#5c0c0c"/>
    <path id="Path_364" data-name="Path 364" d="M543.23,67.8c.193.142.715-.213,1.441-.716.36-.256.785-.537,1.232-.83s.939-.577,1.436-.837a16.957,16.957,0,0,1,2.8-1.178c.39-.125.719-.208.949-.27l.37-.086a11.474,11.474,0,0,0-.45-1.634,8.884,8.884,0,0,0-.587-1.587l-.438.182c-.269.125-.651.3-1.091.538a14.977,14.977,0,0,0-2.947,2.094,13.811,13.811,0,0,0-1.308,1.377,10.244,10.244,0,0,0-.94,1.349C543.215,67.036,543.046,67.668,543.23,67.8Z" transform="translate(0 -7.934)" fill="#d65352"/>
    <path id="Path_365" data-name="Path 365" d="M559.652,62.352l-.1-2.611s-.452-.051-1.143-.112-1.623-.132-2.585-.145a22.478,22.478,0,0,0-2.7.112c-.377.043-.694.084-.916.122l-.35.057c-.407.1-.56.7-.333,1.316l.82,2.272c.224.606.64,1.018.913.9,0,0,.086-.043.238-.117s.374-.176.646-.295a18.383,18.383,0,0,1,2.125-.734c.809-.231,1.658-.417,2.3-.549S559.652,62.352,559.652,62.352Z" transform="translate(-1.492 -7.721)" fill="#bf1119"/>
    <path id="Path_366" data-name="Path 366" d="M568.294,61.964l-.08-2.612-3.582-.412-2.464-.283-1.136-.125c-.368-.016-.656.519-.623,1.168l.112,2.412c.033.651.342,1.155.691,1.114l1.092-.2,2.44-.433Z" transform="translate(-3.115 -7.549)" fill="#961213"/>
    <path id="Path_367" data-name="Path 367" d="M582.735,61.523l-.08-2.613-12.9-.648c-.359-.019-.642.51-.622,1.16l.073,2.414c.02.651.335,1.16.692,1.121Z" transform="translate(-4.691 -7.5)" fill="#5c0c0c"/>
    <path id="Path_368" data-name="Path 368" d="M545.447,80.966c.2.125.709-.284,1.395-.9s1.573-1.437,2.5-2.189a30.834,30.834,0,0,1,2.606-1.93c.37-.238.677-.438.9-.568l.35-.215a10.548,10.548,0,0,0-.919-1.421,8.891,8.891,0,0,0-1.042-1.336l-.357.3c-.225.188-.531.471-.893.812a21.8,21.8,0,0,0-2.386,2.713,16.139,16.139,0,0,0-1.826,3.064C545.384,80.195,545.253,80.846,545.447,80.966Z" transform="translate(-0.397 -10.055)" fill="#d65352"/>
    <path id="Path_369" data-name="Path 369" d="M560.511,70.946l-.892-2.456-1.166.27-.567.133-.632.181c-.439.132-.91.252-1.382.413L554.477,70c-.228.08-.429.178-.629.263s-.386.168-.556.252c-.343.161-.628.3-.823.4l-.31.16c-.351.209-.309.832.081,1.349l1.442,1.938c.392.522.923.768,1.177.555l.211-.2c.133-.129.328-.306.567-.516.118-.107.25-.218.391-.334s.287-.248.446-.359l1-.739c.351-.247.734-.469,1.08-.694l.5-.319.472-.265Z" transform="translate(-1.583 -9.348)" fill="#bf1119"/>
    <path id="Path_370" data-name="Path 370" d="M568.832,68.43l-.645-2.533s-1.866.2-3.745.492c-.469.075-.941.143-1.381.22l-1.209.229c-.355.069-.651.12-.859.167l-.326.076c-.375.111-.493.711-.258,1.318l.865,2.255c.235.606.693.988,1.008.837l.265-.149c.169-.093.42-.215.719-.368l1.023-.519c.378-.186.791-.372,1.2-.565.817-.392,1.659-.743,2.287-1.019.315-.138.578-.25.764-.324Z" transform="translate(-3.094 -8.88)" fill="#961213"/>
    <path id="Path_371" data-name="Path 371" d="M583.279,65.245l-.379-2.586-.584.045-1.519.13c-1.256.113-2.927.286-4.6.491s-3.342.44-4.6.634c-.628.091-1.15.186-1.517.247l-.576.1c-.374.064-.548.642-.383,1.273l.611,2.337c.165.628.589,1.058.932.941l.53-.179c.338-.113.819-.281,1.4-.463,1.167-.374,2.733-.86,4.316-1.305s3.173-.876,4.371-1.177l1.447-.358Z" transform="translate(-4.679 -8.295)" fill="#5c0c0c"/>
    <path id="Path_372" data-name="Path 372" d="M561.5,91.5c.466.1,1.291-2.066,2.126-4.131.418-1.033.856-2.032,1.209-2.757.175-.363.329-.66.438-.866l.174-.329a11.594,11.594,0,0,0-1.526-.732,9.634,9.634,0,0,0-1.582-.606l-.038.111c-.025.07-.057.172-.1.3-.082.259-.191.625-.3,1.066a24.937,24.937,0,0,0-.594,3.22C561.041,89.119,561.057,91.411,561.5,91.5Z" transform="translate(-3.247 -11.803)" fill="#d65352"/>
    <path id="Path_373" data-name="Path 373" d="M568.758,76.809l-1.753-1.939s-.4.255-.945.7a16.708,16.708,0,0,0-1.883,1.79,20.452,20.452,0,0,0-1.6,2.045c-.4.583-.643.989-.643.989-.18.335.188.82.792,1.061l2.24.9c.605.241,1.177.2,1.272-.083a17.356,17.356,0,0,1,.97-2.868,13.43,13.43,0,0,1,1-1.826C568.516,77.1,568.758,76.809,568.758,76.809Z" transform="translate(-3.383 -10.5)" fill="#bf1119"/>
    <path id="Path_374" data-name="Path 374" d="M575.023,73l-.992-2.418-.293.071c-.188.041-.454.114-.773.206s-.7.189-1.1.318l-1.265.43-1.275.532c-.41.2-.8.413-1.128.589-.169.085-.311.183-.443.263s-.245.152-.334.216l-.285.2c-.32.254-.183.86.283,1.311l1.719,1.7c.469.456,1,.654,1.176.451l.145-.19c.044-.063.1-.131.172-.213a3.25,3.25,0,0,1,.235-.268c.185-.186.393-.411.635-.651l.852-.725.938-.692c.306-.218.609-.406.863-.578s.469-.31.625-.4Z" transform="translate(-4.3 -9.725)" fill="#961213"/>
    <path id="Path_375" data-name="Path 375" d="M587.807,68.772l-.542-2.557-.538.074c-.336.048-.816.118-1.39.209-1.148.181-2.673.45-4.2.767-.763.153-1.524.333-2.24.5-.714.183-1.384.337-1.956.5s-1.052.289-1.386.4l-.527.165c-.342.108-.415.7-.157,1.3l.95,2.221c.256.595.707.973.991.828l.441-.227c.277-.149.692-.341,1.187-.576s1.087-.492,1.718-.775c.641-.267,1.323-.559,2.019-.828,1.385-.547,2.8-1.055,3.861-1.418.533-.181.977-.327,1.287-.427Z" transform="translate(-5.7 -8.937)" fill="#5c0c0c"/>
    <path id="Path_376" data-name="Path 376" d="M600.465,95.426c-.02-.234-.667-.395-1.613-.523s-2.185-.234-3.369-.415a16.75,16.75,0,0,1-3.091-.734c-.4-.136-.711-.275-.932-.371l-.346-.162a11.373,11.373,0,0,0-.678,1.552,8,8,0,0,0-.536,1.606l.132.039c.084.024.2.062.358.1a12.872,12.872,0,0,0,1.27.265,15.286,15.286,0,0,0,3.767.1,19.133,19.133,0,0,0,3.528-.665C599.885,95.939,600.484,95.658,600.465,95.426Z" transform="translate(-8.441 -13.814)" fill="#d65352"/>
    <path id="Path_377" data-name="Path 377" d="M585.225,88.271l-2.447.92.021.092c.012.06.036.147.068.259l.116.4c.05.156.113.33.18.523a10.793,10.793,0,0,0,.584,1.294,9.6,9.6,0,0,0,.936,1.4,10.936,10.936,0,0,0,2.325,2.133c.352.245.658.425.873.551l.341.19c.417.195.937-.179,1.136-.8l.76-2.293c.2-.618.125-1.191-.156-1.27l-.251-.056c-.157-.039-.385-.1-.648-.182a7.005,7.005,0,0,1-1.807-.871,6.043,6.043,0,0,1-.833-.687,7.476,7.476,0,0,1-.645-.751l-.237-.335-.171-.273c-.048-.076-.086-.137-.108-.18Z" transform="translate(-7.156 -12.921)" fill="#bf1119"/>
    <path id="Path_378" data-name="Path 378" d="M583.8,80l-2.614.029-.034.363c-.019.229-.038.551-.053.918-.03.719-.075,1.67-.062,2.673a20.062,20.062,0,0,0,.215,2.846c.068.4.128.742.189.982l.09.378c.147.441.774.577,1.364.294l2.19-1.019c.582-.279.962-.718.827-.97l-.13-.225c-.086-.14-.193-.36-.324-.627a15.8,15.8,0,0,1-.8-2.175c-.253-.842-.468-1.749-.63-2.422-.079-.329-.137-.589-.173-.767Z" transform="translate(-6.842 -11.427)" fill="#961213"/>
    <path id="Path_379" data-name="Path 379" d="M593.316,73.312l-.756-2.5-6.593,1.448c-.413.093-.811.174-1.272.289a9,9,0,0,0-1.446.484,5.576,5.576,0,0,0-1.486.946,5.034,5.034,0,0,0-1.083,1.405,6.015,6.015,0,0,0-.492,1.306,8.066,8.066,0,0,0-.172.941c-.03.249-.045.44-.052.565l-.012.194c-.022.479.527.791,1.174.742l2.41-.168c.65-.049,1.145-.361,1.113-.63l-.011-.109c-.009-.072-.016-.17-.024-.288s-.009-.247-.006-.374a2.825,2.825,0,0,1,.033-.329.791.791,0,0,1,.08-.253,1.2,1.2,0,0,1,.368-.353,4.843,4.843,0,0,1,.808-.421c.327-.141.736-.294,1.127-.447Z" transform="translate(-6.646 -9.767)" fill="#5c0c0c"/>
    <path id="Path_380" data-name="Path 380" d="M621.962,53.275l.706-2.536L621.5,49.218l.038-2.808-1.347-1.073-.458-1.983-1.577-.246-.588-1.325-1.42-.05-.59-1.4-1.081.27-.792-1.21-1.711.288-1.044-1.208-1.434.66-2.58-.778-.846-.661-1.4.171-1.3-1.027h-3.393l-1.3,1.027-1.632-.3-.615.792-2.579.778-1.434-.66-1.043,1.208-1.712-.288-.791,1.21-1.08-.27-.591,1.4-1.419.05-.589,1.325-1.576.246-.459,1.983-1.347,1.073.039,2.808-1.167,1.521.707,2.536-.707,2.094.528,2.379-.528,1.777a36.576,36.576,0,0,0,12.232,9.913,2.88,2.88,0,0,0,1.239.274H609.2a2.88,2.88,0,0,0,1.239-.274,36.57,36.57,0,0,0,12.232-9.913l-.528-1.777.528-2.379Z" transform="translate(-6.779 -3.631)" fill="#bf1119"/>
  </g>
</svg>
