<svg xmlns="http://www.w3.org/2000/svg" xmlns:xlink="http://www.w3.org/1999/xlink" width="103.713" height="78.555" viewBox="0 0 103.713 78.555">
  <defs>
    <clipPath id="clip-path">
      <path id="Path_633" data-name="Path 633" d="M55.582,28.423l.086-5.688L64.5,12.417,64.19,0H53.664L37.519,14.716l-.613-3.832H28.322l-9.546,9.261-13.726,0L0,26.933l.031,7.725,5.243,4.1.21,9.238,6.5,2.518L23.11,47.839V64.522H40.378l-.041-18.255,11.338,8.308h4.544v9.947H94.787V52.434L87.1,46.144l-7.64,3.336Z" fill="none"/>
    </clipPath>
  </defs>
  <g id="Group_534" data-name="Group 534" transform="translate(-287.253 -803.771)">
    <g id="Group_533" data-name="Group 533" transform="translate(297.346 803.771) rotate(9)">
      <path id="Path_630" data-name="Path 630" d="M55.582,28.423l.086-5.688L64.5,12.417,64.19,0H53.664L37.519,14.716l-.613-3.832H28.322l-9.546,9.261-13.726,0L0,26.933l.031,7.725,5.243,4.1.21,9.238,6.5,2.518L23.11,47.839V64.522H40.378l-.041-18.255,11.338,8.308h4.544v9.947H94.787V52.434L87.1,46.144l-7.64,3.336Z" fill="#f3e8dc"/>
      <path id="Path_631" data-name="Path 631" d="M86.932,57.359l-.01-6.018L81.9,47.816l-7.091,2.748L57.365,36.986l-2.348-3.443-4.242-.3L47.009,31.07V24.938H45.076l-3.454-6.41L54.979,6.949V0h-4.7L35.973,13.489H30.109V9.811H24.532L15.327,21.278l-4.494.23V19.214l-7.767.2L0,23.1V29.23l4.752,3.679H9.2L11.8,29.328h3.679v3.734L12.11,34.749h-7.2V41.34l3.066,1.073,13.759-3.066-.013,18.012h11.2L32.8,40.421l3.4-2.178,12.89,7.989,4.843.648v10.48Z" transform="translate(4.79 3.895)" fill="#d2111c"/>
      <g id="Group_532" data-name="Group 532">
        <g id="Group_531" data-name="Group 531" clip-path="url(#clip-path)">
          <g id="Group_530" data-name="Group 530" transform="translate(-7.991 1.316)">
            <rect id="Rectangle_942" data-name="Rectangle 942" width="103.328" height="0.811" transform="translate(0.002 22.549)" fill="#f3e8dc"/>
            <rect id="Rectangle_943" data-name="Rectangle 943" width="103.328" height="0.81" transform="translate(0.002 29.222)" fill="#f3e8dc"/>
            <rect id="Rectangle_944" data-name="Rectangle 944" width="103.328" height="0.811" transform="translate(0.002 35.894)" fill="#f3e8dc"/>
            <rect id="Rectangle_945" data-name="Rectangle 945" width="103.328" height="0.811" transform="translate(0.002 3.964)" fill="#f3e8dc"/>
            <rect id="Rectangle_946" data-name="Rectangle 946" width="103.328" height="0.81" transform="translate(0.002 10.637)" fill="#f3e8dc"/>
            <rect id="Rectangle_947" data-name="Rectangle 947" width="103.328" height="0.811" transform="translate(0.002 17.309)" fill="#f3e8dc"/>
            <rect id="Rectangle_948" data-name="Rectangle 948" width="103.328" height="0.811" transform="translate(0.002 42.566)" fill="#f3e8dc"/>
            <rect id="Rectangle_949" data-name="Rectangle 949" width="103.328" height="0.811" transform="translate(0.002 49.239)" fill="#f3e8dc"/>
            <path id="Path_632" data-name="Path 632" d="M0,0,103.331.287l0,.811L0,.811Z" transform="translate(0 55.768)" fill="#f3e8dc"/>
            <rect id="Rectangle_950" data-name="Rectangle 950" width="0.811" height="60.823" transform="translate(16.138 0)" fill="#f3e8dc"/>
            <rect id="Rectangle_951" data-name="Rectangle 951" width="0.811" height="60.823" transform="translate(23.627 0)" fill="#f3e8dc"/>
            <rect id="Rectangle_952" data-name="Rectangle 952" width="0.811" height="60.823" transform="translate(31.116 0)" fill="#f3e8dc"/>
            <rect id="Rectangle_953" data-name="Rectangle 953" width="0.811" height="60.823" transform="translate(38.606 0)" fill="#f3e8dc"/>
            <rect id="Rectangle_954" data-name="Rectangle 954" width="0.811" height="60.823" transform="translate(46.096 0)" fill="#f3e8dc"/>
            <rect id="Rectangle_955" data-name="Rectangle 955" width="0.811" height="60.823" transform="translate(53.978 0)" fill="#f3e8dc"/>
            <rect id="Rectangle_956" data-name="Rectangle 956" width="0.811" height="60.823" transform="translate(61.468 0)" fill="#f3e8dc"/>
            <rect id="Rectangle_957" data-name="Rectangle 957" width="0.811" height="60.823" transform="translate(68.957 0)" fill="#f3e8dc"/>
            <rect id="Rectangle_958" data-name="Rectangle 958" width="0.811" height="60.823" transform="translate(76.447 0)" fill="#f3e8dc"/>
            <rect id="Rectangle_959" data-name="Rectangle 959" width="0.811" height="60.823" transform="translate(83.937 0)" fill="#f3e8dc"/>
            <rect id="Rectangle_960" data-name="Rectangle 960" width="0.811" height="60.823" transform="translate(90.922 0)" fill="#f3e8dc"/>
            <rect id="Rectangle_961" data-name="Rectangle 961" width="0.811" height="60.823" transform="translate(97.769 0)" fill="#f3e8dc"/>
          </g>
        </g>
      </g>
      <path id="Path_634" data-name="Path 634" d="M10.729,12.391,14.306,6.2,10.729,0H3.577L0,6.2l3.577,6.195Z" transform="translate(28.225 22.267)" fill="#f3e8db" stroke="#f3e8dc" stroke-miterlimit="10" stroke-width="2.065"/>
      <path id="Path_635" data-name="Path 635" d="M9.085,10.492l3.028-5.245L9.085,0H3.028L0,5.247l3.028,5.245Z" transform="translate(29.322 23.216)" fill="#d90016"/>
      <path id="Path_636" data-name="Path 636" d="M0,3.523A3.522,3.522,0,1,0,3.522,0,3.522,3.522,0,0,0,0,3.523Z" transform="translate(31.856 24.941)" fill="#fff"/>
    </g>
  </g>
</svg>
