<svg xmlns="http://www.w3.org/2000/svg" xmlns:xlink="http://www.w3.org/1999/xlink" width="87.862" height="68.735" viewBox="0 0 87.862 68.735">
  <defs>
    <clipPath id="clip-path">
      <path id="Path_453" data-name="Path 453" d="M253.224,1001.271s-11.341.89-13.521-7.429,6.812-10.911,10.377-12.667,13.616-6.2,12.118-14.543c0,0,13.819,9.017,17.882,24.064,2.074,11.129-6.409,9.7-6.409,9.7s-6.231,3.289-8.857.489C261.96,1003.3,259.539,1005.2,253.224,1001.271Z" transform="translate(-239.366 -966.631)" fill="none"/>
    </clipPath>
    <clipPath id="clip-path-2">
      <path id="Path_457" data-name="Path 457" d="M293.624,1014.356s-11.248.882-13.41-7.366,6.756-10.817,10.292-12.558,13.5-6.145,12.018-14.424c0,0,13.7,8.943,17.733,23.862,2.057,11.035-6.356,9.613-6.356,9.613s-6.179,3.26-8.783.485C302.288,1016.365,299.887,1018.257,293.624,1014.356Z" transform="translate(-279.881 -980.008)" fill="none"/>
    </clipPath>
  </defs>
  <g id="Group_715" data-name="Group 715" transform="translate(-232.872 -966.631)">
    <path id="Path_439" data-name="Path 439" d="M265.7,990.476c8.911.807,11.525,5.75,11.525,5.75,7.573,2.025,6.448,6.613,6.448,6.613s3.566,3.585,1.631,9.9a11.153,11.153,0,0,1-6.419,8.342c-4.437,4.537-5.922,2.967-11.362,5a18.3,18.3,0,0,1-11.072.109s-3.068.744-8.244-1.326c-5.376-.582-6.794-3.066-6.794-3.066a13.888,13.888,0,0,1-5.826-6.168S219.5,986.286,265.7,990.476Z" transform="translate(0 -3.045)" fill="#f3e8dc"/>
    <path id="Path_440" data-name="Path 440" d="M281.633,1011.883s1.972,1.675,2.28,5.836C283.913,1017.719,285.644,1012.72,281.633,1011.883Z" transform="translate(-6.335 -5.879)" fill="#b2592c"/>
    <path id="Path_441" data-name="Path 441" d="M284.51,1006.961s4.392.715,5.153,4.7C289.663,1011.657,290.163,1006.169,284.51,1006.961Z" transform="translate(-6.709 -5.23)" fill="#b2592c"/>
    <path id="Path_442" data-name="Path 442" d="M290.805,1004.514a2.466,2.466,0,0,0-3-1.475A3.954,3.954,0,0,1,290.805,1004.514Z" transform="translate(-7.136 -4.72)" fill="#b2592c"/>
    <path id="Path_443" data-name="Path 443" d="M233.8,1013.778s6.152,12.04,8.214,7.891c0,0,1.108,5.973,7.061,3.747,0,0,4.279,5.683,9.72.728-.241.213,5.9,6.566,10.338-1.282,0,0,7.356,4.268,9.708-4.032,0,0,3.358,2.467,5.337-4.476a3.856,3.856,0,0,0,1.71-2.606s-.332,7.375-6.875,10.754c0,0-2.673,2.836-5.043,3.365a42.971,42.971,0,0,0-6.719,1.776c-1.64.722-6.826,1.109-10.672-.032a19.612,19.612,0,0,1-8.244-1.326s-4.517-.455-6.794-3.066C241.536,1025.218,235.033,1021,233.8,1013.778Z" transform="translate(-0.12 -6.121)" fill="#dad3cc"/>
    <path id="Path_444" data-name="Path 444" d="M253.058,1003.648s-11.341.89-13.521-7.427,6.813-10.912,10.378-12.669,14.2-6.207,12.7-14.555c0,0,13.233,9.029,17.3,24.076,2.074,11.128-6.41,9.7-6.41,9.7s-6.232,3.288-8.856.488C261.8,1005.674,259.373,1007.581,253.058,1003.648Z" transform="translate(-0.822 -0.307)" fill="#dad3cc"/>
    <path id="Path_445" data-name="Path 445" d="M253.224,1001.271s-11.341.89-13.521-7.429,6.812-10.911,10.377-12.667,13.616-6.2,12.118-14.543c0,0,13.819,9.017,17.882,24.064,2.074,11.129-6.409,9.7-6.409,9.7s-6.231,3.289-8.857.489C261.96,1003.3,259.539,1005.2,253.224,1001.271Z" transform="translate(-0.844)" fill="#5c0c0c"/>
    <path id="Path_446" data-name="Path 446" d="M305.993,1003.653c8.837.8,11.429,5.7,11.429,5.7,7.51,2.007,6.394,6.557,6.394,6.557s3.536,3.555,1.618,9.819a11.06,11.06,0,0,1-6.366,8.273c-4.4,4.5-5.873,2.943-11.268,4.958a18.157,18.157,0,0,1-10.979.109s-3.043.737-8.176-1.315c-5.332-.578-6.738-3.041-6.738-3.041a13.769,13.769,0,0,1-5.777-6.116S260.175,999.5,305.993,1003.653Z" transform="translate(-5.271 -4.757)" fill="#f3e8dc"/>
    <path id="Path_447" data-name="Path 447" d="M274.357,1026.759s6.1,11.941,8.145,7.827c0,0,1.1,5.922,7,3.715,0,0,4.243,5.635,9.64.721-.239.211,5.846,6.511,10.251-1.271,0,0,7.3,4.232,9.629-4,0,0,3.33,2.447,5.293-4.439a3.823,3.823,0,0,0,1.694-2.583s-.329,7.313-6.817,10.664c0,0-2.651,2.813-5,3.338a42.716,42.716,0,0,0-6.663,1.76c-1.626.717-6.769,1.1-10.585-.031a19.454,19.454,0,0,1-8.176-1.316s-4.48-.451-6.738-3.041C282.032,1038.1,275.584,1033.924,274.357,1026.759Z" transform="translate(-5.39 -7.808)" fill="#dad3cc"/>
    <path id="Path_448" data-name="Path 448" d="M293.46,1016.724s-11.247.882-13.41-7.366,6.755-10.818,10.292-12.558,14.085-6.157,12.6-14.435c0,0,13.123,8.953,17.153,23.872,2.058,11.034-6.356,9.613-6.356,9.613s-6.179,3.261-8.783.485C302.124,1018.732,299.723,1020.624,293.46,1016.724Z" transform="translate(-6.086 -2.044)" fill="#dad3cc"/>
    <path id="Path_449" data-name="Path 449" d="M293.624,1014.356s-11.248.882-13.41-7.366,6.756-10.817,10.292-12.558,13.5-6.145,12.018-14.424c0,0,13.7,8.943,17.733,23.862,2.057,11.035-6.356,9.613-6.356,9.613s-6.179,3.26-8.783.485C302.288,1016.365,299.887,1018.257,293.624,1014.356Z" transform="translate(-6.107 -1.738)" fill="#d2111c"/>
    <g id="Group_450" data-name="Group 450" transform="translate(238.523 966.631)">
      <g id="Group_449" data-name="Group 449" clip-path="url(#clip-path)">
        <path id="Path_450" data-name="Path 450" d="M254.92,1001.271a10.668,10.668,0,0,1-.055-13.552c5.532-7.183,10.493-10,9.029-21.087a11.616,11.616,0,0,1,1.078,5.629c-.159,3.345-2.919,8.851-6.674,12.372S250.643,993.576,254.92,1001.271Z" transform="translate(-241.062 -966.631)" fill="#410d0e" stroke="#400e0f" stroke-miterlimit="10" stroke-width="2"/>
        <path id="Path_451" data-name="Path 451" d="M265.607,966.631s3.137,2.336,3.426,9.067a54.145,54.145,0,0,1-.913,13.992c-.733,4.107-1.1,8.012.1,11.189a40.1,40.1,0,0,1,.3-11.591,52.774,52.774,0,0,0,.891-12.306C269.355,974.381,269.528,969.6,265.607,966.631Z" transform="translate(-242.775 -966.631)" fill="#410d0e" stroke="#400e0f" stroke-miterlimit="10" stroke-width="2"/>
        <path id="Path_452" data-name="Path 452" d="M278.332,1001.769a29.064,29.064,0,0,0-1.337-24.581C285.6,990.97,278.332,1001.769,278.332,1001.769Z" transform="translate(-244.255 -968.002)" fill="#410d0e" stroke="#400e0f" stroke-miterlimit="10" stroke-width="2"/>
      </g>
    </g>
    <g id="Group_452" data-name="Group 452" transform="translate(273.773 978.27)">
      <g id="Group_451" data-name="Group 451" clip-path="url(#clip-path-2)">
        <path id="Path_454" data-name="Path 454" d="M295.306,1014.356a10.575,10.575,0,0,1-.053-13.437c5.486-7.121,10.405-9.916,8.953-20.911a11.527,11.527,0,0,1,1.069,5.582c-.158,3.317-2.895,8.779-6.619,12.269S291.064,1006.727,295.306,1014.356Z" transform="translate(-281.563 -980.008)" fill="#a30f17" stroke="#a40f18" stroke-miterlimit="10" stroke-width="2"/>
        <path id="Path_455" data-name="Path 455" d="M305.9,980.008s3.111,2.317,3.4,8.991a53.69,53.69,0,0,1-.906,13.875c-.727,4.069-1.088,7.942.1,11.094a39.758,39.758,0,0,1,.294-11.492,52.328,52.328,0,0,0,.884-12.2C309.622,987.693,309.793,982.952,305.9,980.008Z" transform="translate(-283.262 -980.008)" fill="#a30f17" stroke="#a40f18" stroke-miterlimit="10" stroke-width="2"/>
        <path id="Path_456" data-name="Path 456" d="M318.524,1014.851a28.811,28.811,0,0,0-1.326-24.373C325.735,1004.144,318.524,1014.851,318.524,1014.851Z" transform="translate(-284.729 -981.368)" fill="#a30f17" stroke="#a40f18" stroke-miterlimit="10" stroke-width="2"/>
      </g>
    </g>
  </g>
</svg>
