<svg xmlns="http://www.w3.org/2000/svg" xmlns:xlink="http://www.w3.org/1999/xlink" width="122.378" height="64.491" viewBox="0 0 122.378 64.491">
  <defs>
    <clipPath id="clip-path">
      <path id="Rectangle_888" data-name="Rectangle 888" d="M0,0H80.873a8.264,8.264,0,0,1,8.264,8.264V54.542a0,0,0,0,1,0,0H8.264A8.264,8.264,0,0,1,0,46.278V0A0,0,0,0,1,0,0Z" fill="none"/>
    </clipPath>
  </defs>
  <g id="Group_431" data-name="Group 431" transform="translate(-389.257 -748.984)">
    <g id="Group_432" data-name="Group 432" transform="translate(406.41 748.985)">
      <path id="Rectangle_884" data-name="Rectangle 884" d="M0,0H11.975a4.971,4.971,0,0,1,4.971,4.971V8.62a0,0,0,0,1,0,0H4.971A4.971,4.971,0,0,1,0,3.649V0A0,0,0,0,1,0,0Z" transform="translate(5.104 0)" fill="#f3e8dc"/>
      <path id="Rectangle_885" data-name="Rectangle 885" d="M0,0H22.606a2.812,2.812,0,0,1,2.812,2.812V4.877a0,0,0,0,1,0,0H2.812A2.812,2.812,0,0,1,0,2.064V0A0,0,0,0,1,0,0Z" transform="translate(51.325 2.939)" fill="#a30f17"/>
      <path id="Rectangle_886" data-name="Rectangle 886" d="M0,0H80.971a8.166,8.166,0,0,1,8.166,8.166V54.542a0,0,0,0,1,0,0H8.166A8.166,8.166,0,0,1,0,46.376V0A0,0,0,0,1,0,0Z" transform="translate(0 7.262)" fill="#d2111c"/>
      <g id="Group_433" data-name="Group 433" transform="translate(0 7.262)">
        <g id="Group_432-2" data-name="Group 432" clip-path="url(#clip-path)">
          <rect id="Rectangle_887" data-name="Rectangle 887" width="89.137" height="36.114" transform="translate(0 12.584)" fill="#5c0c0c"/>
        </g>
      </g>
      <circle id="Ellipse_3" data-name="Ellipse 3" cx="25.946" cy="25.946" r="25.946" transform="translate(28.726 12.599)" fill="#f3e8dc"/>
      <ellipse id="Ellipse_4" data-name="Ellipse 4" cx="18.292" cy="18.292" rx="18.292" ry="18.292" transform="translate(34.92 55.249) rotate(-85.22)" fill="#161615"/>
      <ellipse id="Ellipse_5" data-name="Ellipse 5" cx="5.2" cy="5.2" rx="5.2" ry="5.2" transform="translate(48.926 37.422) rotate(-85.22)" fill="#fff"/>
      <ellipse id="Ellipse_6" data-name="Ellipse 6" cx="2.311" cy="2.311" rx="2.311" ry="2.311" transform="translate(61.408 42.51) rotate(-75.386)" fill="#fff"/>
      <ellipse id="Ellipse_7" data-name="Ellipse 7" cx="3.537" cy="3.537" rx="3.537" ry="3.537" transform="matrix(0.252, -0.968, 0.968, 0.252, 6.134, 51.041)" fill="#f3e8dc"/>
    </g>
    <g id="Group_428" data-name="Group 428" transform="translate(494.861 750.938) rotate(-13)">
      <path id="Path_396" data-name="Path 396" d="M2.586,3.8A1.951,1.951,0,1,1,3.8,1.317,1.954,1.954,0,0,1,2.586,3.8Zm-.66-1.921a.08.08,0,1,0,.1.05A.079.079,0,0,0,1.926,1.876Z" transform="translate(2.756 14.176)" fill="#d2111c"/>
      <path id="Path_397" data-name="Path 397" d="M4.47,6.563A3.373,3.373,0,1,1,6.562,2.277,3.376,3.376,0,0,1,4.47,6.563ZM2.937,2.1a1.342,1.342,0,1,0,1.705.832A1.343,1.343,0,0,0,2.937,2.1Z" transform="translate(1.335 0)" fill="#a30f17"/>
      <path id="Path_398" data-name="Path 398" d="M6.238,9.16A4.707,4.707,0,1,1,9.16,3.177,4.713,4.713,0,0,1,6.238,9.16Zm-2.4-6.983a2.677,2.677,0,1,0,3.4,1.661A2.68,2.68,0,0,0,3.838,2.176Z" transform="translate(0 24.369)" fill="#5c0c0c"/>
    </g>
    <g id="Group_429" data-name="Group 429" transform="matrix(-0.208, 0.978, -0.978, -0.208, 405.018, 780.504)">
      <path id="Path_396-2" data-name="Path 396" d="M2.781,4.083a2.1,2.1,0,1,1,1.3-2.667A2.1,2.1,0,0,1,2.781,4.083Zm-.71-2.065a.086.086,0,1,0,.109.053A.085.085,0,0,0,2.071,2.017Z" transform="translate(0 2.89)" fill="#d2111c"/>
      <path id="Path_397-2" data-name="Path 397" d="M4.806,7.057A3.627,3.627,0,1,1,7.057,2.448,3.63,3.63,0,0,1,4.806,7.057ZM3.158,2.263a1.443,1.443,0,1,0,1.834.9A1.444,1.444,0,0,0,3.158,2.263Z" transform="translate(6.361 1.435)" fill="#a30f17"/>
      <path id="Path_398-2" data-name="Path 398" d="M6.708,9.849A5.062,5.062,0,1,1,9.849,3.417,5.068,5.068,0,0,1,6.708,9.849ZM4.127,2.34A2.878,2.878,0,1,0,7.784,4.127,2.882,2.882,0,0,0,4.127,2.34Z" transform="translate(18.048 0)" fill="#5c0c0c"/>
    </g>
  </g>
</svg>
