<svg xmlns="http://www.w3.org/2000/svg" width="105.524" height="86.375" viewBox="0 0 105.524 86.375">
  <g id="Group_1024" data-name="Group 1024" transform="translate(-973.388 -668.115)">
    <g id="Group_1015" data-name="Group 1015" transform="translate(973.388 668.116)">
      <g id="Group_439" data-name="Group 439" transform="translate(43.827 0)">
        <path id="Path_357" data-name="Path 357" d="M768.435,809.76l-5.051-2.432L774.4,784.452a19.763,19.763,0,0,0-17.806-28.337h-.38a19.762,19.762,0,0,0-17.322,10.248l-1.67,3.041-4.914-2.7,1.67-3.041a25.367,25.367,0,0,1,22.236-13.155h.38a25.369,25.369,0,0,1,22.857,36.374Z" transform="translate(-732.307 -750.51)" fill="#a30f17"/>
      </g>
      <path id="Path_358" data-name="Path 358" d="M699.8,780.812l4.1-12.51-20.452,13.808,11.68,1.817Z" transform="translate(-679.173 -753.899)" fill="#c73922"/>
      <path id="Path_359" data-name="Path 359" d="M699.8,780.812l4.1-12.51-20.452,13.808,11.68,1.817Z" transform="translate(-679.173 -753.899)" fill="#5c0c0c"/>
      <path id="Path_360" data-name="Path 360" d="M697.877,786.87l4.672-3.115,19.778,19.155-8.895,19Z" transform="translate(-681.922 -756.843)" fill="#d2111c"/>
      <path id="Path_361" data-name="Path 361" d="M701.508,763.575,678.4,778.747a.51.51,0,0,0,.023.866l4.217,2.47a.51.51,0,0,0,.537-.014L703.3,768.854a.51.51,0,0,0,.211-.563l-1.236-4.426A.51.51,0,0,0,701.508,763.575Z" transform="translate(-678.167 -752.983)" fill="#410d0e"/>
      <path id="Path_362" data-name="Path 362" d="M766.579,816.321,760.8,779.345a6.449,6.449,0,0,0-6.371-5.451h-6.811a5.815,5.815,0,0,1-5.223-3.257,4.454,4.454,0,0,0-3.977-2.556h-8.33a6.448,6.448,0,0,0-6.37,5.451l-6.691,42.79a7.673,7.673,0,0,0,7.582,8.858H759A7.673,7.673,0,0,0,766.579,816.321Z" transform="translate(-685.551 -753.857)" fill="#d2111c"/>
      <rect id="Rectangle_893" data-name="Rectangle 893" width="27.875" height="3.27" rx="0.924" transform="translate(42.313 26.785)" fill="#a30f17"/>
      <rect id="Rectangle_894" data-name="Rectangle 894" width="30.631" height="3.27" rx="0.967" transform="translate(41.114 40.475)" fill="#a30f17"/>
      <rect id="Rectangle_895" data-name="Rectangle 895" width="33.87" height="3.27" rx="1.101" transform="translate(39.495 54.165)" fill="#a30f17"/>
    </g>
    <g id="Group_1021" data-name="Group 1021" transform="matrix(0.755, -0.656, 0.656, 0.755, 971.06, 736.701)">
      <path id="Path_396" data-name="Path 396" d="M1.684.136A2.5,2.5,0,1,1,.136,3.308,2.5,2.5,0,0,1,1.684.136Zm.845,2.457A.1.1,0,1,0,2.4,2.529.1.1,0,0,0,2.529,2.593Z" transform="translate(5.49 15.043)" fill="#d2111c"/>
      <path id="Path_397" data-name="Path 397" d="M2.912.235A4.314,4.314,0,1,1,.235,5.717,4.318,4.318,0,0,1,2.912.235Zm1.96,5.7A1.716,1.716,0,1,0,2.691,4.873,1.718,1.718,0,0,0,4.872,5.937Z" transform="translate(12.082 25.443)" fill="#a30f17"/>
      <path id="Path_398" data-name="Path 398" d="M4.064.327A6.021,6.021,0,1,1,.328,7.979,6.029,6.029,0,0,1,4.064.327ZM7.134,9.26a3.424,3.424,0,1,0-4.35-2.125A3.428,3.428,0,0,0,7.134,9.26Z" transform="translate(11.021 2.617)" fill="#5c0c0c"/>
    </g>
    <g id="Group_1022" data-name="Group 1022" transform="translate(1085.692 704.21) rotate(175)">
      <path id="Path_396-2" data-name="Path 396" d="M1.684.136A2.5,2.5,0,1,1,.136,3.308,2.5,2.5,0,0,1,1.684.136Zm.845,2.457A.1.1,0,1,0,2.4,2.529.1.1,0,0,0,2.529,2.593Z" transform="translate(5.49 15.043)" fill="#d2111c"/>
      <path id="Path_397-2" data-name="Path 397" d="M2.912.235A4.314,4.314,0,1,1,.235,5.717,4.318,4.318,0,0,1,2.912.235Zm1.96,5.7A1.716,1.716,0,1,0,2.691,4.873,1.718,1.718,0,0,0,4.872,5.937Z" transform="translate(12.082 25.443)" fill="#a30f17"/>
      <path id="Path_398-2" data-name="Path 398" d="M4.064.327A6.021,6.021,0,1,1,.328,7.979,6.029,6.029,0,0,1,4.064.327ZM7.134,9.26a3.424,3.424,0,1,0-4.35-2.125A3.428,3.428,0,0,0,7.134,9.26Z" transform="translate(11.021 2.617)" fill="#5c0c0c"/>
    </g>
  </g>
</svg>
