<svg xmlns="http://www.w3.org/2000/svg" width="147.787" height="147.286" viewBox="0 0 147.787 147.286">
  <g id="Group_422" data-name="Group 422" transform="translate(-150.868 -297.485) rotate(-17)">
    <g id="Group_418" data-name="Group 418" transform="translate(132.759 412.702)">
      <path id="Path_313" data-name="Path 313" d="M156.594,436.178a3.078,3.078,0,1,0-1.116-4.207A3.082,3.082,0,0,0,156.594,436.178Zm1.609-2.77a.126.126,0,1,1-.172.046A.126.126,0,0,1,158.2,433.408Z" transform="translate(-134.976 -414.257)" fill="#d2111c"/>
      <path id="Path_314" data-name="Path 314" d="M151.648,423.844a5.32,5.32,0,1,0-1.928-7.272A5.326,5.326,0,0,0,151.648,423.844Zm3.734-6.431a2.117,2.117,0,1,1-2.893.768A2.12,2.12,0,0,1,155.382,417.413Z" transform="translate(-134.854 -413.925)" fill="#a30f17"/>
      <path id="Path_315" data-name="Path 315" d="M138.259,449.676a7.425,7.425,0,1,0-2.693-10.151A7.434,7.434,0,0,0,138.259,449.676Zm5.849-10.072a4.222,4.222,0,1,1-5.771,1.531A4.227,4.227,0,0,1,144.108,439.6Z" transform="translate(-134.564 -414.366)" fill="#5c0c0c"/>
    </g>
    <g id="Group_421" data-name="Group 421" transform="translate(44.801 353.116)">
      <path id="Path_316" data-name="Path 316" d="M150.465,462.327a32.2,32.2,0,0,0-9.516-2.1,4.564,4.564,0,0,1-1.456-.244c-.418-.171-.842-.482-1.276-.351a1.5,1.5,0,0,0-.751.8l-1.2,2.194a1.142,1.142,0,0,0-.171.462.616.616,0,0,0,0,.085c-.032,0-.065,0-.1,0-1.491.045-17.756,6.734-21.043,8.45-5.751,3-11.309,5.765-17.688,6.341a1.074,1.074,0,0,1-.745-.119,1.21,1.21,0,0,1-.345-.946c-.233-4.476,1.371-8.851,3.3-12.875s4.218-7.894,5.537-12.174,1.557-9.172-.555-13.048l.044-1.243c-2.612,1.854-6.007,1.713-9.137,1.5l-3.828-.26a1.671,1.671,0,0,0-1.323.291,1.74,1.74,0,0,0-.4.905c-.432,2.054-17.312,45.021.632,51.043a14.1,14.1,0,0,0,3.9.612c10.6.449,19.5-4.446,28.769-9.968,1.438-.858,11.474-10.577,14.86-14.532,1.431-1.23,3.415-1.4,5.231-1.791a37.609,37.609,0,0,0,6.721-2.368C150.212,462.869,150.554,462.63,150.465,462.327Z" transform="translate(-45.553 -354.814)" fill="#dad3cc"/>
      <path id="Path_317" data-name="Path 317" d="M100.156,395.645a6.479,6.479,0,0,1-1.211-4.334,3.754,3.754,0,0,1,2.818-3.247c1.116-.2,2.386.2,3.33-.423,1.81-1.2.41-4.678,2.235-5.858,1.368-.884,3.182.427,4.778.1,1.31-.267,2.138-1.557,2.639-2.8.457-1.134.9-2.466,2.037-2.914,2.149-.846,4.052,2.274,6.358,2.126,2.459-.158,3.337-3.727,5.708-4.4,1.548-.439,3.141.539,4.288,1.667a7.953,7.953,0,0,1,2.643,5.181A4.317,4.317,0,0,1,132.6,385.2c-1.9.343-3.916-.952-5.726-.276-1.734.647-2.371,2.742-2.646,4.572s-.536,3.9-2.016,5.014c-1.23.925-2.9.871-4.443.916s-3.284.354-4.109,1.653a13.348,13.348,0,0,0-.875,2.831c-.33.936-1.293,1.838-2.216,1.472-.415-.165-.735-.562-1.179-.612-.8-.091-1.211.906-1.816,1.438-1.194,1.049-3.083.149-4.2-.984a12.206,12.206,0,0,1-3.185-5.8" transform="translate(-45.889 -353.532)" fill="#040405"/>
      <path id="Path_318" data-name="Path 318" d="M106.216,391.23a2.215,2.215,0,0,1,2.016.256,3.956,3.956,0,0,1,1.644,3.053,9.178,9.178,0,0,1-.581,3.547c-.563,1.719-1.469,3.546-3.149,4.18-1.477.558-3.3.584-4.315-.615s-1.286-3.515-1.06-5.087a10.082,10.082,0,0,1,1.881-4.33,3.424,3.424,0,0,1,2.187-1.651,3.707,3.707,0,0,1,2.233.757" transform="translate(-45.925 -353.869)" fill="#f3e8dc"/>
      <path id="Path_319" data-name="Path 319" d="M104.953,402.225c-.441,2.369-.983,5.7-.589,7.405-1.138-.375-3.668-.082-4.634-.792.979-2.463,1.477-6.077,2.212-8.888a6.265,6.265,0,0,0,3.2,2.178" transform="translate(-45.906 -354.058)" fill="#f3e8dc"/>
      <path id="Path_320" data-name="Path 320" d="M109.021,398.564a.75.75,0,0,1,.9.306,1.425,1.425,0,0,1,.156,1.013,1.311,1.311,0,0,1-.293.681,1.134,1.134,0,0,1-.986.3,2.921,2.921,0,0,1-.992-.383l.855-1.986" transform="translate(-46.068 -354.028)" fill="#f3e8dc"/>
      <path id="Path_321" data-name="Path 321" d="M101.587,395.5c.093-.192-.1-.407-.295-.479-.565-.21-1.457-.023-1.633.562-.44,1.462.7,1.814,1.049,2.113a14.907,14.907,0,0,1,1-2.311" transform="translate(-45.902 -353.957)" fill="#f3e8dc"/>
      <path id="Path_322" data-name="Path 322" d="M101.547,391.506a1.806,1.806,0,0,0,.281,2.412,5.258,5.258,0,0,0,2.421,1.1l3.369.874a6.4,6.4,0,0,1,1.934.733,2.169,2.169,0,0,1,1.058,1.693,12.445,12.445,0,0,0,1.084-4.512,4.23,4.23,0,0,0-2.184-3.846,5.1,5.1,0,0,0-1.179-.336,8.4,8.4,0,0,0-4.019.115,4.738,4.738,0,0,0-2.995,2.552" transform="translate(-45.935 -353.846)" fill="#040405"/>
      <path id="Path_323" data-name="Path 323" d="M162.38,466.012a32.193,32.193,0,0,0-9.516-2.1,4.6,4.6,0,0,1-1.457-.244c-.417-.171-.842-.483-1.275-.351a1.493,1.493,0,0,0-.751.8q-.6,1.1-1.2,2.194a1.144,1.144,0,0,0-.171.462.61.61,0,0,0,0,.085c-.032,0-.065,0-.1,0-1.491.044-17.351,6.15-22.112,7.806-6.066,2.109-12.549,5.269-12.759,5.116-.273-.2-.086-3.309-.1-3.66-.232-4.475-3.474-4.387-1.546-8.41s4.217-7.894,5.536-12.174,1.558-9.172-.554-13.048l-1.973-.906c-2.611,1.854-3.989,1.376-7.119,1.163l-3.829-.26a1.673,1.673,0,0,0-1.322.292,1.737,1.737,0,0,0-.4.9c-.433,2.055-17.312,45.022.632,51.044a14.091,14.091,0,0,0,3.9.612c10.6.448,34.919-12.958,42.8-23.736a15.8,15.8,0,0,1,6.059-2.556,37.65,37.65,0,0,0,6.721-2.368C162.127,466.554,162.468,466.315,162.38,466.012Z" transform="translate(-45.793 -354.895)" fill="#f3e8dc"/>
      <path id="Path_324" data-name="Path 324" d="M149.171,466.529l3.287.04a9.018,9.018,0,0,1,4.472.829c.956.552,1.793,1.476,2.881,1.55a4.09,4.09,0,0,0,1.726-.4l2.984-1.167a.747.747,0,0,0,.35-.223c.3-.4-.266-.877-.718-1.011-4.3-1.273-8.808-1.624-13.158-2.711a1.74,1.74,0,0,0-.926-.064,1.61,1.61,0,0,0-.915,1.367c-.09.585-.041,1.191-.189,1.762" transform="translate(-46.896 -355.332)" fill="#a30f17"/>
      <path id="Path_325" data-name="Path 325" d="M137.313,462.31l3.286.05a9.286,9.286,0,0,1,4.472.817c.958.537,1.8,1.436,2.886,1.511a4.175,4.175,0,0,0,1.724-.383l2.979-1.121a.738.738,0,0,0,.35-.216c.294-.39-.268-.851-.722-.982-4.307-1.247-8.81-1.6-13.162-2.669a1.8,1.8,0,0,0-.926-.065,1.551,1.551,0,0,0-.911,1.322,16.455,16.455,0,0,1-.183,1.706" transform="translate(-46.657 -355.249)" fill="#a30f17"/>
      <path id="Path_326" data-name="Path 326" d="M86.487,437.784c-5.118,9.9-4.792,17.4-5.786,28.346-.192,2.122-1.386,6.275-2.812,7.96,10.064,3.486,15.958,4.608,26.655,4.314,3.534-.1,15.177-2.442,16.3-3.988-3.852-16.463.542-26.271-5.833-34.69-.189-.25-.29-.578-.575-.753a1.994,1.994,0,0,0-.805-.215,153.311,153.311,0,0,0-22.712-1.035c-1.26.036-3.312-.435-4.431.06" transform="translate(-45.466 -354.814)" fill="#d2111c"/>
      <path id="Path_327" data-name="Path 327" d="M100.326,405.713a2.283,2.283,0,0,0,1.613,1.545,1.56,1.56,0,0,0,1.919-.916,30.9,30.9,0,0,1,6.975,2.209,5.242,5.242,0,0,1,2.681,1.89,5.3,5.3,0,0,1,.543,2.234q.679,7.305,1.356,14.608c.191,2.061,3.059,12.565,2.915,12.876-1.86,4-30.357,3.47-34.693-1.287-.147-2.727,4.783-25.244,6.123-29.038a3.1,3.1,0,0,1,2.058-2.275c3.261-.87,5.14-1.68,8.51-1.846" transform="translate(-45.582 -354.174)" fill="#410d0e"/>
      <g id="Group_419" data-name="Group 419" transform="translate(82.888)">
        <path id="Path_328" data-name="Path 328" d="M134.131,364.84l-4-3.056c-.37-.283-.779-.648-.736-1.111.033-.265.838-.01,1.21.183a4.379,4.379,0,0,0,1.14.521.339.339,0,0,0,.34-.077.273.273,0,0,0,.046-.144,1.786,1.786,0,0,0-.194-.917,43.974,43.974,0,0,1-1.924-4.476,3.293,3.293,0,0,1-.146-.566.318.318,0,0,1,.087-.339.314.314,0,0,1,.285-.04.781.781,0,0,1,.391.4,17.365,17.365,0,0,0,1.851,2.762c.086-.063-1.609-2.853-1.727-3.975a.28.28,0,0,1,.167-.29c.122-.049.211.026.286.1.714.7,2.476,3.455,2.477,3.286.006-1.038-1.536-2.438-1.53-3.58,0-.164.026-.312.172-.388.587-.293,2.59,3.592,2.659,3.463.121-.225-.684-2.37-.694-2.979a.335.335,0,0,1,.192-.313.3.3,0,0,1,.353.116,2.494,2.494,0,0,1,.275.366,30.412,30.412,0,0,1,4.063,8.7.429.429,0,0,1,.012.243.42.42,0,0,1-.115.158,5.557,5.557,0,0,1-2.657,1.461,4.7,4.7,0,0,0-2.334.793" transform="translate(-129.39 -353.116)" fill="#f3e8dc"/>
      </g>
      <g id="Group_420" data-name="Group 420" transform="translate(0 16.361)">
        <path id="Path_329" data-name="Path 329" d="M51.222,381.057q.97-2.324,1.939-4.647a1.413,1.413,0,0,0,.083-1.331c-.162-.213-.731.411-.957.763a4.341,4.341,0,0,1-.727,1.021.335.335,0,0,1-.332.1.261.261,0,0,1-.112-.1,1.78,1.78,0,0,1-.29-.892,44.067,44.067,0,0,0-.57-4.838,3.2,3.2,0,0,0-.157-.563c-.041-.114-.1-.232-.245-.251a.316.316,0,0,0-.267.108.781.781,0,0,0-.139.542,17.274,17.274,0,0,1-.222,3.318c-.107-.011-.031-3.275-.491-4.307a.279.279,0,0,0-.289-.168c-.13.019-.17.127-.2.228-.27.962-.419,4.23-.506,4.084-.523-.9.114-2.879-.463-3.865-.082-.142-.177-.258-.344-.251-.655.039-.448,4.407-.573,4.328-.218-.134-.592-2.395-.887-2.927a.335.335,0,0,0-.322-.174c-.16.016-.219.148-.249.277a2.509,2.509,0,0,0-.056.453,30.4,30.4,0,0,0,.829,9.57.329.329,0,0,0,.289.3A5.545,5.545,0,0,0,49,381.773a4.7,4.7,0,0,1,2.418-.479" transform="translate(-44.801 -369.812)" fill="#f3e8dc"/>
      </g>
      <path id="Path_330" data-name="Path 330" d="M90.3,407.4c-5.454,2.434-10.272,1.259-15.571-1.5s-11.193-6.892-14.5-11.868-4.536-8.973-7.258-14.288c-2.115,1.414-5.652,1.153-8.015,2.1,1.229,2.729,3.2,9.431,4.381,12.183,2.219,5.177,7.942,14.1,14.618,19.443,9.071,7.261,16.341,8.431,23.484,10.393.743-5.1,2.428-11.421,3.171-16.521" transform="translate(-44.804 -353.651)" fill="#410d0e"/>
      <path id="Path_331" data-name="Path 331" d="M110.629,407.457c2.633.709,17.936-6.324,20.681-14.491,2.055-6.113,1.974-11.88,1.2-18.284-.55-4.564-.743-6.172-1.292-10.738,2.457-.215,8.714-1.672,8.851-1.2,1.56,5.338,4.322,22.976,1.968,32.48a36.063,36.063,0,0,1-7.59,14.8c-3.48,3.9-8.22,6.427-12.936,8.687-2.831,1.356-5.776,2.67-8.909,2.858-.573-3.982-2.234-8.848-1.525-12.808" transform="translate(-46.125 -353.308)" fill="#410d0e"/>
    </g>
  </g>
</svg>
