<svg xmlns="http://www.w3.org/2000/svg" width="162.853" height="213.783" viewBox="0 0 162.853 213.783">
  <g id="Group_963" data-name="Group 963" transform="translate(-446.227 -661.831)">
    <g id="Group_734" data-name="Group 734" transform="translate(446.227 705.468)">
      <path id="Path_780" data-name="Path 780" d="M607.541,688.241v163.63c0,1.8-1.148,3.259-2.561,3.259H448.786c-1.414,0-2.56-1.459-2.56-3.259V688.241c0-1.8,1.146-3.257,2.56-3.257H604.98C606.393,684.984,607.541,686.443,607.541,688.241Z" transform="translate(-446.227 -684.984)" fill="#a30f17"/>
    </g>
    <path id="Path_781" data-name="Path 781" d="M480.342,735.334c-11.282,4.921-16.471,11.387-19.384,19.59s8.472,56.781,8.472,56.781h62.594s20.457-60.737,16.431-67.809-11.949-8.161-15.879-9.427S480.342,735.334,480.342,735.334Z" transform="translate(12.611 63.909)" fill="#410d0e"/>
    <path id="Path_782" data-name="Path 782" d="M480.453,764.377c-4.953-.778-9.158-6.742-8.621-10.907.4-3.106,3.534-5.317,2.693-7.888-1.623-4.955,2.367-12.138,8.34-12.788,7.693-.841,8.943-5.051,9.917-10.822,1.048-6.2.63-11.723,11.546-16.5s12.988-7.946,11.608-14.105,4.921-16.207,17.177-15.679,18.026,3.549,22.161-2.426,7.558-13.2,16.082-11.035,11.455,15.619,4.919,19.871,2.007,10.221,6.938,13.958,5.015,14.452-5.081,16.968-10.279,6.238-9.993,12.531-6.8,10.784-11.9,10.419-10.577.3-13.361,6.721-3.083,9.5-10.419,10.809-7.861,2.982-9.891,6.994-10.2,5.8-10.2,5.8Z" transform="translate(22.612 0)" fill="#040405"/>
    <path id="Path_783" data-name="Path 783" d="M523.253,753.028c-2.262,5.285-1.2,10.164-26.75,9.925-24.818-.232-24.3-4.122-25.483-9.06,1.57-.58,17.841-6.548,18.367-8.76,1.314-5.547.528-31,.528-31l11.9-1.048s-.349,27.626.234,32.44C502.264,747.327,520.94,751.916,523.253,753.028Z" transform="translate(21.934 45.35)" fill="#f3e8dc"/>
    <circle id="Ellipse_73" data-name="Ellipse 73" cx="9.579" cy="9.579" r="9.579" transform="matrix(0.895, -0.446, 0.446, 0.895, 517.682, 756.924)" fill="#f3e8dc"/>
    <path id="Path_784" data-name="Path 784" d="M475.363,723.6c.162,12.043,3.83,21.684,16.024,21.446,6.983-.138,16.194-9.833,16.032-21.876S505.15,702.4,490.892,701.58C477.073,700.787,475.2,711.558,475.363,723.6Z" transform="translate(25.77 35.131)" fill="#f3e8dc"/>
    <path id="Path_785" data-name="Path 785" d="M493.135,717.593a.81.81,0,1,0,.8-.822A.81.81,0,0,0,493.135,717.593Z" transform="translate(41.501 48.607)" fill="#133e4f"/>
    <path id="Path_786" data-name="Path 786" d="M517.762,726.4c-8.485,1.361-11.736,1.568-14.861-1.333s-.4-12.628-5.321-15.5-7.028,1.21-12.707-.818c-6.071-2.169-8.8.237-8.8.237s-.858-8.272,9.755-9.523,24.085,3.843,28.476,11.235A27.934,27.934,0,0,1,517.762,726.4Z" transform="translate(26.392 33.132)" fill="#040405"/>
    <path id="Path_787" data-name="Path 787" d="M504.751,807.021c7.7-.967,8.02-9.97,9.192-24.253s2.273-36.181,2.273-36.181a28.37,28.37,0,0,0,10.227-4.433c4.308-3.276,6.86-10.434,5.268-10.195s-8.159,5.831-12.42,6.906-5.354.19-7.872,2.786-5.73,20.2-8.329,29.562-5.057,17.258-4.981,24.877S499.033,807.737,504.751,807.021Z" transform="translate(45.899 62.04)" fill="#f3e8dc"/>
    <path id="Path_788" data-name="Path 788" d="M479.164,807.021c-7.7-.967-8.018-9.97-9.192-24.253s-2.273-36.181-2.273-36.181a28.353,28.353,0,0,1-10.225-4.433c-4.31-3.276-6.86-10.434-5.268-10.195s8.157,5.831,12.419,6.906,5.354.19,7.874,2.786,5.728,20.2,8.329,29.562,5.055,17.258,4.979,24.877S484.884,807.737,479.164,807.021Z" transform="translate(4.867 62.04)" fill="#f3e8dc"/>
    <text id="_" data-name="?" transform="translate(468.584 763.629) rotate(-20.13)" fill="#f3e8dc" font-size="44" font-family="IBMPlexSans-Bold, IBM Plex Sans" font-weight="700"><tspan x="0" y="0">?</tspan></text>
    <text id="_2" data-name="?" transform="matrix(0.735, 0.678, -0.678, 0.735, 557.485, 772.672)" fill="#f3e8dc" font-size="33" font-family="IBMPlexSans-Bold, IBM Plex Sans" font-weight="700"><tspan x="0" y="0">?</tspan></text>
  </g>
</svg>
